<?xml version="1.0" encoding="UTF-8" standalone="no"?>
<!DOCTYPE svg PUBLIC "-//W3C//DTD SVG 1.1//EN" "http://www.w3.org/Graphics/SVG/1.1/DTD/svg11.dtd">
<svg xmlns="http://www.w3.org/2000/svg" version="1.1" viewBox="0.00 0.00 1024.00 1024.00">
<g stroke-width="2.00" fill="none" stroke-linecap="butt">
<path stroke="#b4b0a8" vector-effect="non-scaling-stroke" d="
  M 308.02 401.11
  C 310.56 404.19 315.51 407.34 318.08 409.71
  C 321.76 413.11 326.08 415.70 329.96 418.60
  C 337.45 424.18 347.62 430.83 357.74 437.48
  Q 365.76 442.76 387.89 455.85
  Q 393.64 459.26 415.29 470.06
  C 427.05 475.93 439.49 480.80 449.71 484.30
  C 470.95 491.58 493.28 495.87 516.06 495.79
  Q 529.14 495.75 545.53 492.48
  Q 575.63 486.48 603.05 472.82
  C 609.66 469.53 622.28 462.91 630.54 457.42
  Q 655.85 440.61 668.97 429.70
  Q 681.61 419.17 688.42 413.16
  Q 696.66 405.87 711.50 390.75
  Q 715.16 387.02 717.54 383.81
  A 0.72 0.71 -47.2 0 0 717.51 382.92
  Q 715.45 380.51 712.85 378.65
  Q 678.00 353.67 639.13 335.36
  C 611.89 322.54 582.99 313.24 553.42 308.32
  C 505.23 300.29 456.16 306.75 411.70 326.44
  Q 383.65 338.86 358.85 356.37
  Q 357.57 357.28 350.34 362.85
  Q 344.72 367.18 341.87 369.41
  Q 326.08 381.76 314.25 393.00
  Q 310.99 396.10 308.02 399.82
  A 1.03 1.02 -45.3 0 0 308.02 401.11"
/>
<path stroke="#b4b0a8" vector-effect="non-scaling-stroke" d="
  M 604.73 509.11
  A 4.23 4.23 0.0 0 0 600.50 504.88
  A 4.23 4.23 0.0 0 0 596.27 509.11
  A 4.23 4.23 0.0 0 0 600.50 513.34
  A 4.23 4.23 0.0 0 0 604.73 509.11"
/>
<path stroke="#b4b0a8" vector-effect="non-scaling-stroke" d="
  M 661.15 509.06
  A 4.09 4.09 0.0 0 0 657.06 504.97
  A 4.09 4.09 0.0 0 0 652.97 509.06
  A 4.09 4.09 0.0 0 0 657.06 513.15
  A 4.09 4.09 0.0 0 0 661.15 509.06"
/>
<path stroke="#b4b0a8" vector-effect="non-scaling-stroke" d="
  M 284.78 534.89
  L 284.78 537.61
  A 1.13 1.12 0.0 0 0 285.91 538.73
  L 297.82 538.73
  A 0.64 0.64 0.0 0 1 298.46 539.37
  L 298.46 555.31
  A 0.69 0.69 0.0 0 1 297.97 555.97
  C 290.97 558.16 282.10 559.34 275.28 556.03
  C 259.79 548.51 257.79 528.98 268.87 516.81
  C 276.25 508.68 290.10 509.50 298.36 515.22
  A 1.46 1.46 0.0 0 0 300.25 515.02
  L 302.06 513.13
  A 1.28 1.28 0.0 0 0 301.93 511.24
  C 293.15 504.32 279.99 503.99 270.37 509.14
  Q 264.24 512.42 260.69 518.38
  C 254.43 528.86 255.46 543.31 262.49 552.61
  C 272.05 565.25 288.83 564.60 302.31 559.49
  A 1.76 1.76 0.0 0 0 303.45 557.84
  L 303.45 534.61
  A 0.67 0.66 0.0 0 0 302.78 533.95
  L 285.73 533.95
  A 0.95 0.94 0.0 0 0 284.78 534.89"
/>
<path stroke="#b4b0a8" vector-effect="non-scaling-stroke" d="
  M 221.72 531.27
  L 221.72 507.99
  A 1.43 1.42 0.0 0 0 220.29 506.57
  L 218.12 506.57
  A 1.52 1.51 0.0 0 0 216.60 508.08
  L 216.60 560.97
  A 1.13 1.13 0.0 0 0 217.73 562.10
  L 220.52 562.10
  A 1.25 1.25 0.0 0 0 221.77 560.85
  L 221.77 534.70
  A 0.25 0.25 0.0 0 1 222.20 534.53
  L 246.66 560.62
  A 4.86 4.86 0.0 0 0 250.20 562.15
  L 253.76 562.15
  A 0.63 0.63 0.0 0 0 254.22 561.08
  L 229.89 535.12
  A 3.41 3.36 18.0 0 1 229.03 533.46
  Q 228.73 532.16 230.52 530.50
  Q 232.99 528.20 237.27 523.60
  C 242.23 518.29 247.03 513.45 252.46 507.84
  A 0.73 0.72 22.1 0 0 251.94 506.61
  L 247.98 506.61
  A 4.13 4.13 0.0 0 0 245.00 507.88
  L 222.40 531.54
  A 0.39 0.39 0.0 0 1 221.72 531.27"
/>
<path stroke="#b4b0a8" vector-effect="non-scaling-stroke" d="
  M 343.6365 507.7746
  A 1.03 1.03 0.0 0 0 342.6083 506.7428
  L 339.4883 506.7373
  A 1.03 1.03 0.0 0 0 338.4565 507.7655
  L 338.3635 561.0654
  A 1.03 1.03 0.0 0 0 339.3917 562.0972
  L 342.5117 562.1027
  A 1.03 1.03 0.0 0 0 343.5435 561.0745
  L 343.6365 507.7746"
/>
<path stroke="#b4b0a8" vector-effect="non-scaling-stroke" d="
  M 389.73 529.39
  A 0.50 0.49 45.5 0 1 388.86 529.38
  Q 386.57 525.13 383.68 522.88
  C 379.29 519.48 372.64 520.07 367.96 523.16
  C 366.47 524.14 365.00 526.48 363.58 527.93
  A 0.52 0.52 0.0 0 1 362.69 527.57
  L 362.69 522.87
  A 1.21 1.21 0.0 0 0 361.48 521.66
  L 358.75 521.66
  A 1.03 1.03 0.0 0 0 357.72 522.69
  L 357.72 561.30
  A 0.65 0.65 0.0 0 0 358.37 561.95
  L 361.72 561.95
  A 0.85 0.85 0.0 0 0 362.57 561.10
  Q 362.57 546.81 362.90 539.37
  Q 363.21 532.57 367.39 528.30
  A 3.18 3.01 7.9 0 1 368.27 527.67
  C 372.70 525.63 378.24 525.29 381.95 528.69
  C 384.71 531.21 385.21 534.88 385.30 538.50
  Q 385.57 550.12 385.44 560.94
  A 0.99 0.99 0.0 0 0 386.43 561.94
  L 389.25 561.94
  A 0.98 0.98 0.0 0 0 390.23 560.93
  Q 389.89 545.81 390.64 538.11
  Q 391.38 530.60 397.11 527.45
  C 404.12 523.59 412.54 527.33 412.83 535.75
  Q 413.20 546.81 412.94 560.46
  A 1.70 1.69 -89.5 0 0 414.63 562.19
  L 416.43 562.19
  A 1.63 1.63 0.0 0 0 418.06 560.57
  Q 418.26 538.78 418.15 535.54
  Q 417.93 528.70 412.97 523.42
  A 3.54 3.50 -7.4 0 0 411.97 522.66
  C 403.66 518.41 394.24 521.48 389.73 529.39"
/>
<path stroke="#b4b0a8" vector-effect="non-scaling-stroke" d="
  M 436.24 527.83
  L 436.24 523.02
  A 1.16 1.15 -90.0 0 0 435.09 521.86
  L 432.12 521.86
  A 0.85 0.84 90.0 0 0 431.28 522.71
  L 431.28 561.12
  A 1.03 1.03 0.0 0 0 432.31 562.15
  L 435.50 562.15
  A 0.95 0.95 0.0 0 0 436.45 561.21
  Q 436.54 541.12 436.60 540.27
  C 437.10 532.82 440.31 525.58 449.03 525.88
  C 454.81 526.09 458.50 529.94 458.76 535.76
  C 459.16 544.82 458.71 555.19 458.75 560.18
  A 2.05 2.04 89.9 0 0 460.79 562.22
  L 462.31 562.22
  A 2.06 2.06 0.0 0 0 464.37 560.25
  C 464.64 554.02 464.00 546.62 464.42 539.07
  C 464.71 533.70 466.52 529.28 471.50 527.03
  C 477.54 524.30 484.04 526.58 486.29 532.98
  Q 487.02 535.03 486.86 540.15
  Q 486.60 549.19 486.90 560.63
  A 1.60 1.60 0.0 0 0 488.50 562.19
  L 490.57 562.19
  A 1.56 1.56 0.0 0 0 492.13 560.63
  Q 492.17 549.38 492.11 538.88
  C 492.06 530.40 489.10 521.34 479.11 520.78
  Q 469.24 520.22 463.69 529.12
  A 0.62 0.61 45.7 0 1 462.64 529.10
  C 459.83 524.35 456.94 521.21 451.19 520.84
  Q 442.21 520.25 437.32 528.13
  A 0.58 0.58 0.0 0 1 436.24 527.83"
/>
<path stroke="#b4b0a8" vector-effect="non-scaling-stroke" d="
  M 524.0957 520.7386
  A 21.15 20.54 -87.6 0 0 502.6880 541.0099
  A 21.15 20.54 -87.6 0 0 522.3243 563.0014
  A 21.15 20.54 -87.6 0 0 543.7320 542.7301
  A 21.15 20.54 -87.6 0 0 524.0957 520.7386"
/>
<path stroke="#b4b0a8" vector-effect="non-scaling-stroke" d="
  M 727.89 527.63
  L 727.89 522.90
  A 1.15 1.15 0.0 0 0 726.74 521.75
  L 723.63 521.75
  A 1.04 1.03 90.0 0 0 722.60 522.79
  L 722.60 560.74
  A 1.52 1.52 0.0 0 0 724.12 562.26
  L 726.29 562.26
  A 1.73 1.73 0.0 0 0 728.02 560.55
  Q 728.13 550.53 728.13 541.01
  C 728.13 533.95 731.22 526.96 739.05 526.11
  Q 749.69 524.96 752.41 534.84
  A 3.12 2.98 38.5 0 1 752.52 535.65
  L 752.52 561.40
  A 0.62 0.62 0.0 0 0 753.14 562.02
  L 756.68 562.02
  A 0.71 0.70 90.0 0 0 757.38 561.31
  Q 757.38 540.87 757.38 538.52
  C 757.38 533.19 756.43 528.72 752.80 524.76
  C 748.66 520.26 741.06 519.98 735.73 522.07
  Q 731.57 523.70 728.94 527.93
  A 0.57 0.57 0.0 0 1 727.89 527.63"
/>
<path stroke="#b4b0a8" vector-effect="non-scaling-stroke" d="
  M 640.29 529.11
  Q 640.78 527.58 641.83 526.72
  A 1.02 1.01 42.4 0 0 641.75 525.09
  Q 633.82 519.78 624.64 521.46
  C 619.65 522.37 615.55 525.98 614.99 531.27
  C 613.28 547.59 639.50 541.21 638.39 552.18
  C 638.02 555.83 634.80 558.21 631.23 558.42
  Q 623.00 558.90 616.90 553.98
  A 0.94 0.94 0.0 0 0 615.50 554.24
  L 614.04 556.76
  A 0.99 0.99 0.0 0 0 614.32 558.05
  Q 620.10 562.15 626.71 562.71
  C 634.71 563.39 643.57 560.08 643.26 550.71
  C 643.03 543.77 636.79 541.63 631.07 540.09
  Q 628.38 539.37 623.40 537.42
  C 619.64 535.94 618.16 531.09 621.37 528.16
  Q 623.20 526.49 626.31 526.10
  Q 633.70 525.18 639.01 529.50
  A 0.81 0.81 0.0 0 0 640.29 529.11"
/>
<path stroke="#b4b0a8" vector-effect="non-scaling-stroke" d="
  M 691.6214 520.8126
  A 21.10 20.58 -89.1 0 0 670.7125 541.5867
  A 21.10 20.58 -89.1 0 0 690.9586 563.0074
  A 21.10 20.58 -89.1 0 0 711.8675 542.2333
  A 21.10 20.58 -89.1 0 0 691.6214 520.8126"
/>
<path stroke="#b4b0a8" vector-effect="non-scaling-stroke" d="
  M 568.71 561.94
  Q 570.09 561.94 570.72 561.89
  A 1.27 1.26 -80.7 0 0 571.80 561.11
  L 587.94 522.80
  A 0.69 0.69 0.0 0 0 587.30 521.84
  L 583.98 521.84
  A 1.65 1.64 -78.8 0 0 582.46 522.86
  L 569.01 555.58
  A 0.04 0.03 -15.2 0 1 568.99 555.61
  Q 568.86 555.67 568.73 555.67
  Q 568.59 555.67 568.46 555.61
  A 0.04 0.03 15.4 0 1 568.44 555.58
  L 555.13 522.80
  A 1.65 1.64 79.0 0 0 553.61 521.78
  L 550.30 521.76
  A 0.69 0.69 0.0 0 0 549.65 522.72
  L 565.63 561.10
  A 1.27 1.26 80.9 0 0 566.71 561.88
  Q 567.34 561.93 568.71 561.94"
/>
<path stroke="#b4b0a8" vector-effect="non-scaling-stroke" d="
  M 602.8337 522.5344
  A 0.78 0.78 0.0 0 0 602.0551 521.7530
  L 598.6351 521.7470
  A 0.78 0.78 0.0 0 0 597.8537 522.5257
  L 597.7863 561.1656
  A 0.78 0.78 0.0 0 0 598.5649 561.9470
  L 601.9849 561.9530
  A 0.78 0.78 0.0 0 0 602.7663 561.1743
  L 602.8337 522.5344"
/>
<path stroke="#b4b0a8" vector-effect="non-scaling-stroke" d="
  M 659.35 522.44
  A 0.59 0.59 0.0 0 0 658.76 521.85
  L 655.14 521.85
  A 0.59 0.59 0.0 0 0 654.55 522.44
  L 654.55 561.44
  A 0.59 0.59 0.0 0 0 655.14 562.03
  L 658.76 562.03
  A 0.59 0.59 0.0 0 0 659.35 561.44
  L 659.35 522.44"
/>
<path stroke="#b4b0a8" vector-effect="non-scaling-stroke" d="
  M 315.52 401.04
  Q 316.09 401.66 316.95 402.29
  Q 340.64 419.66 362.27 432.97
  C 393.16 451.98 422.58 467.41 454.77 477.44
  Q 468.98 481.87 482.50 483.99
  C 513.45 488.84 544.04 481.99 572.32 468.33
  Q 594.00 457.86 613.64 443.87
  Q 643.83 422.37 669.86 395.61
  Q 671.98 393.43 673.22 391.04
  A 1.14 1.14 0.0 0 0 672.99 389.68
  Q 670.33 387.21 667.37 385.12
  Q 629.26 358.33 588.25 341.54
  Q 565.44 332.20 543.24 327.02
  Q 500.97 317.17 458.23 325.75
  Q 436.85 330.05 416.72 337.79
  Q 396.89 345.41 374.98 357.75
  C 369.21 361.00 364.80 364.12 359.38 367.23
  C 352.12 371.41 344.67 377.41 338.35 381.60
  Q 336.07 383.11 329.03 388.84
  Q 325.15 392.00 315.60 399.88
  A 0.81 0.81 0.0 0 0 315.52 401.04"
/>
<path stroke="#b4b0a8" vector-effect="non-scaling-stroke" d="
  M 521.8120 525.8425
  A 16.31 15.15 -94.6 0 0 508.0188 543.3150
  A 16.31 15.15 -94.6 0 0 524.4280 558.3575
  A 16.31 15.15 -94.6 0 0 538.2212 540.8850
  A 16.31 15.15 -94.6 0 0 521.8120 525.8425"
/>
<path stroke="#b4b0a8" vector-effect="non-scaling-stroke" d="
  M 690.5979 525.7790
  A 16.35 15.17 -91.9 0 0 675.9783 542.6230
  A 16.35 15.17 -91.9 0 0 691.6821 558.4610
  A 16.35 15.17 -91.9 0 0 706.3017 541.6170
  A 16.35 15.17 -91.9 0 0 690.5979 525.7790"
/>
</g>
<path fill="#ffffff" d="
  M 1024.00 0.00
  L 1024.00 1024.00
  L 0.00 1024.00
  L 0.00 0.00
  L 1024.00 0.00
  Z
  M 308.02 401.11
  C 310.56 404.19 315.51 407.34 318.08 409.71
  C 321.76 413.11 326.08 415.70 329.96 418.60
  C 337.45 424.18 347.62 430.83 357.74 437.48
  Q 365.76 442.76 387.89 455.85
  Q 393.64 459.26 415.29 470.06
  C 427.05 475.93 439.49 480.80 449.71 484.30
  C 470.95 491.58 493.28 495.87 516.06 495.79
  Q 529.14 495.75 545.53 492.48
  Q 575.63 486.48 603.05 472.82
  C 609.66 469.53 622.28 462.91 630.54 457.42
  Q 655.85 440.61 668.97 429.70
  Q 681.61 419.17 688.42 413.16
  Q 696.66 405.87 711.50 390.75
  Q 715.16 387.02 717.54 383.81
  A 0.72 0.71 -47.2 0 0 717.51 382.92
  Q 715.45 380.51 712.85 378.65
  Q 678.00 353.67 639.13 335.36
  C 611.89 322.54 582.99 313.24 553.42 308.32
  C 505.23 300.29 456.16 306.75 411.70 326.44
  Q 383.65 338.86 358.85 356.37
  Q 357.57 357.28 350.34 362.85
  Q 344.72 367.18 341.87 369.41
  Q 326.08 381.76 314.25 393.00
  Q 310.99 396.10 308.02 399.82
  A 1.03 1.02 -45.3 0 0 308.02 401.11
  Z
  M 604.73 509.11
  A 4.23 4.23 0.0 0 0 600.50 504.88
  A 4.23 4.23 0.0 0 0 596.27 509.11
  A 4.23 4.23 0.0 0 0 600.50 513.34
  A 4.23 4.23 0.0 0 0 604.73 509.11
  Z
  M 661.15 509.06
  A 4.09 4.09 0.0 0 0 657.06 504.97
  A 4.09 4.09 0.0 0 0 652.97 509.06
  A 4.09 4.09 0.0 0 0 657.06 513.15
  A 4.09 4.09 0.0 0 0 661.15 509.06
  Z
  M 284.78 534.89
  L 284.78 537.61
  A 1.13 1.12 0.0 0 0 285.91 538.73
  L 297.82 538.73
  A 0.64 0.64 0.0 0 1 298.46 539.37
  L 298.46 555.31
  A 0.69 0.69 0.0 0 1 297.97 555.97
  C 290.97 558.16 282.10 559.34 275.28 556.03
  C 259.79 548.51 257.79 528.98 268.87 516.81
  C 276.25 508.68 290.10 509.50 298.36 515.22
  A 1.46 1.46 0.0 0 0 300.25 515.02
  L 302.06 513.13
  A 1.28 1.28 0.0 0 0 301.93 511.24
  C 293.15 504.32 279.99 503.99 270.37 509.14
  Q 264.24 512.42 260.69 518.38
  C 254.43 528.86 255.46 543.31 262.49 552.61
  C 272.05 565.25 288.83 564.60 302.31 559.49
  A 1.76 1.76 0.0 0 0 303.45 557.84
  L 303.45 534.61
  A 0.67 0.66 0.0 0 0 302.78 533.95
  L 285.73 533.95
  A 0.95 0.94 0.0 0 0 284.78 534.89
  Z
  M 221.72 531.27
  L 221.72 507.99
  A 1.43 1.42 0.0 0 0 220.29 506.57
  L 218.12 506.57
  A 1.52 1.51 0.0 0 0 216.60 508.08
  L 216.60 560.97
  A 1.13 1.13 0.0 0 0 217.73 562.10
  L 220.52 562.10
  A 1.25 1.25 0.0 0 0 221.77 560.85
  L 221.77 534.70
  A 0.25 0.25 0.0 0 1 222.20 534.53
  L 246.66 560.62
  A 4.86 4.86 0.0 0 0 250.20 562.15
  L 253.76 562.15
  A 0.63 0.63 0.0 0 0 254.22 561.08
  L 229.89 535.12
  A 3.41 3.36 18.0 0 1 229.03 533.46
  Q 228.73 532.16 230.52 530.50
  Q 232.99 528.20 237.27 523.60
  C 242.23 518.29 247.03 513.45 252.46 507.84
  A 0.73 0.72 22.1 0 0 251.94 506.61
  L 247.98 506.61
  A 4.13 4.13 0.0 0 0 245.00 507.88
  L 222.40 531.54
  A 0.39 0.39 0.0 0 1 221.72 531.27
  Z
  M 343.6365 507.7746
  A 1.03 1.03 0.0 0 0 342.6083 506.7428
  L 339.4883 506.7373
  A 1.03 1.03 0.0 0 0 338.4565 507.7655
  L 338.3635 561.0654
  A 1.03 1.03 0.0 0 0 339.3917 562.0972
  L 342.5117 562.1027
  A 1.03 1.03 0.0 0 0 343.5435 561.0745
  L 343.6365 507.7746
  Z
  M 389.73 529.39
  A 0.50 0.49 45.5 0 1 388.86 529.38
  Q 386.57 525.13 383.68 522.88
  C 379.29 519.48 372.64 520.07 367.96 523.16
  C 366.47 524.14 365.00 526.48 363.58 527.93
  A 0.52 0.52 0.0 0 1 362.69 527.57
  L 362.69 522.87
  A 1.21 1.21 0.0 0 0 361.48 521.66
  L 358.75 521.66
  A 1.03 1.03 0.0 0 0 357.72 522.69
  L 357.72 561.30
  A 0.65 0.65 0.0 0 0 358.37 561.95
  L 361.72 561.95
  A 0.85 0.85 0.0 0 0 362.57 561.10
  Q 362.57 546.81 362.90 539.37
  Q 363.21 532.57 367.39 528.30
  A 3.18 3.01 7.9 0 1 368.27 527.67
  C 372.70 525.63 378.24 525.29 381.95 528.69
  C 384.71 531.21 385.21 534.88 385.30 538.50
  Q 385.57 550.12 385.44 560.94
  A 0.99 0.99 0.0 0 0 386.43 561.94
  L 389.25 561.94
  A 0.98 0.98 0.0 0 0 390.23 560.93
  Q 389.89 545.81 390.64 538.11
  Q 391.38 530.60 397.11 527.45
  C 404.12 523.59 412.54 527.33 412.83 535.75
  Q 413.20 546.81 412.94 560.46
  A 1.70 1.69 -89.5 0 0 414.63 562.19
  L 416.43 562.19
  A 1.63 1.63 0.0 0 0 418.06 560.57
  Q 418.26 538.78 418.15 535.54
  Q 417.93 528.70 412.97 523.42
  A 3.54 3.50 -7.4 0 0 411.97 522.66
  C 403.66 518.41 394.24 521.48 389.73 529.39
  Z
  M 436.24 527.83
  L 436.24 523.02
  A 1.16 1.15 -90.0 0 0 435.09 521.86
  L 432.12 521.86
  A 0.85 0.84 90.0 0 0 431.28 522.71
  L 431.28 561.12
  A 1.03 1.03 0.0 0 0 432.31 562.15
  L 435.50 562.15
  A 0.95 0.95 0.0 0 0 436.45 561.21
  Q 436.54 541.12 436.60 540.27
  C 437.10 532.82 440.31 525.58 449.03 525.88
  C 454.81 526.09 458.50 529.94 458.76 535.76
  C 459.16 544.82 458.71 555.19 458.75 560.18
  A 2.05 2.04 89.9 0 0 460.79 562.22
  L 462.31 562.22
  A 2.06 2.06 0.0 0 0 464.37 560.25
  C 464.64 554.02 464.00 546.62 464.42 539.07
  C 464.71 533.70 466.52 529.28 471.50 527.03
  C 477.54 524.30 484.04 526.58 486.29 532.98
  Q 487.02 535.03 486.86 540.15
  Q 486.60 549.19 486.90 560.63
  A 1.60 1.60 0.0 0 0 488.50 562.19
  L 490.57 562.19
  A 1.56 1.56 0.0 0 0 492.13 560.63
  Q 492.17 549.38 492.11 538.88
  C 492.06 530.40 489.10 521.34 479.11 520.78
  Q 469.24 520.22 463.69 529.12
  A 0.62 0.61 45.7 0 1 462.64 529.10
  C 459.83 524.35 456.94 521.21 451.19 520.84
  Q 442.21 520.25 437.32 528.13
  A 0.58 0.58 0.0 0 1 436.24 527.83
  Z
  M 524.0957 520.7386
  A 21.15 20.54 -87.6 0 0 502.6880 541.0099
  A 21.15 20.54 -87.6 0 0 522.3243 563.0014
  A 21.15 20.54 -87.6 0 0 543.7320 542.7301
  A 21.15 20.54 -87.6 0 0 524.0957 520.7386
  Z
  M 727.89 527.63
  L 727.89 522.90
  A 1.15 1.15 0.0 0 0 726.74 521.75
  L 723.63 521.75
  A 1.04 1.03 90.0 0 0 722.60 522.79
  L 722.60 560.74
  A 1.52 1.52 0.0 0 0 724.12 562.26
  L 726.29 562.26
  A 1.73 1.73 0.0 0 0 728.02 560.55
  Q 728.13 550.53 728.13 541.01
  C 728.13 533.95 731.22 526.96 739.05 526.11
  Q 749.69 524.96 752.41 534.84
  A 3.12 2.98 38.5 0 1 752.52 535.65
  L 752.52 561.40
  A 0.62 0.62 0.0 0 0 753.14 562.02
  L 756.68 562.02
  A 0.71 0.70 90.0 0 0 757.38 561.31
  Q 757.38 540.87 757.38 538.52
  C 757.38 533.19 756.43 528.72 752.80 524.76
  C 748.66 520.26 741.06 519.98 735.73 522.07
  Q 731.57 523.70 728.94 527.93
  A 0.57 0.57 0.0 0 1 727.89 527.63
  Z
  M 640.29 529.11
  Q 640.78 527.58 641.83 526.72
  A 1.02 1.01 42.4 0 0 641.75 525.09
  Q 633.82 519.78 624.64 521.46
  C 619.65 522.37 615.55 525.98 614.99 531.27
  C 613.28 547.59 639.50 541.21 638.39 552.18
  C 638.02 555.83 634.80 558.21 631.23 558.42
  Q 623.00 558.90 616.90 553.98
  A 0.94 0.94 0.0 0 0 615.50 554.24
  L 614.04 556.76
  A 0.99 0.99 0.0 0 0 614.32 558.05
  Q 620.10 562.15 626.71 562.71
  C 634.71 563.39 643.57 560.08 643.26 550.71
  C 643.03 543.77 636.79 541.63 631.07 540.09
  Q 628.38 539.37 623.40 537.42
  C 619.64 535.94 618.16 531.09 621.37 528.16
  Q 623.20 526.49 626.31 526.10
  Q 633.70 525.18 639.01 529.50
  A 0.81 0.81 0.0 0 0 640.29 529.11
  Z
  M 691.6214 520.8126
  A 21.10 20.58 -89.1 0 0 670.7125 541.5867
  A 21.10 20.58 -89.1 0 0 690.9586 563.0074
  A 21.10 20.58 -89.1 0 0 711.8675 542.2333
  A 21.10 20.58 -89.1 0 0 691.6214 520.8126
  Z
  M 568.71 561.94
  Q 570.09 561.94 570.72 561.89
  A 1.27 1.26 -80.7 0 0 571.80 561.11
  L 587.94 522.80
  A 0.69 0.69 0.0 0 0 587.30 521.84
  L 583.98 521.84
  A 1.65 1.64 -78.8 0 0 582.46 522.86
  L 569.01 555.58
  A 0.04 0.03 -15.2 0 1 568.99 555.61
  Q 568.86 555.67 568.73 555.67
  Q 568.59 555.67 568.46 555.61
  A 0.04 0.03 15.4 0 1 568.44 555.58
  L 555.13 522.80
  A 1.65 1.64 79.0 0 0 553.61 521.78
  L 550.30 521.76
  A 0.69 0.69 0.0 0 0 549.65 522.72
  L 565.63 561.10
  A 1.27 1.26 80.9 0 0 566.71 561.88
  Q 567.34 561.93 568.71 561.94
  Z
  M 602.8337 522.5344
  A 0.78 0.78 0.0 0 0 602.0551 521.7530
  L 598.6351 521.7470
  A 0.78 0.78 0.0 0 0 597.8537 522.5257
  L 597.7863 561.1656
  A 0.78 0.78 0.0 0 0 598.5649 561.9470
  L 601.9849 561.9530
  A 0.78 0.78 0.0 0 0 602.7663 561.1743
  L 602.8337 522.5344
  Z
  M 659.35 522.44
  A 0.59 0.59 0.0 0 0 658.76 521.85
  L 655.14 521.85
  A 0.59 0.59 0.0 0 0 654.55 522.44
  L 654.55 561.44
  A 0.59 0.59 0.0 0 0 655.14 562.03
  L 658.76 562.03
  A 0.59 0.59 0.0 0 0 659.35 561.44
  L 659.35 522.44
  Z"
/>
<path fill="#696150" d="
  M 308.02 401.11
  A 1.03 1.02 -45.3 0 1 308.02 399.82
  Q 310.99 396.10 314.25 393.00
  Q 326.08 381.76 341.87 369.41
  Q 344.72 367.18 350.34 362.85
  Q 357.57 357.28 358.85 356.37
  Q 383.65 338.86 411.70 326.44
  C 456.16 306.75 505.23 300.29 553.42 308.32
  C 582.99 313.24 611.89 322.54 639.13 335.36
  Q 678.00 353.67 712.85 378.65
  Q 715.45 380.51 717.51 382.92
  A 0.72 0.71 -47.2 0 1 717.54 383.81
  Q 715.16 387.02 711.50 390.75
  Q 696.66 405.87 688.42 413.16
  Q 681.61 419.17 668.97 429.70
  Q 655.85 440.61 630.54 457.42
  C 622.28 462.91 609.66 469.53 603.05 472.82
  Q 575.63 486.48 545.53 492.48
  Q 529.14 495.75 516.06 495.79
  C 493.28 495.87 470.95 491.58 449.71 484.30
  C 439.49 480.80 427.05 475.93 415.29 470.06
  Q 393.64 459.26 387.89 455.85
  Q 365.76 442.76 357.74 437.48
  C 347.62 430.83 337.45 424.18 329.96 418.60
  C 326.08 415.70 321.76 413.11 318.08 409.71
  C 315.51 407.34 310.56 404.19 308.02 401.11
  Z
  M 315.52 401.04
  Q 316.09 401.66 316.95 402.29
  Q 340.64 419.66 362.27 432.97
  C 393.16 451.98 422.58 467.41 454.77 477.44
  Q 468.98 481.87 482.50 483.99
  C 513.45 488.84 544.04 481.99 572.32 468.33
  Q 594.00 457.86 613.64 443.87
  Q 643.83 422.37 669.86 395.61
  Q 671.98 393.43 673.22 391.04
  A 1.14 1.14 0.0 0 0 672.99 389.68
  Q 670.33 387.21 667.37 385.12
  Q 629.26 358.33 588.25 341.54
  Q 565.44 332.20 543.24 327.02
  Q 500.97 317.17 458.23 325.75
  Q 436.85 330.05 416.72 337.79
  Q 396.89 345.41 374.98 357.75
  C 369.21 361.00 364.80 364.12 359.38 367.23
  C 352.12 371.41 344.67 377.41 338.35 381.60
  Q 336.07 383.11 329.03 388.84
  Q 325.15 392.00 315.60 399.88
  A 0.81 0.81 0.0 0 0 315.52 401.04
  Z"
/>
<path fill="#ffffff" d="
  M 315.52 401.04
  A 0.81 0.81 0.0 0 1 315.60 399.88
  Q 325.15 392.00 329.03 388.84
  Q 336.07 383.11 338.35 381.60
  C 344.67 377.41 352.12 371.41 359.38 367.23
  C 364.80 364.12 369.21 361.00 374.98 357.75
  Q 396.89 345.41 416.72 337.79
  Q 436.85 330.05 458.23 325.75
  Q 500.97 317.17 543.24 327.02
  Q 565.44 332.20 588.25 341.54
  Q 629.26 358.33 667.37 385.12
  Q 670.33 387.21 672.99 389.68
  A 1.14 1.14 0.0 0 1 673.22 391.04
  Q 671.98 393.43 669.86 395.61
  Q 643.83 422.37 613.64 443.87
  Q 594.00 457.86 572.32 468.33
  C 544.04 481.99 513.45 488.84 482.50 483.99
  Q 468.98 481.87 454.77 477.44
  C 422.58 467.41 393.16 451.98 362.27 432.97
  Q 340.64 419.66 316.95 402.29
  Q 316.09 401.66 315.52 401.04
  Z"
/>
<circle fill="#696150" cx="600.50" cy="509.11" r="4.23"/>
<circle fill="#696150" cx="657.06" cy="509.06" r="4.09"/>
<path fill="#696150" d="
  M 285.73 533.95
  L 302.78 533.95
  A 0.67 0.66 0.0 0 1 303.45 534.61
  L 303.45 557.84
  A 1.76 1.76 0.0 0 1 302.31 559.49
  C 288.83 564.60 272.05 565.25 262.49 552.61
  C 255.46 543.31 254.43 528.86 260.69 518.38
  Q 264.24 512.42 270.37 509.14
  C 279.99 503.99 293.15 504.32 301.93 511.24
  A 1.28 1.28 0.0 0 1 302.06 513.13
  L 300.25 515.02
  A 1.46 1.46 0.0 0 1 298.36 515.22
  C 290.10 509.50 276.25 508.68 268.87 516.81
  C 257.79 528.98 259.79 548.51 275.28 556.03
  C 282.10 559.34 290.97 558.16 297.97 555.97
  A 0.69 0.69 0.0 0 0 298.46 555.31
  L 298.46 539.37
  A 0.64 0.64 0.0 0 0 297.82 538.73
  L 285.91 538.73
  A 1.13 1.12 0.0 0 1 284.78 537.61
  L 284.78 534.89
  A 0.95 0.94 -0.0 0 1 285.73 533.95
  Z"
/>
<path fill="#696150" d="
  M 221.72 531.27
  A 0.39 0.39 0.0 0 0 222.40 531.54
  L 245.00 507.88
  A 4.13 4.13 0.0 0 1 247.98 506.61
  L 251.94 506.61
  A 0.73 0.72 22.1 0 1 252.46 507.84
  C 247.03 513.45 242.23 518.29 237.27 523.60
  Q 232.99 528.20 230.52 530.50
  Q 228.73 532.16 229.03 533.46
  A 3.41 3.36 18.0 0 0 229.89 535.12
  L 254.22 561.08
  A 0.63 0.63 0.0 0 1 253.76 562.15
  L 250.20 562.15
  A 4.86 4.86 0.0 0 1 246.66 560.62
  L 222.20 534.53
  A 0.25 0.25 0.0 0 0 221.77 534.70
  L 221.77 560.85
  A 1.25 1.25 0.0 0 1 220.52 562.10
  L 217.73 562.10
  A 1.13 1.13 0.0 0 1 216.60 560.97
  L 216.60 508.08
  A 1.52 1.51 0.0 0 1 218.12 506.57
  L 220.29 506.57
  A 1.43 1.42 0.0 0 1 221.72 507.99
  L 221.72 531.27
  Z"
/>
<rect fill="#696150" x="-2.59" y="-27.68" transform="translate(341.00,534.42) rotate(0.1)" width="5.18" height="55.36" rx="1.03"/>
<path fill="#696150" d="
  M 389.73 529.39
  C 394.24 521.48 403.66 518.41 411.97 522.66
  A 3.54 3.50 -7.4 0 1 412.97 523.42
  Q 417.93 528.70 418.15 535.54
  Q 418.26 538.78 418.06 560.57
  A 1.63 1.63 0.0 0 1 416.43 562.19
  L 414.63 562.19
  A 1.70 1.69 -89.5 0 1 412.94 560.46
  Q 413.20 546.81 412.83 535.75
  C 412.54 527.33 404.12 523.59 397.11 527.45
  Q 391.38 530.60 390.64 538.11
  Q 389.89 545.81 390.23 560.93
  A 0.98 0.98 0.0 0 1 389.25 561.94
  L 386.43 561.94
  A 0.99 0.99 0.0 0 1 385.44 560.94
  Q 385.57 550.12 385.30 538.50
  C 385.21 534.88 384.71 531.21 381.95 528.69
  C 378.24 525.29 372.70 525.63 368.27 527.67
  A 3.18 3.01 7.9 0 0 367.39 528.30
  Q 363.21 532.57 362.90 539.37
  Q 362.57 546.81 362.57 561.10
  A 0.85 0.85 0.0 0 1 361.72 561.95
  L 358.37 561.95
  A 0.65 0.65 0.0 0 1 357.72 561.30
  L 357.72 522.69
  A 1.03 1.03 0.0 0 1 358.75 521.66
  L 361.48 521.66
  A 1.21 1.21 0.0 0 1 362.69 522.87
  L 362.69 527.57
  A 0.52 0.52 0.0 0 0 363.58 527.93
  C 365.00 526.48 366.47 524.14 367.96 523.16
  C 372.64 520.07 379.29 519.48 383.68 522.88
  Q 386.57 525.13 388.86 529.38
  A 0.50 0.49 45.5 0 0 389.73 529.39
  Z"
/>
<path fill="#696150" d="
  M 436.24 527.83
  A 0.58 0.58 0.0 0 0 437.32 528.13
  Q 442.21 520.25 451.19 520.84
  C 456.94 521.21 459.83 524.35 462.64 529.10
  A 0.62 0.61 45.7 0 0 463.69 529.12
  Q 469.24 520.22 479.11 520.78
  C 489.10 521.34 492.06 530.40 492.11 538.88
  Q 492.17 549.38 492.13 560.63
  A 1.56 1.56 0.0 0 1 490.57 562.19
  L 488.50 562.19
  A 1.60 1.60 0.0 0 1 486.90 560.63
  Q 486.60 549.19 486.86 540.15
  Q 487.02 535.03 486.29 532.98
  C 484.04 526.58 477.54 524.30 471.50 527.03
  C 466.52 529.28 464.71 533.70 464.42 539.07
  C 464.00 546.62 464.64 554.02 464.37 560.25
  A 2.06 2.06 0.0 0 1 462.31 562.22
  L 460.79 562.22
  A 2.05 2.04 89.9 0 1 458.75 560.18
  C 458.71 555.19 459.16 544.82 458.76 535.76
  C 458.50 529.94 454.81 526.09 449.03 525.88
  C 440.31 525.58 437.10 532.82 436.60 540.27
  Q 436.54 541.12 436.45 561.21
  A 0.95 0.95 0.0 0 1 435.50 562.15
  L 432.31 562.15
  A 1.03 1.03 0.0 0 1 431.28 561.12
  L 431.28 522.71
  A 0.85 0.84 -90.0 0 1 432.12 521.86
  L 435.09 521.86
  A 1.16 1.15 -90.0 0 1 436.24 523.02
  L 436.24 527.83
  Z"
/>
<path fill="#696150" d="
  M 524.0957 520.7386
  A 21.15 20.54 -87.6 0 1 543.7320 542.7301
  A 21.15 20.54 -87.6 0 1 522.3243 563.0014
  A 21.15 20.54 -87.6 0 1 502.6880 541.0099
  A 21.15 20.54 -87.6 0 1 524.0957 520.7386
  Z
  M 521.8120 525.8425
  A 16.31 15.15 -94.6 0 0 508.0188 543.3150
  A 16.31 15.15 -94.6 0 0 524.4280 558.3575
  A 16.31 15.15 -94.6 0 0 538.2212 540.8850
  A 16.31 15.15 -94.6 0 0 521.8120 525.8425
  Z"
/>
<path fill="#696150" d="
  M 727.89 527.63
  A 0.57 0.57 0.0 0 0 728.94 527.93
  Q 731.57 523.70 735.73 522.07
  C 741.06 519.98 748.66 520.26 752.80 524.76
  C 756.43 528.72 757.38 533.19 757.38 538.52
  Q 757.38 540.87 757.38 561.31
  A 0.71 0.70 90.0 0 1 756.68 562.02
  L 753.14 562.02
  A 0.62 0.62 0.0 0 1 752.52 561.40
  L 752.52 535.65
  A 3.12 2.98 38.5 0 0 752.41 534.84
  Q 749.69 524.96 739.05 526.11
  C 731.22 526.96 728.13 533.95 728.13 541.01
  Q 728.13 550.53 728.02 560.55
  A 1.73 1.73 0.0 0 1 726.29 562.26
  L 724.12 562.26
  A 1.52 1.52 0.0 0 1 722.60 560.74
  L 722.60 522.79
  A 1.04 1.03 90.0 0 1 723.63 521.75
  L 726.74 521.75
  A 1.15 1.15 0.0 0 1 727.89 522.90
  L 727.89 527.63
  Z"
/>
<path fill="#696150" d="
  M 640.29 529.11
  A 0.81 0.81 0.0 0 1 639.01 529.50
  Q 633.70 525.18 626.31 526.10
  Q 623.20 526.49 621.37 528.16
  C 618.16 531.09 619.64 535.94 623.40 537.42
  Q 628.38 539.37 631.07 540.09
  C 636.79 541.63 643.03 543.77 643.26 550.71
  C 643.57 560.08 634.71 563.39 626.71 562.71
  Q 620.10 562.15 614.32 558.05
  A 0.99 0.99 0.0 0 1 614.04 556.76
  L 615.50 554.24
  A 0.94 0.94 0.0 0 1 616.90 553.98
  Q 623.00 558.90 631.23 558.42
  C 634.80 558.21 638.02 555.83 638.39 552.18
  C 639.50 541.21 613.28 547.59 614.99 531.27
  C 615.55 525.98 619.65 522.37 624.64 521.46
  Q 633.82 519.78 641.75 525.09
  A 1.02 1.01 42.4 0 1 641.83 526.72
  Q 640.78 527.58 640.29 529.11
  Z"
/>
<path fill="#696150" d="
  M 691.6214 520.8126
  A 21.10 20.58 -89.1 0 1 711.8675 542.2333
  A 21.10 20.58 -89.1 0 1 690.9586 563.0074
  A 21.10 20.58 -89.1 0 1 670.7125 541.5867
  A 21.10 20.58 -89.1 0 1 691.6214 520.8126
  Z
  M 690.5979 525.7790
  A 16.35 15.17 -91.9 0 0 675.9783 542.6230
  A 16.35 15.17 -91.9 0 0 691.6821 558.4610
  A 16.35 15.17 -91.9 0 0 706.3017 541.6170
  A 16.35 15.17 -91.9 0 0 690.5979 525.7790
  Z"
/>
<path fill="#696150" d="
  M 568.73 555.67
  Q 568.86 555.67 568.99 555.61
  A 0.04 0.03 -15.2 0 0 569.01 555.58
  L 582.46 522.86
  A 1.65 1.64 -78.8 0 1 583.98 521.84
  L 587.30 521.84
  A 0.69 0.69 0.0 0 1 587.94 522.80
  L 571.80 561.11
  A 1.27 1.26 -80.7 0 1 570.72 561.89
  Q 570.09 561.94 568.71 561.94
  Q 567.34 561.93 566.71 561.88
  A 1.27 1.26 80.9 0 1 565.63 561.10
  L 549.65 522.72
  A 0.69 0.69 0.0 0 1 550.30 521.76
  L 553.61 521.78
  A 1.65 1.64 79.0 0 1 555.13 522.80
  L 568.44 555.58
  A 0.04 0.03 15.4 0 0 568.46 555.61
  Q 568.59 555.67 568.73 555.67
  Z"
/>
<rect fill="#696150" x="-2.49" y="-20.10" transform="translate(600.31,541.85) rotate(0.1)" width="4.98" height="40.20" rx="0.78"/>
<rect fill="#696150" x="654.55" y="521.85" width="4.80" height="40.18" rx="0.59"/>
<ellipse fill="#ffffff" cx="0.00" cy="0.00" transform="translate(523.12,542.10) rotate(-94.6)" rx="16.31" ry="15.15"/>
<ellipse fill="#ffffff" cx="0.00" cy="0.00" transform="translate(691.14,542.12) rotate(-91.9)" rx="16.35" ry="15.17"/>
</svg>
