<?xml version="1.0" encoding="UTF-8" standalone="no"?>
<!DOCTYPE svg PUBLIC "-//W3C//DTD SVG 1.1//EN" "http://www.w3.org/Graphics/SVG/1.1/DTD/svg11.dtd">
<svg xmlns="http://www.w3.org/2000/svg" version="1.1" viewBox="0.00 0.00 1024.00 1024.00">
<g stroke-width="2.00" fill="none" stroke-linecap="butt">
<path stroke="#d5d9d3" vector-effect="non-scaling-stroke" d="
  M 287.20 521.96
  Q 299.56 521.96 311.72 518.49
  Q 329.19 513.50 344.22 502.73
  Q 355.57 494.61 359.37 491.12
  Q 364.41 486.50 374.90 476.28
  A 1.80 1.80 0.0 0 0 375.07 473.91
  Q 374.29 472.87 372.13 470.84
  Q 361.97 461.23 350.22 451.97
  C 332.15 437.72 310.42 428.64 287.21 428.64
  C 264.00 428.64 242.26 437.72 224.19 451.96
  Q 212.44 461.23 202.28 470.84
  Q 200.12 472.87 199.34 473.91
  A 1.80 1.80 0.0 0 0 199.51 476.28
  Q 210.00 486.50 215.04 491.12
  Q 218.84 494.61 230.19 502.73
  Q 245.22 513.50 262.69 518.48
  Q 274.85 521.96 287.20 521.96"
/>
<path stroke="#b1b3b2" vector-effect="non-scaling-stroke" d="
  M 498.19 466.68
  L 498.19 469.72
  A 1.38 1.38 0.0 0 0 499.57 471.10
  L 509.41 471.10
  A 1.40 1.40 0.0 0 1 510.81 472.50
  L 510.81 483.33
  A 2.38 2.36 -8.7 0 1 509.14 485.59
  Q 503.70 487.26 497.28 487.64
  C 486.24 488.30 476.78 481.56 475.06 470.30
  C 474.02 463.50 475.80 454.16 481.18 449.31
  Q 484.94 445.93 488.67 444.95
  Q 501.73 441.54 510.51 448.79
  A 1.96 1.96 0.0 0 0 513.15 448.66
  L 514.85 446.97
  A 1.79 1.79 0.0 0 0 514.71 444.31
  C 503.74 435.50 487.37 436.02 477.25 445.37
  C 471.10 451.04 468.52 457.80 468.82 465.97
  C 469.77 491.99 495.67 500.04 515.67 487.85
  A 1.65 1.64 -15.5 0 0 516.47 486.44
  L 516.47 466.45
  A 0.72 0.72 0.0 0 0 515.75 465.73
  L 499.15 465.73
  A 0.96 0.95 0.0 0 0 498.19 466.68"
/>
<path stroke="#d5d9d3" vector-effect="non-scaling-stroke" d="
  M 420.90 439.65
  A 0.94 0.94 0.0 0 0 419.96 438.71
  L 416.10 438.71
  A 0.94 0.94 0.0 0 0 415.16 439.65
  L 415.16 491.17
  A 0.94 0.94 0.0 0 0 416.10 492.11
  L 419.96 492.11
  A 0.94 0.94 0.0 0 0 420.90 491.17
  L 420.90 439.65"
/>
<path stroke="#d5d9d3" vector-effect="non-scaling-stroke" d="
  M 457.87 491.67
  A 1.35 1.35 0.0 0 0 460.21 490.76
  L 460.48 439.82
  A 1.35 1.35 0.0 0 0 458.15 438.88
  L 434.09 464.23
  A 1.35 1.35 0.0 0 0 434.08 466.07
  L 457.87 491.67"
/>
<path stroke="#d5d9d3" vector-effect="non-scaling-stroke" d="
  M 431.0996 439.6099
  A 0.98 0.98 0.0 0 0 430.1230 438.6264
  L 426.5230 438.6139
  A 0.98 0.98 0.0 0 0 425.5396 439.5905
  L 425.3604 490.9301
  A 0.98 0.98 0.0 0 0 426.3370 491.9136
  L 429.9370 491.9261
  A 0.98 0.98 0.0 0 0 430.9204 490.9495
  L 431.0996 439.6099"
/>
<path stroke="#b1b3b2" vector-effect="non-scaling-stroke" d="
  M 622.70 505.52
  A 3.16 3.16 0.0 0 0 619.54 502.36
  A 3.16 3.16 0.0 0 0 616.38 505.52
  A 3.16 3.16 0.0 0 0 619.54 508.68
  A 3.16 3.16 0.0 0 0 622.70 505.52"
/>
<path stroke="#b1b3b2" vector-effect="non-scaling-stroke" d="
  M 665.63 505.45
  A 3.16 3.16 0.0 0 0 662.47 502.29
  A 3.16 3.16 0.0 0 0 659.31 505.45
  A 3.16 3.16 0.0 0 0 662.47 508.61
  A 3.16 3.16 0.0 0 0 665.63 505.45"
/>
<path stroke="#b1b3b2" vector-effect="non-scaling-stroke" d="
  M 852.96 526.29
  A 0.83 0.83 0.0 0 0 852.13 525.46
  L 838.69 525.46
  A 1.10 1.10 0.0 0 0 837.59 526.56
  L 837.59 528.28
  A 1.05 1.05 0.0 0 0 838.64 529.33
  L 847.32 529.33
  A 1.04 1.04 0.0 0 1 848.36 530.37
  L 848.36 540.10
  A 2.18 2.17 78.6 0 1 847.03 542.11
  C 841.84 544.29 832.57 544.70 827.47 541.57
  Q 818.36 535.99 818.84 524.23
  C 819.42 510.21 837.60 501.53 848.16 511.66
  A 1.41 1.41 0.0 0 0 850.14 511.64
  L 851.69 510.10
  A 1.37 1.37 0.0 0 0 851.52 508.02
  C 841.97 501.07 826.95 501.13 819.18 510.94
  C 811.52 520.60 812.30 536.94 823.64 544.00
  C 832.76 549.67 843.41 548.22 852.47 543.58
  A 0.92 0.90 76.7 0 0 852.96 542.77
  L 852.96 526.29"
/>
<path stroke="#b1b3b2" vector-effect="non-scaling-stroke" d="
  M 788.16 535.39
  Q 795.25 535.40 799.04 535.36
  A 1.06 1.06 0.0 0 1 800.03 536.00
  L 804.44 545.86
  A 1.74 1.74 0.0 0 0 806.03 546.89
  L 808.67 546.89
  A 0.76 0.76 0.0 0 0 809.36 545.82
  L 790.87 504.43
  A 1.48 1.48 0.0 0 0 789.69 503.58
  Q 788.74 503.48 788.22 503.48
  Q 787.70 503.48 786.75 503.57
  A 1.48 1.48 0.0 0 0 785.57 504.42
  L 766.93 545.74
  A 0.76 0.76 0.0 0 0 767.62 546.82
  L 770.26 546.83
  A 1.74 1.74 0.0 0 0 771.85 545.80
  L 776.29 535.96
  A 1.06 1.06 0.0 0 1 777.29 535.32
  Q 781.08 535.38 788.16 535.39"
/>
<path stroke="#b1b3b2" vector-effect="non-scaling-stroke" d="
  M 417.42 504.67
  A 0.87 0.87 0.0 0 0 416.55 503.80
  L 413.81 503.80
  A 0.87 0.87 0.0 0 0 412.94 504.67
  L 412.94 545.85
  A 0.87 0.87 0.0 0 0 413.81 546.72
  L 416.55 546.72
  A 0.87 0.87 0.0 0 0 417.42 545.85
  L 417.42 504.67"
/>
<path stroke="#b1b3b2" vector-effect="non-scaling-stroke" d="
  M 432.76 518.83
  L 432.76 515.87
  A 1.01 1.00 0.0 0 0 431.75 514.87
  L 429.81 514.87
  A 1.23 1.23 0.0 0 0 428.58 516.10
  L 428.58 545.84
  A 0.93 0.93 0.0 0 0 429.51 546.77
  L 431.87 546.77
  A 1.00 1.00 0.0 0 0 432.87 545.76
  Q 432.73 535.00 432.90 529.21
  Q 433.07 523.57 436.89 520.39
  C 440.18 517.65 446.35 518.07 448.71 522.08
  Q 450.51 525.15 450.71 528.28
  Q 450.81 529.76 450.90 545.47
  A 1.51 1.51 0.0 0 0 452.41 546.97
  L 453.83 546.97
  A 1.50 1.50 0.0 0 0 455.33 545.51
  Q 455.66 533.05 455.67 528.26
  Q 455.68 522.84 461.14 519.35
  A 2.14 2.04 22.8 0 1 461.93 519.05
  Q 468.94 517.95 471.91 523.23
  Q 473.31 525.72 472.99 534.14
  Q 472.83 538.42 473.02 545.60
  A 1.31 1.30 -0.7 0 0 474.33 546.87
  L 475.87 546.87
  A 1.34 1.33 -0.4 0 0 477.21 545.52
  Q 477.09 535.37 477.16 526.61
  Q 477.22 520.00 472.93 516.15
  A 3.46 3.35 77.0 0 0 472.02 515.56
  Q 462.06 511.17 454.91 519.50
  A 1.00 1.00 0.0 0 1 453.33 519.42
  C 448.46 512.41 438.54 512.28 433.52 519.08
  A 0.42 0.42 0.0 0 1 432.76 518.83"
/>
<path stroke="#b1b3b2" vector-effect="non-scaling-stroke" d="
  M 491.36 518.50
  L 491.36 516.23
  A 1.16 1.16 0.0 0 0 490.20 515.07
  L 487.98 515.07
  A 0.76 0.76 0.0 0 0 487.22 515.83
  L 487.22 545.91
  A 0.87 0.86 -0.0 0 0 488.09 546.77
  L 490.16 546.77
  A 1.01 1.01 0.0 0 0 491.17 545.76
  Q 491.14 533.63 491.35 528.34
  C 491.49 524.72 494.04 519.73 498.15 518.89
  C 504.37 517.62 508.92 521.43 509.34 527.71
  Q 509.65 532.40 509.35 545.35
  A 1.48 1.47 -89.4 0 0 510.82 546.86
  L 512.10 546.86
  A 1.39 1.38 90.0 0 0 513.48 545.47
  Q 513.42 537.48 513.42 530.24
  C 513.41 523.38 517.19 517.24 524.87 518.64
  C 529.11 519.42 531.31 523.11 531.54 527.25
  Q 531.57 527.80 531.69 545.40
  A 1.58 1.58 0.0 0 0 533.27 546.97
  L 534.48 546.97
  A 1.54 1.54 0.0 0 0 536.02 545.48
  Q 536.38 532.74 535.85 524.39
  C 535.53 519.50 532.02 515.61 526.97 514.67
  Q 517.96 513.00 512.99 520.49
  A 0.63 0.62 38.0 0 1 512.05 520.60
  C 511.33 519.95 510.84 518.55 510.06 517.81
  C 504.24 512.25 497.52 513.45 492.18 518.83
  A 0.48 0.48 0.0 0 1 491.36 518.50"
/>
<path stroke="#b1b3b2" vector-effect="non-scaling-stroke" d="
  M 690.0498 514.4129
  A 16.52 16.13 -85.0 0 0 672.5414 529.4642
  A 16.52 16.13 -85.0 0 0 687.1702 547.3271
  A 16.52 16.13 -85.0 0 0 704.6786 532.2758
  A 16.52 16.13 -85.0 0 0 690.0498 514.4129"
/>
<path stroke="#b1b3b2" vector-effect="non-scaling-stroke" d="
  M 717.00 519.85
  L 717.00 516.15
  A 1.08 1.08 0.0 0 0 715.92 515.07
  L 714.01 515.07
  A 1.28 1.28 0.0 0 0 712.73 516.35
  L 712.73 545.39
  A 1.48 1.47 90.0 0 0 714.20 546.87
  L 715.51 546.87
  A 1.43 1.42 0.2 0 0 716.94 545.46
  Q 716.98 541.67 717.20 529.52
  C 717.30 523.49 721.19 518.27 727.62 518.59
  Q 735.41 518.97 736.29 525.90
  Q 737.20 533.06 736.58 546.03
  A 0.71 0.70 1.5 0 0 737.29 546.77
  L 740.01 546.77
  A 0.65 0.64 -0.0 0 0 740.66 546.13
  L 740.86 525.86
  A 0.96 0.66 -61.3 0 0 740.84 525.67
  Q 738.65 514.00 727.31 514.34
  C 723.06 514.47 720.17 516.56 717.92 520.12
  A 0.50 0.50 0.0 0 1 717.00 519.85"
/>
<path stroke="#b1b3b2" vector-effect="non-scaling-stroke" d="
  M 561.1293 514.4145
  A 16.57 16.10 -86.3 0 0 543.9936 529.9110
  A 16.57 16.10 -86.3 0 0 558.9907 547.4855
  A 16.57 16.10 -86.3 0 0 576.1264 531.9890
  A 16.57 16.10 -86.3 0 0 561.1293 514.4145"
/>
<path stroke="#b1b3b2" vector-effect="non-scaling-stroke" d="
  M 651.14 517.83
  C 644.25 512.80 629.54 512.63 630.39 524.57
  Q 630.72 529.16 634.93 530.85
  Q 637.58 531.91 644.61 534.39
  Q 648.60 535.80 647.88 539.71
  Q 647.40 542.27 645.41 542.96
  Q 637.80 545.60 631.47 539.87
  A 0.18 0.18 0.0 0 0 631.22 539.88
  Q 629.98 541.24 629.25 542.98
  A 0.21 0.20 31.7 0 0 629.31 543.22
  C 634.78 547.30 642.38 549.10 648.49 545.37
  Q 651.45 543.56 652.38 539.81
  Q 653.64 534.73 649.22 531.67
  A 4.42 4.32 70.9 0 0 648.08 531.10
  Q 642.93 529.45 637.99 527.76
  Q 634.88 526.69 634.57 523.91
  C 634.11 519.87 637.39 518.10 641.05 518.42
  Q 645.32 518.79 648.25 521.05
  A 1.28 1.28 0.0 0 0 649.95 520.94
  L 651.27 519.62
  A 1.18 1.18 0.0 0 0 651.14 517.83"
/>
<path stroke="#b1b3b2" vector-effect="non-scaling-stroke" d="
  M 595.60 541.15
  Q 595.41 541.15 595.24 541.04
  Q 595.13 540.96 595.04 540.73
  Q 592.15 533.35 584.98 516.07
  A 1.89 1.88 -11.2 0 0 583.24 514.91
  L 581.42 514.91
  A 1.22 1.21 -12.1 0 0 580.31 516.62
  L 593.39 545.90
  A 1.56 1.54 -8.6 0 0 594.65 546.81
  Q 595.02 546.85 595.63 546.85
  Q 596.23 546.85 596.60 546.81
  A 1.56 1.54 8.2 0 0 597.85 545.88
  L 610.72 516.51
  A 1.22 1.21 11.7 0 0 609.60 514.81
  L 607.78 514.82
  A 1.89 1.88 10.8 0 0 606.05 515.99
  Q 599.00 533.33 596.17 540.73
  Q 596.08 540.96 595.97 541.04
  Q 595.80 541.15 595.60 541.15"
/>
<path stroke="#b1b3b2" vector-effect="non-scaling-stroke" d="
  M 621.4740 515.9364
  A 0.99 0.99 0.0 0 0 620.4822 514.9481
  L 618.2823 514.9519
  A 0.99 0.99 0.0 0 0 617.2940 515.9437
  L 617.3460 545.7636
  A 0.99 0.99 0.0 0 0 618.3378 546.7519
  L 620.5377 546.7481
  A 0.99 0.99 0.0 0 0 621.5260 545.7563
  L 621.4740 515.9364"
/>
<path stroke="#b1b3b2" vector-effect="non-scaling-stroke" d="
  M 664.4864 515.8036
  A 0.78 0.78 0.0 0 0 663.7077 515.0222
  L 661.1677 515.0178
  A 0.78 0.78 0.0 0 0 660.3864 515.7964
  L 660.3336 546.0164
  A 0.78 0.78 0.0 0 0 661.1123 546.7978
  L 663.6523 546.8022
  A 0.78 0.78 0.0 0 0 664.4336 546.0236
  L 664.4864 515.8036"
/>
<path stroke="#d5d9d3" vector-effect="non-scaling-stroke" d="
  M 289.57 512.17
  Q 294.67 512.15 295.77 511.97
  Q 311.75 509.39 322.25 497.24
  Q 330.07 488.19 334.02 476.37
  Q 335.10 473.13 334.56 471.59
  Q 333.07 467.30 328.92 460.18
  C 320.71 446.08 306.17 436.82 289.33 436.87
  C 272.50 436.93 258.01 446.27 249.90 460.43
  Q 245.79 467.57 244.33 471.87
  Q 243.80 473.42 244.90 476.65
  Q 248.92 488.45 256.80 497.45
  Q 267.38 509.53 283.37 512.01
  Q 284.47 512.18 289.57 512.17"
/>
<path stroke="#bac0bd" vector-effect="non-scaling-stroke" d="
  M 290.8159 439.7816
  A 32.09 31.44 -87.9 0 0 258.2211 470.6979
  A 32.09 31.44 -87.9 0 0 288.4641 503.9184
  A 32.09 31.44 -87.9 0 0 321.0589 473.0021
  A 32.09 31.44 -87.9 0 0 290.8159 439.7816"
/>
<path stroke="#b1b3b2" vector-effect="non-scaling-stroke" d="
  M 778.59 530.32
  A 0.58 0.58 0.0 0 0 779.12 531.14
  L 797.10 531.10
  A 0.58 0.58 0.0 0 0 797.63 530.29
  L 788.61 509.94
  A 0.58 0.58 0.0 0 0 787.55 509.94
  L 778.59 530.32"
/>
<path stroke="#b1b3b2" vector-effect="non-scaling-stroke" d="
  M 688.8622 518.2919
  A 12.73 11.64 -89.0 0 0 677.0018 530.8169
  A 12.73 11.64 -89.0 0 0 688.4178 543.7481
  A 12.73 11.64 -89.0 0 0 700.2782 531.2231
  A 12.73 11.64 -89.0 0 0 688.8622 518.2919"
/>
<path stroke="#b1b3b2" vector-effect="non-scaling-stroke" d="
  M 561.0312 518.2277
  A 12.79 11.63 -85.6 0 0 548.4543 530.0878
  A 12.79 11.63 -85.6 0 0 559.0688 543.7323
  A 12.79 11.63 -85.6 0 0 571.6457 531.8722
  A 12.79 11.63 -85.6 0 0 561.0312 518.2277"
/>
</g>
<path fill="#ffffff" d="
  M 1024.00 0.00
  L 1024.00 1024.00
  L 0.00 1024.00
  L 0.00 0.00
  L 1024.00 0.00
  Z
  M 287.20 521.96
  Q 299.56 521.96 311.72 518.49
  Q 329.19 513.50 344.22 502.73
  Q 355.57 494.61 359.37 491.12
  Q 364.41 486.50 374.90 476.28
  A 1.80 1.80 0.0 0 0 375.07 473.91
  Q 374.29 472.87 372.13 470.84
  Q 361.97 461.23 350.22 451.97
  C 332.15 437.72 310.42 428.64 287.21 428.64
  C 264.00 428.64 242.26 437.72 224.19 451.96
  Q 212.44 461.23 202.28 470.84
  Q 200.12 472.87 199.34 473.91
  A 1.80 1.80 0.0 0 0 199.51 476.28
  Q 210.00 486.50 215.04 491.12
  Q 218.84 494.61 230.19 502.73
  Q 245.22 513.50 262.69 518.48
  Q 274.85 521.96 287.20 521.96
  Z
  M 498.19 466.68
  L 498.19 469.72
  A 1.38 1.38 0.0 0 0 499.57 471.10
  L 509.41 471.10
  A 1.40 1.40 0.0 0 1 510.81 472.50
  L 510.81 483.33
  A 2.38 2.36 -8.7 0 1 509.14 485.59
  Q 503.70 487.26 497.28 487.64
  C 486.24 488.30 476.78 481.56 475.06 470.30
  C 474.02 463.50 475.80 454.16 481.18 449.31
  Q 484.94 445.93 488.67 444.95
  Q 501.73 441.54 510.51 448.79
  A 1.96 1.96 0.0 0 0 513.15 448.66
  L 514.85 446.97
  A 1.79 1.79 0.0 0 0 514.71 444.31
  C 503.74 435.50 487.37 436.02 477.25 445.37
  C 471.10 451.04 468.52 457.80 468.82 465.97
  C 469.77 491.99 495.67 500.04 515.67 487.85
  A 1.65 1.64 -15.5 0 0 516.47 486.44
  L 516.47 466.45
  A 0.72 0.72 0.0 0 0 515.75 465.73
  L 499.15 465.73
  A 0.96 0.95 0.0 0 0 498.19 466.68
  Z
  M 420.90 439.65
  A 0.94 0.94 0.0 0 0 419.96 438.71
  L 416.10 438.71
  A 0.94 0.94 0.0 0 0 415.16 439.65
  L 415.16 491.17
  A 0.94 0.94 0.0 0 0 416.10 492.11
  L 419.96 492.11
  A 0.94 0.94 0.0 0 0 420.90 491.17
  L 420.90 439.65
  Z
  M 457.87 491.67
  A 1.35 1.35 0.0 0 0 460.21 490.76
  L 460.48 439.82
  A 1.35 1.35 0.0 0 0 458.15 438.88
  L 434.09 464.23
  A 1.35 1.35 0.0 0 0 434.08 466.07
  L 457.87 491.67
  Z
  M 431.0996 439.6099
  A 0.98 0.98 0.0 0 0 430.1230 438.6264
  L 426.5230 438.6139
  A 0.98 0.98 0.0 0 0 425.5396 439.5905
  L 425.3604 490.9301
  A 0.98 0.98 0.0 0 0 426.3370 491.9136
  L 429.9370 491.9261
  A 0.98 0.98 0.0 0 0 430.9204 490.9495
  L 431.0996 439.6099
  Z
  M 622.70 505.52
  A 3.16 3.16 0.0 0 0 619.54 502.36
  A 3.16 3.16 0.0 0 0 616.38 505.52
  A 3.16 3.16 0.0 0 0 619.54 508.68
  A 3.16 3.16 0.0 0 0 622.70 505.52
  Z
  M 665.63 505.45
  A 3.16 3.16 0.0 0 0 662.47 502.29
  A 3.16 3.16 0.0 0 0 659.31 505.45
  A 3.16 3.16 0.0 0 0 662.47 508.61
  A 3.16 3.16 0.0 0 0 665.63 505.45
  Z
  M 852.96 526.29
  A 0.83 0.83 0.0 0 0 852.13 525.46
  L 838.69 525.46
  A 1.10 1.10 0.0 0 0 837.59 526.56
  L 837.59 528.28
  A 1.05 1.05 0.0 0 0 838.64 529.33
  L 847.32 529.33
  A 1.04 1.04 0.0 0 1 848.36 530.37
  L 848.36 540.10
  A 2.18 2.17 78.6 0 1 847.03 542.11
  C 841.84 544.29 832.57 544.70 827.47 541.57
  Q 818.36 535.99 818.84 524.23
  C 819.42 510.21 837.60 501.53 848.16 511.66
  A 1.41 1.41 0.0 0 0 850.14 511.64
  L 851.69 510.10
  A 1.37 1.37 0.0 0 0 851.52 508.02
  C 841.97 501.07 826.95 501.13 819.18 510.94
  C 811.52 520.60 812.30 536.94 823.64 544.00
  C 832.76 549.67 843.41 548.22 852.47 543.58
  A 0.92 0.90 76.7 0 0 852.96 542.77
  L 852.96 526.29
  Z
  M 788.16 535.39
  Q 795.25 535.40 799.04 535.36
  A 1.06 1.06 0.0 0 1 800.03 536.00
  L 804.44 545.86
  A 1.74 1.74 0.0 0 0 806.03 546.89
  L 808.67 546.89
  A 0.76 0.76 0.0 0 0 809.36 545.82
  L 790.87 504.43
  A 1.48 1.48 0.0 0 0 789.69 503.58
  Q 788.74 503.48 788.22 503.48
  Q 787.70 503.48 786.75 503.57
  A 1.48 1.48 0.0 0 0 785.57 504.42
  L 766.93 545.74
  A 0.76 0.76 0.0 0 0 767.62 546.82
  L 770.26 546.83
  A 1.74 1.74 0.0 0 0 771.85 545.80
  L 776.29 535.96
  A 1.06 1.06 0.0 0 1 777.29 535.32
  Q 781.08 535.38 788.16 535.39
  Z
  M 417.42 504.67
  A 0.87 0.87 0.0 0 0 416.55 503.80
  L 413.81 503.80
  A 0.87 0.87 0.0 0 0 412.94 504.67
  L 412.94 545.85
  A 0.87 0.87 0.0 0 0 413.81 546.72
  L 416.55 546.72
  A 0.87 0.87 0.0 0 0 417.42 545.85
  L 417.42 504.67
  Z
  M 432.76 518.83
  L 432.76 515.87
  A 1.01 1.00 0.0 0 0 431.75 514.87
  L 429.81 514.87
  A 1.23 1.23 0.0 0 0 428.58 516.10
  L 428.58 545.84
  A 0.93 0.93 0.0 0 0 429.51 546.77
  L 431.87 546.77
  A 1.00 1.00 0.0 0 0 432.87 545.76
  Q 432.73 535.00 432.90 529.21
  Q 433.07 523.57 436.89 520.39
  C 440.18 517.65 446.35 518.07 448.71 522.08
  Q 450.51 525.15 450.71 528.28
  Q 450.81 529.76 450.90 545.47
  A 1.51 1.51 0.0 0 0 452.41 546.97
  L 453.83 546.97
  A 1.50 1.50 0.0 0 0 455.33 545.51
  Q 455.66 533.05 455.67 528.26
  Q 455.68 522.84 461.14 519.35
  A 2.14 2.04 22.8 0 1 461.93 519.05
  Q 468.94 517.95 471.91 523.23
  Q 473.31 525.72 472.99 534.14
  Q 472.83 538.42 473.02 545.60
  A 1.31 1.30 -0.7 0 0 474.33 546.87
  L 475.87 546.87
  A 1.34 1.33 -0.4 0 0 477.21 545.52
  Q 477.09 535.37 477.16 526.61
  Q 477.22 520.00 472.93 516.15
  A 3.46 3.35 77.0 0 0 472.02 515.56
  Q 462.06 511.17 454.91 519.50
  A 1.00 1.00 0.0 0 1 453.33 519.42
  C 448.46 512.41 438.54 512.28 433.52 519.08
  A 0.42 0.42 0.0 0 1 432.76 518.83
  Z
  M 491.36 518.50
  L 491.36 516.23
  A 1.16 1.16 0.0 0 0 490.20 515.07
  L 487.98 515.07
  A 0.76 0.76 0.0 0 0 487.22 515.83
  L 487.22 545.91
  A 0.87 0.86 -0.0 0 0 488.09 546.77
  L 490.16 546.77
  A 1.01 1.01 0.0 0 0 491.17 545.76
  Q 491.14 533.63 491.35 528.34
  C 491.49 524.72 494.04 519.73 498.15 518.89
  C 504.37 517.62 508.92 521.43 509.34 527.71
  Q 509.65 532.40 509.35 545.35
  A 1.48 1.47 -89.4 0 0 510.82 546.86
  L 512.10 546.86
  A 1.39 1.38 90.0 0 0 513.48 545.47
  Q 513.42 537.48 513.42 530.24
  C 513.41 523.38 517.19 517.24 524.87 518.64
  C 529.11 519.42 531.31 523.11 531.54 527.25
  Q 531.57 527.80 531.69 545.40
  A 1.58 1.58 0.0 0 0 533.27 546.97
  L 534.48 546.97
  A 1.54 1.54 0.0 0 0 536.02 545.48
  Q 536.38 532.74 535.85 524.39
  C 535.53 519.50 532.02 515.61 526.97 514.67
  Q 517.96 513.00 512.99 520.49
  A 0.63 0.62 38.0 0 1 512.05 520.60
  C 511.33 519.95 510.84 518.55 510.06 517.81
  C 504.24 512.25 497.52 513.45 492.18 518.83
  A 0.48 0.48 0.0 0 1 491.36 518.50
  Z
  M 690.0498 514.4129
  A 16.52 16.13 -85.0 0 0 672.5414 529.4642
  A 16.52 16.13 -85.0 0 0 687.1702 547.3271
  A 16.52 16.13 -85.0 0 0 704.6786 532.2758
  A 16.52 16.13 -85.0 0 0 690.0498 514.4129
  Z
  M 717.00 519.85
  L 717.00 516.15
  A 1.08 1.08 0.0 0 0 715.92 515.07
  L 714.01 515.07
  A 1.28 1.28 0.0 0 0 712.73 516.35
  L 712.73 545.39
  A 1.48 1.47 90.0 0 0 714.20 546.87
  L 715.51 546.87
  A 1.43 1.42 0.2 0 0 716.94 545.46
  Q 716.98 541.67 717.20 529.52
  C 717.30 523.49 721.19 518.27 727.62 518.59
  Q 735.41 518.97 736.29 525.90
  Q 737.20 533.06 736.58 546.03
  A 0.71 0.70 1.5 0 0 737.29 546.77
  L 740.01 546.77
  A 0.65 0.64 -0.0 0 0 740.66 546.13
  L 740.86 525.86
  A 0.96 0.66 -61.3 0 0 740.84 525.67
  Q 738.65 514.00 727.31 514.34
  C 723.06 514.47 720.17 516.56 717.92 520.12
  A 0.50 0.50 0.0 0 1 717.00 519.85
  Z
  M 561.1293 514.4145
  A 16.57 16.10 -86.3 0 0 543.9936 529.9110
  A 16.57 16.10 -86.3 0 0 558.9907 547.4855
  A 16.57 16.10 -86.3 0 0 576.1264 531.9890
  A 16.57 16.10 -86.3 0 0 561.1293 514.4145
  Z
  M 651.14 517.83
  C 644.25 512.80 629.54 512.63 630.39 524.57
  Q 630.72 529.16 634.93 530.85
  Q 637.58 531.91 644.61 534.39
  Q 648.60 535.80 647.88 539.71
  Q 647.40 542.27 645.41 542.96
  Q 637.80 545.60 631.47 539.87
  A 0.18 0.18 0.0 0 0 631.22 539.88
  Q 629.98 541.24 629.25 542.98
  A 0.21 0.20 31.7 0 0 629.31 543.22
  C 634.78 547.30 642.38 549.10 648.49 545.37
  Q 651.45 543.56 652.38 539.81
  Q 653.64 534.73 649.22 531.67
  A 4.42 4.32 70.9 0 0 648.08 531.10
  Q 642.93 529.45 637.99 527.76
  Q 634.88 526.69 634.57 523.91
  C 634.11 519.87 637.39 518.10 641.05 518.42
  Q 645.32 518.79 648.25 521.05
  A 1.28 1.28 0.0 0 0 649.95 520.94
  L 651.27 519.62
  A 1.18 1.18 0.0 0 0 651.14 517.83
  Z
  M 595.60 541.15
  Q 595.41 541.15 595.24 541.04
  Q 595.13 540.96 595.04 540.73
  Q 592.15 533.35 584.98 516.07
  A 1.89 1.88 -11.2 0 0 583.24 514.91
  L 581.42 514.91
  A 1.22 1.21 -12.1 0 0 580.31 516.62
  L 593.39 545.90
  A 1.56 1.54 -8.6 0 0 594.65 546.81
  Q 595.02 546.85 595.63 546.85
  Q 596.23 546.85 596.60 546.81
  A 1.56 1.54 8.2 0 0 597.85 545.88
  L 610.72 516.51
  A 1.22 1.21 11.7 0 0 609.60 514.81
  L 607.78 514.82
  A 1.89 1.88 10.8 0 0 606.05 515.99
  Q 599.00 533.33 596.17 540.73
  Q 596.08 540.96 595.97 541.04
  Q 595.80 541.15 595.60 541.15
  Z
  M 621.4740 515.9364
  A 0.99 0.99 0.0 0 0 620.4822 514.9481
  L 618.2823 514.9519
  A 0.99 0.99 0.0 0 0 617.2940 515.9437
  L 617.3460 545.7636
  A 0.99 0.99 0.0 0 0 618.3378 546.7519
  L 620.5377 546.7481
  A 0.99 0.99 0.0 0 0 621.5260 545.7563
  L 621.4740 515.9364
  Z
  M 664.4864 515.8036
  A 0.78 0.78 0.0 0 0 663.7077 515.0222
  L 661.1677 515.0178
  A 0.78 0.78 0.0 0 0 660.3864 515.7964
  L 660.3336 546.0164
  A 0.78 0.78 0.0 0 0 661.1123 546.7978
  L 663.6523 546.8022
  A 0.78 0.78 0.0 0 0 664.4336 546.0236
  L 664.4864 515.8036
  Z"
/>
<path fill="#abb2a6" d="
  M 287.21 428.64
  C 310.42 428.64 332.15 437.72 350.22 451.97
  Q 361.97 461.23 372.13 470.84
  Q 374.29 472.87 375.07 473.91
  A 1.80 1.80 0.0 0 1 374.90 476.28
  Q 364.41 486.50 359.37 491.12
  Q 355.57 494.61 344.22 502.73
  Q 329.19 513.50 311.72 518.49
  Q 299.56 521.96 287.20 521.96
  Q 274.85 521.96 262.69 518.48
  Q 245.22 513.50 230.19 502.73
  Q 218.84 494.61 215.04 491.12
  Q 210.00 486.50 199.51 476.28
  A 1.80 1.80 0.0 0 1 199.34 473.91
  Q 200.12 472.87 202.28 470.84
  Q 212.44 461.23 224.19 451.96
  C 242.26 437.72 264.00 428.64 287.21 428.64
  Z
  M 289.57 512.17
  Q 294.67 512.15 295.77 511.97
  Q 311.75 509.39 322.25 497.24
  Q 330.07 488.19 334.02 476.37
  Q 335.10 473.13 334.56 471.59
  Q 333.07 467.30 328.92 460.18
  C 320.71 446.08 306.17 436.82 289.33 436.87
  C 272.50 436.93 258.01 446.27 249.90 460.43
  Q 245.79 467.57 244.33 471.87
  Q 243.80 473.42 244.90 476.65
  Q 248.92 488.45 256.80 497.45
  Q 267.38 509.53 283.37 512.01
  Q 284.47 512.18 289.57 512.17
  Z"
/>
<path fill="#ffffff" d="
  M 289.33 436.87
  C 306.17 436.82 320.71 446.08 328.92 460.18
  Q 333.07 467.30 334.56 471.59
  Q 335.10 473.13 334.02 476.37
  Q 330.07 488.19 322.25 497.24
  Q 311.75 509.39 295.77 511.97
  Q 294.67 512.15 289.57 512.17
  Q 284.47 512.18 283.37 512.01
  Q 267.38 509.53 256.80 497.45
  Q 248.92 488.45 244.90 476.65
  Q 243.80 473.42 244.33 471.87
  Q 245.79 467.57 249.90 460.43
  C 258.01 446.27 272.50 436.93 289.33 436.87
  Z
  M 290.8159 439.7816
  A 32.09 31.44 -87.9 0 0 258.2211 470.6979
  A 32.09 31.44 -87.9 0 0 288.4641 503.9184
  A 32.09 31.44 -87.9 0 0 321.0589 473.0021
  A 32.09 31.44 -87.9 0 0 290.8159 439.7816
  Z"
/>
<path fill="#636664" d="
  M 499.15 465.73
  L 515.75 465.73
  A 0.72 0.72 0.0 0 1 516.47 466.45
  L 516.47 486.44
  A 1.65 1.64 -15.5 0 1 515.67 487.85
  C 495.67 500.04 469.77 491.99 468.82 465.97
  C 468.52 457.80 471.10 451.04 477.25 445.37
  C 487.37 436.02 503.74 435.50 514.71 444.31
  A 1.79 1.79 0.0 0 1 514.85 446.97
  L 513.15 448.66
  A 1.96 1.96 0.0 0 1 510.51 448.79
  Q 501.73 441.54 488.67 444.95
  Q 484.94 445.93 481.18 449.31
  C 475.80 454.16 474.02 463.50 475.06 470.30
  C 476.78 481.56 486.24 488.30 497.28 487.64
  Q 503.70 487.26 509.14 485.59
  A 2.38 2.36 -8.7 0 0 510.81 483.33
  L 510.81 472.50
  A 1.40 1.40 0.0 0 0 509.41 471.10
  L 499.57 471.10
  A 1.38 1.38 0.0 0 1 498.19 469.72
  L 498.19 466.68
  A 0.96 0.95 -0.0 0 1 499.15 465.73
  Z"
/>
<rect fill="#abb2a6" x="415.16" y="438.71" width="5.74" height="53.40" rx="0.94"/>
<path fill="#abb2a6" d="
  M 457.87 491.67
  L 434.08 466.07
  A 1.35 1.35 0.0 0 1 434.09 464.23
  L 458.15 438.88
  A 1.35 1.35 0.0 0 1 460.48 439.82
  L 460.21 490.76
  A 1.35 1.35 0.0 0 1 457.87 491.67
  Z"
/>
<rect fill="#abb2a6" x="-2.78" y="-26.65" transform="translate(428.23,465.27) rotate(0.2)" width="5.56" height="53.30" rx="0.98"/>
<ellipse fill="#75807a" cx="0.00" cy="0.00" transform="translate(289.64,471.85) rotate(-87.9)" rx="32.09" ry="31.44"/>
<circle fill="#636664" cx="619.54" cy="505.52" r="3.16"/>
<circle fill="#636664" cx="662.47" cy="505.45" r="3.16"/>
<path fill="#636664" d="
  M 852.96 526.29
  L 852.96 542.77
  A 0.92 0.90 76.7 0 1 852.47 543.58
  C 843.41 548.22 832.76 549.67 823.64 544.00
  C 812.30 536.94 811.52 520.60 819.18 510.94
  C 826.95 501.13 841.97 501.07 851.52 508.02
  A 1.37 1.37 0.0 0 1 851.69 510.10
  L 850.14 511.64
  A 1.41 1.41 0.0 0 1 848.16 511.66
  C 837.60 501.53 819.42 510.21 818.84 524.23
  Q 818.36 535.99 827.47 541.57
  C 832.57 544.70 841.84 544.29 847.03 542.11
  A 2.18 2.17 78.6 0 0 848.36 540.10
  L 848.36 530.37
  A 1.04 1.04 0.0 0 0 847.32 529.33
  L 838.64 529.33
  A 1.05 1.05 0.0 0 1 837.59 528.28
  L 837.59 526.56
  A 1.10 1.10 0.0 0 1 838.69 525.46
  L 852.13 525.46
  A 0.83 0.83 0.0 0 1 852.96 526.29
  Z"
/>
<path fill="#636664" d="
  M 788.22 503.48
  Q 788.74 503.48 789.69 503.58
  A 1.48 1.48 0.0 0 1 790.87 504.43
  L 809.36 545.82
  A 0.76 0.76 0.0 0 1 808.67 546.89
  L 806.03 546.89
  A 1.74 1.74 0.0 0 1 804.44 545.86
  L 800.03 536.00
  A 1.06 1.06 0.0 0 0 799.04 535.36
  Q 795.25 535.40 788.16 535.39
  Q 781.08 535.38 777.29 535.32
  A 1.06 1.06 0.0 0 0 776.29 535.96
  L 771.85 545.80
  A 1.74 1.74 0.0 0 1 770.26 546.83
  L 767.62 546.82
  A 0.76 0.76 0.0 0 1 766.93 545.74
  L 785.57 504.42
  A 1.48 1.48 0.0 0 1 786.75 503.57
  Q 787.70 503.48 788.22 503.48
  Z
  M 778.59 530.32
  A 0.58 0.58 0.0 0 0 779.12 531.14
  L 797.10 531.10
  A 0.58 0.58 0.0 0 0 797.63 530.29
  L 788.61 509.94
  A 0.58 0.58 0.0 0 0 787.55 509.94
  L 778.59 530.32
  Z"
/>
<rect fill="#636664" x="412.94" y="503.80" width="4.48" height="42.92" rx="0.87"/>
<path fill="#ffffff" d="
  M 778.59 530.32
  L 787.55 509.94
  A 0.58 0.58 0.0 0 1 788.61 509.94
  L 797.63 530.29
  A 0.58 0.58 0.0 0 1 797.10 531.10
  L 779.12 531.14
  A 0.58 0.58 0.0 0 1 778.59 530.32
  Z"
/>
<path fill="#636664" d="
  M 432.76 518.83
  A 0.42 0.42 0.0 0 0 433.52 519.08
  C 438.54 512.28 448.46 512.41 453.33 519.42
  A 1.00 1.00 0.0 0 0 454.91 519.50
  Q 462.06 511.17 472.02 515.56
  A 3.46 3.35 77.0 0 1 472.93 516.15
  Q 477.22 520.00 477.16 526.61
  Q 477.09 535.37 477.21 545.52
  A 1.34 1.33 -0.4 0 1 475.87 546.87
  L 474.33 546.87
  A 1.31 1.30 -0.7 0 1 473.02 545.60
  Q 472.83 538.42 472.99 534.14
  Q 473.31 525.72 471.91 523.23
  Q 468.94 517.95 461.93 519.05
  A 2.14 2.04 22.8 0 0 461.14 519.35
  Q 455.68 522.84 455.67 528.26
  Q 455.66 533.05 455.33 545.51
  A 1.50 1.50 0.0 0 1 453.83 546.97
  L 452.41 546.97
  A 1.51 1.51 0.0 0 1 450.90 545.47
  Q 450.81 529.76 450.71 528.28
  Q 450.51 525.15 448.71 522.08
  C 446.35 518.07 440.18 517.65 436.89 520.39
  Q 433.07 523.57 432.90 529.21
  Q 432.73 535.00 432.87 545.76
  A 1.00 1.00 0.0 0 1 431.87 546.77
  L 429.51 546.77
  A 0.93 0.93 0.0 0 1 428.58 545.84
  L 428.58 516.10
  A 1.23 1.23 0.0 0 1 429.81 514.87
  L 431.75 514.87
  A 1.01 1.00 -0.0 0 1 432.76 515.87
  L 432.76 518.83
  Z"
/>
<path fill="#636664" d="
  M 491.36 518.50
  A 0.48 0.48 0.0 0 0 492.18 518.83
  C 497.52 513.45 504.24 512.25 510.06 517.81
  C 510.84 518.55 511.33 519.95 512.05 520.60
  A 0.63 0.62 38.0 0 0 512.99 520.49
  Q 517.96 513.00 526.97 514.67
  C 532.02 515.61 535.53 519.50 535.85 524.39
  Q 536.38 532.74 536.02 545.48
  A 1.54 1.54 0.0 0 1 534.48 546.97
  L 533.27 546.97
  A 1.58 1.58 0.0 0 1 531.69 545.40
  Q 531.57 527.80 531.54 527.25
  C 531.31 523.11 529.11 519.42 524.87 518.64
  C 517.19 517.24 513.41 523.38 513.42 530.24
  Q 513.42 537.48 513.48 545.47
  A 1.39 1.38 90.0 0 1 512.10 546.86
  L 510.82 546.86
  A 1.48 1.47 -89.4 0 1 509.35 545.35
  Q 509.65 532.40 509.34 527.71
  C 508.92 521.43 504.37 517.62 498.15 518.89
  C 494.04 519.73 491.49 524.72 491.35 528.34
  Q 491.14 533.63 491.17 545.76
  A 1.01 1.01 0.0 0 1 490.16 546.77
  L 488.09 546.77
  A 0.87 0.86 -0.0 0 1 487.22 545.91
  L 487.22 515.83
  A 0.76 0.76 0.0 0 1 487.98 515.07
  L 490.20 515.07
  A 1.16 1.16 0.0 0 1 491.36 516.23
  L 491.36 518.50
  Z"
/>
<path fill="#636664" d="
  M 690.0498 514.4129
  A 16.52 16.13 -85.0 0 1 704.6786 532.2758
  A 16.52 16.13 -85.0 0 1 687.1702 547.3271
  A 16.52 16.13 -85.0 0 1 672.5414 529.4642
  A 16.52 16.13 -85.0 0 1 690.0498 514.4129
  Z
  M 688.8622 518.2919
  A 12.73 11.64 -89.0 0 0 677.0018 530.8169
  A 12.73 11.64 -89.0 0 0 688.4178 543.7481
  A 12.73 11.64 -89.0 0 0 700.2782 531.2231
  A 12.73 11.64 -89.0 0 0 688.8622 518.2919
  Z"
/>
<path fill="#636664" d="
  M 717.00 519.85
  A 0.50 0.50 0.0 0 0 717.92 520.12
  C 720.17 516.56 723.06 514.47 727.31 514.34
  Q 738.65 514.00 740.84 525.67
  A 0.96 0.66 -61.3 0 1 740.86 525.86
  L 740.66 546.13
  A 0.65 0.64 -0.0 0 1 740.01 546.77
  L 737.29 546.77
  A 0.71 0.70 1.5 0 1 736.58 546.03
  Q 737.20 533.06 736.29 525.90
  Q 735.41 518.97 727.62 518.59
  C 721.19 518.27 717.30 523.49 717.20 529.52
  Q 716.98 541.67 716.94 545.46
  A 1.43 1.42 0.2 0 1 715.51 546.87
  L 714.20 546.87
  A 1.48 1.47 -90.0 0 1 712.73 545.39
  L 712.73 516.35
  A 1.28 1.28 0.0 0 1 714.01 515.07
  L 715.92 515.07
  A 1.08 1.08 0.0 0 1 717.00 516.15
  L 717.00 519.85
  Z"
/>
<path fill="#636664" d="
  M 561.1293 514.4145
  A 16.57 16.10 -86.3 0 1 576.1264 531.9890
  A 16.57 16.10 -86.3 0 1 558.9907 547.4855
  A 16.57 16.10 -86.3 0 1 543.9936 529.9110
  A 16.57 16.10 -86.3 0 1 561.1293 514.4145
  Z
  M 561.0312 518.2277
  A 12.79 11.63 -85.6 0 0 548.4543 530.0878
  A 12.79 11.63 -85.6 0 0 559.0688 543.7323
  A 12.79 11.63 -85.6 0 0 571.6457 531.8722
  A 12.79 11.63 -85.6 0 0 561.0312 518.2277
  Z"
/>
<path fill="#636664" d="
  M 651.14 517.83
  A 1.18 1.18 0.0 0 1 651.27 519.62
  L 649.95 520.94
  A 1.28 1.28 0.0 0 1 648.25 521.05
  Q 645.32 518.79 641.05 518.42
  C 637.39 518.10 634.11 519.87 634.57 523.91
  Q 634.88 526.69 637.99 527.76
  Q 642.93 529.45 648.08 531.10
  A 4.42 4.32 70.9 0 1 649.22 531.67
  Q 653.64 534.73 652.38 539.81
  Q 651.45 543.56 648.49 545.37
  C 642.38 549.10 634.78 547.30 629.31 543.22
  A 0.21 0.20 31.7 0 1 629.25 542.98
  Q 629.98 541.24 631.22 539.88
  A 0.18 0.18 0.0 0 1 631.47 539.87
  Q 637.80 545.60 645.41 542.96
  Q 647.40 542.27 647.88 539.71
  Q 648.60 535.80 644.61 534.39
  Q 637.58 531.91 634.93 530.85
  Q 630.72 529.16 630.39 524.57
  C 629.54 512.63 644.25 512.80 651.14 517.83
  Z"
/>
<path fill="#636664" d="
  M 595.63 546.85
  Q 595.02 546.85 594.65 546.81
  A 1.56 1.54 -8.6 0 1 593.39 545.90
  L 580.31 516.62
  A 1.22 1.21 -12.1 0 1 581.42 514.91
  L 583.24 514.91
  A 1.89 1.88 -11.2 0 1 584.98 516.07
  Q 592.15 533.35 595.04 540.73
  Q 595.13 540.96 595.24 541.04
  Q 595.41 541.15 595.60 541.15
  Q 595.80 541.15 595.97 541.04
  Q 596.08 540.96 596.17 540.73
  Q 599.00 533.33 606.05 515.99
  A 1.89 1.88 10.8 0 1 607.78 514.82
  L 609.60 514.81
  A 1.22 1.21 11.7 0 1 610.72 516.51
  L 597.85 545.88
  A 1.56 1.54 8.2 0 1 596.60 546.81
  Q 596.23 546.85 595.63 546.85
  Z"
/>
<rect fill="#636664" x="-2.09" y="-15.90" transform="translate(619.41,530.85) rotate(-0.1)" width="4.18" height="31.80" rx="0.99"/>
<rect fill="#636664" x="-2.05" y="-15.89" transform="translate(662.41,530.91) rotate(0.1)" width="4.10" height="31.78" rx="0.78"/>
<ellipse fill="#ffffff" cx="0.00" cy="0.00" transform="translate(560.05,530.98) rotate(-85.6)" rx="12.79" ry="11.63"/>
<ellipse fill="#ffffff" cx="0.00" cy="0.00" transform="translate(688.64,531.02) rotate(-89.0)" rx="12.73" ry="11.64"/>
</svg>
