<?xml version="1.0" encoding="UTF-8" standalone="no"?>
<!DOCTYPE svg PUBLIC "-//W3C//DTD SVG 1.1//EN" "http://www.w3.org/Graphics/SVG/1.1/DTD/svg11.dtd">
<svg xmlns="http://www.w3.org/2000/svg" version="1.1" viewBox="0.00 0.00 1024.00 1024.00">
<g stroke-width="2.00" fill="none" stroke-linecap="butt">
<path stroke="#c8d0dc" vector-effect="non-scaling-stroke" d="
  M 822.64 467.27
  L 822.64 452.63
  A 0.81 0.81 0.0 0 0 822.22 451.92
  L 511.39 281.17
  A 1.40 1.39 45.2 0 0 510.07 281.16
  L 199.18 450.88
  A 1.60 1.60 0.0 0 0 198.35 452.30
  Q 198.50 463.66 198.47 466.80
  Q 198.46 467.21 198.86 467.34
  Q 199.13 467.44 199.48 467.26
  Q 294.23 418.28 408.83 360.30
  C 429.46 349.86 466.46 330.83 492.92 317.38
  Q 503.87 311.82 509.60 308.48
  A 1.68 1.67 -44.1 0 1 511.34 308.50
  Q 513.22 309.66 525.14 316.10
  Q 533.51 320.61 594.66 351.82
  Q 758.42 435.40 814.14 463.84
  Q 818.02 465.82 821.99 467.68
  A 0.46 0.45 12.5 0 0 822.64 467.27"
/>
<path stroke="#c8d0dc" vector-effect="non-scaling-stroke" d="
  M 599.9493 590.7399
  A 4.73 4.58 -10.6 0 0 594.4575 587.1082
  A 4.73 4.58 -10.6 0 0 590.6507 592.4801
  A 4.73 4.58 -10.6 0 0 596.1425 596.1118
  A 4.73 4.58 -10.6 0 0 599.9493 590.7399"
/>
<path stroke="#c8d0dc" vector-effect="non-scaling-stroke" d="
  M 656.83 591.60
  A 4.61 4.61 0.0 0 0 652.22 586.99
  A 4.61 4.61 0.0 0 0 647.61 591.60
  A 4.61 4.61 0.0 0 0 652.22 596.21
  A 4.61 4.61 0.0 0 0 656.83 591.60"
/>
<path stroke="#c8d0dc" vector-effect="non-scaling-stroke" d="
  M 276.00 617.75
  L 258.37 617.75
  A 0.92 0.92 0.0 0 0 257.45 618.67
  L 257.45 622.59
  A 0.97 0.97 0.0 0 0 258.42 623.56
  L 268.84 623.56
  A 0.62 0.62 0.0 0 1 269.46 624.18
  L 269.46 639.08
  A 1.22 1.21 82.1 0 1 268.58 640.25
  C 259.22 642.97 246.11 642.35 239.56 634.19
  C 230.09 622.38 233.07 599.82 249.36 595.33
  Q 260.28 592.32 272.72 596.96
  A 0.98 0.98 0.0 0 0 274.04 596.04
  L 274.04 592.21
  A 1.74 1.74 0.0 0 0 272.90 590.58
  Q 265.60 587.84 256.16 588.07
  Q 247.39 588.28 239.57 592.93
  C 228.72 599.39 224.80 612.94 227.34 624.74
  C 232.36 648.03 256.04 651.51 275.25 644.61
  A 1.82 1.81 80.2 0 0 276.45 642.90
  L 276.45 618.20
  A 0.45 0.45 0.0 0 0 276.00 617.75"
/>
<path stroke="#c8d0dc" vector-effect="non-scaling-stroke" d="
  M 322.2992 589.6161
  A 0.67 0.67 0.0 0 0 321.6303 588.9449
  L 316.0104 588.9351
  A 0.67 0.67 0.0 0 0 315.3392 589.6040
  L 315.2408 645.9639
  A 0.67 0.67 0.0 0 0 315.9097 646.6351
  L 321.5296 646.6449
  A 0.67 0.67 0.0 0 0 322.2008 645.9760
  L 322.2992 589.6161"
/>
<path stroke="#c8d0dc" vector-effect="non-scaling-stroke" d="
  M 221.93 646.87
  A 0.62 0.62 0.0 0 0 222.39 645.84
  L 195.94 616.03
  A 1.12 1.11 46.4 0 1 195.97 614.51
  L 219.48 590.20
  A 0.67 0.67 0.0 0 0 219.00 589.06
  L 213.31 589.06
  A 3.68 3.67 21.3 0 0 210.61 590.24
  L 186.95 615.56
  A 0.55 0.55 0.0 0 1 186.00 615.18
  L 186.00 589.64
  A 0.47 0.47 0.0 0 0 185.53 589.17
  L 179.47 589.17
  A 0.47 0.47 0.0 0 0 179.00 589.64
  L 179.00 646.09
  A 0.63 0.63 0.0 0 0 179.63 646.72
  L 185.47 646.72
  A 0.42 0.41 0.7 0 0 185.89 646.32
  Q 186.05 642.14 186.00 628.90
  C 185.98 624.10 185.65 621.24 189.47 618.45
  A 0.64 0.64 0.0 0 1 190.35 618.58
  Q 200.29 631.61 213.28 645.69
  A 3.66 3.63 -21.1 0 0 215.97 646.87
  L 221.93 646.87"
/>
<path stroke="#c8d0dc" vector-effect="non-scaling-stroke" d="
  M 343.61 611.50
  L 343.60 606.80
  A 1.35 1.35 0.0 0 0 342.25 605.45
  L 338.65 605.46
  A 1.33 1.33 0.0 0 0 337.32 606.79
  L 337.40 645.61
  A 1.16 1.16 0.0 0 0 338.56 646.77
  L 342.64 646.76
  A 1.30 1.29 -0.1 0 0 343.94 645.47
  Q 343.88 625.47 344.04 622.79
  Q 344.25 619.26 346.25 615.68
  C 348.83 611.04 353.01 609.56 358.15 609.92
  C 363.73 610.32 366.68 615.55 366.89 620.73
  Q 366.97 623.05 366.87 645.62
  A 1.21 1.21 0.0 0 0 368.08 646.84
  L 372.50 646.83
  A 1.12 1.12 0.0 0 0 373.62 645.73
  Q 373.87 633.84 373.79 626.21
  C 373.69 617.32 377.60 609.39 387.38 609.66
  C 394.25 609.86 396.90 615.60 396.79 621.67
  Q 396.65 628.50 396.78 645.63
  A 1.00 1.00 0.0 0 0 397.78 646.63
  L 402.39 646.62
  A 0.91 0.91 0.0 0 0 403.29 645.72
  Q 403.36 636.00 403.47 623.15
  C 403.53 614.34 400.84 605.40 390.90 604.20
  C 384.17 603.39 376.44 606.07 373.41 612.39
  A 0.76 0.76 0.0 0 1 372.05 612.40
  Q 367.41 603.10 356.85 604.15
  Q 348.52 604.98 344.18 611.67
  A 0.31 0.31 0.0 0 1 343.61 611.50"
/>
<path stroke="#c8d0dc" vector-effect="non-scaling-stroke" d="
  M 423.49 611.47
  L 423.49 606.76
  A 1.35 1.35 0.0 0 0 422.14 605.41
  L 418.54 605.41
  A 1.33 1.33 0.0 0 0 417.21 606.74
  L 417.21 645.58
  A 1.16 1.16 0.0 0 0 418.37 646.74
  L 422.45 646.74
  A 1.30 1.29 -0.0 0 0 423.75 645.45
  Q 423.73 625.44 423.90 622.76
  Q 424.12 619.23 426.12 615.65
  C 428.71 611.02 432.90 609.54 438.04 609.92
  C 443.62 610.33 446.56 615.57 446.76 620.75
  Q 446.84 623.07 446.69 645.65
  A 1.21 1.21 0.0 0 0 447.90 646.87
  L 452.32 646.87
  A 1.12 1.12 0.0 0 0 453.44 645.77
  Q 453.72 633.88 453.65 626.24
  C 453.57 617.35 457.50 609.43 467.28 609.72
  C 474.16 609.93 476.80 615.68 476.67 621.75
  Q 476.52 628.58 476.61 645.72
  A 1.00 1.00 0.0 0 0 477.61 646.72
  L 482.22 646.72
  A 0.91 0.91 0.0 0 0 483.13 645.82
  Q 483.22 636.10 483.35 623.25
  C 483.43 614.43 480.76 605.48 470.82 604.26
  C 464.09 603.44 456.35 606.10 453.30 612.42
  A 0.76 0.76 0.0 0 1 451.94 612.43
  Q 447.32 603.11 436.75 604.14
  Q 428.42 604.95 424.06 611.64
  A 0.31 0.31 0.0 0 1 423.49 611.47"
/>
<path stroke="#c8d0dc" vector-effect="non-scaling-stroke" d="
  M 753.81 646.06
  Q 753.86 638.70 753.95 628.94
  C 754.02 621.77 754.78 613.23 749.15 607.92
  C 744.52 603.53 736.74 603.11 730.99 605.24
  C 728.18 606.28 724.89 609.20 722.96 611.54
  A 0.33 0.33 0.0 0 1 722.37 611.33
  L 722.37 606.33
  A 1.01 1.00 90.0 0 0 721.37 605.32
  L 717.07 605.32
  A 0.88 0.88 0.0 0 0 716.19 606.20
  L 716.19 645.79
  A 0.94 0.94 0.0 0 0 717.13 646.73
  L 721.49 646.73
  A 1.12 1.11 -89.5 0 0 722.60 645.63
  Q 722.87 625.90 722.86 625.02
  C 722.74 615.55 729.49 607.52 739.60 610.22
  C 746.02 611.93 747.09 618.34 747.16 624.26
  Q 747.26 633.15 747.09 646.05
  A 0.65 0.65 0.0 0 0 747.74 646.71
  L 753.15 646.71
  A 0.66 0.66 0.0 0 0 753.81 646.06"
/>
<path stroke="#c8d0dc" vector-effect="non-scaling-stroke" d="
  M 494.45 624.16
  C 493.44 636.77 501.21 646.56 513.87 647.58
  C 526.53 648.60 535.77 640.18 536.78 627.57
  C 537.80 614.95 530.03 605.17 517.37 604.15
  C 504.70 603.13 495.47 611.55 494.45 624.16"
/>
<path stroke="#c8d0dc" vector-effect="non-scaling-stroke" d="
  M 636.38 607.88
  A 2.18 2.18 0.0 0 0 635.16 605.92
  C 631.06 603.89 625.89 604.06 621.28 604.57
  C 616.69 605.08 611.65 608.74 610.75 613.78
  C 609.40 621.36 614.01 624.72 620.39 627.34
  Q 624.22 628.92 627.96 630.81
  Q 633.12 633.42 631.26 638.44
  A 3.36 3.19 76.4 0 1 630.69 639.43
  C 626.16 644.76 616.83 642.40 611.93 639.04
  A 1.28 1.28 0.0 0 0 609.93 640.10
  L 609.93 643.21
  A 2.25 2.24 10.1 0 0 611.41 645.32
  Q 620.07 648.47 628.26 647.04
  C 631.91 646.40 636.76 643.46 637.77 639.51
  C 640.32 629.52 634.11 626.06 625.97 623.56
  C 623.63 622.85 620.29 621.16 619.04 619.92
  C 615.34 616.25 617.60 610.71 622.55 609.80
  Q 628.90 608.65 634.76 611.74
  A 1.10 1.10 0.0 0 0 636.38 610.77
  L 636.38 607.88"
/>
<path stroke="#c8d0dc" vector-effect="non-scaling-stroke" d="
  M 662.84 624.48
  C 661.95 637.85 671.98 648.00 685.22 647.53
  Q 699.46 647.01 703.74 633.76
  Q 704.31 632.01 704.62 627.25
  Q 704.94 622.50 704.61 620.69
  Q 702.12 606.99 688.07 604.59
  C 675.02 602.37 663.73 611.11 662.84 624.48"
/>
<path stroke="#c8d0dc" vector-effect="non-scaling-stroke" d="
  M 821.93 643.25
  L 821.93 625.75
  A 0.85 0.84 2.2 0 0 821.14 624.91
  Q 816.68 624.63 811.86 624.94
  A 1.85 1.71 72.1 0 0 810.59 627.68
  Q 810.95 628.30 812.35 628.40
  Q 814.07 628.52 816.76 628.39
  A 0.80 0.80 0.0 0 1 817.60 629.19
  L 817.60 637.43
  A 2.65 2.65 0.0 0 1 816.44 639.62
  Q 809.39 644.38 804.59 637.16
  C 801.05 631.85 801.15 614.06 806.09 610.12
  C 811.11 606.12 817.01 609.18 817.47 615.51
  A 0.58 0.57 -1.6 0 0 818.05 616.05
  L 820.91 616.05
  A 0.71 0.70 1.3 0 0 821.62 615.38
  Q 821.85 610.26 817.76 606.91
  Q 812.90 602.93 806.25 605.51
  C 798.50 608.52 797.41 619.44 797.88 626.93
  C 798.45 636.08 801.00 646.93 812.98 645.24
  A 2.25 2.23 -61.9 0 0 813.63 645.04
  L 816.57 643.55
  A 1.36 1.34 -54.8 0 1 817.35 643.41
  L 821.23 643.87
  A 0.62 0.62 0.0 0 0 821.93 643.25"
/>
<path stroke="#c8d0dc" vector-effect="non-scaling-stroke" d="
  M 846.81 642.23
  Q 846.92 644.81 849.47 644.29
  A 1.47 1.46 84.2 0 0 850.64 642.85
  L 850.64 625.06
  A 0.35 0.35 0.0 0 0 850.29 624.71
  L 839.73 624.71
  A 1.35 1.35 0.0 0 0 838.38 626.06
  L 838.38 627.17
  A 1.45 1.44 90.0 0 0 839.82 628.62
  L 845.30 628.62
  A 0.77 0.77 0.0 0 1 846.07 629.34
  C 846.30 632.57 846.85 637.81 844.12 639.74
  Q 839.68 642.89 835.12 640.15
  C 828.98 636.46 830.17 620.43 831.57 614.86
  C 833.58 606.92 844.02 605.54 845.97 614.81
  C 846.40 616.86 848.44 616.27 849.73 616.08
  A 0.66 0.66 0.0 0 0 850.29 615.45
  C 850.56 606.84 842.76 603.05 835.12 605.35
  C 829.67 606.99 826.80 613.51 826.32 618.83
  Q 825.57 627.25 827.37 635.92
  C 829.18 644.57 839.62 648.49 846.15 641.98
  A 0.39 0.38 -23.8 0 1 846.81 642.23"
/>
<path stroke="#c8d0dc" vector-effect="non-scaling-stroke" d="
  M 782.50 633.21
  Q 787.06 633.25 787.84 633.29
  A 1.03 1.03 0.0 0 1 788.79 634.04
  L 791.43 643.87
  A 1.31 1.30 -7.5 0 0 792.69 644.83
  L 795.30 644.83
  A 0.83 0.83 0.0 0 0 796.10 643.79
  L 785.87 605.81
  A 0.86 0.84 -2.2 0 0 785.20 605.20
  Q 784.60 605.09 782.76 605.07
  Q 780.92 605.06 780.32 605.16
  A 0.86 0.84 3.3 0 0 779.64 605.75
  L 768.71 643.54
  A 0.83 0.83 0.0 0 0 769.49 644.59
  L 772.10 644.64
  A 1.31 1.30 8.6 0 0 773.38 643.70
  L 776.20 633.92
  A 1.03 1.03 0.0 0 1 777.16 633.19
  Q 777.94 633.17 782.50 633.21"
/>
<path stroke="#c8d0dc" vector-effect="non-scaling-stroke" d="
  M 563.09 646.94
  Q 566.04 646.94 566.45 646.76
  A 1.78 1.78 0.0 0 0 567.38 645.80
  L 583.15 606.30
  A 0.75 0.74 10.8 0 0 582.45 605.28
  L 577.81 605.28
  A 1.82 1.82 0.0 0 0 576.10 606.47
  Q 570.29 622.36 563.88 638.88
  Q 563.65 639.47 563.11 639.46
  Q 562.57 639.46 562.34 638.88
  Q 556.02 622.32 550.29 606.40
  A 1.82 1.82 0.0 0 0 548.59 605.20
  L 543.95 605.18
  A 0.75 0.74 -10.5 0 0 543.24 606.19
  L 558.80 645.78
  A 1.78 1.78 0.0 0 0 559.73 646.74
  Q 560.13 646.93 563.09 646.94"
/>
<path stroke="#c8d0dc" vector-effect="non-scaling-stroke" d="
  M 598.6694 606.2019
  A 0.86 0.86 0.0 0 0 597.8124 605.3389
  L 592.7924 605.3214
  A 0.86 0.86 0.0 0 0 591.9294 606.1784
  L 591.7906 645.9381
  A 0.86 0.86 0.0 0 0 592.6476 646.8011
  L 597.6676 646.8186
  A 0.86 0.86 0.0 0 0 598.5306 645.9616
  L 598.6694 606.2019"
/>
<path stroke="#c8d0dc" vector-effect="non-scaling-stroke" d="
  M 655.4443 606.3958
  A 0.99 0.99 0.0 0 0 654.4561 605.4041
  L 649.7761 605.3959
  A 0.99 0.99 0.0 0 0 648.7844 606.3842
  L 648.7157 645.7442
  A 0.99 0.99 0.0 0 0 649.7039 646.7359
  L 654.3839 646.7441
  A 0.99 0.99 0.0 0 0 655.3756 645.7558
  L 655.4443 606.3958"
/>
<path stroke="#c8d0dc" vector-effect="non-scaling-stroke" d="
  M 515.7733 609.2912
  A 16.64 14.49 -89.3 0 0 501.0811 625.7530
  A 16.64 14.49 -89.3 0 0 515.3667 642.5688
  A 16.64 14.49 -89.3 0 0 530.0589 626.1070
  A 16.64 14.49 -89.3 0 0 515.7733 609.2912"
/>
<path stroke="#c8d0dc" vector-effect="non-scaling-stroke" d="
  M 669.96 625.86
  C 669.92 634.61 674.63 642.13 684.18 642.18
  C 693.74 642.23 698.52 634.75 698.56 626.00
  C 698.60 617.24 693.89 609.72 684.34 609.68
  C 674.78 609.63 670.00 617.10 669.96 625.86"
/>
<path stroke="#c8d0dc" vector-effect="non-scaling-stroke" d="
  M 777.25 628.65
  A 0.39 0.39 0.0 0 0 777.63 629.14
  L 787.30 629.21
  A 0.39 0.39 0.0 0 0 787.68 628.72
  L 782.97 610.62
  A 0.39 0.39 0.0 0 0 782.22 610.62
  L 777.25 628.65"
/>
</g>
<path fill="#95a5bd" d="
  M 1024.00 0.00
  L 1024.00 1024.00
  L 0.00 1024.00
  L 0.00 0.00
  L 1024.00 0.00
  Z
  M 822.64 467.27
  L 822.64 452.63
  A 0.81 0.81 0.0 0 0 822.22 451.92
  L 511.39 281.17
  A 1.40 1.39 45.2 0 0 510.07 281.16
  L 199.18 450.88
  A 1.60 1.60 0.0 0 0 198.35 452.30
  Q 198.50 463.66 198.47 466.80
  Q 198.46 467.21 198.86 467.34
  Q 199.13 467.44 199.48 467.26
  Q 294.23 418.28 408.83 360.30
  C 429.46 349.86 466.46 330.83 492.92 317.38
  Q 503.87 311.82 509.60 308.48
  A 1.68 1.67 -44.1 0 1 511.34 308.50
  Q 513.22 309.66 525.14 316.10
  Q 533.51 320.61 594.66 351.82
  Q 758.42 435.40 814.14 463.84
  Q 818.02 465.82 821.99 467.68
  A 0.46 0.45 12.5 0 0 822.64 467.27
  Z
  M 599.9493 590.7399
  A 4.73 4.58 -10.6 0 0 594.4575 587.1082
  A 4.73 4.58 -10.6 0 0 590.6507 592.4801
  A 4.73 4.58 -10.6 0 0 596.1425 596.1118
  A 4.73 4.58 -10.6 0 0 599.9493 590.7399
  Z
  M 656.83 591.60
  A 4.61 4.61 0.0 0 0 652.22 586.99
  A 4.61 4.61 0.0 0 0 647.61 591.60
  A 4.61 4.61 0.0 0 0 652.22 596.21
  A 4.61 4.61 0.0 0 0 656.83 591.60
  Z
  M 276.00 617.75
  L 258.37 617.75
  A 0.92 0.92 0.0 0 0 257.45 618.67
  L 257.45 622.59
  A 0.97 0.97 0.0 0 0 258.42 623.56
  L 268.84 623.56
  A 0.62 0.62 0.0 0 1 269.46 624.18
  L 269.46 639.08
  A 1.22 1.21 82.1 0 1 268.58 640.25
  C 259.22 642.97 246.11 642.35 239.56 634.19
  C 230.09 622.38 233.07 599.82 249.36 595.33
  Q 260.28 592.32 272.72 596.96
  A 0.98 0.98 0.0 0 0 274.04 596.04
  L 274.04 592.21
  A 1.74 1.74 0.0 0 0 272.90 590.58
  Q 265.60 587.84 256.16 588.07
  Q 247.39 588.28 239.57 592.93
  C 228.72 599.39 224.80 612.94 227.34 624.74
  C 232.36 648.03 256.04 651.51 275.25 644.61
  A 1.82 1.81 80.2 0 0 276.45 642.90
  L 276.45 618.20
  A 0.45 0.45 0.0 0 0 276.00 617.75
  Z
  M 322.2992 589.6161
  A 0.67 0.67 0.0 0 0 321.6303 588.9449
  L 316.0104 588.9351
  A 0.67 0.67 0.0 0 0 315.3392 589.6040
  L 315.2408 645.9639
  A 0.67 0.67 0.0 0 0 315.9097 646.6351
  L 321.5296 646.6449
  A 0.67 0.67 0.0 0 0 322.2008 645.9760
  L 322.2992 589.6161
  Z
  M 221.93 646.87
  A 0.62 0.62 0.0 0 0 222.39 645.84
  L 195.94 616.03
  A 1.12 1.11 46.4 0 1 195.97 614.51
  L 219.48 590.20
  A 0.67 0.67 0.0 0 0 219.00 589.06
  L 213.31 589.06
  A 3.68 3.67 21.3 0 0 210.61 590.24
  L 186.95 615.56
  A 0.55 0.55 0.0 0 1 186.00 615.18
  L 186.00 589.64
  A 0.47 0.47 0.0 0 0 185.53 589.17
  L 179.47 589.17
  A 0.47 0.47 0.0 0 0 179.00 589.64
  L 179.00 646.09
  A 0.63 0.63 0.0 0 0 179.63 646.72
  L 185.47 646.72
  A 0.42 0.41 0.7 0 0 185.89 646.32
  Q 186.05 642.14 186.00 628.90
  C 185.98 624.10 185.65 621.24 189.47 618.45
  A 0.64 0.64 0.0 0 1 190.35 618.58
  Q 200.29 631.61 213.28 645.69
  A 3.66 3.63 -21.1 0 0 215.97 646.87
  L 221.93 646.87
  Z
  M 343.61 611.50
  L 343.60 606.80
  A 1.35 1.35 0.0 0 0 342.25 605.45
  L 338.65 605.46
  A 1.33 1.33 0.0 0 0 337.32 606.79
  L 337.40 645.61
  A 1.16 1.16 0.0 0 0 338.56 646.77
  L 342.64 646.76
  A 1.30 1.29 -0.1 0 0 343.94 645.47
  Q 343.88 625.47 344.04 622.79
  Q 344.25 619.26 346.25 615.68
  C 348.83 611.04 353.01 609.56 358.15 609.92
  C 363.73 610.32 366.68 615.55 366.89 620.73
  Q 366.97 623.05 366.87 645.62
  A 1.21 1.21 0.0 0 0 368.08 646.84
  L 372.50 646.83
  A 1.12 1.12 0.0 0 0 373.62 645.73
  Q 373.87 633.84 373.79 626.21
  C 373.69 617.32 377.60 609.39 387.38 609.66
  C 394.25 609.86 396.90 615.60 396.79 621.67
  Q 396.65 628.50 396.78 645.63
  A 1.00 1.00 0.0 0 0 397.78 646.63
  L 402.39 646.62
  A 0.91 0.91 0.0 0 0 403.29 645.72
  Q 403.36 636.00 403.47 623.15
  C 403.53 614.34 400.84 605.40 390.90 604.20
  C 384.17 603.39 376.44 606.07 373.41 612.39
  A 0.76 0.76 0.0 0 1 372.05 612.40
  Q 367.41 603.10 356.85 604.15
  Q 348.52 604.98 344.18 611.67
  A 0.31 0.31 0.0 0 1 343.61 611.50
  Z
  M 423.49 611.47
  L 423.49 606.76
  A 1.35 1.35 0.0 0 0 422.14 605.41
  L 418.54 605.41
  A 1.33 1.33 0.0 0 0 417.21 606.74
  L 417.21 645.58
  A 1.16 1.16 0.0 0 0 418.37 646.74
  L 422.45 646.74
  A 1.30 1.29 -0.0 0 0 423.75 645.45
  Q 423.73 625.44 423.90 622.76
  Q 424.12 619.23 426.12 615.65
  C 428.71 611.02 432.90 609.54 438.04 609.92
  C 443.62 610.33 446.56 615.57 446.76 620.75
  Q 446.84 623.07 446.69 645.65
  A 1.21 1.21 0.0 0 0 447.90 646.87
  L 452.32 646.87
  A 1.12 1.12 0.0 0 0 453.44 645.77
  Q 453.72 633.88 453.65 626.24
  C 453.57 617.35 457.50 609.43 467.28 609.72
  C 474.16 609.93 476.80 615.68 476.67 621.75
  Q 476.52 628.58 476.61 645.72
  A 1.00 1.00 0.0 0 0 477.61 646.72
  L 482.22 646.72
  A 0.91 0.91 0.0 0 0 483.13 645.82
  Q 483.22 636.10 483.35 623.25
  C 483.43 614.43 480.76 605.48 470.82 604.26
  C 464.09 603.44 456.35 606.10 453.30 612.42
  A 0.76 0.76 0.0 0 1 451.94 612.43
  Q 447.32 603.11 436.75 604.14
  Q 428.42 604.95 424.06 611.64
  A 0.31 0.31 0.0 0 1 423.49 611.47
  Z
  M 753.81 646.06
  Q 753.86 638.70 753.95 628.94
  C 754.02 621.77 754.78 613.23 749.15 607.92
  C 744.52 603.53 736.74 603.11 730.99 605.24
  C 728.18 606.28 724.89 609.20 722.96 611.54
  A 0.33 0.33 0.0 0 1 722.37 611.33
  L 722.37 606.33
  A 1.01 1.00 90.0 0 0 721.37 605.32
  L 717.07 605.32
  A 0.88 0.88 0.0 0 0 716.19 606.20
  L 716.19 645.79
  A 0.94 0.94 0.0 0 0 717.13 646.73
  L 721.49 646.73
  A 1.12 1.11 -89.5 0 0 722.60 645.63
  Q 722.87 625.90 722.86 625.02
  C 722.74 615.55 729.49 607.52 739.60 610.22
  C 746.02 611.93 747.09 618.34 747.16 624.26
  Q 747.26 633.15 747.09 646.05
  A 0.65 0.65 0.0 0 0 747.74 646.71
  L 753.15 646.71
  A 0.66 0.66 0.0 0 0 753.81 646.06
  Z
  M 494.45 624.16
  C 493.44 636.77 501.21 646.56 513.87 647.58
  C 526.53 648.60 535.77 640.18 536.78 627.57
  C 537.80 614.95 530.03 605.17 517.37 604.15
  C 504.70 603.13 495.47 611.55 494.45 624.16
  Z
  M 636.38 607.88
  A 2.18 2.18 0.0 0 0 635.16 605.92
  C 631.06 603.89 625.89 604.06 621.28 604.57
  C 616.69 605.08 611.65 608.74 610.75 613.78
  C 609.40 621.36 614.01 624.72 620.39 627.34
  Q 624.22 628.92 627.96 630.81
  Q 633.12 633.42 631.26 638.44
  A 3.36 3.19 76.4 0 1 630.69 639.43
  C 626.16 644.76 616.83 642.40 611.93 639.04
  A 1.28 1.28 0.0 0 0 609.93 640.10
  L 609.93 643.21
  A 2.25 2.24 10.1 0 0 611.41 645.32
  Q 620.07 648.47 628.26 647.04
  C 631.91 646.40 636.76 643.46 637.77 639.51
  C 640.32 629.52 634.11 626.06 625.97 623.56
  C 623.63 622.85 620.29 621.16 619.04 619.92
  C 615.34 616.25 617.60 610.71 622.55 609.80
  Q 628.90 608.65 634.76 611.74
  A 1.10 1.10 0.0 0 0 636.38 610.77
  L 636.38 607.88
  Z
  M 662.84 624.48
  C 661.95 637.85 671.98 648.00 685.22 647.53
  Q 699.46 647.01 703.74 633.76
  Q 704.31 632.01 704.62 627.25
  Q 704.94 622.50 704.61 620.69
  Q 702.12 606.99 688.07 604.59
  C 675.02 602.37 663.73 611.11 662.84 624.48
  Z
  M 821.93 643.25
  L 821.93 625.75
  A 0.85 0.84 2.2 0 0 821.14 624.91
  Q 816.68 624.63 811.86 624.94
  A 1.85 1.71 72.1 0 0 810.59 627.68
  Q 810.95 628.30 812.35 628.40
  Q 814.07 628.52 816.76 628.39
  A 0.80 0.80 0.0 0 1 817.60 629.19
  L 817.60 637.43
  A 2.65 2.65 0.0 0 1 816.44 639.62
  Q 809.39 644.38 804.59 637.16
  C 801.05 631.85 801.15 614.06 806.09 610.12
  C 811.11 606.12 817.01 609.18 817.47 615.51
  A 0.58 0.57 -1.6 0 0 818.05 616.05
  L 820.91 616.05
  A 0.71 0.70 1.3 0 0 821.62 615.38
  Q 821.85 610.26 817.76 606.91
  Q 812.90 602.93 806.25 605.51
  C 798.50 608.52 797.41 619.44 797.88 626.93
  C 798.45 636.08 801.00 646.93 812.98 645.24
  A 2.25 2.23 -61.9 0 0 813.63 645.04
  L 816.57 643.55
  A 1.36 1.34 -54.8 0 1 817.35 643.41
  L 821.23 643.87
  A 0.62 0.62 0.0 0 0 821.93 643.25
  Z
  M 846.81 642.23
  Q 846.92 644.81 849.47 644.29
  A 1.47 1.46 84.2 0 0 850.64 642.85
  L 850.64 625.06
  A 0.35 0.35 0.0 0 0 850.29 624.71
  L 839.73 624.71
  A 1.35 1.35 0.0 0 0 838.38 626.06
  L 838.38 627.17
  A 1.45 1.44 90.0 0 0 839.82 628.62
  L 845.30 628.62
  A 0.77 0.77 0.0 0 1 846.07 629.34
  C 846.30 632.57 846.85 637.81 844.12 639.74
  Q 839.68 642.89 835.12 640.15
  C 828.98 636.46 830.17 620.43 831.57 614.86
  C 833.58 606.92 844.02 605.54 845.97 614.81
  C 846.40 616.86 848.44 616.27 849.73 616.08
  A 0.66 0.66 0.0 0 0 850.29 615.45
  C 850.56 606.84 842.76 603.05 835.12 605.35
  C 829.67 606.99 826.80 613.51 826.32 618.83
  Q 825.57 627.25 827.37 635.92
  C 829.18 644.57 839.62 648.49 846.15 641.98
  A 0.39 0.38 -23.8 0 1 846.81 642.23
  Z
  M 782.50 633.21
  Q 787.06 633.25 787.84 633.29
  A 1.03 1.03 0.0 0 1 788.79 634.04
  L 791.43 643.87
  A 1.31 1.30 -7.5 0 0 792.69 644.83
  L 795.30 644.83
  A 0.83 0.83 0.0 0 0 796.10 643.79
  L 785.87 605.81
  A 0.86 0.84 -2.2 0 0 785.20 605.20
  Q 784.60 605.09 782.76 605.07
  Q 780.92 605.06 780.32 605.16
  A 0.86 0.84 3.3 0 0 779.64 605.75
  L 768.71 643.54
  A 0.83 0.83 0.0 0 0 769.49 644.59
  L 772.10 644.64
  A 1.31 1.30 8.6 0 0 773.38 643.70
  L 776.20 633.92
  A 1.03 1.03 0.0 0 1 777.16 633.19
  Q 777.94 633.17 782.50 633.21
  Z
  M 563.09 646.94
  Q 566.04 646.94 566.45 646.76
  A 1.78 1.78 0.0 0 0 567.38 645.80
  L 583.15 606.30
  A 0.75 0.74 10.8 0 0 582.45 605.28
  L 577.81 605.28
  A 1.82 1.82 0.0 0 0 576.10 606.47
  Q 570.29 622.36 563.88 638.88
  Q 563.65 639.47 563.11 639.46
  Q 562.57 639.46 562.34 638.88
  Q 556.02 622.32 550.29 606.40
  A 1.82 1.82 0.0 0 0 548.59 605.20
  L 543.95 605.18
  A 0.75 0.74 -10.5 0 0 543.24 606.19
  L 558.80 645.78
  A 1.78 1.78 0.0 0 0 559.73 646.74
  Q 560.13 646.93 563.09 646.94
  Z
  M 598.6694 606.2019
  A 0.86 0.86 0.0 0 0 597.8124 605.3389
  L 592.7924 605.3214
  A 0.86 0.86 0.0 0 0 591.9294 606.1784
  L 591.7906 645.9381
  A 0.86 0.86 0.0 0 0 592.6476 646.8011
  L 597.6676 646.8186
  A 0.86 0.86 0.0 0 0 598.5306 645.9616
  L 598.6694 606.2019
  Z
  M 655.4443 606.3958
  A 0.99 0.99 0.0 0 0 654.4561 605.4041
  L 649.7761 605.3959
  A 0.99 0.99 0.0 0 0 648.7844 606.3842
  L 648.7157 645.7442
  A 0.99 0.99 0.0 0 0 649.7039 646.7359
  L 654.3839 646.7441
  A 0.99 0.99 0.0 0 0 655.3756 645.7558
  L 655.4443 606.3958
  Z"
/>
<path fill="#fbfbfa" d="
  M 822.64 467.27
  A 0.46 0.45 12.5 0 1 821.99 467.68
  Q 818.02 465.82 814.14 463.84
  Q 758.42 435.40 594.66 351.82
  Q 533.51 320.61 525.14 316.10
  Q 513.22 309.66 511.34 308.50
  A 1.68 1.67 -44.1 0 0 509.60 308.48
  Q 503.87 311.82 492.92 317.38
  C 466.46 330.83 429.46 349.86 408.83 360.30
  Q 294.23 418.28 199.48 467.26
  Q 199.13 467.44 198.86 467.34
  Q 198.46 467.21 198.47 466.80
  Q 198.50 463.66 198.35 452.30
  A 1.60 1.60 0.0 0 1 199.18 450.88
  L 510.07 281.16
  A 1.40 1.39 45.2 0 1 511.39 281.17
  L 822.22 451.92
  A 0.81 0.81 0.0 0 1 822.64 452.63
  L 822.64 467.27
  Z"
/>
<ellipse fill="#fbfbfa" cx="0.00" cy="0.00" transform="translate(595.30,591.61) rotate(-10.6)" rx="4.73" ry="4.58"/>
<circle fill="#fbfbfa" cx="652.22" cy="591.60" r="4.61"/>
<path fill="#fbfbfa" d="
  M 276.00 617.75
  A 0.45 0.45 0.0 0 1 276.45 618.20
  L 276.45 642.90
  A 1.82 1.81 80.2 0 1 275.25 644.61
  C 256.04 651.51 232.36 648.03 227.34 624.74
  C 224.80 612.94 228.72 599.39 239.57 592.93
  Q 247.39 588.28 256.16 588.07
  Q 265.60 587.84 272.90 590.58
  A 1.74 1.74 0.0 0 1 274.04 592.21
  L 274.04 596.04
  A 0.98 0.98 0.0 0 1 272.72 596.96
  Q 260.28 592.32 249.36 595.33
  C 233.07 599.82 230.09 622.38 239.56 634.19
  C 246.11 642.35 259.22 642.97 268.58 640.25
  A 1.22 1.21 82.1 0 0 269.46 639.08
  L 269.46 624.18
  A 0.62 0.62 0.0 0 0 268.84 623.56
  L 258.42 623.56
  A 0.97 0.97 0.0 0 1 257.45 622.59
  L 257.45 618.67
  A 0.92 0.92 0.0 0 1 258.37 617.75
  L 276.00 617.75
  Z"
/>
<rect fill="#fbfbfa" x="-3.48" y="-28.85" transform="translate(318.77,617.79) rotate(0.1)" width="6.96" height="57.70" rx="0.67"/>
<path fill="#fbfbfa" d="
  M 221.93 646.87
  L 215.97 646.87
  A 3.66 3.63 -21.1 0 1 213.28 645.69
  Q 200.29 631.61 190.35 618.58
  A 0.64 0.64 0.0 0 0 189.47 618.45
  C 185.65 621.24 185.98 624.10 186.00 628.90
  Q 186.05 642.14 185.89 646.32
  A 0.42 0.41 0.7 0 1 185.47 646.72
  L 179.63 646.72
  A 0.63 0.63 0.0 0 1 179.00 646.09
  L 179.00 589.64
  A 0.47 0.47 0.0 0 1 179.47 589.17
  L 185.53 589.17
  A 0.47 0.47 0.0 0 1 186.00 589.64
  L 186.00 615.18
  A 0.55 0.55 0.0 0 0 186.95 615.56
  L 210.61 590.24
  A 3.68 3.67 21.3 0 1 213.31 589.06
  L 219.00 589.06
  A 0.67 0.67 0.0 0 1 219.48 590.20
  L 195.97 614.51
  A 1.12 1.11 46.4 0 0 195.94 616.03
  L 222.39 645.84
  A 0.62 0.62 0.0 0 1 221.93 646.87
  Z"
/>
<path fill="#fbfbfa" d="
  M 343.61 611.50
  A 0.31 0.31 0.0 0 0 344.18 611.67
  Q 348.52 604.98 356.85 604.15
  Q 367.41 603.10 372.05 612.40
  A 0.76 0.76 0.0 0 0 373.41 612.39
  C 376.44 606.07 384.17 603.39 390.90 604.20
  C 400.84 605.40 403.53 614.34 403.47 623.15
  Q 403.36 636.00 403.29 645.72
  A 0.91 0.91 0.0 0 1 402.39 646.62
  L 397.78 646.63
  A 1.00 1.00 0.0 0 1 396.78 645.63
  Q 396.65 628.50 396.79 621.67
  C 396.90 615.60 394.25 609.86 387.38 609.66
  C 377.60 609.39 373.69 617.32 373.79 626.21
  Q 373.87 633.84 373.62 645.73
  A 1.12 1.12 0.0 0 1 372.50 646.83
  L 368.08 646.84
  A 1.21 1.21 0.0 0 1 366.87 645.62
  Q 366.97 623.05 366.89 620.73
  C 366.68 615.55 363.73 610.32 358.15 609.92
  C 353.01 609.56 348.83 611.04 346.25 615.68
  Q 344.25 619.26 344.04 622.79
  Q 343.88 625.47 343.94 645.47
  A 1.30 1.29 -0.1 0 1 342.64 646.76
  L 338.56 646.77
  A 1.16 1.16 0.0 0 1 337.40 645.61
  L 337.32 606.79
  A 1.33 1.33 0.0 0 1 338.65 605.46
  L 342.25 605.45
  A 1.35 1.35 0.0 0 1 343.60 606.80
  L 343.61 611.50
  Z"
/>
<path fill="#fbfbfa" d="
  M 423.49 611.47
  A 0.31 0.31 0.0 0 0 424.06 611.64
  Q 428.42 604.95 436.75 604.14
  Q 447.32 603.11 451.94 612.43
  A 0.76 0.76 0.0 0 0 453.30 612.42
  C 456.35 606.10 464.09 603.44 470.82 604.26
  C 480.76 605.48 483.43 614.43 483.35 623.25
  Q 483.22 636.10 483.13 645.82
  A 0.91 0.91 0.0 0 1 482.22 646.72
  L 477.61 646.72
  A 1.00 1.00 0.0 0 1 476.61 645.72
  Q 476.52 628.58 476.67 621.75
  C 476.80 615.68 474.16 609.93 467.28 609.72
  C 457.50 609.43 453.57 617.35 453.65 626.24
  Q 453.72 633.88 453.44 645.77
  A 1.12 1.12 0.0 0 1 452.32 646.87
  L 447.90 646.87
  A 1.21 1.21 0.0 0 1 446.69 645.65
  Q 446.84 623.07 446.76 620.75
  C 446.56 615.57 443.62 610.33 438.04 609.92
  C 432.90 609.54 428.71 611.02 426.12 615.65
  Q 424.12 619.23 423.90 622.76
  Q 423.73 625.44 423.75 645.45
  A 1.30 1.29 -0.0 0 1 422.45 646.74
  L 418.37 646.74
  A 1.16 1.16 0.0 0 1 417.21 645.58
  L 417.21 606.74
  A 1.33 1.33 0.0 0 1 418.54 605.41
  L 422.14 605.41
  A 1.35 1.35 0.0 0 1 423.49 606.76
  L 423.49 611.47
  Z"
/>
<path fill="#fbfbfa" d="
  M 753.81 646.06
  A 0.66 0.66 0.0 0 1 753.15 646.71
  L 747.74 646.71
  A 0.65 0.65 0.0 0 1 747.09 646.05
  Q 747.26 633.15 747.16 624.26
  C 747.09 618.34 746.02 611.93 739.60 610.22
  C 729.49 607.52 722.74 615.55 722.86 625.02
  Q 722.87 625.90 722.60 645.63
  A 1.12 1.11 -89.5 0 1 721.49 646.73
  L 717.13 646.73
  A 0.94 0.94 0.0 0 1 716.19 645.79
  L 716.19 606.20
  A 0.88 0.88 0.0 0 1 717.07 605.32
  L 721.37 605.32
  A 1.01 1.00 -90.0 0 1 722.37 606.33
  L 722.37 611.33
  A 0.33 0.33 0.0 0 0 722.96 611.54
  C 724.89 609.20 728.18 606.28 730.99 605.24
  C 736.74 603.11 744.52 603.53 749.15 607.92
  C 754.78 613.23 754.02 621.77 753.95 628.94
  Q 753.86 638.70 753.81 646.06
  Z"
/>
<path fill="#fbfbfa" d="
  M 517.37 604.15
  C 530.03 605.17 537.80 614.95 536.78 627.57
  C 535.77 640.18 526.53 648.60 513.87 647.58
  C 501.21 646.56 493.44 636.77 494.45 624.16
  C 495.47 611.55 504.70 603.13 517.37 604.15
  Z
  M 515.7733 609.2912
  A 16.64 14.49 -89.3 0 0 501.0811 625.7530
  A 16.64 14.49 -89.3 0 0 515.3667 642.5688
  A 16.64 14.49 -89.3 0 0 530.0589 626.1070
  A 16.64 14.49 -89.3 0 0 515.7733 609.2912
  Z"
/>
<path fill="#fbfbfa" d="
  M 636.38 607.88
  L 636.38 610.77
  A 1.10 1.10 0.0 0 1 634.76 611.74
  Q 628.90 608.65 622.55 609.80
  C 617.60 610.71 615.34 616.25 619.04 619.92
  C 620.29 621.16 623.63 622.85 625.97 623.56
  C 634.11 626.06 640.32 629.52 637.77 639.51
  C 636.76 643.46 631.91 646.40 628.26 647.04
  Q 620.07 648.47 611.41 645.32
  A 2.25 2.24 10.1 0 1 609.93 643.21
  L 609.93 640.10
  A 1.28 1.28 0.0 0 1 611.93 639.04
  C 616.83 642.40 626.16 644.76 630.69 639.43
  A 3.36 3.19 76.4 0 0 631.26 638.44
  Q 633.12 633.42 627.96 630.81
  Q 624.22 628.92 620.39 627.34
  C 614.01 624.72 609.40 621.36 610.75 613.78
  C 611.65 608.74 616.69 605.08 621.28 604.57
  C 625.89 604.06 631.06 603.89 635.16 605.92
  A 2.18 2.18 0.0 0 1 636.38 607.88
  Z"
/>
<path fill="#fbfbfa" d="
  M 704.62 627.25
  Q 704.31 632.01 703.74 633.76
  Q 699.46 647.01 685.22 647.53
  C 671.98 648.00 661.95 637.85 662.84 624.48
  C 663.73 611.11 675.02 602.37 688.07 604.59
  Q 702.12 606.99 704.61 620.69
  Q 704.94 622.50 704.62 627.25
  Z
  M 669.96 625.86
  C 669.92 634.61 674.63 642.13 684.18 642.18
  C 693.74 642.23 698.52 634.75 698.56 626.00
  C 698.60 617.24 693.89 609.72 684.34 609.68
  C 674.78 609.63 670.00 617.10 669.96 625.86
  Z"
/>
<path fill="#fbfbfa" d="
  M 821.93 643.25
  A 0.62 0.62 0.0 0 1 821.23 643.87
  L 817.35 643.41
  A 1.36 1.34 -54.8 0 0 816.57 643.55
  L 813.63 645.04
  A 2.25 2.23 -61.9 0 1 812.98 645.24
  C 801.00 646.93 798.45 636.08 797.88 626.93
  C 797.41 619.44 798.50 608.52 806.25 605.51
  Q 812.90 602.93 817.76 606.91
  Q 821.85 610.26 821.62 615.38
  A 0.71 0.70 1.3 0 1 820.91 616.05
  L 818.05 616.05
  A 0.58 0.57 -1.6 0 1 817.47 615.51
  C 817.01 609.18 811.11 606.12 806.09 610.12
  C 801.15 614.06 801.05 631.85 804.59 637.16
  Q 809.39 644.38 816.44 639.62
  A 2.65 2.65 0.0 0 0 817.60 637.43
  L 817.60 629.19
  A 0.80 0.80 0.0 0 0 816.76 628.39
  Q 814.07 628.52 812.35 628.40
  Q 810.95 628.30 810.59 627.68
  A 1.85 1.71 72.1 0 1 811.86 624.94
  Q 816.68 624.63 821.14 624.91
  A 0.85 0.84 2.2 0 1 821.93 625.75
  L 821.93 643.25
  Z"
/>
<path fill="#fbfbfa" d="
  M 846.81 642.23
  A 0.39 0.38 -23.8 0 0 846.15 641.98
  C 839.62 648.49 829.18 644.57 827.37 635.92
  Q 825.57 627.25 826.32 618.83
  C 826.80 613.51 829.67 606.99 835.12 605.35
  C 842.76 603.05 850.56 606.84 850.29 615.45
  A 0.66 0.66 0.0 0 1 849.73 616.08
  C 848.44 616.27 846.40 616.86 845.97 614.81
  C 844.02 605.54 833.58 606.92 831.57 614.86
  C 830.17 620.43 828.98 636.46 835.12 640.15
  Q 839.68 642.89 844.12 639.74
  C 846.85 637.81 846.30 632.57 846.07 629.34
  A 0.77 0.77 0.0 0 0 845.30 628.62
  L 839.82 628.62
  A 1.45 1.44 -90.0 0 1 838.38 627.17
  L 838.38 626.06
  A 1.35 1.35 0.0 0 1 839.73 624.71
  L 850.29 624.71
  A 0.35 0.35 0.0 0 1 850.64 625.06
  L 850.64 642.85
  A 1.47 1.46 84.2 0 1 849.47 644.29
  Q 846.92 644.81 846.81 642.23
  Z"
/>
<path fill="#fbfbfa" d="
  M 782.76 605.07
  Q 784.60 605.09 785.20 605.20
  A 0.86 0.84 -2.2 0 1 785.87 605.81
  L 796.10 643.79
  A 0.83 0.83 0.0 0 1 795.30 644.83
  L 792.69 644.83
  A 1.31 1.30 -7.5 0 1 791.43 643.87
  L 788.79 634.04
  A 1.03 1.03 0.0 0 0 787.84 633.29
  Q 787.06 633.25 782.50 633.21
  Q 777.94 633.17 777.16 633.19
  A 1.03 1.03 0.0 0 0 776.20 633.92
  L 773.38 643.70
  A 1.31 1.30 8.6 0 1 772.10 644.64
  L 769.49 644.59
  A 0.83 0.83 0.0 0 1 768.71 643.54
  L 779.64 605.75
  A 0.86 0.84 3.3 0 1 780.32 605.16
  Q 780.92 605.06 782.76 605.07
  Z
  M 777.25 628.65
  A 0.39 0.39 0.0 0 0 777.63 629.14
  L 787.30 629.21
  A 0.39 0.39 0.0 0 0 787.68 628.72
  L 782.97 610.62
  A 0.39 0.39 0.0 0 0 782.22 610.62
  L 777.25 628.65
  Z"
/>
<path fill="#fbfbfa" d="
  M 563.11 639.46
  Q 563.65 639.47 563.88 638.88
  Q 570.29 622.36 576.10 606.47
  A 1.82 1.82 0.0 0 1 577.81 605.28
  L 582.45 605.28
  A 0.75 0.74 10.8 0 1 583.15 606.30
  L 567.38 645.80
  A 1.78 1.78 0.0 0 1 566.45 646.76
  Q 566.04 646.94 563.09 646.94
  Q 560.13 646.93 559.73 646.74
  A 1.78 1.78 0.0 0 1 558.80 645.78
  L 543.24 606.19
  A 0.75 0.74 -10.5 0 1 543.95 605.18
  L 548.59 605.20
  A 1.82 1.82 0.0 0 1 550.29 606.40
  Q 556.02 622.32 562.34 638.88
  Q 562.57 639.46 563.11 639.46
  Z"
/>
<rect fill="#fbfbfa" x="-3.37" y="-20.74" transform="translate(595.23,626.07) rotate(0.2)" width="6.74" height="41.48" rx="0.86"/>
<rect fill="#fbfbfa" x="-3.33" y="-20.67" transform="translate(652.08,626.07) rotate(0.1)" width="6.66" height="41.34" rx="0.99"/>
<ellipse fill="#95a5bd" cx="0.00" cy="0.00" transform="translate(515.57,625.93) rotate(-89.3)" rx="16.64" ry="14.49"/>
<path fill="#95a5bd" d="
  M 684.34 609.68
  C 693.89 609.72 698.60 617.24 698.56 626.00
  C 698.52 634.75 693.74 642.23 684.18 642.18
  C 674.63 642.13 669.92 634.61 669.96 625.86
  C 670.00 617.10 674.78 609.63 684.34 609.68
  Z"
/>
<path fill="#95a5bd" d="
  M 777.25 628.65
  L 782.22 610.62
  A 0.39 0.39 0.0 0 1 782.97 610.62
  L 787.68 628.72
  A 0.39 0.39 0.0 0 1 787.30 629.21
  L 777.63 629.14
  A 0.39 0.39 0.0 0 1 777.25 628.65
  Z"
/>
</svg>
