<?xml version="1.0" encoding="UTF-8"?>
<svg id="Ebene_1" xmlns="http://www.w3.org/2000/svg" version="1.1" viewBox="0 0 1024 1024">
  <!-- Generator: Adobe Illustrator 29.6.1, SVG Export Plug-In . SVG Version: 2.1.1 Build 9)  -->
  <g>
    <path d="M423.7,407.8v5.2c-5.7.2-10.1.8-13,2-3,1.1-4.9,3.2-6,6.2-1,3-1.6,7.8-1.6,14.2v129c0,6.2.5,10.9,1.6,14,1,3.1,3,5.2,6,6.2,2.9,1,7.3,1.7,13,2.1v5.2c-4.2-.3-9.4-.6-15.7-.7-6.3,0-12.8-.1-19.4-.1s-14.1,0-20.4.1c-6.3,0-11.5.3-15.5.7v-5.2c5.9-.3,10.3-1,13.3-2.1,2.9-1,4.9-3.1,5.9-6.2,1-3.1,1.4-7.8,1.4-14v-129c0-6.4-.5-11.1-1.4-14.2-1-3-2.9-5.1-6-6.2-3-1.1-7.4-1.8-13.1-2v-5.2c4,.2,9.1.3,15.5.5,6.3.2,13.1.3,20.4.3s13,0,19.4-.3c6.3-.2,11.6-.3,15.7-.5ZM508.9,407.8v5.2c-5.5.9-11,2.8-16.5,5.8-5.5,3-11,8-16.5,15l-49.9,62.4,8.8-15.9,62.4,90.5c2.8,4.2,5.8,7.5,9,9.9,3.2,2.4,7.3,4.4,12.3,6v5.2c-4.7-.3-10.3-.6-16.9-.7-6.6,0-12.4-.1-17.4-.1s-7,0-11.6.1c-4.6,0-10.4.3-17.3.7v-5.2c6.4-.3,10.4-1.4,11.8-3.1,1.5-1.7.8-4.6-2-8.6l-37.7-58.5c-3.1-4.9-5.9-8.5-8.3-11-2.4-2.5-4.9-4.2-7.5-4.9-2.6-.8-5.8-1.3-9.6-1.4v-5.5c7.3-.2,13.6-1.8,18.8-4.9,5.3-3.1,10.3-7.4,15-12.7l21.6-27.3c6.1-7.5,10-13.8,11.7-19.1,1.7-5.3,1.3-9.3-1.3-12.1-2.6-2.8-7.5-4.2-14.6-4.4v-5.2c3.6.2,7.2.3,10.8.4,3.6,0,7.2.2,10.9.3,3.7,0,7.4.1,11,.1s9,0,12.9-.3c3.9-.2,7.2-.3,10-.5Z"/>
    <path d="M606.2,404.1c11.4,0,20.7,1.7,27.8,5.1,7.1,3.4,13.6,7.3,19.5,11.8,2.2,1.7,4,2.6,5.2,2.6,3.3,0,5.5-5.3,6.5-15.9h6c-.3,6.6-.6,14.5-.8,23.8-.2,9.3-.3,21.6-.3,37h-6c-1.2-8.3-2.8-16-4.8-23.1-2-7.1-5.4-13.2-10.3-18.2-4.7-5.5-10.8-9.9-18.3-13s-15.2-4.7-23-4.7-17,2.2-23.9,6.6c-6.9,4.4-12.8,10.7-17.5,18.8-4.8,8.1-8.4,17.7-10.9,28.7-2.5,11-3.8,23.1-3.8,36.3,0,31.2,4.8,54,14.4,68.5,9.6,14.5,24.1,21.7,43.6,21.7s10.4-.8,14.4-2.3c4.1-1.6,7.3-3.1,9.8-4.7,2.9-2.1,4.9-4.1,5.7-6.1.9-2,1.3-4.6,1.3-7.9v-25.2c0-7.5-.6-13-1.9-16.5-1.3-3.6-3.9-6-7.7-7.3-3.8-1.3-9.4-2-16.6-2.2v-5.2c3.3.2,7.2.3,11.7.4,4.5,0,9.2.2,14.2.3,4.9,0,9.4.1,13.4.1,6.2,0,11.9,0,17-.3,5.1-.2,9.3-.3,12.6-.5v5.2c-3.6.2-6.4.8-8.2,1.8-1.8,1-3,3.1-3.6,6.2-.6,3.1-.9,7.9-.9,14.3v51.5h-5.2c-.2-2.9-.8-6.2-1.9-9.6-1.1-3.5-2.8-5.2-5.1-5.2s-2.5.3-3.8.8c-1.3.5-3.5,1.8-6.6,3.9-6.1,4.2-12.4,7.5-19,10-6.6,2.5-14,3.8-22.4,3.8-18.5,0-34.4-3.7-47.6-11-13.2-7.4-23.2-18-30-32-6.8-14-10.3-30.6-10.3-49.8s3.8-37.5,11.3-52.3c7.5-14.7,17.9-26.1,30.9-34.2,13.1-8.1,28.1-12.1,45.1-12.1Z"/>
  </g>
  <g>
    <path d="M83.2,626.8v3.6c-4,.1-7,.6-9,1.3-2,.8-3.4,2.2-4.1,4.3-.7,2.1-1.1,5.4-1.1,9.8v89.3c0,4.3.4,7.6,1.1,9.7.7,2.2,2.1,3.6,4.1,4.3,2,.7,5,1.2,9,1.4v3.6c-2.9-.2-6.5-.4-10.9-.5-4.4,0-8.9,0-13.4,0s-9.8,0-14.1,0c-4.4,0-8,.2-10.7.5v-3.6c4.1-.2,7.1-.7,9.2-1.4,2-.7,3.4-2.2,4-4.3.7-2.2,1-5.4,1-9.7v-89.3c0-4.4-.4-7.7-1.1-9.8-.7-2.1-2.1-3.5-4.1-4.3-2-.8-5-1.2-9-1.3v-3.6c2.8.1,6.3.2,10.7.4,4.4.1,9.1.2,14.1.2s9,0,13.4-.2c4.4-.1,8-.2,10.9-.4Z"/>
    <path d="M156.5,658.8c4.6,0,8.4.6,11.5,1.9,3.1,1.3,5.6,3,7.6,5.1,2.2,2.3,3.7,5.3,4.5,9.1.8,3.8,1.3,8.5,1.3,14.3v48.2c0,5,1,8.5,2.9,10.3,1.9,1.8,5.2,2.7,9.7,2.7v3.8c-2-.1-5.2-.3-9.5-.5-4.3-.2-8.4-.3-12.5-.3s-8.1,0-12,.3c-3.9.2-6.9.3-8.9.5v-3.8c4,0,6.8-.9,8.4-2.7,1.6-1.8,2.4-5.2,2.4-10.3v-53.3c0-3.5-.2-6.6-.7-9.5-.5-2.8-1.6-5.1-3.3-6.8-1.7-1.7-4.5-2.6-8.2-2.6s-8,1.3-11.2,3.8c-3.3,2.5-5.9,6-7.9,10.3-2,4.4-3,9.3-3,14.7v43.4c0,5,.8,8.5,2.5,10.3,1.7,1.8,4.4,2.7,8.3,2.7v3.8c-1.9-.1-4.8-.3-8.6-.5-3.8-.2-7.8-.3-11.9-.3s-8.3,0-12.8.3c-4.4.2-7.7.3-9.9.5v-3.8c4.7,0,8-.9,10-2.7,2-1.8,3-5.2,3-10.3v-56.5c0-5.4-.9-9.4-2.7-12-1.8-2.6-5.2-3.9-10.3-3.9v-3.8c3.8.4,7.6.5,11.2.5s7.9-.2,11.4-.6c3.5-.4,6.8-1,9.8-1.9v19.6c3.1-7.2,7.3-12.4,12.5-15.5,5.2-3.1,10.7-4.7,16.5-4.7ZM210.7,658.8c4.6,0,8.4.6,11.5,1.9,3.1,1.3,5.6,3,7.6,5.1,2.2,2.3,3.7,5.3,4.5,9.1.8,3.8,1.3,8.5,1.3,14.3v48.2c0,5,1,8.5,3,10.3,2,1.8,5.3,2.7,10,2.7v3.8c-2-.1-5.2-.3-9.5-.5-4.3-.2-8.6-.3-12.8-.3s-8.1,0-12,.3c-3.9.2-6.9.3-8.9.5v-3.8c4,0,6.8-.9,8.4-2.7,1.6-1.8,2.4-5.2,2.4-10.3v-53.3c0-3.5-.2-6.6-.7-9.5-.5-2.8-1.6-5.1-3.4-6.8-1.8-1.7-4.6-2.6-8.5-2.6s-8,1.3-11.2,3.9c-3.3,2.6-5.9,6.1-7.9,10.4-2,4.4-3,9.3-3,14.7l-.7-14.9c3.2-7.9,7.6-13.3,13.1-16.2,5.5-2.9,11.1-4.3,17-4.3Z"/>
    <path d="M317.4,658.8c4.6,0,8.4.6,11.5,1.9,3.1,1.3,5.6,3,7.6,5.1,2.2,2.3,3.7,5.3,4.5,9.1.8,3.8,1.3,8.5,1.3,14.3v48.2c0,5,1,8.5,2.9,10.3,1.9,1.8,5.2,2.7,9.7,2.7v3.8c-2-.1-5.2-.3-9.4-.5-4.3-.2-8.4-.3-12.5-.3s-8.1,0-12,.3c-3.9.2-6.9.3-8.9.5v-3.8c4,0,6.8-.9,8.4-2.7,1.6-1.8,2.4-5.2,2.4-10.3v-53.3c0-3.5-.2-6.6-.7-9.5-.5-2.8-1.6-5.1-3.3-6.8-1.7-1.7-4.5-2.6-8.2-2.6s-8,1.3-11.2,3.8c-3.3,2.5-5.9,6-7.9,10.3-2,4.4-3,9.3-3,14.7v43.4c0,5,.8,8.5,2.5,10.3,1.7,1.8,4.4,2.7,8.3,2.7v3.8c-1.9-.1-4.8-.3-8.6-.5-3.8-.2-7.8-.3-11.9-.3s-8.3,0-12.8.3c-4.4.2-7.7.3-9.9.5v-3.8c4.7,0,8-.9,10-2.7,2-1.8,3-5.2,3-10.3v-56.5c0-5.4-.9-9.4-2.7-12-1.8-2.6-5.2-3.9-10.3-3.9v-3.8c3.8.4,7.6.5,11.2.5s7.9-.2,11.4-.6c3.5-.4,6.8-1,9.8-1.9v19.6c3.1-7.2,7.3-12.4,12.5-15.5,5.2-3.1,10.7-4.7,16.5-4.7ZM371.6,658.8c4.6,0,8.4.6,11.5,1.9,3.1,1.3,5.6,3,7.6,5.1,2.2,2.3,3.7,5.3,4.5,9.1.8,3.8,1.3,8.5,1.3,14.3v48.2c0,5,1,8.5,3,10.3,2,1.8,5.3,2.7,10,2.7v3.8c-2-.1-5.2-.3-9.5-.5-4.3-.2-8.6-.3-12.8-.3s-8.1,0-12,.3c-3.9.2-6.9.3-8.9.5v-3.8c4,0,6.8-.9,8.4-2.7,1.6-1.8,2.4-5.2,2.4-10.3v-53.3c0-3.5-.2-6.6-.7-9.5-.5-2.8-1.6-5.1-3.4-6.8-1.8-1.7-4.6-2.6-8.5-2.6s-7.9,1.3-11.2,3.9c-3.3,2.6-5.9,6.1-7.9,10.4-2,4.4-3,9.3-3,14.7l-.7-14.9c3.2-7.9,7.6-13.3,13.1-16.2,5.5-2.9,11.1-4.3,17-4.3Z"/>
    <path d="M462,658.8c8,0,15.2,1.7,21.4,5,6.2,3.4,11.2,8.6,14.9,15.8,3.7,7.2,5.6,16.6,5.6,28.3s-1.9,21-5.6,28.2c-3.7,7.1-8.7,12.4-14.9,15.7-6.2,3.3-13.4,4.9-21.4,4.9s-15.1-1.7-21.4-4.9c-6.4-3.3-11.4-8.5-15-15.7-3.7-7.1-5.5-16.5-5.5-28.2s1.8-21.1,5.5-28.3c3.7-7.2,8.7-12.5,15-15.8,6.4-3.4,13.5-5,21.4-5ZM462,662.4c-6.2,0-11.3,3.6-15.3,10.7-4,7.1-5.9,18.8-5.9,34.8s2,27.6,5.9,34.6c4,7,9.1,10.5,15.3,10.5s11.2-3.5,15.2-10.5c4-7,6-18.6,6-34.6s-2-27.7-6-34.8c-4-7.1-9.1-10.7-15.2-10.7Z"/>
    <path d="M598.9,661.3v3.6c-2.3.4-4.4,1.5-6.4,3.5s-3.8,5.4-5.5,10.2l-28.4,76.3h-5.9l-32.8-79.7c-1.9-4.7-3.8-7.5-5.7-8.6-1.9-1-3.5-1.5-4.8-1.5v-3.8c2.9.2,5.8.5,8.9.6,3.1.2,6.4.3,10.2.3s7.6,0,11.8-.3c4.1-.2,8-.4,11.6-.6v3.8c-2.9,0-5.4.2-7.6.5-2.2.4-3.7,1.4-4.3,3.1-.7,1.7-.3,4.7,1.2,8.9l22.1,55.8-1.4,1.4,18.5-49.1c1.8-4.8,2.5-8.7,2.2-11.6-.4-2.9-1.6-5.2-3.8-6.7-2.2-1.5-5.3-2.4-9.4-2.6v-3.6c2,.1,3.9.2,5.7.3,1.7,0,3.4.1,5,.2,1.6,0,3.3,0,5.1,0,2.6,0,5.1,0,7.5-.2,2.3-.1,4.4-.2,6.2-.4Z"/>
    <path d="M636.6,659.3v78.1c0,5,1,8.5,3,10.3,2,1.8,5.3,2.7,10,2.7v3.8c-2-.1-5.2-.3-9.5-.5-4.3-.2-8.6-.3-13-.3s-8.7,0-13,.3c-4.4.2-7.7.3-9.8.5v-3.8c4.7,0,8-.9,10-2.7,2-1.8,3-5.2,3-10.3v-56.5c0-5.4-.9-9.4-2.7-12-1.8-2.6-5.2-3.9-10.3-3.9v-3.8c3.8.4,7.6.5,11.2.5s7.9-.2,11.4-.6c3.5-.4,6.8-1,9.8-1.9ZM625.8,616c3.7,0,6.8,1.2,9.4,3.5,2.5,2.3,3.8,5.3,3.8,8.7s-1.3,6.4-3.8,8.7c-2.5,2.3-5.6,3.5-9.4,3.5s-6.8-1.2-9.4-3.5c-2.5-2.3-3.8-5.2-3.8-8.7s1.3-6.4,3.8-8.7c2.5-2.3,5.6-3.5,9.4-3.5Z"/>
    <path d="M691.6,658.8c4.8,0,9,.8,12.5,2.2,3.5,1.5,6.1,2.9,7.7,4.1,4,3.1,6.4,1.1,7.4-6.1h4c-.2,3.4-.4,7.4-.5,12.1-.1,4.7-.2,11-.2,18.8h-4c-.7-4.4-2-8.8-3.7-13-1.7-4.2-4.3-7.7-7.6-10.4-3.3-2.8-7.6-4.1-12.9-4.1s-7.3,1.1-9.9,3.3c-2.6,2.2-4,5.5-4,9.8s1.1,6.7,3.2,9.4c2.2,2.6,5,5.1,8.4,7.4,3.4,2.3,7.1,4.7,11.1,7.4,4.4,3,8.4,6,12,8.9,3.5,2.9,6.4,6.2,8.5,9.8,2.1,3.6,3.2,7.8,3.2,12.6s-1.5,10.2-4.4,14c-2.9,3.8-6.8,6.8-11.6,8.7-4.8,2-10.1,3-15.8,3s-5.6-.3-8.1-.8c-2.5-.5-4.9-1.2-7-2.1-1.3-.7-2.6-1.5-3.9-2.2-1.3-.8-2.5-1.5-3.7-2.2-1.2-.8-2.3-.7-3.2.4-1,1.1-1.7,3-2.2,5.8h-4c.2-3.8.4-8.5.5-14,.1-5.5.2-12.8.2-22h4c.8,6.6,2.1,12.4,3.8,17.5,1.7,5,4.2,9,7.5,11.8,3.3,2.8,7.8,4.2,13.6,4.2s4.6-.5,6.8-1.5c2.3-1,4.2-2.7,5.7-5,1.5-2.3,2.2-5.3,2.2-9.2s-1.8-9.6-5.5-13c-3.7-3.4-8.4-7-14.1-10.9-4.1-2.9-8-5.7-11.6-8.5-3.7-2.8-6.6-6-8.9-9.5-2.3-3.5-3.4-7.8-3.4-12.7s1.3-9.8,3.9-13.3c2.6-3.5,6-6.1,10.4-7.8,4.3-1.7,8.9-2.6,13.9-2.6Z"/>
    <path d="M771.9,659.3v78.1c0,5,1,8.5,3,10.3,2,1.8,5.3,2.7,10,2.7v3.8c-2-.1-5.2-.3-9.5-.5-4.3-.2-8.6-.3-13-.3s-8.7,0-13,.3c-4.4.2-7.7.3-9.8.5v-3.8c4.7,0,8-.9,10-2.7,2-1.8,3-5.2,3-10.3v-56.5c0-5.4-.9-9.4-2.7-12-1.8-2.6-5.2-3.9-10.3-3.9v-3.8c3.8.4,7.6.5,11.2.5s7.9-.2,11.4-.6c3.5-.4,6.8-1,9.8-1.9ZM761.1,616c3.7,0,6.8,1.2,9.4,3.5,2.5,2.3,3.8,5.3,3.8,8.7s-1.3,6.4-3.8,8.7c-2.5,2.3-5.6,3.5-9.4,3.5s-6.8-1.2-9.4-3.5c-2.5-2.3-3.8-5.2-3.8-8.7s1.3-6.4,3.8-8.7c2.5-2.3,5.6-3.5,9.4-3.5Z"/>
    <path d="M838.5,658.8c8,0,15.2,1.7,21.4,5,6.2,3.4,11.2,8.6,14.9,15.8,3.7,7.2,5.6,16.6,5.6,28.3s-1.9,21-5.6,28.2c-3.7,7.1-8.7,12.4-14.9,15.7-6.2,3.3-13.4,4.9-21.4,4.9s-15.1-1.7-21.4-4.9c-6.4-3.3-11.4-8.5-15-15.7-3.7-7.1-5.5-16.5-5.5-28.2s1.8-21.1,5.5-28.3c3.7-7.2,8.7-12.5,15-15.8,6.4-3.4,13.5-5,21.4-5ZM838.5,662.4c-6.2,0-11.3,3.6-15.3,10.7-4,7.1-5.9,18.8-5.9,34.8s2,27.6,5.9,34.6c4,7,9.1,10.5,15.3,10.5s11.2-3.5,15.2-10.5c4-7,6-18.6,6-34.6s-2-27.7-6-34.8c-4-7.1-9.1-10.7-15.2-10.7Z"/>
    <path d="M955.9,658.8c4.8,0,8.7.6,11.8,1.9s5.6,3,7.7,5.1c2.2,2.3,3.7,5.2,4.6,8.8.9,3.6,1.3,8.5,1.3,14.6v48.2c0,5,1,8.5,3,10.3,2,1.8,5.3,2.7,10,2.7v3.8c-2-.1-5.2-.3-9.5-.5-4.3-.2-8.6-.3-12.8-.3s-8.1,0-12.1.3c-4,.2-7.1.3-9.1.5v-3.8c4.1,0,7-.9,8.6-2.7,1.7-1.8,2.5-5.2,2.5-10.3v-53.3c0-3.5-.3-6.6-.9-9.5-.6-2.8-1.9-5.1-3.8-6.8-1.9-1.7-4.8-2.6-8.6-2.6s-8.4,1.3-11.8,3.8c-3.4,2.5-6.1,6-8.1,10.3-2,4.4-3,9.3-3,14.7v43.4c0,5,.9,8.5,2.6,10.3,1.7,1.8,4.6,2.7,8.5,2.7v3.8c-1.9-.1-4.8-.3-8.7-.5-3.9-.2-8-.3-12.2-.3s-8.3,0-12.8.3c-4.4.2-7.7.3-9.9.5v-3.8c4.7,0,8-.9,10-2.7,2-1.8,3-5.2,3-10.3v-56.5c0-5.4-.9-9.4-2.7-12-1.8-2.6-5.2-3.9-10.3-3.9v-3.8c3.8.4,7.6.5,11.2.5s7.9-.2,11.4-.6c3.5-.4,6.8-1,9.8-1.9v19.6c3.1-7.4,7.4-12.7,12.9-15.7,5.5-3,11.2-4.5,17.4-4.5Z"/>
  </g>
  <g>
    <path d="M483.5,803.2l24.4,62.8c.9,2.5,2,4.1,3.2,5,1.2.9,2.4,1.3,3.5,1.4v2c-1.6-.1-3.5-.2-5.7-.2-2.2,0-4.4,0-6.5,0s-5.4,0-7.8,0c-2.4,0-4.3.1-5.8.2v-2c3.4-.1,5.5-.7,6.4-1.8.9-1,.7-3.2-.6-6.7l-18-48.6,1.6-1.8-16.6,43.4c-1.2,3-1.9,5.5-2.1,7.5-.2,2,0,3.6.5,4.7.6,1.1,1.5,1.9,3,2.4,1.4.5,3.1.7,5.2.8v2c-2-.1-4-.2-6-.2-2,0-4,0-5.8,0s-3,0-4.2,0c-1.2,0-2.4.1-3.4.2v-2c1.4-.3,2.8-1.2,4.2-2.5,1.4-1.3,2.7-3.6,4-6.8l23.2-59.9h3.4ZM494,845.6v2h-29.8l1-2h28.8Z"/>
    <path d="M551.5,802.2c4.4,0,8,.7,10.7,2,2.7,1.3,5.2,2.8,7.5,4.5.9.7,1.5,1,2,1,1.3,0,2.1-2,2.5-6.1h2.3c-.1,2.5-.2,5.6-.3,9.1,0,3.6,0,8.3,0,14.2h-2.3c-.5-3.2-1.1-6.2-1.9-8.9-.8-2.7-2.1-5.1-3.9-7-1.8-2.1-4.2-3.8-7.1-5-2.9-1.2-5.8-1.8-8.8-1.8s-6.5.8-9.2,2.5c-2.7,1.7-4.9,4.1-6.8,7.2-1.8,3.1-3.2,6.8-4.2,11-1,4.2-1.4,8.9-1.4,14,0,12,1.8,20.8,5.5,26.3,3.7,5.6,9.3,8.4,16.8,8.4s4-.3,5.5-.9c1.6-.6,2.8-1.2,3.8-1.8,1.1-.8,1.9-1.6,2.2-2.4.3-.8.5-1.8.5-3v-9.7c0-2.9-.2-5-.8-6.3-.5-1.4-1.5-2.3-3-2.8-1.5-.5-3.6-.8-6.4-.9v-2c1.3,0,2.8.1,4.5.2,1.7,0,3.6,0,5.5,0,1.9,0,3.6,0,5.2,0,2.4,0,4.6,0,6.5-.1,2,0,3.6-.1,4.8-.2v2c-1.4,0-2.4.3-3.1.7-.7.4-1.2,1.2-1.4,2.4-.2,1.2-.3,3-.3,5.5v19.8h-2c0-1.1-.3-2.4-.8-3.7-.4-1.3-1.1-2-2-2s-1,.1-1.5.3c-.5.2-1.3.7-2.5,1.5-2.3,1.6-4.8,2.9-7.3,3.9-2.5,1-5.4,1.5-8.6,1.5-7.1,0-13.2-1.4-18.3-4.2-5.1-2.8-8.9-6.9-11.5-12.3-2.6-5.4-4-11.8-4-19.1s1.5-14.4,4.4-20.1c2.9-5.7,6.9-10,11.9-13.1,5-3.1,10.8-4.7,17.4-4.7Z"/>
  </g>
  <rect x="151.8" y="833.2" width="255.7" height="6"/>
  <rect x="625.8" y="833.2" width="255.7" height="6"/>
  <path d="M265.2,98.5c0-.5.4-.8.8-.8h51.5c.7,0,1.2.5,1.2,1.2h0v35.5c0,.4.4.8.8.8.1,0,.3,0,.4-.1L510.9,17.9c.5-.3,1.2-.3,1.7,0l329.6,200.8c.9.6,1.5,1.6,1.5,2.7,0,21.2,0,37.9,0,50.1,0,.5-.2.8-.6.8-.4,0-.8,0-1.2-.3-64.2-36.1-156.5-87.6-276.8-154.5-10.6-5.9-27.9-15.8-51.8-29.7-.4-.3-1-.3-1.4,0l-330.4,184.4c-.4.2-.9,0-1.1-.3,0-.1,0-.2,0-.4v-51.3c0-.3.2-.6.4-.7l83.6-51.3c.6-.3.9-.9.9-1.6v-68.2Z"/>
  <path d="M924.4,374.9c.1,0,.2.2.1.3h0c0,.1-.1.1-.2.1-31.6-13.5-64.7-25-99.3-34.5-22-6.1-42.1-11-60.4-14.8-144.4-30-289.6-33.8-435.5-11.5-17.3,2.6-40.5,7.1-56.8,10.2-58.1,11.2-116.8,28-172.4,51.3-.1,0-.3,0-.3-.1h0c0-.2,0-.3.1-.4,32.3-16.1,64.1-30.2,95.3-42.4,41.2-16.1,85.4-29.4,132.4-39.9,137.9-30.6,274.6-27.5,410,9.1,34.2,9.3,67.5,20.4,100.1,33.4,28.6,11.4,57.6,24.5,86.9,39.1Z"/>
</svg>