<?xml version="1.0" encoding="UTF-8" standalone="no"?>
<!DOCTYPE svg PUBLIC "-//W3C//DTD SVG 1.1//EN" "http://www.w3.org/Graphics/SVG/1.1/DTD/svg11.dtd">
<svg xmlns="http://www.w3.org/2000/svg" version="1.1" viewBox="0.00 0.00 1024.00 1024.00">
<g stroke-width="2.00" fill="none" stroke-linecap="butt">
<path stroke="#f5e1a5" vector-effect="non-scaling-stroke" d="
  M 486.97 268.45
  Q 475.46 276.59 464.44 285.23
  C 461.37 287.63 458.19 289.48 455.11 291.61
  A 1.74 1.74 0.0 0 0 454.38 293.22
  L 461.86 362.03"
/>
<path stroke="#e8d19f" vector-effect="non-scaling-stroke" d="
  M 461.86 362.03
  L 465.30 390.89
  A 0.91 0.91 0.0 0 1 464.52 391.90
  L 455.98 393.13
  A 1.05 1.04 84.0 0 0 455.09 394.23
  L 455.48 399.87
  A 0.85 0.85 0.0 0 0 456.45 400.66
  L 465.32 399.38
  A 0.84 0.84 0.0 0 1 466.23 399.93
  Q 466.50 400.71 466.43 401.74"
/>
<path stroke="#ddc395" vector-effect="non-scaling-stroke" d="
  M 466.43 401.74
  L 471.69 453.84
  A 0.70 0.70 0.0 0 1 471.04 454.61
  L 446.39 456.29
  A 0.64 0.64 0.0 0 1 445.70 455.64
  L 447.28 363.10"
/>
<path stroke="#e8d19f" vector-effect="non-scaling-stroke" d="
  M 447.28 363.10
  L 447.96 325.07
  A 0.80 0.79 -1.3 0 0 447.11 324.26
  L 406.62 327.02
  A 0.39 0.39 0.0 0 0 406.26 327.41
  L 406.51 369.79"
/>
<path stroke="#ddc395" vector-effect="non-scaling-stroke" d="
  M 406.51 369.79
  L 407.96 459.35
  A 0.77 0.76 85.8 0 1 407.30 460.12
  L 384.17 463.44
  A 0.82 0.82 0.0 0 1 383.23 462.62
  Q 383.28 421.76 383.22 405.52
  Q 383.22 405.21 383.55 402.34
  A 0.47 0.46 -86.5 0 1 384.01 401.93
  L 388.21 401.93
  A 2.54 2.54 0.0 0 0 390.15 401.03
  L 397.38 392.50
  A 0.69 0.69 0.0 0 0 396.85 391.37
  L 375.26 391.37
  A 0.50 0.50 0.0 0 1 374.91 390.51
  C 377.70 387.76 380.43 383.64 385.43 377.18
  Q 387.14 374.98 389.35 374.55
  Q 393.91 373.65 399.25 372.30
  A 0.59 0.58 38.2 0 0 399.11 371.15
  Q 385.92 370.91 372.96 372.23
  A 2.83 2.76 26.6 0 0 371.86 372.58
  Q 369.20 374.09 367.77 376.02
  Q 363.94 381.23 359.93 386.16
  Q 356.56 390.31 351.37 391.40
  A 0.93 0.93 0.0 0 0 351.18 393.16
  Q 353.19 394.08 355.72 394.23
  A 0.86 0.85 1.8 0 1 356.53 395.08
  L 356.53 467.35
  A 1.56 1.55 84.4 0 1 355.28 468.88
  Q 318.14 476.29 283.05 487.46
  C 272.21 490.91 259.39 495.96 250.58 499.29
  A 0.21 0.21 0.0 0 0 250.46 499.55
  L 250.46 499.57
  A 0.25 0.25 0.0 0 0 250.77 499.73
  C 297.22 487.46 342.43 480.43 391.11 475.35
  Q 422.19 472.11 458.63 470.80
  Q 474.98 470.21 491.27 469.77"
/>
<path stroke="#e8d19f" vector-effect="non-scaling-stroke" d="
  M 491.27 469.77
  L 531.47 469.81"
/>
<path stroke="#f5e1a5" vector-effect="non-scaling-stroke" d="
  M 531.47 469.81
  Q 569.87 470.27 608.07 473.23"
/>
<path stroke="#e8d19f" vector-effect="non-scaling-stroke" d="
  M 608.07 473.23
  Q 656.17 477.21 703.99 484.81"
/>
<path stroke="#ddc395" vector-effect="non-scaling-stroke" d="
  M 703.99 484.81
  Q 732.44 490.06 757.62 495.91
  Q 763.56 497.29 773.57 500.10
  A 0.25 0.25 0.0 0 0 773.87 499.95
  L 773.87 499.94
  A 0.25 0.24 -68.4 0 0 773.74 499.63
  Q 750.78 489.42 732.17 484.33
  Q 717.48 480.32 702.80 476.36"
/>
<path stroke="#e8d19f" vector-effect="non-scaling-stroke" d="
  M 702.80 476.36
  L 669.19 468.88
  A 1.56 1.56 0.0 0 1 667.97 467.36
  L 667.97 396.74
  A 2.84 2.84 0.0 0 1 669.88 394.06
  L 672.78 393.05
  A 0.75 0.75 0.0 0 0 672.79 391.64
  Q 667.30 389.69 663.43 385.03"
/>
<path stroke="#f5e1a5" vector-effect="non-scaling-stroke" d="
  M 663.43 385.03
  C 659.18 379.22 655.00 372.83 650.34 372.15
  Q 644.96 371.37 624.97 371.06
  A 0.61 0.60 -86.4 0 0 624.36 371.60
  L 624.35 371.63
  A 0.56 0.55 -81.3 0 0 624.78 372.23
  Q 632.23 373.85 634.62 374.74
  Q 637.16 375.68 639.07 378.17
  Q 643.60 384.02 649.31 390.80"
/>
<path stroke="#e8d19f" vector-effect="non-scaling-stroke" d="
  M 649.31 390.80
  L 627.12 391.46
  A 0.37 0.37 0.0 0 0 626.84 392.06
  L 634.36 401.45
  A 2.30 2.28 68.6 0 0 636.30 402.31
  L 640.12 402.04
  A 0.61 0.61 0.0 0 1 640.77 402.65
  L 640.77 462.23
  A 1.17 1.17 0.0 0 1 639.43 463.39
  Q 626.44 461.47 616.74 460.10
  Q 616.08 460.01 616.02 458.99"
/>
<path stroke="#ddc395" vector-effect="non-scaling-stroke" d="
  M 616.02 458.99
  L 617.85 355.96"
/>
<path stroke="#e8d19f" vector-effect="non-scaling-stroke" d="
  M 617.85 355.96
  L 618.03 328.27
  A 1.05 1.05 0.0 0 0 617.06 327.22
  L 577.44 324.10
  A 0.93 0.92 1.7 0 0 576.44 325.04
  L 578.46 455.10"
/>
<path stroke="#f5e1a5" vector-effect="non-scaling-stroke" d="
  M 578.46 455.10
  Q 578.48 456.00 577.72 456.37
  A 0.70 0.69 -55.4 0 1 577.34 456.44
  L 552.35 454.89"
/>
<path stroke="#ddc395" vector-effect="non-scaling-stroke" d="
  M 552.35 454.89
  L 557.95 400.73
  A 0.97 0.96 -84.8 0 1 558.98 399.87
  L 568.01 400.58
  A 1.10 1.10 0.0 0 0 569.20 399.57
  L 569.62 394.12
  A 1.62 1.62 0.0 0 0 568.14 392.38
  L 559.91 391.74
  A 1.07 1.06 -84.3 0 1 558.94 390.55
  L 561.13 371.72"
/>
<path stroke="#e8d19f" vector-effect="non-scaling-stroke" d="
  M 561.13 371.72
  L 566.70 319.99"
/>
<path stroke="#f5e1a5" vector-effect="non-scaling-stroke" d="
  M 566.70 319.99
  L 569.76 293.90
  A 2.38 2.38 0.0 0 0 568.81 291.71
  L 539.24 269.91"
/>
<path stroke="#e8d19f" vector-effect="non-scaling-stroke" d="
  M 539.24 269.91
  L 513.31 250.38
  A 1.79 1.77 -44.5 0 0 511.17 250.37
  L 486.97 268.45"
/>
<path stroke="#deb345" vector-effect="non-scaling-stroke" d="
  M 539.24 269.91
  L 535.72 283.84"
/>
<path stroke="#e8d19f" vector-effect="non-scaling-stroke" d="
  M 535.72 283.84
  L 513.73 266.41
  A 2.29 2.28 46.5 0 0 511.00 266.33
  Q 499.20 274.56 488.36 284.00"
/>
<path stroke="#deb345" vector-effect="non-scaling-stroke" d="
  M 488.36 284.00
  Q 487.20 279.54 485.46 275.30
  Q 484.49 272.94 484.87 271.62
  Q 485.34 269.98 486.97 268.45"
/>
<path stroke="#f5e1a5" vector-effect="non-scaling-stroke" d="
  M 535.72 283.84
  L 551.17 295.68
  A 2.59 2.58 -69.9 0 1 552.17 297.84
  L 551.10 319.80"
/>
<path stroke="#e8d19f" vector-effect="non-scaling-stroke" d="
  M 551.10 319.80
  L 548.33 376.05"
/>
<path stroke="#ddc395" vector-effect="non-scaling-stroke" d="
  M 548.33 376.05
  L 547.39 390.02
  A 0.94 0.94 0.0 0 1 546.37 390.90
  Q 523.01 389.03 499.94 389.74"
/>
<path stroke="#e8d19f" vector-effect="non-scaling-stroke" d="
  M 499.94 389.74
  L 476.92 391.05
  A 0.49 0.48 87.1 0 1 476.41 390.58
  L 474.99 354.75"
/>
<path stroke="#f5e1a5" vector-effect="non-scaling-stroke" d="
  M 474.99 354.75
  L 472.13 297.72
  A 2.71 2.70 70.1 0 1 473.20 295.43
  L 488.36 284.00"
/>
<path stroke="#deb345" vector-effect="non-scaling-stroke" d="
  M 474.99 354.75
  C 471.79 353.42 464.73 352.03 463.07 356.07
  Q 462.03 358.63 461.86 362.03"
/>
<path stroke="#deb345" vector-effect="non-scaling-stroke" d="
  M 566.70 319.99
  L 551.10 319.80"
/>
<path stroke="#c69535" vector-effect="non-scaling-stroke" d="
  M 561.13 371.72
  C 557.62 370.04 552.86 370.46 549.06 370.61
  A 0.54 0.54 0.0 0 0 548.54 371.13
  L 548.33 376.05"
/>
<path stroke="#c69535" vector-effect="non-scaling-stroke" d="
  M 499.94 389.74
  Q 499.70 397.78 506.73 397.96"
/>
<path stroke="#e8d19f" vector-effect="non-scaling-stroke" d="
  M 506.73 397.96
  L 477.18 399.04"
/>
<path stroke="#d3a53b" vector-effect="non-scaling-stroke" d="
  M 552.35 454.89
  L 544.22 454.47"
/>
<path stroke="#ddc395" vector-effect="non-scaling-stroke" d="
  M 544.22 454.47
  L 546.79 399.80
  A 0.93 0.93 0.0 0 0 545.88 398.83
  L 506.73 397.96"
/>
<path stroke="#c69535" vector-effect="non-scaling-stroke" d="
  M 466.43 401.74
  Q 471.00 398.33 477.18 399.04"
/>
<path stroke="#ddc395" vector-effect="non-scaling-stroke" d="
  M 477.18 399.04
  L 479.85 454.17
  A 0.55 0.55 0.0 0 0 480.43 454.69
  L 490.34 454.01
  A 0.52 0.52 0.0 0 0 490.83 453.49
  L 490.83 408.59
  A 0.87 0.87 0.0 0 1 491.70 407.72
  L 493.64 407.72
  A 0.90 0.90 0.0 0 1 494.54 408.62
  L 494.54 453.63
  A 0.42 0.41 -0.7 0 0 494.97 454.04
  L 498.32 454.01"
/>
<path stroke="#c69535" vector-effect="non-scaling-stroke" d="
  M 498.32 454.01
  Q 497.81 463.46 491.27 469.77"
/>
<path stroke="#f5e1a5" vector-effect="non-scaling-stroke" d="
  M 544.22 454.47
  L 533.67 454.11"
/>
<path stroke="#e8d19f" vector-effect="non-scaling-stroke" d="
  M 533.67 454.11
  Q 532.90 452.86 533.34 451.03"
/>
<path stroke="#ddc395" vector-effect="non-scaling-stroke" d="
  M 533.34 451.03
  L 533.26 408.65
  A 0.95 0.94 0.0 0 0 532.31 407.71
  L 530.49 407.71
  A 0.99 0.99 0.0 0 0 529.50 408.70
  L 529.52 451.68"
/>
<path stroke="#e8d19f" vector-effect="non-scaling-stroke" d="
  M 529.52 451.68
  Q 529.70 452.65 529.49 453.51
  A 0.66 0.65 6.7 0 1 528.85 454.01
  L 514.94 454.01
  A 1.00 1.00 0.0 0 1 514.17 453.65
  Q 513.57 452.96 513.72 451.93"
/>
<path stroke="#ddc395" vector-effect="non-scaling-stroke" d="
  M 513.72 451.93
  L 513.50 408.41
  A 1.09 1.09 0.0 0 0 512.41 407.33
  L 512.03 407.33
  A 1.44 1.44 0.0 0 0 510.59 408.76
  L 510.29 451.68"
/>
<path stroke="#e8d19f" vector-effect="non-scaling-stroke" d="
  M 510.29 451.68
  Q 510.52 452.69 510.15 453.30
  Q 509.82 453.86 508.73 453.89
  Q 503.67 454.04 498.32 454.01"
/>
<path stroke="#ddc395" vector-effect="non-scaling-stroke" d="
  M 427.68 386.72
  L 427.76 458.06
  A 0.19 0.19 0.0 0 1 427.57 458.25
  L 420.54 458.25
  A 0.18 0.17 -90.0 0 1 420.37 458.07
  L 420.36 341.04"
/>
<path stroke="#deb345" vector-effect="non-scaling-stroke" d="
  M 533.67 454.11
  Q 534.67 462.04 531.47 469.81"
/>
<path stroke="#c69535" vector-effect="non-scaling-stroke" d="
  M 447.28 363.10
  C 445.52 360.90 442.15 357.10 439.83 360.82"
/>
<path stroke="#e8d19f" vector-effect="non-scaling-stroke" d="
  M 439.83 360.82
  L 439.55 330.86
  A 1.04 1.03 87.7 0 0 438.44 329.83
  L 432.02 330.27
  A 1.02 1.01 88.2 0 0 431.07 331.29
  L 430.94 385.21"
/>
<path stroke="#c69535" vector-effect="non-scaling-stroke" d="
  M 430.94 385.21
  L 430.36 382.98
  A 0.69 0.68 80.2 0 0 429.65 382.47
  L 428.31 382.56
  A 0.52 0.51 83.8 0 0 427.84 383.15
  Q 428.07 384.81 427.68 386.72"
/>
<path stroke="#e8d19f" vector-effect="non-scaling-stroke" d="
  M 427.68 386.72
  L 427.75 330.76
  A 0.94 0.94 0.0 0 0 426.74 329.82
  L 421.09 330.21
  A 0.83 0.83 0.0 0 0 420.31 331.04
  L 420.36 341.04"
/>
<path stroke="#c69535" vector-effect="non-scaling-stroke" d="
  M 420.36 341.04
  Q 419.21 340.99 418.27 341.55
  A 0.95 0.93 75.8 0 0 417.82 342.32
  L 417.57 353.30"
/>
<path stroke="#e8d19f" vector-effect="non-scaling-stroke" d="
  M 417.57 353.30
  L 417.52 331.27
  A 1.25 1.25 0.0 0 0 416.19 330.03
  L 413.36 330.23
  A 1.22 1.22 0.0 0 0 412.21 331.45
  L 412.11 369.79"
/>
<path stroke="#c69535" vector-effect="non-scaling-stroke" d="
  M 412.11 369.79
  L 406.51 369.79"
/>
<path stroke="#ddc395" vector-effect="non-scaling-stroke" d="
  M 439.83 360.82
  L 440.88 456.17
  A 0.78 0.77 88.0 0 1 440.16 456.95
  L 431.00 457.57
  A 0.21 0.21 0.0 0 1 430.77 457.36
  L 430.94 385.21"
/>
<path stroke="#ddc395" vector-effect="non-scaling-stroke" d="
  M 417.57 353.30
  L 417.26 458.21
  A 1.07 1.07 0.0 0 1 416.19 459.28
  L 413.06 459.28
  A 1.06 1.06 0.0 0 1 412.00 458.22
  L 412.11 369.79"
/>
<path stroke="#c69535" vector-effect="non-scaling-stroke" d="
  M 513.72 451.93
  Q 512.04 452.64 510.29 451.68"
/>
<path stroke="#c69535" vector-effect="non-scaling-stroke" d="
  M 533.34 451.03
  Q 531.99 452.74 529.52 451.68"
/>
<path stroke="#c69535" vector-effect="non-scaling-stroke" d="
  M 617.85 355.96
  C 614.14 356.82 613.24 359.56 612.16 362.72"
/>
<path stroke="#e8d19f" vector-effect="non-scaling-stroke" d="
  M 612.16 362.72
  L 612.27 330.90
  A 0.98 0.97 0.3 0 0 611.29 329.92
  L 607.83 329.92
  A 0.99 0.99 0.0 0 0 606.84 330.91
  L 606.84 361.72"
/>
<path stroke="#c69535" vector-effect="non-scaling-stroke" d="
  M 606.84 361.72
  L 604.00 360.28"
/>
<path stroke="#e8d19f" vector-effect="non-scaling-stroke" d="
  M 604.00 360.28
  L 604.25 331.06
  A 0.95 0.95 0.0 0 0 603.30 330.10
  L 597.61 330.10
  A 0.94 0.93 90.0 0 0 596.68 331.04
  L 596.64 347.30"
/>
<path stroke="#c69535" vector-effect="non-scaling-stroke" d="
  M 596.64 347.30
  Q 596.01 345.03 594.64 343.36
  A 0.32 0.32 0.0 0 0 594.09 343.47
  L 593.35 345.81"
/>
<path stroke="#e8d19f" vector-effect="non-scaling-stroke" d="
  M 593.35 345.81
  L 593.21 330.72
  A 0.63 0.63 0.0 0 0 592.58 330.09
  L 585.17 330.09
  A 0.52 0.52 0.0 0 0 584.65 330.61
  L 583.00 456.28"
/>
<path stroke="#deb345" vector-effect="non-scaling-stroke" d="
  M 583.00 456.28
  L 578.46 455.10"
/>
<path stroke="#d3a53b" vector-effect="non-scaling-stroke" d="
  M 596.60 456.71
  Q 595.70 457.36 594.58 457.33
  A 0.78 0.77 79.8 0 1 593.90 456.85
  L 593.47 455.77"
/>
<path stroke="#c69535" vector-effect="non-scaling-stroke" d="
  M 702.80 476.36
  Q 701.12 480.64 703.99 484.81"
/>
<path stroke="#deb345" vector-effect="non-scaling-stroke" d="
  M 608.07 473.23
  Q 604.96 466.29 603.45 458.92"
/>
<path stroke="#ddc395" vector-effect="non-scaling-stroke" d="
  M 593.35 345.81
  L 593.47 455.77"
/>
<path stroke="#f5e1a5" vector-effect="non-scaling-stroke" d="
  M 593.47 455.77
  Q 593.81 456.64 593.55 457.12
  Q 593.33 457.54 592.34 457.57
  Q 587.02 457.73 583.00 456.28"
/>
<path stroke="#ddc395" vector-effect="non-scaling-stroke" d="
  M 604.00 360.28
  L 604.21 458.63"
/>
<path stroke="#e8d19f" vector-effect="non-scaling-stroke" d="
  M 604.21 458.63
  Q 603.84 458.95 603.45 458.92"
/>
<path stroke="#f5e1a5" vector-effect="non-scaling-stroke" d="
  M 603.45 458.92
  L 597.25 457.89
  A 0.75 0.68 66.4 0 1 596.92 457.74
  Q 596.41 457.31 596.60 456.71"
/>
<path stroke="#ddc395" vector-effect="non-scaling-stroke" d="
  M 596.60 456.71
  L 596.64 347.30"
/>
<path stroke="#c69535" vector-effect="non-scaling-stroke" d="
  M 606.64 456.95
  L 606.20 458.32
  A 0.80 0.79 -83.8 0 1 605.52 458.87
  Q 604.90 458.93 604.21 458.63"
/>
<path stroke="#ddc395" vector-effect="non-scaling-stroke" d="
  M 612.16 362.72
  L 612.04 458.72"
/>
<path stroke="#e8d19f" vector-effect="non-scaling-stroke" d="
  M 612.04 458.72
  Q 610.48 459.80 607.38 459.30
  A 0.91 0.91 0.0 0 1 606.68 458.71
  Q 606.40 457.97 606.64 456.95"
/>
<path stroke="#ddc395" vector-effect="non-scaling-stroke" d="
  M 606.64 456.95
  L 606.84 361.72"
/>
<path stroke="#c69535" vector-effect="non-scaling-stroke" d="
  M 616.02 458.99
  Q 614.27 459.53 612.04 458.72"
/>
<path stroke="#deb345" vector-effect="non-scaling-stroke" d="
  M 663.43 385.03
  Q 659.62 386.18 652.24 387.00
  Q 648.74 387.39 649.31 390.80"
/>
<path stroke="#9c9d9f" vector-effect="non-scaling-stroke" d="
  M 648.92 583.47
  C 648.12 572.55 648.16 560.75 647.89 537.25
  Q 647.88 536.79 647.44 536.48
  A 1.31 1.29 27.5 0 0 645.46 537.09
  C 641.01 549.58 626.78 543.26 618.67 540.20
  C 608.55 536.39 597.07 535.38 586.28 536.09
  Q 555.57 538.13 534.94 560.58
  Q 514.25 583.10 513.28 615.43
  Q 512.39 645.26 529.20 668.82
  Q 534.42 676.13 544.07 683.70
  C 547.54 686.42 550.81 688.08 554.42 690.07
  C 570.96 699.18 591.21 701.17 609.77 698.02
  Q 627.51 695.02 640.99 690.30
  Q 649.40 687.37 657.28 687.12
  Q 657.74 687.11 657.96 686.60
  A 0.77 0.72 -71.8 0 0 657.48 685.56
  C 650.48 683.98 649.50 678.29 649.49 671.75
  Q 649.46 645.74 649.62 641.27
  C 649.98 630.70 655.65 627.76 665.46 628.16
  A 0.85 0.84 1.3 0 0 666.35 627.32
  L 666.35 626.07
  A 0.97 0.97 0.0 0 0 665.38 625.10
  L 608.96 625.10
  A 0.82 0.82 0.0 0 0 608.14 625.92
  L 608.14 627.19
  A 0.95 0.95 0.0 0 0 609.09 628.14
  C 613.00 628.11 618.58 627.94 621.70 630.07
  Q 627.73 634.18 628.02 642.04
  Q 628.20 647.10 627.93 675.58
  C 627.88 681.40 627.03 685.64 622.18 688.22
  Q 607.70 695.92 590.99 694.80
  C 557.68 692.58 540.68 660.36 538.21 630.73
  C 535.92 603.34 539.70 570.74 560.82 551.55
  C 574.59 539.04 594.94 537.16 612.09 543.24
  C 626.69 548.41 638.46 562.04 644.05 576.22
  Q 645.78 580.60 646.07 583.33
  A 1.11 1.11 0.0 0 0 647.17 584.32
  L 648.13 584.32
  A 0.79 0.79 0.0 0 0 648.92 583.47"
/>
<path stroke="#9c9d9f" vector-effect="non-scaling-stroke" d="
  M 399.98 617.82
  Q 399.89 598.02 399.98 559.25
  C 400.02 544.25 406.37 541.47 420.16 541.74
  A 0.99 0.99 0.0 0 0 421.17 540.75
  L 421.17 539.97
  A 0.98 0.98 0.0 0 0 420.19 538.99
  L 358.81 538.99
  A 1.02 1.01 0.0 0 0 357.79 540.00
  L 357.79 540.64
  A 1.16 1.16 0.0 0 0 358.93 541.80
  Q 362.88 541.87 366.48 542.23
  C 376.64 543.24 378.25 551.51 378.27 560.00
  Q 378.39 595.08 378.22 675.00
  Q 378.21 680.44 376.92 684.44
  C 374.26 692.72 365.84 693.26 358.34 692.65
  A 0.66 0.65 -87.6 0 0 357.63 693.31
  L 357.63 694.78
  A 0.76 0.75 90.0 0 0 358.38 695.54
  L 419.84 695.54
  A 1.17 1.16 90.0 0 0 421.00 694.37
  L 421.00 694.12
  A 1.15 1.14 89.3 0 0 419.83 692.97
  C 406.62 693.30 400.12 689.74 400.05 675.50
  Q 399.90 641.70 399.92 629.75
  Q 399.93 624.05 400.36 622.43
  A 1.59 1.57 -8.8 0 1 401.04 621.51
  Q 403.65 619.82 405.00 617.21
  A 0.47 0.47 0.0 0 1 405.77 617.12
  Q 438.38 654.22 463.62 681.89
  C 465.74 684.21 469.55 690.38 464.77 691.85
  Q 459.82 693.36 453.80 692.72
  A 0.84 0.83 2.8 0 0 452.88 693.55
  L 452.88 694.65
  A 0.87 0.87 0.0 0 0 453.75 695.52
  L 516.99 695.52
  A 0.82 0.81 0.0 0 0 517.81 694.71
  L 517.81 693.94
  A 0.95 0.94 0.3 0 0 516.87 693.00
  Q 504.24 692.86 495.89 683.59
  Q 461.64 645.57 434.13 615.12
  Q 428.74 609.15 423.88 602.85
  A 1.03 1.01 50.0 0 1 423.99 601.47
  Q 425.03 600.52 437.95 588.62
  C 441.60 585.25 445.49 581.20 449.48 577.47
  Q 456.66 570.77 458.21 569.21
  Q 466.77 560.61 477.17 551.93
  Q 488.93 542.12 504.24 541.96
  A 1.30 1.30 0.0 0 0 505.52 540.66
  L 505.52 540.11
  A 1.16 1.16 0.0 0 0 504.36 538.95
  L 453.47 538.95
  A 1.07 1.07 0.0 0 0 452.40 540.02
  L 452.40 540.77
  A 1.17 1.16 87.1 0 0 453.68 541.93
  C 459.12 541.39 469.24 542.83 467.27 550.96
  C 466.46 554.32 464.27 556.73 463.00 558.56
  A 5.20 4.69 -6.5 0 1 462.39 559.25
  L 400.43 618.01
  A 0.27 0.26 -21.8 0 1 399.98 617.82"
/>
<path stroke="#e8d19f" vector-effect="non-scaling-stroke" d="
  M 510.05 346.07
  L 509.93 383.51
  A 1.22 1.21 -4.1 0 0 511.32 384.71
  L 512.64 384.52
  A 1.52 1.51 86.1 0 0 513.94 383.02
  L 513.96 345.81"
/>
<path stroke="#f5e1a5" vector-effect="non-scaling-stroke" d="
  M 513.96 345.81
  L 513.73 282.52
  A 1.73 1.72 -0.2 0 0 511.99 280.80
  L 511.92 280.80
  A 1.76 1.75 -0.3 0 0 510.18 282.55
  L 510.05 346.07"
/>
<path stroke="#deb345" vector-effect="non-scaling-stroke" d="
  M 513.96 345.81
  Q 512.01 344.20 510.05 346.07"
/>
<path stroke="#e8d19f" vector-effect="non-scaling-stroke" d="
  M 490.39 349.76
  L 490.47 383.33
  A 1.67 1.67 0.0 0 0 492.14 384.99
  L 492.92 384.99
  A 1.72 1.72 0.0 0 0 494.64 383.27
  L 494.72 350.06"
/>
<path stroke="#f5e1a5" vector-effect="non-scaling-stroke" d="
  M 494.72 350.06
  L 494.67 294.04
  A 0.86 0.86 0.0 0 0 493.22 293.42
  L 491.45 295.10
  A 3.46 3.44 68.4 0 0 490.37 297.61
  L 490.39 349.76"
/>
<path stroke="#deb345" vector-effect="non-scaling-stroke" d="
  M 494.72 350.06
  C 493.39 347.90 492.03 348.04 490.39 349.76"
/>
<path stroke="#e8d19f" vector-effect="non-scaling-stroke" d="
  M 532.91 384.74
  A 0.70 0.70 0.0 0 0 533.67 384.04
  L 533.67 296.32
  A 0.70 0.70 0.0 0 0 533.42 295.79
  L 530.56 293.37
  A 0.70 0.70 0.0 0 0 529.41 293.90
  L 529.41 383.81
  A 0.70 0.70 0.0 0 0 530.05 384.51
  L 532.91 384.74"
/>
<path stroke="#ddc395" vector-effect="non-scaling-stroke" d="
  M 368.88 466.30
  A 0.89 0.89 0.0 0 0 369.64 465.42
  L 369.64 401.85
  A 0.89 0.89 0.0 0 0 368.75 400.96
  L 362.67 400.96
  A 0.89 0.89 0.0 0 0 361.78 401.85
  L 361.78 466.28
  A 0.89 0.89 0.0 0 0 362.80 467.17
  L 368.88 466.30"
/>
<path stroke="#ddc395" vector-effect="non-scaling-stroke" d="
  M 380.74 402.09
  L 373.07 401.49
  A 0.69 0.68 2.3 0 0 372.32 402.17
  L 372.32 464.32
  A 0.86 0.86 0.0 0 0 373.30 465.17
  L 379.26 464.31
  A 1.35 1.35 0.0 0 0 380.43 462.97
  L 380.73 404.90
  A 2.06 1.97 53.2 0 1 380.79 404.41
  L 381.19 402.71
  A 0.51 0.50 9.3 0 0 380.74 402.09"
/>
<path stroke="#e8d19f" vector-effect="non-scaling-stroke" d="
  M 655.45 401.10
  A 0.83 0.83 0.0 0 0 654.68 401.93
  L 654.68 465.10
  A 0.83 0.83 0.0 0 0 655.33 465.91
  L 661.19 467.18
  A 0.83 0.83 0.0 0 0 662.20 466.37
  L 662.20 401.53
  A 0.83 0.83 0.0 0 0 661.31 400.70
  L 655.45 401.10"
/>
<path stroke="#e8d19f" vector-effect="non-scaling-stroke" d="
  M 651.85 402.43
  A 0.78 0.78 0.0 0 0 651.02 401.66
  L 644.59 402.09
  A 0.78 0.78 0.0 0 0 643.86 402.87
  L 643.86 463.06
  A 0.78 0.78 0.0 0 0 644.47 463.82
  L 650.90 465.22
  A 0.78 0.78 0.0 0 0 651.85 464.46
  L 651.85 402.43"
/>
</g>
<path fill="#ffffff" d="
  M 1024.00 0.00
  L 1024.00 1024.00
  L 0.00 1024.00
  L 0.00 0.00
  L 1024.00 0.00
  Z
  M 486.97 268.45
  Q 475.46 276.59 464.44 285.23
  C 461.37 287.63 458.19 289.48 455.11 291.61
  A 1.74 1.74 0.0 0 0 454.38 293.22
  L 461.86 362.03
  L 465.30 390.89
  A 0.91 0.91 0.0 0 1 464.52 391.90
  L 455.98 393.13
  A 1.05 1.04 84.0 0 0 455.09 394.23
  L 455.48 399.87
  A 0.85 0.85 0.0 0 0 456.45 400.66
  L 465.32 399.38
  A 0.84 0.84 0.0 0 1 466.23 399.93
  Q 466.50 400.71 466.43 401.74
  L 471.69 453.84
  A 0.70 0.70 0.0 0 1 471.04 454.61
  L 446.39 456.29
  A 0.64 0.64 0.0 0 1 445.70 455.64
  L 447.28 363.10
  L 447.96 325.07
  A 0.80 0.79 -1.3 0 0 447.11 324.26
  L 406.62 327.02
  A 0.39 0.39 0.0 0 0 406.26 327.41
  L 406.51 369.79
  L 407.96 459.35
  A 0.77 0.76 85.8 0 1 407.30 460.12
  L 384.17 463.44
  A 0.82 0.82 0.0 0 1 383.23 462.62
  Q 383.28 421.76 383.22 405.52
  Q 383.22 405.21 383.55 402.34
  A 0.47 0.46 -86.5 0 1 384.01 401.93
  L 388.21 401.93
  A 2.54 2.54 0.0 0 0 390.15 401.03
  L 397.38 392.50
  A 0.69 0.69 0.0 0 0 396.85 391.37
  L 375.26 391.37
  A 0.50 0.50 0.0 0 1 374.91 390.51
  C 377.70 387.76 380.43 383.64 385.43 377.18
  Q 387.14 374.98 389.35 374.55
  Q 393.91 373.65 399.25 372.30
  A 0.59 0.58 38.2 0 0 399.11 371.15
  Q 385.92 370.91 372.96 372.23
  A 2.83 2.76 26.6 0 0 371.86 372.58
  Q 369.20 374.09 367.77 376.02
  Q 363.94 381.23 359.93 386.16
  Q 356.56 390.31 351.37 391.40
  A 0.93 0.93 0.0 0 0 351.18 393.16
  Q 353.19 394.08 355.72 394.23
  A 0.86 0.85 1.8 0 1 356.53 395.08
  L 356.53 467.35
  A 1.56 1.55 84.4 0 1 355.28 468.88
  Q 318.14 476.29 283.05 487.46
  C 272.21 490.91 259.39 495.96 250.58 499.29
  A 0.21 0.21 0.0 0 0 250.46 499.55
  L 250.46 499.57
  A 0.25 0.25 0.0 0 0 250.77 499.73
  C 297.22 487.46 342.43 480.43 391.11 475.35
  Q 422.19 472.11 458.63 470.80
  Q 474.98 470.21 491.27 469.77
  L 531.47 469.81
  Q 569.87 470.27 608.07 473.23
  Q 656.17 477.21 703.99 484.81
  Q 732.44 490.06 757.62 495.91
  Q 763.56 497.29 773.57 500.10
  A 0.25 0.25 0.0 0 0 773.87 499.95
  L 773.87 499.94
  A 0.25 0.24 -68.4 0 0 773.74 499.63
  Q 750.78 489.42 732.17 484.33
  Q 717.48 480.32 702.80 476.36
  L 669.19 468.88
  A 1.56 1.56 0.0 0 1 667.97 467.36
  L 667.97 396.74
  A 2.84 2.84 0.0 0 1 669.88 394.06
  L 672.78 393.05
  A 0.75 0.75 0.0 0 0 672.79 391.64
  Q 667.30 389.69 663.43 385.03
  C 659.18 379.22 655.00 372.83 650.34 372.15
  Q 644.96 371.37 624.97 371.06
  A 0.61 0.60 -86.4 0 0 624.36 371.60
  L 624.35 371.63
  A 0.56 0.55 -81.3 0 0 624.78 372.23
  Q 632.23 373.85 634.62 374.74
  Q 637.16 375.68 639.07 378.17
  Q 643.60 384.02 649.31 390.80
  L 627.12 391.46
  A 0.37 0.37 0.0 0 0 626.84 392.06
  L 634.36 401.45
  A 2.30 2.28 68.6 0 0 636.30 402.31
  L 640.12 402.04
  A 0.61 0.61 0.0 0 1 640.77 402.65
  L 640.77 462.23
  A 1.17 1.17 0.0 0 1 639.43 463.39
  Q 626.44 461.47 616.74 460.10
  Q 616.08 460.01 616.02 458.99
  L 617.85 355.96
  L 618.03 328.27
  A 1.05 1.05 0.0 0 0 617.06 327.22
  L 577.44 324.10
  A 0.93 0.92 1.7 0 0 576.44 325.04
  L 578.46 455.10
  Q 578.48 456.00 577.72 456.37
  A 0.70 0.69 -55.4 0 1 577.34 456.44
  L 552.35 454.89
  L 557.95 400.73
  A 0.97 0.96 -84.8 0 1 558.98 399.87
  L 568.01 400.58
  A 1.10 1.10 0.0 0 0 569.20 399.57
  L 569.62 394.12
  A 1.62 1.62 0.0 0 0 568.14 392.38
  L 559.91 391.74
  A 1.07 1.06 -84.3 0 1 558.94 390.55
  L 561.13 371.72
  L 566.70 319.99
  L 569.76 293.90
  A 2.38 2.38 0.0 0 0 568.81 291.71
  L 539.24 269.91
  L 513.31 250.38
  A 1.79 1.77 -44.5 0 0 511.17 250.37
  L 486.97 268.45
  Z
  M 648.92 583.47
  C 648.12 572.55 648.16 560.75 647.89 537.25
  Q 647.88 536.79 647.44 536.48
  A 1.31 1.29 27.5 0 0 645.46 537.09
  C 641.01 549.58 626.78 543.26 618.67 540.20
  C 608.55 536.39 597.07 535.38 586.28 536.09
  Q 555.57 538.13 534.94 560.58
  Q 514.25 583.10 513.28 615.43
  Q 512.39 645.26 529.20 668.82
  Q 534.42 676.13 544.07 683.70
  C 547.54 686.42 550.81 688.08 554.42 690.07
  C 570.96 699.18 591.21 701.17 609.77 698.02
  Q 627.51 695.02 640.99 690.30
  Q 649.40 687.37 657.28 687.12
  Q 657.74 687.11 657.96 686.60
  A 0.77 0.72 -71.8 0 0 657.48 685.56
  C 650.48 683.98 649.50 678.29 649.49 671.75
  Q 649.46 645.74 649.62 641.27
  C 649.98 630.70 655.65 627.76 665.46 628.16
  A 0.85 0.84 1.3 0 0 666.35 627.32
  L 666.35 626.07
  A 0.97 0.97 0.0 0 0 665.38 625.10
  L 608.96 625.10
  A 0.82 0.82 0.0 0 0 608.14 625.92
  L 608.14 627.19
  A 0.95 0.95 0.0 0 0 609.09 628.14
  C 613.00 628.11 618.58 627.94 621.70 630.07
  Q 627.73 634.18 628.02 642.04
  Q 628.20 647.10 627.93 675.58
  C 627.88 681.40 627.03 685.64 622.18 688.22
  Q 607.70 695.92 590.99 694.80
  C 557.68 692.58 540.68 660.36 538.21 630.73
  C 535.92 603.34 539.70 570.74 560.82 551.55
  C 574.59 539.04 594.94 537.16 612.09 543.24
  C 626.69 548.41 638.46 562.04 644.05 576.22
  Q 645.78 580.60 646.07 583.33
  A 1.11 1.11 0.0 0 0 647.17 584.32
  L 648.13 584.32
  A 0.79 0.79 0.0 0 0 648.92 583.47
  Z
  M 399.98 617.82
  Q 399.89 598.02 399.98 559.25
  C 400.02 544.25 406.37 541.47 420.16 541.74
  A 0.99 0.99 0.0 0 0 421.17 540.75
  L 421.17 539.97
  A 0.98 0.98 0.0 0 0 420.19 538.99
  L 358.81 538.99
  A 1.02 1.01 0.0 0 0 357.79 540.00
  L 357.79 540.64
  A 1.16 1.16 0.0 0 0 358.93 541.80
  Q 362.88 541.87 366.48 542.23
  C 376.64 543.24 378.25 551.51 378.27 560.00
  Q 378.39 595.08 378.22 675.00
  Q 378.21 680.44 376.92 684.44
  C 374.26 692.72 365.84 693.26 358.34 692.65
  A 0.66 0.65 -87.6 0 0 357.63 693.31
  L 357.63 694.78
  A 0.76 0.75 90.0 0 0 358.38 695.54
  L 419.84 695.54
  A 1.17 1.16 90.0 0 0 421.00 694.37
  L 421.00 694.12
  A 1.15 1.14 89.3 0 0 419.83 692.97
  C 406.62 693.30 400.12 689.74 400.05 675.50
  Q 399.90 641.70 399.92 629.75
  Q 399.93 624.05 400.36 622.43
  A 1.59 1.57 -8.8 0 1 401.04 621.51
  Q 403.65 619.82 405.00 617.21
  A 0.47 0.47 0.0 0 1 405.77 617.12
  Q 438.38 654.22 463.62 681.89
  C 465.74 684.21 469.55 690.38 464.77 691.85
  Q 459.82 693.36 453.80 692.72
  A 0.84 0.83 2.8 0 0 452.88 693.55
  L 452.88 694.65
  A 0.87 0.87 0.0 0 0 453.75 695.52
  L 516.99 695.52
  A 0.82 0.81 0.0 0 0 517.81 694.71
  L 517.81 693.94
  A 0.95 0.94 0.3 0 0 516.87 693.00
  Q 504.24 692.86 495.89 683.59
  Q 461.64 645.57 434.13 615.12
  Q 428.74 609.15 423.88 602.85
  A 1.03 1.01 50.0 0 1 423.99 601.47
  Q 425.03 600.52 437.95 588.62
  C 441.60 585.25 445.49 581.20 449.48 577.47
  Q 456.66 570.77 458.21 569.21
  Q 466.77 560.61 477.17 551.93
  Q 488.93 542.12 504.24 541.96
  A 1.30 1.30 0.0 0 0 505.52 540.66
  L 505.52 540.11
  A 1.16 1.16 0.0 0 0 504.36 538.95
  L 453.47 538.95
  A 1.07 1.07 0.0 0 0 452.40 540.02
  L 452.40 540.77
  A 1.17 1.16 87.1 0 0 453.68 541.93
  C 459.12 541.39 469.24 542.83 467.27 550.96
  C 466.46 554.32 464.27 556.73 463.00 558.56
  A 5.20 4.69 -6.5 0 1 462.39 559.25
  L 400.43 618.01
  A 0.27 0.26 -21.8 0 1 399.98 617.82
  Z"
/>
<path fill="#d1a33e" d="
  M 539.24 269.91
  L 535.72 283.84
  L 513.73 266.41
  A 2.29 2.28 46.5 0 0 511.00 266.33
  Q 499.20 274.56 488.36 284.00
  Q 487.20 279.54 485.46 275.30
  Q 484.49 272.94 484.87 271.62
  Q 485.34 269.98 486.97 268.45
  L 511.17 250.37
  A 1.79 1.77 -44.5 0 1 513.31 250.38
  L 539.24 269.91
  Z"
/>
<path fill="#ffffff" d="
  M 535.72 283.84
  L 551.17 295.68
  A 2.59 2.58 -69.9 0 1 552.17 297.84
  L 551.10 319.80
  L 548.33 376.05
  L 547.39 390.02
  A 0.94 0.94 0.0 0 1 546.37 390.90
  Q 523.01 389.03 499.94 389.74
  L 476.92 391.05
  A 0.49 0.48 87.1 0 1 476.41 390.58
  L 474.99 354.75
  L 472.13 297.72
  A 2.71 2.70 70.1 0 1 473.20 295.43
  L 488.36 284.00
  Q 499.20 274.56 511.00 266.33
  A 2.29 2.28 46.5 0 1 513.73 266.41
  L 535.72 283.84
  Z
  M 510.05 346.07
  L 509.93 383.51
  A 1.22 1.21 -4.1 0 0 511.32 384.71
  L 512.64 384.52
  A 1.52 1.51 86.1 0 0 513.94 383.02
  L 513.96 345.81
  L 513.73 282.52
  A 1.73 1.72 -0.2 0 0 511.99 280.80
  L 511.92 280.80
  A 1.76 1.75 -0.3 0 0 510.18 282.55
  L 510.05 346.07
  Z
  M 490.39 349.76
  L 490.47 383.33
  A 1.67 1.67 0.0 0 0 492.14 384.99
  L 492.92 384.99
  A 1.72 1.72 0.0 0 0 494.64 383.27
  L 494.72 350.06
  L 494.67 294.04
  A 0.86 0.86 0.0 0 0 493.22 293.42
  L 491.45 295.10
  A 3.46 3.44 68.4 0 0 490.37 297.61
  L 490.39 349.76
  Z
  M 532.91 384.74
  A 0.70 0.70 0.0 0 0 533.67 384.04
  L 533.67 296.32
  A 0.70 0.70 0.0 0 0 533.42 295.79
  L 530.56 293.37
  A 0.70 0.70 0.0 0 0 529.41 293.90
  L 529.41 383.81
  A 0.70 0.70 0.0 0 0 530.05 384.51
  L 532.91 384.74
  Z"
/>
<path fill="#eac24b" d="
  M 486.97 268.45
  Q 485.34 269.98 484.87 271.62
  Q 484.49 272.94 485.46 275.30
  Q 487.20 279.54 488.36 284.00
  L 473.20 295.43
  A 2.71 2.70 70.1 0 0 472.13 297.72
  L 474.99 354.75
  C 471.79 353.42 464.73 352.03 463.07 356.07
  Q 462.03 358.63 461.86 362.03
  L 454.38 293.22
  A 1.74 1.74 0.0 0 1 455.11 291.61
  C 458.19 289.48 461.37 287.63 464.44 285.23
  Q 475.46 276.59 486.97 268.45
  Z"
/>
<path fill="#eac24b" d="
  M 566.70 319.99
  L 551.10 319.80
  L 552.17 297.84
  A 2.59 2.58 -69.9 0 0 551.17 295.68
  L 535.72 283.84
  L 539.24 269.91
  L 568.81 291.71
  A 2.38 2.38 0.0 0 1 569.76 293.90
  L 566.70 319.99
  Z"
/>
<path fill="#eac24b" d="
  M 513.96 345.81
  Q 512.01 344.20 510.05 346.07
  L 510.18 282.55
  A 1.76 1.75 -0.3 0 1 511.92 280.80
  L 511.99 280.80
  A 1.73 1.72 -0.2 0 1 513.73 282.52
  L 513.96 345.81
  Z"
/>
<path fill="#eac24b" d="
  M 494.72 350.06
  C 493.39 347.90 492.03 348.04 490.39 349.76
  L 490.37 297.61
  A 3.46 3.44 68.4 0 1 491.45 295.10
  L 493.22 293.42
  A 0.86 0.86 0.0 0 1 494.67 294.04
  L 494.72 350.06
  Z"
/>
<path fill="#d1a33e" d="
  M 532.91 384.74
  L 530.05 384.51
  A 0.70 0.70 0.0 0 1 529.41 383.81
  L 529.41 293.90
  A 0.70 0.70 0.0 0 1 530.56 293.37
  L 533.42 295.79
  A 0.70 0.70 0.0 0 1 533.67 296.32
  L 533.67 384.04
  A 0.70 0.70 0.0 0 1 532.91 384.74
  Z"
/>
<path fill="#d1a33e" d="
  M 566.70 319.99
  L 561.13 371.72
  C 557.62 370.04 552.86 370.46 549.06 370.61
  A 0.54 0.54 0.0 0 0 548.54 371.13
  L 548.33 376.05
  L 551.10 319.80
  L 566.70 319.99
  Z"
/>
<path fill="#d1a33e" d="
  M 447.28 363.10
  C 445.52 360.90 442.15 357.10 439.83 360.82
  L 439.55 330.86
  A 1.04 1.03 87.7 0 0 438.44 329.83
  L 432.02 330.27
  A 1.02 1.01 88.2 0 0 431.07 331.29
  L 430.94 385.21
  L 430.36 382.98
  A 0.69 0.68 80.2 0 0 429.65 382.47
  L 428.31 382.56
  A 0.52 0.51 83.8 0 0 427.84 383.15
  Q 428.07 384.81 427.68 386.72
  L 427.75 330.76
  A 0.94 0.94 0.0 0 0 426.74 329.82
  L 421.09 330.21
  A 0.83 0.83 0.0 0 0 420.31 331.04
  L 420.36 341.04
  Q 419.21 340.99 418.27 341.55
  A 0.95 0.93 75.8 0 0 417.82 342.32
  L 417.57 353.30
  L 417.52 331.27
  A 1.25 1.25 0.0 0 0 416.19 330.03
  L 413.36 330.23
  A 1.22 1.22 0.0 0 0 412.21 331.45
  L 412.11 369.79
  L 406.51 369.79
  L 406.26 327.41
  A 0.39 0.39 0.0 0 1 406.62 327.02
  L 447.11 324.26
  A 0.80 0.79 -1.3 0 1 447.96 325.07
  L 447.28 363.10
  Z"
/>
<path fill="#d1a33e" d="
  M 617.85 355.96
  C 614.14 356.82 613.24 359.56 612.16 362.72
  L 612.27 330.90
  A 0.98 0.97 0.3 0 0 611.29 329.92
  L 607.83 329.92
  A 0.99 0.99 0.0 0 0 606.84 330.91
  L 606.84 361.72
  L 604.00 360.28
  L 604.25 331.06
  A 0.95 0.95 0.0 0 0 603.30 330.10
  L 597.61 330.10
  A 0.94 0.93 90.0 0 0 596.68 331.04
  L 596.64 347.30
  Q 596.01 345.03 594.64 343.36
  A 0.32 0.32 0.0 0 0 594.09 343.47
  L 593.35 345.81
  L 593.21 330.72
  A 0.63 0.63 0.0 0 0 592.58 330.09
  L 585.17 330.09
  A 0.52 0.52 0.0 0 0 584.65 330.61
  L 583.00 456.28
  L 578.46 455.10
  L 576.44 325.04
  A 0.93 0.92 1.7 0 1 577.44 324.10
  L 617.06 327.22
  A 1.05 1.05 0.0 0 1 618.03 328.27
  L 617.85 355.96
  Z"
/>
<path fill="#ffffff" d="
  M 417.57 353.30
  L 417.26 458.21
  A 1.07 1.07 0.0 0 1 416.19 459.28
  L 413.06 459.28
  A 1.06 1.06 0.0 0 1 412.00 458.22
  L 412.11 369.79
  L 412.21 331.45
  A 1.22 1.22 0.0 0 1 413.36 330.23
  L 416.19 330.03
  A 1.25 1.25 0.0 0 1 417.52 331.27
  L 417.57 353.30
  Z"
/>
<path fill="#ffffff" d="
  M 427.68 386.72
  L 427.76 458.06
  A 0.19 0.19 0.0 0 1 427.57 458.25
  L 420.54 458.25
  A 0.18 0.17 -90.0 0 1 420.37 458.07
  L 420.36 341.04
  L 420.31 331.04
  A 0.83 0.83 0.0 0 1 421.09 330.21
  L 426.74 329.82
  A 0.94 0.94 0.0 0 1 427.75 330.76
  L 427.68 386.72
  Z"
/>
<path fill="#ffffff" d="
  M 439.83 360.82
  L 440.88 456.17
  A 0.78 0.77 88.0 0 1 440.16 456.95
  L 431.00 457.57
  A 0.21 0.21 0.0 0 1 430.77 457.36
  L 430.94 385.21
  L 431.07 331.29
  A 1.02 1.01 88.2 0 1 432.02 330.27
  L 438.44 329.83
  A 1.04 1.03 87.7 0 1 439.55 330.86
  L 439.83 360.82
  Z"
/>
<path fill="#ffffff" d="
  M 593.35 345.81
  L 593.47 455.77
  Q 593.81 456.64 593.55 457.12
  Q 593.33 457.54 592.34 457.57
  Q 587.02 457.73 583.00 456.28
  L 584.65 330.61
  A 0.52 0.52 0.0 0 1 585.17 330.09
  L 592.58 330.09
  A 0.63 0.63 0.0 0 1 593.21 330.72
  L 593.35 345.81
  Z"
/>
<path fill="#ffffff" d="
  M 604.00 360.28
  L 604.21 458.63
  Q 603.84 458.95 603.45 458.92
  L 597.25 457.89
  A 0.75 0.68 66.4 0 1 596.92 457.74
  Q 596.41 457.31 596.60 456.71
  L 596.64 347.30
  L 596.68 331.04
  A 0.94 0.93 -90.0 0 1 597.61 330.10
  L 603.30 330.10
  A 0.95 0.95 0.0 0 1 604.25 331.06
  L 604.00 360.28
  Z"
/>
<path fill="#ffffff" d="
  M 612.16 362.72
  L 612.04 458.72
  Q 610.48 459.80 607.38 459.30
  A 0.91 0.91 0.0 0 1 606.68 458.71
  Q 606.40 457.97 606.64 456.95
  L 606.84 361.72
  L 606.84 330.91
  A 0.99 0.99 0.0 0 1 607.83 329.92
  L 611.29 329.92
  A 0.98 0.97 0.3 0 1 612.27 330.90
  L 612.16 362.72
  Z"
/>
<path fill="#bb872b" d="
  M 420.36 341.04
  L 420.37 458.07
  A 0.18 0.17 -90.0 0 0 420.54 458.25
  L 427.57 458.25
  A 0.19 0.19 0.0 0 0 427.76 458.06
  L 427.68 386.72
  Q 428.07 384.81 427.84 383.15
  A 0.52 0.51 83.8 0 1 428.31 382.56
  L 429.65 382.47
  A 0.69 0.68 80.2 0 1 430.36 382.98
  L 430.94 385.21
  L 430.77 457.36
  A 0.21 0.21 0.0 0 0 431.00 457.57
  L 440.16 456.95
  A 0.78 0.77 88.0 0 0 440.88 456.17
  L 439.83 360.82
  C 442.15 357.10 445.52 360.90 447.28 363.10
  L 445.70 455.64
  A 0.64 0.64 0.0 0 0 446.39 456.29
  L 471.04 454.61
  A 0.70 0.70 0.0 0 0 471.69 453.84
  L 466.43 401.74
  Q 471.00 398.33 477.18 399.04
  L 479.85 454.17
  A 0.55 0.55 0.0 0 0 480.43 454.69
  L 490.34 454.01
  A 0.52 0.52 0.0 0 0 490.83 453.49
  L 490.83 408.59
  A 0.87 0.87 0.0 0 1 491.70 407.72
  L 493.64 407.72
  A 0.90 0.90 0.0 0 1 494.54 408.62
  L 494.54 453.63
  A 0.42 0.41 -0.7 0 0 494.97 454.04
  L 498.32 454.01
  Q 497.81 463.46 491.27 469.77
  Q 474.98 470.21 458.63 470.80
  Q 422.19 472.11 391.11 475.35
  C 342.43 480.43 297.22 487.46 250.77 499.73
  A 0.25 0.25 0.0 0 1 250.46 499.57
  L 250.46 499.55
  A 0.21 0.21 0.0 0 1 250.58 499.29
  C 259.39 495.96 272.21 490.91 283.05 487.46
  Q 318.14 476.29 355.28 468.88
  A 1.56 1.55 84.4 0 0 356.53 467.35
  L 356.53 395.08
  A 0.86 0.85 1.8 0 0 355.72 394.23
  Q 353.19 394.08 351.18 393.16
  A 0.93 0.93 0.0 0 1 351.37 391.40
  Q 356.56 390.31 359.93 386.16
  Q 363.94 381.23 367.77 376.02
  Q 369.20 374.09 371.86 372.58
  A 2.83 2.76 26.6 0 1 372.96 372.23
  Q 385.92 370.91 399.11 371.15
  A 0.59 0.58 38.2 0 1 399.25 372.30
  Q 393.91 373.65 389.35 374.55
  Q 387.14 374.98 385.43 377.18
  C 380.43 383.64 377.70 387.76 374.91 390.51
  A 0.50 0.50 0.0 0 0 375.26 391.37
  L 396.85 391.37
  A 0.69 0.69 0.0 0 1 397.38 392.50
  L 390.15 401.03
  A 2.54 2.54 0.0 0 1 388.21 401.93
  L 384.01 401.93
  A 0.47 0.46 -86.5 0 0 383.55 402.34
  Q 383.22 405.21 383.22 405.52
  Q 383.28 421.76 383.23 462.62
  A 0.82 0.82 0.0 0 0 384.17 463.44
  L 407.30 460.12
  A 0.77 0.76 85.8 0 0 407.96 459.35
  L 406.51 369.79
  L 412.11 369.79
  L 412.00 458.22
  A 1.06 1.06 0.0 0 0 413.06 459.28
  L 416.19 459.28
  A 1.07 1.07 0.0 0 0 417.26 458.21
  L 417.57 353.30
  L 417.82 342.32
  A 0.95 0.93 75.8 0 1 418.27 341.55
  Q 419.21 340.99 420.36 341.04
  Z
  M 368.88 466.30
  A 0.89 0.89 0.0 0 0 369.64 465.42
  L 369.64 401.85
  A 0.89 0.89 0.0 0 0 368.75 400.96
  L 362.67 400.96
  A 0.89 0.89 0.0 0 0 361.78 401.85
  L 361.78 466.28
  A 0.89 0.89 0.0 0 0 362.80 467.17
  L 368.88 466.30
  Z
  M 380.74 402.09
  L 373.07 401.49
  A 0.69 0.68 2.3 0 0 372.32 402.17
  L 372.32 464.32
  A 0.86 0.86 0.0 0 0 373.30 465.17
  L 379.26 464.31
  A 1.35 1.35 0.0 0 0 380.43 462.97
  L 380.73 404.90
  A 2.06 1.97 53.2 0 1 380.79 404.41
  L 381.19 402.71
  A 0.51 0.50 9.3 0 0 380.74 402.09
  Z"
/>
<path fill="#bb872b" d="
  M 596.64 347.30
  L 596.60 456.71
  Q 595.70 457.36 594.58 457.33
  A 0.78 0.77 79.8 0 1 593.90 456.85
  L 593.47 455.77
  L 593.35 345.81
  L 594.09 343.47
  A 0.32 0.32 0.0 0 1 594.64 343.36
  Q 596.01 345.03 596.64 347.30
  Z"
/>
<path fill="#d1a33e" d="
  M 513.96 345.81
  L 513.94 383.02
  A 1.52 1.51 86.1 0 1 512.64 384.52
  L 511.32 384.71
  A 1.22 1.21 -4.1 0 1 509.93 383.51
  L 510.05 346.07
  Q 512.01 344.20 513.96 345.81
  Z"
/>
<path fill="#d1a33e" d="
  M 494.72 350.06
  L 494.64 383.27
  A 1.72 1.72 0.0 0 1 492.92 384.99
  L 492.14 384.99
  A 1.67 1.67 0.0 0 1 490.47 383.33
  L 490.39 349.76
  C 492.03 348.04 493.39 347.90 494.72 350.06
  Z"
/>
<path fill="#d1a33e" d="
  M 474.99 354.75
  L 476.41 390.58
  A 0.49 0.48 87.1 0 0 476.92 391.05
  L 499.94 389.74
  Q 499.70 397.78 506.73 397.96
  L 477.18 399.04
  Q 471.00 398.33 466.43 401.74
  Q 466.50 400.71 466.23 399.93
  A 0.84 0.84 0.0 0 0 465.32 399.38
  L 456.45 400.66
  A 0.85 0.85 0.0 0 1 455.48 399.87
  L 455.09 394.23
  A 1.05 1.04 84.0 0 1 455.98 393.13
  L 464.52 391.90
  A 0.91 0.91 0.0 0 0 465.30 390.89
  L 461.86 362.03
  Q 462.03 358.63 463.07 356.07
  C 464.73 352.03 471.79 353.42 474.99 354.75
  Z"
/>
<path fill="#bb872b" d="
  M 617.85 355.96
  L 616.02 458.99
  Q 614.27 459.53 612.04 458.72
  L 612.16 362.72
  C 613.24 359.56 614.14 356.82 617.85 355.96
  Z"
/>
<path fill="#bb872b" d="
  M 606.84 361.72
  L 606.64 456.95
  L 606.20 458.32
  A 0.80 0.79 -83.8 0 1 605.52 458.87
  Q 604.90 458.93 604.21 458.63
  L 604.00 360.28
  L 606.84 361.72
  Z"
/>
<path fill="#bb872b" d="
  M 561.13 371.72
  L 558.94 390.55
  A 1.07 1.06 -84.3 0 0 559.91 391.74
  L 568.14 392.38
  A 1.62 1.62 0.0 0 1 569.62 394.12
  L 569.20 399.57
  A 1.10 1.10 0.0 0 1 568.01 400.58
  L 558.98 399.87
  A 0.97 0.96 -84.8 0 0 557.95 400.73
  L 552.35 454.89
  L 544.22 454.47
  L 546.79 399.80
  A 0.93 0.93 0.0 0 0 545.88 398.83
  L 506.73 397.96
  Q 499.70 397.78 499.94 389.74
  Q 523.01 389.03 546.37 390.90
  A 0.94 0.94 0.0 0 0 547.39 390.02
  L 548.33 376.05
  L 548.54 371.13
  A 0.54 0.54 0.0 0 1 549.06 370.61
  C 552.86 370.46 557.62 370.04 561.13 371.72
  Z"
/>
<path fill="#eac24b" d="
  M 663.43 385.03
  Q 659.62 386.18 652.24 387.00
  Q 648.74 387.39 649.31 390.80
  Q 643.60 384.02 639.07 378.17
  Q 637.16 375.68 634.62 374.74
  Q 632.23 373.85 624.78 372.23
  A 0.56 0.55 -81.3 0 1 624.35 371.63
  L 624.36 371.60
  A 0.61 0.60 -86.4 0 1 624.97 371.06
  Q 644.96 371.37 650.34 372.15
  C 655.00 372.83 659.18 379.22 663.43 385.03
  Z"
/>
<path fill="#d1a33e" d="
  M 702.80 476.36
  Q 701.12 480.64 703.99 484.81
  Q 656.17 477.21 608.07 473.23
  Q 604.96 466.29 603.45 458.92
  Q 603.84 458.95 604.21 458.63
  Q 604.90 458.93 605.52 458.87
  A 0.80 0.79 -83.8 0 0 606.20 458.32
  L 606.64 456.95
  Q 606.40 457.97 606.68 458.71
  A 0.91 0.91 0.0 0 0 607.38 459.30
  Q 610.48 459.80 612.04 458.72
  Q 614.27 459.53 616.02 458.99
  Q 616.08 460.01 616.74 460.10
  Q 626.44 461.47 639.43 463.39
  A 1.17 1.17 0.0 0 0 640.77 462.23
  L 640.77 402.65
  A 0.61 0.61 0.0 0 0 640.12 402.04
  L 636.30 402.31
  A 2.30 2.28 68.6 0 1 634.36 401.45
  L 626.84 392.06
  A 0.37 0.37 0.0 0 1 627.12 391.46
  L 649.31 390.80
  Q 648.74 387.39 652.24 387.00
  Q 659.62 386.18 663.43 385.03
  Q 667.30 389.69 672.79 391.64
  A 0.75 0.75 0.0 0 1 672.78 393.05
  L 669.88 394.06
  A 2.84 2.84 0.0 0 0 667.97 396.74
  L 667.97 467.36
  A 1.56 1.56 0.0 0 0 669.19 468.88
  L 702.80 476.36
  Z
  M 655.45 401.10
  A 0.83 0.83 0.0 0 0 654.68 401.93
  L 654.68 465.10
  A 0.83 0.83 0.0 0 0 655.33 465.91
  L 661.19 467.18
  A 0.83 0.83 0.0 0 0 662.20 466.37
  L 662.20 401.53
  A 0.83 0.83 0.0 0 0 661.31 400.70
  L 655.45 401.10
  Z
  M 651.85 402.43
  A 0.78 0.78 0.0 0 0 651.02 401.66
  L 644.59 402.09
  A 0.78 0.78 0.0 0 0 643.86 402.87
  L 643.86 463.06
  A 0.78 0.78 0.0 0 0 644.47 463.82
  L 650.90 465.22
  A 0.78 0.78 0.0 0 0 651.85 464.46
  L 651.85 402.43
  Z"
/>
<path fill="#ffffff" d="
  M 506.73 397.96
  L 545.88 398.83
  A 0.93 0.93 0.0 0 1 546.79 399.80
  L 544.22 454.47
  L 533.67 454.11
  Q 532.90 452.86 533.34 451.03
  L 533.26 408.65
  A 0.95 0.94 0.0 0 0 532.31 407.71
  L 530.49 407.71
  A 0.99 0.99 0.0 0 0 529.50 408.70
  L 529.52 451.68
  Q 529.70 452.65 529.49 453.51
  A 0.66 0.65 6.7 0 1 528.85 454.01
  L 514.94 454.01
  A 1.00 1.00 0.0 0 1 514.17 453.65
  Q 513.57 452.96 513.72 451.93
  L 513.50 408.41
  A 1.09 1.09 0.0 0 0 512.41 407.33
  L 512.03 407.33
  A 1.44 1.44 0.0 0 0 510.59 408.76
  L 510.29 451.68
  Q 510.52 452.69 510.15 453.30
  Q 509.82 453.86 508.73 453.89
  Q 503.67 454.04 498.32 454.01
  L 494.97 454.04
  A 0.42 0.41 -0.7 0 1 494.54 453.63
  L 494.54 408.62
  A 0.90 0.90 0.0 0 0 493.64 407.72
  L 491.70 407.72
  A 0.87 0.87 0.0 0 0 490.83 408.59
  L 490.83 453.49
  A 0.52 0.52 0.0 0 1 490.34 454.01
  L 480.43 454.69
  A 0.55 0.55 0.0 0 1 479.85 454.17
  L 477.18 399.04
  L 506.73 397.96
  Z"
/>
<path fill="#ffffff" d="
  M 368.88 466.30
  L 362.80 467.17
  A 0.89 0.89 0.0 0 1 361.78 466.28
  L 361.78 401.85
  A 0.89 0.89 0.0 0 1 362.67 400.96
  L 368.75 400.96
  A 0.89 0.89 0.0 0 1 369.64 401.85
  L 369.64 465.42
  A 0.89 0.89 0.0 0 1 368.88 466.30
  Z"
/>
<path fill="#ffffff" d="
  M 655.45 401.10
  L 661.31 400.70
  A 0.83 0.83 0.0 0 1 662.20 401.53
  L 662.20 466.37
  A 0.83 0.83 0.0 0 1 661.19 467.18
  L 655.33 465.91
  A 0.83 0.83 0.0 0 1 654.68 465.10
  L 654.68 401.93
  A 0.83 0.83 0.0 0 1 655.45 401.10
  Z"
/>
<path fill="#ffffff" d="
  M 381.19 402.71
  L 380.79 404.41
  A 2.06 1.97 53.2 0 0 380.73 404.90
  L 380.43 462.97
  A 1.35 1.35 0.0 0 1 379.26 464.31
  L 373.30 465.17
  A 0.86 0.86 0.0 0 1 372.32 464.32
  L 372.32 402.17
  A 0.69 0.68 2.3 0 1 373.07 401.49
  L 380.74 402.09
  A 0.51 0.50 9.3 0 1 381.19 402.71
  Z"
/>
<path fill="#ffffff" d="
  M 651.85 402.43
  L 651.85 464.46
  A 0.78 0.78 0.0 0 1 650.90 465.22
  L 644.47 463.82
  A 0.78 0.78 0.0 0 1 643.86 463.06
  L 643.86 402.87
  A 0.78 0.78 0.0 0 1 644.59 402.09
  L 651.02 401.66
  A 0.78 0.78 0.0 0 1 651.85 402.43
  Z"
/>
<path fill="#bb872b" d="
  M 513.72 451.93
  Q 512.04 452.64 510.29 451.68
  L 510.59 408.76
  A 1.44 1.44 0.0 0 1 512.03 407.33
  L 512.41 407.33
  A 1.09 1.09 0.0 0 1 513.50 408.41
  L 513.72 451.93
  Z"
/>
<path fill="#bb872b" d="
  M 533.34 451.03
  Q 531.99 452.74 529.52 451.68
  L 529.50 408.70
  A 0.99 0.99 0.0 0 1 530.49 407.71
  L 532.31 407.71
  A 0.95 0.94 0.0 0 1 533.26 408.65
  L 533.34 451.03
  Z"
/>
<path fill="#d1a33e" d="
  M 533.34 451.03
  Q 532.90 452.86 533.67 454.11
  Q 534.67 462.04 531.47 469.81
  L 491.27 469.77
  Q 497.81 463.46 498.32 454.01
  Q 503.67 454.04 508.73 453.89
  Q 509.82 453.86 510.15 453.30
  Q 510.52 452.69 510.29 451.68
  Q 512.04 452.64 513.72 451.93
  Q 513.57 452.96 514.17 453.65
  A 1.00 1.00 0.0 0 0 514.94 454.01
  L 528.85 454.01
  A 0.66 0.65 6.7 0 0 529.49 453.51
  Q 529.70 452.65 529.52 451.68
  Q 531.99 452.74 533.34 451.03
  Z"
/>
<path fill="#eac24b" d="
  M 544.22 454.47
  L 552.35 454.89
  L 577.34 456.44
  A 0.70 0.69 -55.4 0 0 577.72 456.37
  Q 578.48 456.00 578.46 455.10
  L 583.00 456.28
  Q 587.02 457.73 592.34 457.57
  Q 593.33 457.54 593.55 457.12
  Q 593.81 456.64 593.47 455.77
  L 593.90 456.85
  A 0.78 0.77 79.8 0 0 594.58 457.33
  Q 595.70 457.36 596.60 456.71
  Q 596.41 457.31 596.92 457.74
  A 0.75 0.68 66.4 0 0 597.25 457.89
  L 603.45 458.92
  Q 604.96 466.29 608.07 473.23
  Q 569.87 470.27 531.47 469.81
  Q 534.67 462.04 533.67 454.11
  L 544.22 454.47
  Z"
/>
<path fill="#bb872b" d="
  M 702.80 476.36
  Q 717.48 480.32 732.17 484.33
  Q 750.78 489.42 773.74 499.63
  A 0.25 0.24 -68.4 0 1 773.87 499.94
  L 773.87 499.95
  A 0.25 0.25 0.0 0 1 773.57 500.10
  Q 763.56 497.29 757.62 495.91
  Q 732.44 490.06 703.99 484.81
  Q 701.12 480.64 702.80 476.36
  Z"
/>
<path fill="#393b3f" d="
  M 648.92 583.47
  A 0.79 0.79 0.0 0 1 648.13 584.32
  L 647.17 584.32
  A 1.11 1.11 0.0 0 1 646.07 583.33
  Q 645.78 580.60 644.05 576.22
  C 638.46 562.04 626.69 548.41 612.09 543.24
  C 594.94 537.16 574.59 539.04 560.82 551.55
  C 539.70 570.74 535.92 603.34 538.21 630.73
  C 540.68 660.36 557.68 692.58 590.99 694.80
  Q 607.70 695.92 622.18 688.22
  C 627.03 685.64 627.88 681.40 627.93 675.58
  Q 628.20 647.10 628.02 642.04
  Q 627.73 634.18 621.70 630.07
  C 618.58 627.94 613.00 628.11 609.09 628.14
  A 0.95 0.95 0.0 0 1 608.14 627.19
  L 608.14 625.92
  A 0.82 0.82 0.0 0 1 608.96 625.10
  L 665.38 625.10
  A 0.97 0.97 0.0 0 1 666.35 626.07
  L 666.35 627.32
  A 0.85 0.84 1.3 0 1 665.46 628.16
  C 655.65 627.76 649.98 630.70 649.62 641.27
  Q 649.46 645.74 649.49 671.75
  C 649.50 678.29 650.48 683.98 657.48 685.56
  A 0.77 0.72 -71.8 0 1 657.96 686.60
  Q 657.74 687.11 657.28 687.12
  Q 649.40 687.37 640.99 690.30
  Q 627.51 695.02 609.77 698.02
  C 591.21 701.17 570.96 699.18 554.42 690.07
  C 550.81 688.08 547.54 686.42 544.07 683.70
  Q 534.42 676.13 529.20 668.82
  Q 512.39 645.26 513.28 615.43
  Q 514.25 583.10 534.94 560.58
  Q 555.57 538.13 586.28 536.09
  C 597.07 535.38 608.55 536.39 618.67 540.20
  C 626.78 543.26 641.01 549.58 645.46 537.09
  A 1.31 1.29 27.5 0 1 647.44 536.48
  Q 647.88 536.79 647.89 537.25
  C 648.16 560.75 648.12 572.55 648.92 583.47
  Z"
/>
<path fill="#393b3f" d="
  M 399.98 617.82
  A 0.27 0.26 -21.8 0 0 400.43 618.01
  L 462.39 559.25
  A 5.20 4.69 -6.5 0 0 463.00 558.56
  C 464.27 556.73 466.46 554.32 467.27 550.96
  C 469.24 542.83 459.12 541.39 453.68 541.93
  A 1.17 1.16 87.1 0 1 452.40 540.77
  L 452.40 540.02
  A 1.07 1.07 0.0 0 1 453.47 538.95
  L 504.36 538.95
  A 1.16 1.16 0.0 0 1 505.52 540.11
  L 505.52 540.66
  A 1.30 1.30 0.0 0 1 504.24 541.96
  Q 488.93 542.12 477.17 551.93
  Q 466.77 560.61 458.21 569.21
  Q 456.66 570.77 449.48 577.47
  C 445.49 581.20 441.60 585.25 437.95 588.62
  Q 425.03 600.52 423.99 601.47
  A 1.03 1.01 50.0 0 0 423.88 602.85
  Q 428.74 609.15 434.13 615.12
  Q 461.64 645.57 495.89 683.59
  Q 504.24 692.86 516.87 693.00
  A 0.95 0.94 0.3 0 1 517.81 693.94
  L 517.81 694.71
  A 0.82 0.81 0.0 0 1 516.99 695.52
  L 453.75 695.52
  A 0.87 0.87 0.0 0 1 452.88 694.65
  L 452.88 693.55
  A 0.84 0.83 2.8 0 1 453.80 692.72
  Q 459.82 693.36 464.77 691.85
  C 469.55 690.38 465.74 684.21 463.62 681.89
  Q 438.38 654.22 405.77 617.12
  A 0.47 0.47 0.0 0 0 405.00 617.21
  Q 403.65 619.82 401.04 621.51
  A 1.59 1.57 -8.8 0 0 400.36 622.43
  Q 399.93 624.05 399.92 629.75
  Q 399.90 641.70 400.05 675.50
  C 400.12 689.74 406.62 693.30 419.83 692.97
  A 1.15 1.14 89.3 0 1 421.00 694.12
  L 421.00 694.37
  A 1.17 1.16 -90.0 0 1 419.84 695.54
  L 358.38 695.54
  A 0.76 0.75 90.0 0 1 357.63 694.78
  L 357.63 693.31
  A 0.66 0.65 -87.6 0 1 358.34 692.65
  C 365.84 693.26 374.26 692.72 376.92 684.44
  Q 378.21 680.44 378.22 675.00
  Q 378.39 595.08 378.27 560.00
  C 378.25 551.51 376.64 543.24 366.48 542.23
  Q 362.88 541.87 358.93 541.80
  A 1.16 1.16 0.0 0 1 357.79 540.64
  L 357.79 540.00
  A 1.02 1.01 -0.0 0 1 358.81 538.99
  L 420.19 538.99
  A 0.98 0.98 0.0 0 1 421.17 539.97
  L 421.17 540.75
  A 0.99 0.99 0.0 0 1 420.16 541.74
  C 406.37 541.47 400.02 544.25 399.98 559.25
  Q 399.89 598.02 399.98 617.82
  Z"
/>
</svg>
