<?xml version="1.0" encoding="UTF-8" standalone="no"?>
<!DOCTYPE svg PUBLIC "-//W3C//DTD SVG 1.1//EN" "http://www.w3.org/Graphics/SVG/1.1/DTD/svg11.dtd">
<svg xmlns="http://www.w3.org/2000/svg" version="1.1" viewBox="0.00 0.00 1024.00 1024.00">
<g stroke-width="2.00" fill="none" stroke-linecap="butt">
<path stroke="#7d8ba3" vector-effect="non-scaling-stroke" d="
  M 366.42 241.01
  L 366.42 281.22
  A 1.11 1.10 74.7 0 1 365.88 282.17
  L 316.59 312.41
  A 0.51 0.50 -16.2 0 0 316.35 312.84
  L 316.35 343.10
  A 0.46 0.46 0.0 0 0 317.03 343.50
  L 511.86 234.76
  A 0.85 0.85 0.0 0 1 512.71 234.77
  Q 533.85 247.07 543.23 252.28
  Q 649.69 311.42 706.46 343.36
  Q 706.86 343.59 707.19 343.53
  Q 707.53 343.47 707.53 343.03
  Q 707.48 332.23 707.55 313.50
  A 1.86 1.83 16.2 0 0 706.66 311.91
  L 512.30 193.48
  A 0.95 0.95 0.0 0 0 511.30 193.48
  L 398.67 262.56
  A 0.47 0.46 74.2 0 1 397.96 262.16
  L 397.96 241.24
  A 0.72 0.72 0.0 0 0 397.24 240.52
  L 366.90 240.52
  A 0.49 0.48 -90.0 0 0 366.42 241.01"
/>
<path stroke="#7d8ba3" vector-effect="non-scaling-stroke" d="
  M 816.65 535.48
  Q 783.85 519.13 751.95 506.37
  Q 715.60 491.83 677.47 481.50
  Q 526.32 440.55 372.38 474.70
  Q 319.86 486.35 273.82 504.36
  Q 238.98 517.99 202.87 535.95
  A 0.21 0.21 0.0 0 0 202.77 536.22
  L 202.77 536.23
  A 0.20 0.19 -24.4 0 0 203.02 536.32
  C 244.43 518.93 288.05 506.43 331.32 498.13
  C 343.45 495.80 360.73 492.51 373.58 490.54
  Q 536.45 465.64 697.67 499.10
  Q 718.13 503.34 742.64 510.10
  Q 781.25 520.73 816.55 535.79
  A 0.14 0.14 0.0 0 0 816.73 535.72
  L 816.74 535.71
  A 0.18 0.17 25.9 0 0 816.65 535.48"
/>
<path stroke="#7d8ba3" vector-effect="non-scaling-stroke" d="
  M 260.73 598.82
  L 260.73 604.12
  A 0.60 0.59 90.0 0 0 261.32 604.72
  L 276.84 604.72
  A 0.42 0.42 0.0 0 1 277.26 605.14
  L 277.26 619.15
  A 1.00 0.99 74.4 0 1 276.79 620.00
  Q 269.93 624.34 263.13 624.74
  C 255.09 625.20 250.25 624.50 244.05 619.41
  Q 237.18 613.79 235.41 605.54
  Q 233.42 596.22 236.65 587.99
  Q 242.79 572.37 259.58 571.93
  Q 269.77 571.67 277.98 579.17
  A 0.80 0.79 43.1 0 0 279.08 579.14
  L 282.93 575.18
  A 1.12 1.12 0.0 0 0 282.83 573.53
  Q 271.81 564.66 258.38 565.13
  C 245.11 565.59 234.16 573.15 229.47 585.42
  C 226.72 592.59 226.53 603.69 229.14 610.67
  Q 233.72 622.92 244.53 628.23
  C 257.14 634.42 271.79 631.66 283.42 623.78
  A 2.54 2.52 73.0 0 0 284.52 621.69
  L 284.52 599.06
  A 0.76 0.75 90.0 0 0 283.77 598.30
  L 261.24 598.30
  A 0.52 0.51 -90.0 0 0 260.73 598.82"
/>
<path stroke="#7d8ba3" vector-effect="non-scaling-stroke" d="
  M 632.0185 566.0965
  A 0.57 0.57 0.0 0 0 631.4465 565.5285
  L 624.8465 565.5515
  A 0.57 0.57 0.0 0 0 624.2785 566.1235
  L 624.3015 572.7235
  A 0.57 0.57 0.0 0 0 624.8735 573.2915
  L 631.4735 573.2685
  A 0.57 0.57 0.0 0 0 632.0415 572.6965
  L 632.0185 566.0965"
/>
<path stroke="#7d8ba3" vector-effect="non-scaling-stroke" d="
  M 701.9158 566.0080
  A 0.46 0.46 0.0 0 0 701.4607 565.5432
  L 695.1610 565.4772
  A 0.46 0.46 0.0 0 0 694.6962 565.9324
  L 694.6242 572.8120
  A 0.46 0.46 0.0 0 0 695.0793 573.2768
  L 701.3790 573.3428
  A 0.46 0.46 0.0 0 0 701.8438 572.8876
  L 701.9158 566.0080"
/>
<path stroke="#7d8ba3" vector-effect="non-scaling-stroke" d="
  M 335.5950 566.7562
  A 0.45 0.45 0.0 0 0 335.1458 566.3054
  L 328.9658 566.2947
  A 0.45 0.45 0.0 0 0 328.5150 566.7439
  L 328.4050 629.7838
  A 0.45 0.45 0.0 0 0 328.8542 630.2346
  L 335.0342 630.2453
  A 0.45 0.45 0.0 0 0 335.4850 629.7961
  L 335.5950 566.7562"
/>
<path stroke="#7d8ba3" vector-effect="non-scaling-stroke" d="
  M 218.74 566.32
  L 211.17 566.32
  A 2.17 2.17 0.0 0 0 209.61 566.98
  L 178.94 598.45
  A 0.51 0.51 0.0 0 1 178.06 598.10
  L 178.06 566.53
  A 0.19 0.19 0.0 0 0 177.87 566.34
  L 171.21 566.34
  A 0.32 0.32 0.0 0 0 170.89 566.66
  L 170.89 629.69
  A 0.51 0.51 0.0 0 0 171.40 630.20
  L 177.49 630.20
  A 0.55 0.55 0.0 0 0 178.04 629.65
  L 178.04 608.97
  A 2.49 2.46 67.6 0 1 178.75 607.23
  L 184.07 601.77
  A 1.33 1.33 0.0 0 1 186.02 601.82
  L 210.16 629.30
  A 3.02 2.99 69.1 0 0 212.41 630.32
  L 219.44 630.32
  A 0.58 0.57 -20.5 0 0 219.88 629.37
  L 190.79 596.24
  A 0.75 0.75 0.0 0 1 190.82 595.22
  L 219.03 567.01
  A 0.41 0.40 22.4 0 0 218.74 566.32"
/>
<path stroke="#7d8ba3" vector-effect="non-scaling-stroke" d="
  M 777.31 582.60
  L 777.31 629.66
  A 0.53 0.52 -0.0 0 0 777.84 630.18
  L 783.51 630.18
  A 0.51 0.50 -0.0 0 0 784.02 629.68
  Q 784.03 616.36 784.15 602.76
  C 784.24 593.75 791.05 586.26 800.28 587.84
  Q 810.43 589.57 810.69 600.28
  Q 810.97 612.07 810.79 629.52
  A 0.69 0.69 0.0 0 0 811.48 630.22
  L 816.87 630.22
  A 0.67 0.67 0.0 0 0 817.54 629.55
  Q 817.69 603.81 817.59 598.26
  Q 817.51 593.79 814.82 588.72
  C 810.58 580.75 800.27 579.51 792.68 582.69
  Q 787.66 584.80 784.83 589.68
  A 0.49 0.49 0.0 0 1 783.91 589.43
  L 783.91 582.71
  A 0.36 0.36 0.0 0 0 783.55 582.35
  L 777.57 582.35
  A 0.26 0.25 0.0 0 0 777.31 582.60"
/>
<path stroke="#7d8ba3" vector-effect="non-scaling-stroke" d="
  M 359.57 589.08
  L 359.57 582.53
  A 0.24 0.23 0.0 0 0 359.33 582.30
  L 352.89 582.43
  A 0.04 0.03 90.0 0 0 352.86 582.47
  L 352.74 629.63
  A 0.66 0.66 0.0 0 0 353.40 630.29
  L 358.87 630.29
  A 0.66 0.66 0.0 0 0 359.53 629.64
  Q 359.59 625.03 359.73 602.02
  C 359.76 596.83 362.61 590.10 367.97 588.34
  C 374.61 586.16 380.62 588.82 382.68 595.64
  Q 383.63 598.81 383.63 603.25
  Q 383.64 625.97 383.61 629.56
  A 0.63 0.63 0.0 0 0 384.24 630.20
  L 389.65 630.20
  A 0.66 0.65 -89.6 0 0 390.30 629.55
  Q 390.37 621.48 390.37 605.22
  C 390.36 599.28 391.22 594.21 395.11 590.63
  Q 399.54 586.55 405.04 587.65
  C 413.54 589.35 414.87 596.21 414.64 604.43
  Q 414.58 606.49 414.65 629.43
  A 0.80 0.80 0.0 0 0 415.45 630.23
  L 420.35 630.23
  A 0.87 0.87 0.0 0 0 421.22 629.37
  Q 421.38 613.95 421.36 599.49
  C 421.34 590.46 416.65 581.93 406.75 581.24
  Q 394.81 580.39 389.38 590.49
  A 0.40 0.39 40.6 0 1 388.72 590.54
  C 384.53 585.09 381.92 581.40 374.48 581.17
  C 367.83 580.97 363.99 584.20 360.38 589.34
  A 0.45 0.44 62.6 0 1 359.57 589.08"
/>
<path stroke="#7d8ba3" vector-effect="non-scaling-stroke" d="
  M 472.71 590.67
  C 469.45 584.78 464.44 580.95 457.50 581.19
  Q 449.04 581.49 444.22 589.47
  A 0.33 0.33 0.0 0 1 443.60 589.30
  L 443.60 582.62
  A 0.27 0.27 0.0 0 0 443.33 582.35
  L 437.13 582.35
  A 0.36 0.36 0.0 0 0 436.77 582.71
  L 436.77 629.81
  A 0.42 0.41 -90.0 0 0 437.18 630.23
  L 443.08 630.23
  A 0.44 0.44 0.0 0 0 443.52 629.79
  Q 443.57 604.48 443.72 602.01
  C 444.10 595.68 446.41 589.76 453.02 588.01
  C 460.81 585.96 466.97 591.20 467.33 599.00
  Q 467.60 604.79 467.38 629.70
  A 0.49 0.49 0.0 0 0 467.87 630.19
  L 473.64 630.19
  A 0.50 0.50 0.0 0 0 474.14 629.69
  Q 474.18 618.20 474.27 604.63
  Q 474.31 598.88 475.20 596.45
  C 480.11 583.11 497.96 584.97 498.14 599.69
  Q 498.21 605.92 498.06 629.68
  A 0.52 0.51 0.5 0 0 498.58 630.20
  L 504.41 630.20
  A 0.51 0.50 -90.0 0 0 504.91 629.69
  Q 504.92 603.12 504.92 601.25
  C 504.97 591.32 501.87 582.23 490.54 581.26
  Q 478.45 580.22 473.43 590.65
  A 0.41 0.40 43.4 0 1 472.71 590.67"
/>
<path stroke="#7d8ba3" vector-effect="non-scaling-stroke" d="
  M 539.8383 581.1865
  A 25.20 24.27 -91.3 0 0 516.1462 606.9306
  A 25.20 24.27 -91.3 0 0 540.9817 631.5735
  A 25.20 24.27 -91.3 0 0 564.6738 605.8294
  A 25.20 24.27 -91.3 0 0 539.8383 581.1865"
/>
<path stroke="#7d8ba3" vector-effect="non-scaling-stroke" d="
  M 741.9999 581.2620
  A 25.17 24.49 -85.1 0 0 715.4495 604.2481
  A 25.17 24.49 -85.1 0 0 737.7001 631.4180
  A 25.17 24.49 -85.1 0 0 764.2505 608.4319
  A 25.17 24.49 -85.1 0 0 741.9999 581.2620"
/>
<path stroke="#7d8ba3" vector-effect="non-scaling-stroke" d="
  M 679.04 587.25
  C 671.93 581.92 661.55 579.23 653.44 583.48
  Q 647.95 586.36 646.65 591.83
  Q 644.10 602.56 653.93 606.85
  C 658.97 609.06 666.12 610.07 671.02 613.24
  Q 675.10 615.88 673.27 620.59
  Q 671.49 625.14 665.66 625.59
  Q 657.54 626.21 649.80 620.95
  Q 648.65 620.16 648.36 619.81
  A 0.23 0.23 0.0 0 0 648.02 619.80
  L 644.62 623.28
  A 0.74 0.74 0.0 0 0 644.73 624.39
  Q 649.82 628.01 653.78 629.44
  C 660.61 631.92 669.10 632.26 675.14 627.96
  Q 681.14 623.68 680.38 615.57
  C 679.83 609.80 676.07 607.26 670.84 605.43
  Q 663.42 602.85 658.24 601.17
  C 655.34 600.23 651.58 597.42 652.42 593.94
  C 653.65 588.87 657.65 586.95 662.50 587.19
  Q 670.15 587.56 675.78 592.33
  A 0.53 0.52 36.1 0 0 676.57 592.21
  L 679.17 587.94
  A 0.53 0.52 -56.4 0 0 679.04 587.25"
/>
<path stroke="#7d8ba3" vector-effect="non-scaling-stroke" d="
  M 568.47 582.33
  A 0.22 0.22 0.0 0 0 568.27 582.64
  Q 571.70 589.50 573.98 594.86
  Q 587.10 625.75 588.59 629.73
  A 1.11 1.11 0.0 0 0 589.63 630.45
  L 594.40 630.45
  A 1.47 1.47 0.0 0 0 595.76 629.53
  L 614.91 582.30
  A 0.10 0.09 11.8 0 0 614.82 582.17
  L 608.08 582.17
  A 0.48 0.47 -79.0 0 0 607.64 582.47
  L 592.58 621.19
  A 0.43 0.42 44.6 0 1 591.79 621.19
  L 575.98 582.61
  A 0.46 0.45 78.2 0 0 575.56 582.33
  L 568.47 582.33"
/>
<path stroke="#7d8ba3" vector-effect="non-scaling-stroke" d="
  M 631.8211 583.1423
  A 0.66 0.66 0.0 0 0 631.1634 582.4800
  L 625.5235 582.4603
  A 0.66 0.66 0.0 0 0 624.8612 583.1180
  L 624.6989 629.6177
  A 0.66 0.66 0.0 0 0 625.3566 630.2800
  L 630.9965 630.2997
  A 0.66 0.66 0.0 0 0 631.6588 629.6420
  L 631.8211 583.1423"
/>
<path stroke="#7d8ba3" vector-effect="non-scaling-stroke" d="
  M 701.5308 582.9558
  A 0.57 0.57 0.0 0 0 700.9618 582.3849
  L 695.4418 582.3752
  A 0.57 0.57 0.0 0 0 694.8708 582.9442
  L 694.7892 629.7042
  A 0.57 0.57 0.0 0 0 695.3582 630.2751
  L 700.8782 630.2848
  A 0.57 0.57 0.0 0 0 701.4492 629.7158
  L 701.5308 582.9558"
/>
<path stroke="#7d8ba3" vector-effect="non-scaling-stroke" d="
  M 539.8803 587.4449
  A 18.94 17.11 -91.3 0 0 523.2044 606.7682
  A 18.94 17.11 -91.3 0 0 540.7397 625.3151
  A 18.94 17.11 -91.3 0 0 557.4156 605.9918
  A 18.94 17.11 -91.3 0 0 539.8803 587.4449"
/>
<path stroke="#7d8ba3" vector-effect="non-scaling-stroke" d="
  M 739.6969 587.3005
  A 19.07 17.30 -90.4 0 0 722.5304 606.4908
  A 19.07 17.30 -90.4 0 0 739.9631 625.4395
  A 19.07 17.30 -90.4 0 0 757.1296 606.2492
  A 19.07 17.30 -90.4 0 0 739.6969 587.3005"
/>
</g>
<path fill="#fafafa" d="
  M 1024.00 0.00
  L 1024.00 1024.00
  L 0.00 1024.00
  L 0.00 0.00
  L 1024.00 0.00
  Z
  M 366.42 241.01
  L 366.42 281.22
  A 1.11 1.10 74.7 0 1 365.88 282.17
  L 316.59 312.41
  A 0.51 0.50 -16.2 0 0 316.35 312.84
  L 316.35 343.10
  A 0.46 0.46 0.0 0 0 317.03 343.50
  L 511.86 234.76
  A 0.85 0.85 0.0 0 1 512.71 234.77
  Q 533.85 247.07 543.23 252.28
  Q 649.69 311.42 706.46 343.36
  Q 706.86 343.59 707.19 343.53
  Q 707.53 343.47 707.53 343.03
  Q 707.48 332.23 707.55 313.50
  A 1.86 1.83 16.2 0 0 706.66 311.91
  L 512.30 193.48
  A 0.95 0.95 0.0 0 0 511.30 193.48
  L 398.67 262.56
  A 0.47 0.46 74.2 0 1 397.96 262.16
  L 397.96 241.24
  A 0.72 0.72 0.0 0 0 397.24 240.52
  L 366.90 240.52
  A 0.49 0.48 -90.0 0 0 366.42 241.01
  Z
  M 816.65 535.48
  Q 783.85 519.13 751.95 506.37
  Q 715.60 491.83 677.47 481.50
  Q 526.32 440.55 372.38 474.70
  Q 319.86 486.35 273.82 504.36
  Q 238.98 517.99 202.87 535.95
  A 0.21 0.21 0.0 0 0 202.77 536.22
  L 202.77 536.23
  A 0.20 0.19 -24.4 0 0 203.02 536.32
  C 244.43 518.93 288.05 506.43 331.32 498.13
  C 343.45 495.80 360.73 492.51 373.58 490.54
  Q 536.45 465.64 697.67 499.10
  Q 718.13 503.34 742.64 510.10
  Q 781.25 520.73 816.55 535.79
  A 0.14 0.14 0.0 0 0 816.73 535.72
  L 816.74 535.71
  A 0.18 0.17 25.9 0 0 816.65 535.48
  Z
  M 260.73 598.82
  L 260.73 604.12
  A 0.60 0.59 90.0 0 0 261.32 604.72
  L 276.84 604.72
  A 0.42 0.42 0.0 0 1 277.26 605.14
  L 277.26 619.15
  A 1.00 0.99 74.4 0 1 276.79 620.00
  Q 269.93 624.34 263.13 624.74
  C 255.09 625.20 250.25 624.50 244.05 619.41
  Q 237.18 613.79 235.41 605.54
  Q 233.42 596.22 236.65 587.99
  Q 242.79 572.37 259.58 571.93
  Q 269.77 571.67 277.98 579.17
  A 0.80 0.79 43.1 0 0 279.08 579.14
  L 282.93 575.18
  A 1.12 1.12 0.0 0 0 282.83 573.53
  Q 271.81 564.66 258.38 565.13
  C 245.11 565.59 234.16 573.15 229.47 585.42
  C 226.72 592.59 226.53 603.69 229.14 610.67
  Q 233.72 622.92 244.53 628.23
  C 257.14 634.42 271.79 631.66 283.42 623.78
  A 2.54 2.52 73.0 0 0 284.52 621.69
  L 284.52 599.06
  A 0.76 0.75 90.0 0 0 283.77 598.30
  L 261.24 598.30
  A 0.52 0.51 -90.0 0 0 260.73 598.82
  Z
  M 632.0185 566.0965
  A 0.57 0.57 0.0 0 0 631.4465 565.5285
  L 624.8465 565.5515
  A 0.57 0.57 0.0 0 0 624.2785 566.1235
  L 624.3015 572.7235
  A 0.57 0.57 0.0 0 0 624.8735 573.2915
  L 631.4735 573.2685
  A 0.57 0.57 0.0 0 0 632.0415 572.6965
  L 632.0185 566.0965
  Z
  M 701.9158 566.0080
  A 0.46 0.46 0.0 0 0 701.4607 565.5432
  L 695.1610 565.4772
  A 0.46 0.46 0.0 0 0 694.6962 565.9324
  L 694.6242 572.8120
  A 0.46 0.46 0.0 0 0 695.0793 573.2768
  L 701.3790 573.3428
  A 0.46 0.46 0.0 0 0 701.8438 572.8876
  L 701.9158 566.0080
  Z
  M 335.5950 566.7562
  A 0.45 0.45 0.0 0 0 335.1458 566.3054
  L 328.9658 566.2947
  A 0.45 0.45 0.0 0 0 328.5150 566.7439
  L 328.4050 629.7838
  A 0.45 0.45 0.0 0 0 328.8542 630.2346
  L 335.0342 630.2453
  A 0.45 0.45 0.0 0 0 335.4850 629.7961
  L 335.5950 566.7562
  Z
  M 218.74 566.32
  L 211.17 566.32
  A 2.17 2.17 0.0 0 0 209.61 566.98
  L 178.94 598.45
  A 0.51 0.51 0.0 0 1 178.06 598.10
  L 178.06 566.53
  A 0.19 0.19 0.0 0 0 177.87 566.34
  L 171.21 566.34
  A 0.32 0.32 0.0 0 0 170.89 566.66
  L 170.89 629.69
  A 0.51 0.51 0.0 0 0 171.40 630.20
  L 177.49 630.20
  A 0.55 0.55 0.0 0 0 178.04 629.65
  L 178.04 608.97
  A 2.49 2.46 67.6 0 1 178.75 607.23
  L 184.07 601.77
  A 1.33 1.33 0.0 0 1 186.02 601.82
  L 210.16 629.30
  A 3.02 2.99 69.1 0 0 212.41 630.32
  L 219.44 630.32
  A 0.58 0.57 -20.5 0 0 219.88 629.37
  L 190.79 596.24
  A 0.75 0.75 0.0 0 1 190.82 595.22
  L 219.03 567.01
  A 0.41 0.40 22.4 0 0 218.74 566.32
  Z
  M 777.31 582.60
  L 777.31 629.66
  A 0.53 0.52 -0.0 0 0 777.84 630.18
  L 783.51 630.18
  A 0.51 0.50 -0.0 0 0 784.02 629.68
  Q 784.03 616.36 784.15 602.76
  C 784.24 593.75 791.05 586.26 800.28 587.84
  Q 810.43 589.57 810.69 600.28
  Q 810.97 612.07 810.79 629.52
  A 0.69 0.69 0.0 0 0 811.48 630.22
  L 816.87 630.22
  A 0.67 0.67 0.0 0 0 817.54 629.55
  Q 817.69 603.81 817.59 598.26
  Q 817.51 593.79 814.82 588.72
  C 810.58 580.75 800.27 579.51 792.68 582.69
  Q 787.66 584.80 784.83 589.68
  A 0.49 0.49 0.0 0 1 783.91 589.43
  L 783.91 582.71
  A 0.36 0.36 0.0 0 0 783.55 582.35
  L 777.57 582.35
  A 0.26 0.25 0.0 0 0 777.31 582.60
  Z
  M 359.57 589.08
  L 359.57 582.53
  A 0.24 0.23 0.0 0 0 359.33 582.30
  L 352.89 582.43
  A 0.04 0.03 90.0 0 0 352.86 582.47
  L 352.74 629.63
  A 0.66 0.66 0.0 0 0 353.40 630.29
  L 358.87 630.29
  A 0.66 0.66 0.0 0 0 359.53 629.64
  Q 359.59 625.03 359.73 602.02
  C 359.76 596.83 362.61 590.10 367.97 588.34
  C 374.61 586.16 380.62 588.82 382.68 595.64
  Q 383.63 598.81 383.63 603.25
  Q 383.64 625.97 383.61 629.56
  A 0.63 0.63 0.0 0 0 384.24 630.20
  L 389.65 630.20
  A 0.66 0.65 -89.6 0 0 390.30 629.55
  Q 390.37 621.48 390.37 605.22
  C 390.36 599.28 391.22 594.21 395.11 590.63
  Q 399.54 586.55 405.04 587.65
  C 413.54 589.35 414.87 596.21 414.64 604.43
  Q 414.58 606.49 414.65 629.43
  A 0.80 0.80 0.0 0 0 415.45 630.23
  L 420.35 630.23
  A 0.87 0.87 0.0 0 0 421.22 629.37
  Q 421.38 613.95 421.36 599.49
  C 421.34 590.46 416.65 581.93 406.75 581.24
  Q 394.81 580.39 389.38 590.49
  A 0.40 0.39 40.6 0 1 388.72 590.54
  C 384.53 585.09 381.92 581.40 374.48 581.17
  C 367.83 580.97 363.99 584.20 360.38 589.34
  A 0.45 0.44 62.6 0 1 359.57 589.08
  Z
  M 472.71 590.67
  C 469.45 584.78 464.44 580.95 457.50 581.19
  Q 449.04 581.49 444.22 589.47
  A 0.33 0.33 0.0 0 1 443.60 589.30
  L 443.60 582.62
  A 0.27 0.27 0.0 0 0 443.33 582.35
  L 437.13 582.35
  A 0.36 0.36 0.0 0 0 436.77 582.71
  L 436.77 629.81
  A 0.42 0.41 -90.0 0 0 437.18 630.23
  L 443.08 630.23
  A 0.44 0.44 0.0 0 0 443.52 629.79
  Q 443.57 604.48 443.72 602.01
  C 444.10 595.68 446.41 589.76 453.02 588.01
  C 460.81 585.96 466.97 591.20 467.33 599.00
  Q 467.60 604.79 467.38 629.70
  A 0.49 0.49 0.0 0 0 467.87 630.19
  L 473.64 630.19
  A 0.50 0.50 0.0 0 0 474.14 629.69
  Q 474.18 618.20 474.27 604.63
  Q 474.31 598.88 475.20 596.45
  C 480.11 583.11 497.96 584.97 498.14 599.69
  Q 498.21 605.92 498.06 629.68
  A 0.52 0.51 0.5 0 0 498.58 630.20
  L 504.41 630.20
  A 0.51 0.50 -90.0 0 0 504.91 629.69
  Q 504.92 603.12 504.92 601.25
  C 504.97 591.32 501.87 582.23 490.54 581.26
  Q 478.45 580.22 473.43 590.65
  A 0.41 0.40 43.4 0 1 472.71 590.67
  Z
  M 539.8383 581.1865
  A 25.20 24.27 -91.3 0 0 516.1462 606.9306
  A 25.20 24.27 -91.3 0 0 540.9817 631.5735
  A 25.20 24.27 -91.3 0 0 564.6738 605.8294
  A 25.20 24.27 -91.3 0 0 539.8383 581.1865
  Z
  M 741.9999 581.2620
  A 25.17 24.49 -85.1 0 0 715.4495 604.2481
  A 25.17 24.49 -85.1 0 0 737.7001 631.4180
  A 25.17 24.49 -85.1 0 0 764.2505 608.4319
  A 25.17 24.49 -85.1 0 0 741.9999 581.2620
  Z
  M 679.04 587.25
  C 671.93 581.92 661.55 579.23 653.44 583.48
  Q 647.95 586.36 646.65 591.83
  Q 644.10 602.56 653.93 606.85
  C 658.97 609.06 666.12 610.07 671.02 613.24
  Q 675.10 615.88 673.27 620.59
  Q 671.49 625.14 665.66 625.59
  Q 657.54 626.21 649.80 620.95
  Q 648.65 620.16 648.36 619.81
  A 0.23 0.23 0.0 0 0 648.02 619.80
  L 644.62 623.28
  A 0.74 0.74 0.0 0 0 644.73 624.39
  Q 649.82 628.01 653.78 629.44
  C 660.61 631.92 669.10 632.26 675.14 627.96
  Q 681.14 623.68 680.38 615.57
  C 679.83 609.80 676.07 607.26 670.84 605.43
  Q 663.42 602.85 658.24 601.17
  C 655.34 600.23 651.58 597.42 652.42 593.94
  C 653.65 588.87 657.65 586.95 662.50 587.19
  Q 670.15 587.56 675.78 592.33
  A 0.53 0.52 36.1 0 0 676.57 592.21
  L 679.17 587.94
  A 0.53 0.52 -56.4 0 0 679.04 587.25
  Z
  M 568.47 582.33
  A 0.22 0.22 0.0 0 0 568.27 582.64
  Q 571.70 589.50 573.98 594.86
  Q 587.10 625.75 588.59 629.73
  A 1.11 1.11 0.0 0 0 589.63 630.45
  L 594.40 630.45
  A 1.47 1.47 0.0 0 0 595.76 629.53
  L 614.91 582.30
  A 0.10 0.09 11.8 0 0 614.82 582.17
  L 608.08 582.17
  A 0.48 0.47 -79.0 0 0 607.64 582.47
  L 592.58 621.19
  A 0.43 0.42 44.6 0 1 591.79 621.19
  L 575.98 582.61
  A 0.46 0.45 78.2 0 0 575.56 582.33
  L 568.47 582.33
  Z
  M 631.8211 583.1423
  A 0.66 0.66 0.0 0 0 631.1634 582.4800
  L 625.5235 582.4603
  A 0.66 0.66 0.0 0 0 624.8612 583.1180
  L 624.6989 629.6177
  A 0.66 0.66 0.0 0 0 625.3566 630.2800
  L 630.9965 630.2997
  A 0.66 0.66 0.0 0 0 631.6588 629.6420
  L 631.8211 583.1423
  Z
  M 701.5308 582.9558
  A 0.57 0.57 0.0 0 0 700.9618 582.3849
  L 695.4418 582.3752
  A 0.57 0.57 0.0 0 0 694.8708 582.9442
  L 694.7892 629.7042
  A 0.57 0.57 0.0 0 0 695.3582 630.2751
  L 700.8782 630.2848
  A 0.57 0.57 0.0 0 0 701.4492 629.7158
  L 701.5308 582.9558
  Z"
/>
<path fill="#001c4b" d="
  M 366.42 241.01
  A 0.49 0.48 -90.0 0 1 366.90 240.52
  L 397.24 240.52
  A 0.72 0.72 0.0 0 1 397.96 241.24
  L 397.96 262.16
  A 0.47 0.46 74.2 0 0 398.67 262.56
  L 511.30 193.48
  A 0.95 0.95 0.0 0 1 512.30 193.48
  L 706.66 311.91
  A 1.86 1.83 16.2 0 1 707.55 313.50
  Q 707.48 332.23 707.53 343.03
  Q 707.53 343.47 707.19 343.53
  Q 706.86 343.59 706.46 343.36
  Q 649.69 311.42 543.23 252.28
  Q 533.85 247.07 512.71 234.77
  A 0.85 0.85 0.0 0 0 511.86 234.76
  L 317.03 343.50
  A 0.46 0.46 0.0 0 1 316.35 343.10
  L 316.35 312.84
  A 0.51 0.50 -16.2 0 1 316.59 312.41
  L 365.88 282.17
  A 1.11 1.10 74.7 0 0 366.42 281.22
  L 366.42 241.01
  Z"
/>
<path fill="#001c4b" d="
  M 816.65 535.48
  A 0.18 0.17 25.9 0 1 816.74 535.71
  L 816.73 535.72
  A 0.14 0.14 0.0 0 1 816.55 535.79
  Q 781.25 520.73 742.64 510.10
  Q 718.13 503.34 697.67 499.10
  Q 536.45 465.64 373.58 490.54
  C 360.73 492.51 343.45 495.80 331.32 498.13
  C 288.05 506.43 244.43 518.93 203.02 536.32
  A 0.20 0.19 -24.4 0 1 202.77 536.23
  L 202.77 536.22
  A 0.21 0.21 0.0 0 1 202.87 535.95
  Q 238.98 517.99 273.82 504.36
  Q 319.86 486.35 372.38 474.70
  Q 526.32 440.55 677.47 481.50
  Q 715.60 491.83 751.95 506.37
  Q 783.85 519.13 816.65 535.48
  Z"
/>
<path fill="#001c4b" d="
  M 261.24 598.30
  L 283.77 598.30
  A 0.76 0.75 90.0 0 1 284.52 599.06
  L 284.52 621.69
  A 2.54 2.52 73.0 0 1 283.42 623.78
  C 271.79 631.66 257.14 634.42 244.53 628.23
  Q 233.72 622.92 229.14 610.67
  C 226.53 603.69 226.72 592.59 229.47 585.42
  C 234.16 573.15 245.11 565.59 258.38 565.13
  Q 271.81 564.66 282.83 573.53
  A 1.12 1.12 0.0 0 1 282.93 575.18
  L 279.08 579.14
  A 0.80 0.79 43.1 0 1 277.98 579.17
  Q 269.77 571.67 259.58 571.93
  Q 242.79 572.37 236.65 587.99
  Q 233.42 596.22 235.41 605.54
  Q 237.18 613.79 244.05 619.41
  C 250.25 624.50 255.09 625.20 263.13 624.74
  Q 269.93 624.34 276.79 620.00
  A 1.00 0.99 74.4 0 0 277.26 619.15
  L 277.26 605.14
  A 0.42 0.42 0.0 0 0 276.84 604.72
  L 261.32 604.72
  A 0.60 0.59 90.0 0 1 260.73 604.12
  L 260.73 598.82
  A 0.52 0.51 90.0 0 1 261.24 598.30
  Z"
/>
<rect fill="#001c4b" x="-3.87" y="-3.87" transform="translate(628.16,569.41) rotate(-0.2)" width="7.74" height="7.74" rx="0.57"/>
<rect fill="#001c4b" x="-3.61" y="-3.90" transform="translate(698.27,569.41) rotate(0.6)" width="7.22" height="7.80" rx="0.46"/>
<rect fill="#001c4b" x="-3.54" y="-31.97" transform="translate(332.00,598.27) rotate(0.1)" width="7.08" height="63.94" rx="0.45"/>
<path fill="#001c4b" d="
  M 218.74 566.32
  A 0.41 0.40 22.4 0 1 219.03 567.01
  L 190.82 595.22
  A 0.75 0.75 0.0 0 0 190.79 596.24
  L 219.88 629.37
  A 0.58 0.57 -20.5 0 1 219.44 630.32
  L 212.41 630.32
  A 3.02 2.99 69.1 0 1 210.16 629.30
  L 186.02 601.82
  A 1.33 1.33 0.0 0 0 184.07 601.77
  L 178.75 607.23
  A 2.49 2.46 67.6 0 0 178.04 608.97
  L 178.04 629.65
  A 0.55 0.55 0.0 0 1 177.49 630.20
  L 171.40 630.20
  A 0.51 0.51 0.0 0 1 170.89 629.69
  L 170.89 566.66
  A 0.32 0.32 0.0 0 1 171.21 566.34
  L 177.87 566.34
  A 0.19 0.19 0.0 0 1 178.06 566.53
  L 178.06 598.10
  A 0.51 0.51 0.0 0 0 178.94 598.45
  L 209.61 566.98
  A 2.17 2.17 0.0 0 1 211.17 566.32
  L 218.74 566.32
  Z"
/>
<path fill="#001c4b" d="
  M 777.31 582.60
  A 0.26 0.25 0.0 0 1 777.57 582.35
  L 783.55 582.35
  A 0.36 0.36 0.0 0 1 783.91 582.71
  L 783.91 589.43
  A 0.49 0.49 0.0 0 0 784.83 589.68
  Q 787.66 584.80 792.68 582.69
  C 800.27 579.51 810.58 580.75 814.82 588.72
  Q 817.51 593.79 817.59 598.26
  Q 817.69 603.81 817.54 629.55
  A 0.67 0.67 0.0 0 1 816.87 630.22
  L 811.48 630.22
  A 0.69 0.69 0.0 0 1 810.79 629.52
  Q 810.97 612.07 810.69 600.28
  Q 810.43 589.57 800.28 587.84
  C 791.05 586.26 784.24 593.75 784.15 602.76
  Q 784.03 616.36 784.02 629.68
  A 0.51 0.50 -0.0 0 1 783.51 630.18
  L 777.84 630.18
  A 0.53 0.52 0.0 0 1 777.31 629.66
  L 777.31 582.60
  Z"
/>
<path fill="#001c4b" d="
  M 359.57 589.08
  A 0.45 0.44 62.6 0 0 360.38 589.34
  C 363.99 584.20 367.83 580.97 374.48 581.17
  C 381.92 581.40 384.53 585.09 388.72 590.54
  A 0.40 0.39 40.6 0 0 389.38 590.49
  Q 394.81 580.39 406.75 581.24
  C 416.65 581.93 421.34 590.46 421.36 599.49
  Q 421.38 613.95 421.22 629.37
  A 0.87 0.87 0.0 0 1 420.35 630.23
  L 415.45 630.23
  A 0.80 0.80 0.0 0 1 414.65 629.43
  Q 414.58 606.49 414.64 604.43
  C 414.87 596.21 413.54 589.35 405.04 587.65
  Q 399.54 586.55 395.11 590.63
  C 391.22 594.21 390.36 599.28 390.37 605.22
  Q 390.37 621.48 390.30 629.55
  A 0.66 0.65 -89.6 0 1 389.65 630.20
  L 384.24 630.20
  A 0.63 0.63 0.0 0 1 383.61 629.56
  Q 383.64 625.97 383.63 603.25
  Q 383.63 598.81 382.68 595.64
  C 380.62 588.82 374.61 586.16 367.97 588.34
  C 362.61 590.10 359.76 596.83 359.73 602.02
  Q 359.59 625.03 359.53 629.64
  A 0.66 0.66 0.0 0 1 358.87 630.29
  L 353.40 630.29
  A 0.66 0.66 0.0 0 1 352.74 629.63
  L 352.86 582.47
  A 0.04 0.03 -90.0 0 1 352.89 582.43
  L 359.33 582.30
  A 0.24 0.23 -0.0 0 1 359.57 582.53
  L 359.57 589.08
  Z"
/>
<path fill="#001c4b" d="
  M 473.43 590.65
  Q 478.45 580.22 490.54 581.26
  C 501.87 582.23 504.97 591.32 504.92 601.25
  Q 504.92 603.12 504.91 629.69
  A 0.51 0.50 -90.0 0 1 504.41 630.20
  L 498.58 630.20
  A 0.52 0.51 0.5 0 1 498.06 629.68
  Q 498.21 605.92 498.14 599.69
  C 497.96 584.97 480.11 583.11 475.20 596.45
  Q 474.31 598.88 474.27 604.63
  Q 474.18 618.20 474.14 629.69
  A 0.50 0.50 0.0 0 1 473.64 630.19
  L 467.87 630.19
  A 0.49 0.49 0.0 0 1 467.38 629.70
  Q 467.60 604.79 467.33 599.00
  C 466.97 591.20 460.81 585.96 453.02 588.01
  C 446.41 589.76 444.10 595.68 443.72 602.01
  Q 443.57 604.48 443.52 629.79
  A 0.44 0.44 0.0 0 1 443.08 630.23
  L 437.18 630.23
  A 0.42 0.41 90.0 0 1 436.77 629.81
  L 436.77 582.71
  A 0.36 0.36 0.0 0 1 437.13 582.35
  L 443.33 582.35
  A 0.27 0.27 0.0 0 1 443.60 582.62
  L 443.60 589.30
  A 0.33 0.33 0.0 0 0 444.22 589.47
  Q 449.04 581.49 457.50 581.19
  C 464.44 580.95 469.45 584.78 472.71 590.67
  A 0.41 0.40 43.4 0 0 473.43 590.65
  Z"
/>
<path fill="#001c4b" d="
  M 539.8383 581.1865
  A 25.20 24.27 -91.3 0 1 564.6738 605.8294
  A 25.20 24.27 -91.3 0 1 540.9817 631.5735
  A 25.20 24.27 -91.3 0 1 516.1462 606.9306
  A 25.20 24.27 -91.3 0 1 539.8383 581.1865
  Z
  M 539.8803 587.4449
  A 18.94 17.11 -91.3 0 0 523.2044 606.7682
  A 18.94 17.11 -91.3 0 0 540.7397 625.3151
  A 18.94 17.11 -91.3 0 0 557.4156 605.9918
  A 18.94 17.11 -91.3 0 0 539.8803 587.4449
  Z"
/>
<path fill="#001c4b" d="
  M 741.9999 581.2620
  A 25.17 24.49 -85.1 0 1 764.2505 608.4319
  A 25.17 24.49 -85.1 0 1 737.7001 631.4180
  A 25.17 24.49 -85.1 0 1 715.4495 604.2481
  A 25.17 24.49 -85.1 0 1 741.9999 581.2620
  Z
  M 739.6969 587.3005
  A 19.07 17.30 -90.4 0 0 722.5304 606.4908
  A 19.07 17.30 -90.4 0 0 739.9631 625.4395
  A 19.07 17.30 -90.4 0 0 757.1296 606.2492
  A 19.07 17.30 -90.4 0 0 739.6969 587.3005
  Z"
/>
<path fill="#001c4b" d="
  M 679.04 587.25
  A 0.53 0.52 -56.4 0 1 679.17 587.94
  L 676.57 592.21
  A 0.53 0.52 36.1 0 1 675.78 592.33
  Q 670.15 587.56 662.50 587.19
  C 657.65 586.95 653.65 588.87 652.42 593.94
  C 651.58 597.42 655.34 600.23 658.24 601.17
  Q 663.42 602.85 670.84 605.43
  C 676.07 607.26 679.83 609.80 680.38 615.57
  Q 681.14 623.68 675.14 627.96
  C 669.10 632.26 660.61 631.92 653.78 629.44
  Q 649.82 628.01 644.73 624.39
  A 0.74 0.74 0.0 0 1 644.62 623.28
  L 648.02 619.80
  A 0.23 0.23 0.0 0 1 648.36 619.81
  Q 648.65 620.16 649.80 620.95
  Q 657.54 626.21 665.66 625.59
  Q 671.49 625.14 673.27 620.59
  Q 675.10 615.88 671.02 613.24
  C 666.12 610.07 658.97 609.06 653.93 606.85
  Q 644.10 602.56 646.65 591.83
  Q 647.95 586.36 653.44 583.48
  C 661.55 579.23 671.93 581.92 679.04 587.25
  Z"
/>
<path fill="#001c4b" d="
  M 568.47 582.33
  L 575.56 582.33
  A 0.46 0.45 78.2 0 1 575.98 582.61
  L 591.79 621.19
  A 0.43 0.42 44.6 0 0 592.58 621.19
  L 607.64 582.47
  A 0.48 0.47 -79.0 0 1 608.08 582.17
  L 614.82 582.17
  A 0.10 0.09 11.8 0 1 614.91 582.30
  L 595.76 629.53
  A 1.47 1.47 0.0 0 1 594.40 630.45
  L 589.63 630.45
  A 1.11 1.11 0.0 0 1 588.59 629.73
  Q 587.10 625.75 573.98 594.86
  Q 571.70 589.50 568.27 582.64
  A 0.22 0.22 0.0 0 1 568.47 582.33
  Z"
/>
<rect fill="#001c4b" x="-3.48" y="-23.91" transform="translate(628.26,606.38) rotate(0.2)" width="6.96" height="47.82" rx="0.66"/>
<rect fill="#001c4b" x="-3.33" y="-23.95" transform="translate(698.16,606.33) rotate(0.1)" width="6.66" height="47.90" rx="0.57"/>
<ellipse fill="#fafafa" cx="0.00" cy="0.00" transform="translate(540.31,606.38) rotate(-91.3)" rx="18.94" ry="17.11"/>
<ellipse fill="#fafafa" cx="0.00" cy="0.00" transform="translate(739.83,606.37) rotate(-90.4)" rx="19.07" ry="17.30"/>
</svg>
