<?xml version="1.0" encoding="UTF-8" standalone="no"?>
<!DOCTYPE svg PUBLIC "-//W3C//DTD SVG 1.1//EN" "http://www.w3.org/Graphics/SVG/1.1/DTD/svg11.dtd">
<svg xmlns="http://www.w3.org/2000/svg" version="1.1" viewBox="0.00 0.00 1024.00 1024.00">
<g stroke-width="2.00" fill="none" stroke-linecap="butt">
<path stroke="#79602f" vector-effect="non-scaling-stroke" d="
  M 512.07 267.58
  Q 512.11 267.58 512.16 267.58
  A 0.22 0.03 -2.0 0 1 512.33 267.60
  L 595.75 334.00
  A 0.65 0.65 0.0 0 0 596.80 333.49
  L 596.80 318.61
  A 1.47 1.46 19.1 0 0 596.24 317.46
  Q 560.75 289.75 526.22 261.76
  Q 519.78 256.54 512.64 251.16
  Q 512.38 250.96 512.06 250.96
  Q 511.74 250.96 511.48 251.16
  Q 504.35 256.55 497.92 261.78
  Q 463.43 289.82 427.98 317.58
  A 1.47 1.46 -19.2 0 0 427.42 318.73
  L 427.44 333.61
  A 0.65 0.65 0.0 0 0 428.49 334.12
  L 511.82 267.60
  A 0.22 0.03 1.9 0 1 511.99 267.58
  Q 512.04 267.58 512.07 267.58"
/>
<path stroke="#6b5428" vector-effect="non-scaling-stroke" d="
  M 427.79 417.79
  L 427.74 454.61
  A 2.34 2.33 -70.7 0 0 428.61 456.43
  L 439.40 465.02"
/>
<path stroke="#807b6e" vector-effect="non-scaling-stroke" d="
  M 439.40 465.02
  L 397.50 501.97
  A 0.38 0.38 0.0 0 1 396.87 501.68
  Q 396.87 483.46 396.89 446.00
  Q 396.89 442.46 398.53 437.73
  C 401.28 429.79 409.98 429.01 417.16 428.50
  A 0.92 0.91 88.0 0 0 418.01 427.58
  L 418.01 425.92
  A 0.80 0.79 90.0 0 0 417.22 425.12
  L 350.67 425.12
  A 0.81 0.81 0.0 0 0 349.86 425.93
  L 349.86 427.70
  A 1.09 1.09 0.0 0 0 350.88 428.79
  C 357.13 429.21 364.68 429.33 368.37 435.52
  Q 371.13 440.15 371.13 446.82
  Q 371.18 530.27 371.08 559.55
  Q 371.07 562.91 370.15 567.23
  C 367.91 577.64 359.80 578.82 350.57 578.79
  A 0.85 0.84 -86.2 0 0 349.72 579.54
  L 349.46 581.65
  A 0.76 0.75 3.7 0 0 350.21 582.50
  L 417.08 582.50
  A 1.05 1.05 0.0 0 0 418.13 581.45
  L 418.13 580.21
  A 1.25 1.25 0.0 0 0 416.90 578.96
  C 411.24 578.88 402.18 577.66 399.65 571.87
  Q 397.05 565.93 396.91 557.55
  Q 396.90 557.12 396.86 510.31
  A 1.90 1.90 0.0 0 1 397.57 508.83
  L 405.58 502.43
  A 0.91 0.90 -38.1 0 1 406.86 502.58
  Q 413.30 510.97 414.75 512.72
  Q 451.56 557.26 457.76 564.81
  Q 460.89 568.62 461.01 570.36
  C 461.58 578.73 454.16 578.91 448.05 579.00
  A 1.22 1.22 0.0 0 0 446.86 580.07
  L 446.73 581.17
  A 1.13 1.12 -86.4 0 0 447.84 582.44
  L 517.24 582.44
  A 0.75 0.75 0.0 0 0 517.99 581.69
  L 517.99 579.83
  A 0.93 0.93 0.0 0 0 517.10 578.90
  Q 502.35 578.27 493.21 567.03
  Q 460.50 526.82 443.38 505.70
  C 438.25 499.38 431.84 492.53 426.73 485.56
  A 1.13 1.12 51.7 0 1 426.90 484.05
  L 475.41 442.48"
/>
<path stroke="#6b5428" vector-effect="non-scaling-stroke" d="
  M 475.41 442.48
  L 475.43 496.49
  A 1.17 1.16 19.8 0 0 475.86 497.39
  L 490.76 509.84
  A 0.66 0.66 0.0 0 0 491.85 509.33
  L 491.94 431.36"
/>
<path stroke="#807b6e" vector-effect="non-scaling-stroke" d="
  M 491.94 431.36
  Q 495.04 430.26 498.55 429.60
  Q 502.59 428.84 506.05 428.81
  A 1.38 1.38 0.0 0 0 507.42 427.43
  L 507.42 426.35
  A 1.26 1.25 -90.0 0 0 506.17 425.09
  L 491.76 425.08"
/>
<path stroke="#6b5428" vector-effect="non-scaling-stroke" d="
  M 491.76 425.08
  L 491.60 374.21"
/>
<path stroke="#79602f" vector-effect="non-scaling-stroke" d="
  M 491.60 374.21
  L 491.69 343.97
  A 1.11 1.10 71.2 0 1 492.11 343.10
  L 511.54 327.57
  A 1.23 1.23 0.0 0 1 513.09 327.59
  L 532.02 343.39
  A 1.07 1.05 20.4 0 1 532.40 344.20
  L 532.51 444.29"
/>
<path stroke="#6b5428" vector-effect="non-scaling-stroke" d="
  M 532.51 444.29
  L 532.79 450.57"
/>
<path stroke="#807b6e" vector-effect="non-scaling-stroke" d="
  M 532.79 450.57
  C 518.50 468.78 512.51 492.92 515.40 515.62
  Q 519.46 547.62 542.71 567.26
  C 575.59 595.03 621.38 588.35 657.82 572.61
  A 1.61 1.60 78.2 0 0 658.79 571.12
  Q 658.56 549.31 658.92 531.86
  Q 659.17 520.02 670.45 518.01
  Q 673.08 517.53 675.89 517.38
  A 0.50 0.50 0.0 0 0 676.36 516.88
  L 676.36 514.43
  A 0.65 0.64 -90.0 0 0 675.72 513.78
  L 612.78 513.78
  A 0.60 0.60 0.0 0 0 612.18 514.31
  L 611.85 516.95
  A 0.68 0.68 0.0 0 0 612.49 517.70
  Q 616.53 517.89 619.71 518.30
  Q 632.53 519.95 632.90 533.04
  Q 633.41 551.55 632.67 566.10
  Q 632.54 568.68 630.01 572.33
  C 627.91 575.36 622.90 576.75 619.52 577.48
  C 605.67 580.47 588.50 580.09 576.22 572.52
  C 556.32 560.26 546.50 536.25 543.84 513.25
  Q 542.99 505.92 543.49 501.40"
/>
<path stroke="#6b5428" vector-effect="non-scaling-stroke" d="
  M 543.49 501.40
  L 548.21 497.75
  A 2.47 2.46 -18.9 0 0 549.17 495.80
  L 549.21 464.45"
/>
<path stroke="#807b6e" vector-effect="non-scaling-stroke" d="
  M 549.21 464.45
  Q 553.62 452.71 561.53 443.28
  Q 569.36 433.93 580.52 430.02"
/>
<path stroke="#6b5428" vector-effect="non-scaling-stroke" d="
  M 580.52 430.02
  L 580.36 467.20
  A 0.62 0.62 0.0 0 0 581.35 467.70
  L 595.51 456.95
  A 1.91 1.88 82.1 0 0 596.11 456.14
  Q 596.49 455.22 596.53 452.75
  Q 596.72 439.84 596.50 426.75"
/>
<path stroke="#807b6e" vector-effect="non-scaling-stroke" d="
  M 596.50 426.75
  C 609.98 425.95 623.81 429.18 634.39 437.44
  Q 650.83 450.28 653.57 472.16
  A 1.31 1.31 0.0 0 0 654.87 473.31
  L 656.24 473.31
  A 1.15 1.15 0.0 0 0 657.39 472.16
  L 657.39 425.07
  A 1.50 1.50 0.0 0 0 654.54 424.43
  C 651.94 429.89 646.83 433.71 640.60 430.68
  Q 619.82 420.60 596.37 421.04"
/>
<path stroke="#6b5428" vector-effect="non-scaling-stroke" d="
  M 596.37 421.04
  L 596.59 369.04"
/>
<path stroke="#79602f" vector-effect="non-scaling-stroke" d="
  M 596.59 369.04
  Q 595.70 367.65 593.70 366.17
  Q 590.41 363.73 590.39 363.72
  Q 554.12 334.36 512.67 301.23
  A 0.83 0.83 0.0 0 0 511.65 301.23
  L 428.55 367.64
  A 2.61 2.59 -19.6 0 0 427.57 369.69
  L 427.79 417.79"
/>
<path stroke="#e4b457" vector-effect="non-scaling-stroke" d="
  M 596.59 369.04
  Q 596.09 376.50 596.06 386.35
  Q 596.05 388.28 595.00 391.31
  A 0.65 0.65 0.0 0 1 594.31 391.74
  L 582.85 390.34
  A 0.47 0.46 -84.8 0 0 582.33 390.78
  Q 581.71 402.42 581.40 410.16
  Q 581.26 413.76 580.44 417.30"
/>
<path stroke="#79602f" vector-effect="non-scaling-stroke" d="
  M 580.44 417.30
  L 580.42 381.36
  A 2.00 1.99 19.6 0 0 579.68 379.81
  L 550.02 356.21
  A 0.65 0.64 -70.9 0 0 548.98 356.72
  L 549.03 367.95"
/>
<path stroke="#e4b457" vector-effect="non-scaling-stroke" d="
  M 549.03 367.95
  L 547.80 395.45
  A 0.12 0.05 83.7 0 1 547.77 395.54
  Q 547.75 395.55 547.75 395.59
  A 0.07 0.05 50.9 0 1 547.63 395.56
  Q 547.61 395.13 547.38 391.27
  A 0.59 0.58 -89.5 0 0 546.85 390.72
  Q 540.50 390.18 534.66 391.19
  A 0.68 0.68 0.0 0 0 534.10 391.85
  Q 533.58 428.35 533.23 439.69
  Q 533.19 441.23 532.51 444.29"
/>
<path stroke="#e4b457" vector-effect="non-scaling-stroke" d="
  M 491.60 374.21
  L 490.99 396.39
  A 0.84 0.84 0.0 0 1 490.41 397.16
  Q 480.60 400.26 475.13 393.19"
/>
<path stroke="#79602f" vector-effect="non-scaling-stroke" d="
  M 475.13 393.19
  L 475.05 356.52
  A 0.49 0.49 0.0 0 0 474.26 356.13
  L 444.55 379.87
  A 1.89 1.88 -18.9 0 0 443.83 381.33
  L 443.62 395.05"
/>
<path stroke="#e4b457" vector-effect="non-scaling-stroke" d="
  M 443.62 395.05
  Q 442.39 392.98 441.03 391.74
  Q 439.45 390.31 437.25 390.28
  Q 433.59 390.24 430.35 389.79
  A 1.10 1.10 0.0 0 0 429.10 390.81
  Q 428.49 400.67 428.69 410.75
  Q 428.75 413.87 427.79 417.79"
/>
<path stroke="#6b5428" vector-effect="non-scaling-stroke" d="
  M 580.44 417.30
  L 580.62 422.95"
/>
<path stroke="#807b6e" vector-effect="non-scaling-stroke" d="
  M 580.62 422.95
  Q 568.91 425.21 558.55 430.56
  Q 553.00 433.42 548.91 436.01"
/>
<path stroke="#6b5428" vector-effect="non-scaling-stroke" d="
  M 548.91 436.01
  L 549.03 367.95"
/>
<path stroke="#ebcf96" vector-effect="non-scaling-stroke" d="
  M 491.76 425.08
  Q 483.50 425.79 475.11 425.08"
/>
<path stroke="#ebcf96" vector-effect="non-scaling-stroke" d="
  M 443.24 461.73
  L 439.40 465.02"
/>
<path stroke="#6b5428" vector-effect="non-scaling-stroke" d="
  M 475.13 393.19
  L 475.11 425.08"
/>
<path stroke="#807b6e" vector-effect="non-scaling-stroke" d="
  M 475.11 425.08
  L 452.26 425.06
  A 1.06 1.05 90.0 0 0 451.21 426.12
  L 451.21 427.70
  A 1.02 1.01 88.4 0 0 452.28 428.72
  C 456.33 428.52 463.32 428.87 466.22 432.33
  C 469.03 435.68 464.64 442.39 462.01 444.77
  Q 452.77 453.13 443.24 461.73"
/>
<path stroke="#6b5428" vector-effect="non-scaling-stroke" d="
  M 443.24 461.73
  Q 442.95 460.52 443.54 459.05
  A 1.24 1.13 -36.2 0 0 443.63 458.60
  L 443.62 395.05"
/>
<path stroke="#ebcf96" vector-effect="non-scaling-stroke" d="
  M 548.91 436.01
  Q 539.90 442.98 532.79 450.57"
/>
<path stroke="#ebcf96" vector-effect="non-scaling-stroke" d="
  M 596.37 421.04
  L 580.62 422.95"
/>
<path stroke="#ebcf96" vector-effect="non-scaling-stroke" d="
  M 596.50 426.75
  Q 588.51 426.23 580.52 430.02"
/>
<path stroke="#ebcf96" vector-effect="non-scaling-stroke" d="
  M 549.21 464.45
  Q 542.69 481.62 543.49 501.40"
/>
<path stroke="#ebcf96" vector-effect="non-scaling-stroke" d="
  M 491.94 431.36
  Q 482.58 434.12 475.41 442.48"
/>
<path stroke="#807b6e" vector-effect="non-scaling-stroke" d="
  M 600.46 632.04
  A 7.21 7.21 0.0 0 0 593.25 624.83
  A 7.21 7.21 0.0 0 0 586.04 632.04
  A 7.21 7.21 0.0 0 0 593.25 639.25
  A 7.21 7.21 0.0 0 0 600.46 632.04"
/>
<path stroke="#807b6e" vector-effect="non-scaling-stroke" d="
  M 697.02 632.08
  A 7.20 7.20 0.0 0 0 689.82 624.88
  A 7.20 7.20 0.0 0 0 682.62 632.08
  A 7.20 7.20 0.0 0 0 689.82 639.28
  A 7.20 7.20 0.0 0 0 697.02 632.08"
/>
<path stroke="#807b6e" vector-effect="non-scaling-stroke" d="
  M 190.93 710.60
  Q 188.19 710.51 184.76 709.19
  C 178.58 706.81 179.00 699.11 178.96 694.00
  Q 178.87 680.39 178.95 642.02
  C 178.97 634.48 180.34 628.97 189.48 627.76
  A 1.41 1.40 -1.5 0 0 190.70 626.48
  L 190.71 626.22
  A 0.78 0.78 0.0 0 0 189.93 625.43
  L 154.97 625.43
  A 0.64 0.63 -0.0 0 0 154.33 626.06
  L 154.33 626.97
  A 0.81 0.80 2.3 0 0 155.07 627.77
  Q 158.83 628.10 159.86 628.36
  C 165.94 629.91 167.24 635.09 167.26 640.75
  Q 167.33 658.90 167.30 696.75
  C 167.29 706.09 164.78 710.08 154.85 710.65
  A 1.10 1.10 0.0 0 0 153.81 711.75
  L 153.81 712.29
  A 0.99 0.99 0.0 0 0 154.80 713.28
  L 190.92 713.28
  A 0.83 0.83 0.0 0 0 191.75 712.45
  L 191.75 711.45
  A 0.85 0.85 0.0 0 0 190.93 710.60"
/>
<path stroke="#807b6e" vector-effect="non-scaling-stroke" d="
  M 496.0267 682.5209
  A 33.60 31.84 -0.8 0 0 461.9854 651.1531
  A 33.60 31.84 -0.8 0 0 428.8333 683.4591
  A 33.60 31.84 -0.8 0 0 462.8746 714.8269
  A 33.60 31.84 -0.8 0 0 496.0267 682.5209"
/>
<path stroke="#807b6e" vector-effect="non-scaling-stroke" d="
  M 621.32 693.59
  L 621.93 712.84
  A 0.89 0.89 0.0 0 0 623.37 713.50
  L 625.91 711.47
  A 1.93 1.92 37.5 0 1 627.89 711.21
  C 637.80 715.57 649.82 717.01 658.20 709.48
  C 663.00 705.16 664.67 699.86 663.63 693.62
  C 662.82 688.83 657.06 683.98 653.02 681.97
  Q 645.09 678.03 640.73 675.78
  C 635.35 673.00 630.17 668.96 631.67 662.25
  C 633.25 655.20 641.41 652.95 647.52 655.37
  C 654.23 658.03 656.36 664.04 658.07 670.41
  A 1.45 1.42 -24.3 0 0 660.25 671.21
  Q 661.08 670.67 661.04 669.98
  Q 660.54 659.51 660.57 654.04
  A 0.82 0.82 0.0 0 0 659.34 653.32
  L 657.15 654.59
  A 1.03 1.03 0.0 0 1 656.21 654.63
  Q 646.57 650.04 637.79 652.01
  Q 623.14 655.29 623.04 669.57
  C 622.96 682.34 638.05 685.61 647.38 691.32
  Q 651.51 693.86 652.55 695.09
  Q 657.49 700.91 653.19 706.71
  C 649.52 711.64 642.96 712.88 637.19 710.65
  C 629.76 707.80 626.06 701.31 624.08 693.68
  A 1.41 1.40 -8.2 0 0 622.67 692.63
  L 622.20 692.64
  A 0.92 0.91 88.1 0 0 621.32 693.59"
/>
<path stroke="#807b6e" vector-effect="non-scaling-stroke" d="
  M 783.8907 681.2092
  A 33.67 31.85 -3.1 0 0 748.5476 651.2266
  A 33.67 31.85 -3.1 0 0 716.6493 684.8508
  A 33.67 31.85 -3.1 0 0 751.9924 714.8334
  A 33.67 31.85 -3.1 0 0 783.8907 681.2092"
/>
<path stroke="#807b6e" vector-effect="non-scaling-stroke" d="
  M 331.65 652.26
  C 325.49 654.70 320.23 657.69 313.27 658.74
  Q 312.64 658.84 312.50 659.37
  A 1.00 0.85 -78.7 0 0 313.18 660.59
  Q 317.26 661.09 318.45 661.28
  A 3.76 3.75 -9.1 0 1 321.19 663.26
  Q 322.34 665.51 322.42 668.81
  Q 322.53 673.13 322.52 701.55
  Q 322.52 711.59 313.70 711.18
  A 1.12 1.12 0.0 0 0 312.53 712.25
  L 312.53 712.31
  A 1.01 1.00 -0.3 0 0 313.59 713.35
  Q 327.75 712.56 340.47 713.28
  A 1.07 1.06 -81.8 0 0 341.58 712.44
  L 341.59 712.40
  A 0.94 0.94 0.0 0 0 340.88 711.28
  Q 340.10 711.10 338.86 711.01
  C 333.44 710.64 332.31 705.12 332.35 700.52
  Q 332.53 680.52 332.43 672.50
  C 332.38 667.95 335.17 665.49 338.71 662.75
  Q 343.58 658.99 350.38 659.92
  C 358.08 660.98 361.15 669.49 361.29 676.25
  Q 361.42 682.50 361.32 702.47
  Q 361.28 710.44 352.99 711.14
  A 1.60 1.59 -79.9 0 0 351.69 712.05
  L 351.67 712.08
  A 0.60 0.59 -75.0 0 0 352.18 712.97
  L 378.46 713.23
  A 1.30 1.27 -75.5 0 0 379.61 712.54
  L 379.63 712.50
  A 0.85 0.85 0.0 0 0 378.99 711.29
  Q 371.46 710.20 371.29 704.91
  Q 370.97 694.56 371.22 679.18
  Q 371.34 672.04 371.64 670.86
  C 373.75 662.66 385.53 656.97 393.04 661.23
  C 398.09 664.10 400.10 669.35 400.27 674.51
  Q 400.61 684.91 400.51 700.91
  C 400.46 707.92 398.69 710.63 391.73 711.13
  A 1.18 1.17 1.8 0 0 390.65 712.14
  L 390.65 712.21
  A 0.82 0.81 3.7 0 0 391.46 713.13
  L 417.45 713.07
  A 1.27 1.26 -78.9 0 0 418.62 712.28
  L 418.63 712.26
  A 0.85 0.85 0.0 0 0 417.89 711.19
  Q 410.18 710.44 409.97 701.98
  Q 409.81 696.05 409.87 675.00
  C 409.91 663.67 404.21 650.09 390.34 651.91
  C 382.21 652.98 374.82 659.73 370.56 666.82
  A 0.32 0.32 0.0 0 1 369.98 666.72
  C 367.94 656.41 358.38 649.47 347.94 652.69
  C 344.19 653.85 338.93 657.46 336.08 661.19
  Q 334.39 663.40 332.69 665.03
  A 0.30 0.29 -22.0 0 1 332.19 664.82
  L 332.19 652.62
  A 0.39 0.39 0.0 0 0 331.65 652.26"
/>
<path stroke="#807b6e" vector-effect="non-scaling-stroke" d="
  M 695.75 652.12
  Q 694.57 652.17 693.98 652.46
  Q 686.72 656.00 677.18 658.86
  Q 676.55 659.05 676.37 659.69
  A 0.79 0.79 0.0 0 0 677.10 660.69
  C 681.95 660.87 685.90 660.92 685.95 667.29
  Q 686.16 695.18 686.03 701.49
  C 685.95 705.44 684.92 708.97 681.03 710.52
  Q 680.25 710.83 676.93 711.22
  A 0.87 0.87 0.0 0 0 676.16 712.08
  L 676.16 712.39
  A 1.01 1.01 0.0 0 0 677.23 713.40
  Q 685.95 712.94 703.14 713.26
  Q 704.18 713.28 704.85 712.69
  A 0.83 0.83 0.0 0 0 704.43 711.25
  C 701.41 710.75 699.60 710.57 697.74 707.79
  Q 696.30 705.63 696.10 701.00
  Q 696.09 700.70 696.20 652.55
  A 0.43 0.43 0.0 0 0 695.75 652.12"
/>
<path stroke="#807b6e" vector-effect="non-scaling-stroke" d="
  M 598.63 652.27
  Q 597.46 652.32 596.87 652.60
  Q 589.62 656.12 580.10 658.94
  Q 579.47 659.13 579.29 659.77
  A 0.79 0.79 0.0 0 0 580.01 660.77
  C 584.85 660.96 588.79 661.02 588.82 667.37
  Q 588.97 695.19 588.82 701.48
  C 588.73 705.42 587.69 708.94 583.81 710.47
  Q 583.03 710.78 579.72 711.16
  A 0.87 0.86 -3.2 0 0 578.95 712.02
  L 578.95 712.33
  A 1.01 1.01 0.0 0 0 580.02 713.34
  Q 588.71 712.90 605.85 713.26
  Q 606.89 713.28 607.56 712.70
  A 0.83 0.82 29.2 0 0 607.15 711.26
  C 604.14 710.75 602.33 710.57 600.48 707.79
  Q 599.05 705.63 598.86 701.02
  Q 598.85 700.72 599.08 652.70
  A 0.43 0.43 0.0 0 0 598.63 652.27"
/>
<path stroke="#807b6e" vector-effect="non-scaling-stroke" d="
  M 282.78 660.35
  Q 282.94 660.74 282.93 661.51
  Q 282.56 678.02 282.84 701.25
  Q 282.88 704.30 281.91 706.66
  C 280.40 710.33 277.28 710.70 273.55 711.04
  A 0.96 0.96 0.0 0 0 272.68 712.00
  L 272.68 712.50
  A 0.80 0.79 88.3 0 0 273.52 713.30
  Q 286.62 712.61 300.14 713.51
  A 1.38 1.38 0.0 0 0 301.54 712.58
  L 301.55 712.54
  A 0.99 0.99 0.0 0 0 300.83 711.26
  C 295.40 710.07 292.53 708.88 292.47 702.52
  Q 292.23 679.58 292.45 662.29
  Q 292.53 655.26 299.11 654.92
  A 1.33 1.32 3.8 0 0 300.35 653.84
  L 300.40 653.60
  A 0.59 0.58 -84.0 0 0 299.83 652.89
  L 283.31 652.89
  A 3.14 3.12 15.4 0 0 280.62 654.41
  L 252.91 700.67
  A 0.87 0.86 -44.5 0 1 251.42 700.66
  L 224.21 653.52
  A 1.24 1.22 74.5 0 0 223.15 652.91
  L 204.69 652.91
  A 0.58 0.57 80.8 0 0 204.15 653.67
  Q 204.27 654.02 204.45 654.17
  Q 204.81 654.47 204.94 654.51
  C 208.76 655.47 212.80 656.19 212.78 661.25
  Q 212.69 686.01 212.93 698.86
  Q 213.04 704.61 211.57 706.85
  Q 208.89 710.94 204.04 711.07
  A 1.07 1.07 0.0 0 0 202.99 712.14
  L 202.99 712.62
  A 0.51 0.50 90.0 0 0 203.49 713.13
  L 225.08 713.03
  A 0.87 0.87 0.0 0 0 225.95 712.21
  L 225.95 712.18
  A 0.96 0.95 -85.0 0 0 225.13 711.20
  Q 216.91 710.08 216.90 701.66
  Q 216.86 676.97 216.92 661.39
  A 0.45 0.44 -59.8 0 1 217.75 661.17
  L 247.96 713.49
  A 0.95 0.94 48.8 0 0 249.53 713.60
  L 250.59 712.22
  A 2.29 1.95 -13.8 0 0 250.77 711.97
  L 281.74 660.27
  A 0.58 0.58 0.0 0 1 282.78 660.35"
/>
<path stroke="#807b6e" vector-effect="non-scaling-stroke" d="
  M 540.44 700.46
  A 0.48 0.48 0.0 0 1 539.56 700.48
  Q 529.63 679.37 522.80 662.83
  Q 521.02 658.53 524.15 656.18
  Q 525.01 655.54 528.95 654.84
  A 0.99 0.99 0.0 0 0 529.76 653.76
  L 529.75 653.73
  A 1.02 1.01 86.3 0 0 528.72 652.82
  Q 514.37 653.03 502.76 652.83
  A 0.98 0.95 89.4 0 0 501.79 653.85
  Q 501.81 654.55 502.51 654.76
  Q 508.38 656.59 511.01 662.03
  Q 521.96 684.77 532.82 708.69
  Q 534.13 711.58 535.32 713.73
  A 1.39 1.38 56.4 0 0 537.38 714.15
  Q 537.91 713.74 538.34 712.82
  Q 544.89 698.72 552.32 683.11
  Q 554.98 677.51 560.75 664.52
  Q 564.01 657.17 571.47 654.95
  A 1.09 1.09 0.0 0 0 571.13 652.81
  Q 561.71 653.10 551.77 652.78
  Q 550.81 652.75 550.38 653.26
  A 0.76 0.75 29.8 0 0 550.71 654.47
  C 554.66 655.81 558.59 656.92 557.05 662.30
  C 555.79 666.70 552.87 671.58 551.09 676.42
  C 549.55 680.62 547.54 683.90 545.72 688.05
  Q 544.66 690.47 540.44 700.46"
/>
<path stroke="#807b6e" vector-effect="non-scaling-stroke" d="
  M 858.33 699.48
  L 814.45 653.38
  A 1.60 1.55 -21.3 0 0 813.31 652.90
  L 796.88 652.90
  A 0.61 0.60 -34.5 0 0 796.66 654.07
  Q 798.51 654.78 801.15 655.64
  C 805.16 656.95 804.73 660.07 804.74 663.98
  Q 804.74 668.65 804.89 698.33
  Q 804.92 704.85 803.63 706.94
  Q 801.25 710.78 795.86 711.12
  A 0.86 0.86 0.0 0 0 795.05 711.98
  L 795.05 712.36
  A 0.74 0.73 0.0 0 0 795.79 713.09
  L 817.25 712.98
  A 1.16 1.16 0.0 0 0 818.35 712.18
  L 818.36 712.15
  A 0.83 0.83 0.0 0 0 817.63 711.11
  C 809.55 710.44 808.80 704.00 808.87 696.68
  Q 809.03 679.68 808.90 661.95
  A 0.20 0.19 -67.5 0 1 809.23 661.81
  L 858.25 713.31
  A 3.02 2.99 77.6 0 0 859.46 714.09
  Q 860.83 714.56 862.13 714.39
  A 0.65 0.64 86.9 0 0 862.69 713.76
  Q 862.90 694.24 862.71 673.50
  C 862.64 665.55 861.97 655.12 871.94 654.96
  A 1.19 1.19 0.0 0 0 873.10 653.87
  L 873.12 653.68
  A 0.66 0.66 0.0 0 0 872.46 652.93
  L 849.85 653.10
  A 0.69 0.68 -88.2 0 0 849.17 653.75
  L 849.16 653.78
  A 0.88 0.87 2.3 0 0 850.01 654.69
  C 855.20 654.85 858.28 659.01 858.73 664.04
  Q 858.92 666.17 858.91 668.50
  Q 858.78 692.46 858.94 699.22
  A 0.36 0.35 -67.7 0 1 858.33 699.48"
/>
<path stroke="#807b6e" vector-effect="non-scaling-stroke" d="
  M 548.45 744.75
  Q 546.04 744.66 545.88 746.68
  A 0.51 0.51 0.0 0 1 545.13 747.09
  C 534.62 741.53 522.46 743.04 514.71 751.86
  C 507.91 759.59 508.29 773.83 516.80 780.53
  C 527.10 788.64 537.85 787.02 549.69 783.21
  A 0.98 0.96 81.5 0 0 550.37 782.28
  L 550.37 770.36
  A 2.43 2.42 79.7 0 1 551.94 768.09
  L 554.66 767.07
  A 0.33 0.33 0.0 0 0 554.87 766.69
  L 554.82 766.45
  A 0.60 0.59 80.1 0 0 554.18 765.99
  Q 546.67 766.74 539.17 766.06
  A 0.56 0.56 0.0 0 0 538.96 767.16
  L 542.54 768.24
  A 2.73 2.71 -81.7 0 1 544.47 770.85
  L 544.47 781.42
  A 1.45 1.43 82.0 0 1 543.44 782.81
  Q 539.26 784.05 535.02 784.29
  C 525.56 784.83 518.24 777.46 517.08 768.49
  C 516.26 762.25 517.48 754.88 522.11 750.29
  C 527.64 744.81 535.74 744.77 542.23 748.34
  C 545.27 750.01 546.31 753.64 547.35 756.49
  A 0.75 0.75 0.0 0 0 548.68 756.64
  Q 548.85 756.37 548.84 755.75
  Q 548.76 750.39 548.89 745.22
  A 0.46 0.46 0.0 0 0 548.45 744.75"
/>
<path stroke="#807b6e" vector-effect="non-scaling-stroke" d="
  M 454.57 785.34
  L 467.00 785.34
  A 0.51 0.51 0.0 0 0 467.51 784.89
  L 467.56 784.50
  A 0.56 0.56 0.0 0 0 467.07 783.87
  L 463.86 783.48
  A 1.25 1.24 -81.0 0 1 462.79 782.00
  Q 463.96 776.22 466.43 771.92
  A 1.32 1.30 -75.0 0 1 467.57 771.25
  L 482.52 771.25
  A 0.96 0.96 0.0 0 1 483.42 771.88
  L 487.06 781.62
  A 1.13 1.13 0.0 0 1 486.40 783.08
  L 483.45 784.18
  A 0.50 0.50 0.0 0 0 483.62 785.15
  Q 497.78 785.39 498.80 785.28
  Q 499.22 785.23 499.30 785.08
  A 0.73 0.67 -68.5 0 0 498.90 784.05
  Q 496.64 783.50 496.28 783.39
  A 3.64 3.64 0.0 0 1 494.03 781.39
  L 477.69 744.83
  A 1.25 1.25 0.0 0 0 475.39 744.86
  C 471.27 754.66 468.60 759.82 465.37 768.43
  Q 464.26 771.40 460.62 779.13
  Q 459.54 781.43 458.52 782.57
  A 1.11 1.06 9.4 0 1 458.14 782.83
  L 454.38 784.31
  A 0.53 0.53 0.0 0 0 454.57 785.34"
/>
<path stroke="#79602f" vector-effect="non-scaling-stroke" d="
  M 439.33 768.00
  A 0.77 0.77 0.0 0 0 438.56 767.23
  L 314.00 767.23
  A 0.77 0.77 0.0 0 0 313.23 768.00
  L 313.23 768.34
  A 0.77 0.77 0.0 0 0 314.00 769.11
  L 438.56 769.11
  A 0.77 0.77 0.0 0 0 439.33 768.34
  L 439.33 768.00"
/>
<path stroke="#79602f" vector-effect="non-scaling-stroke" d="
  M 710.68 768.15
  A 0.91 0.91 0.0 0 0 709.77 767.24
  L 578.69 767.24
  A 0.91 0.91 0.0 0 0 577.78 768.15
  L 577.78 768.19
  A 0.91 0.91 0.0 0 0 578.69 769.10
  L 709.77 769.10
  A 0.91 0.91 0.0 0 0 710.68 768.19
  L 710.68 768.15"
/>
<path stroke="#807b6e" vector-effect="non-scaling-stroke" d="
  M 441.16 683.04
  C 441.29 696.41 446.86 711.62 462.71 711.46
  C 478.56 711.31 483.83 696.00 483.70 682.63
  C 483.57 669.26 478.00 654.05 462.15 654.21
  C 446.30 654.36 441.03 669.67 441.16 683.04"
/>
<path stroke="#807b6e" vector-effect="non-scaling-stroke" d="
  M 728.97 682.96
  C 729.04 696.32 734.55 711.55 750.39 711.46
  C 766.23 711.37 771.56 696.08 771.49 682.72
  C 771.41 669.36 765.91 654.14 750.07 654.23
  C 734.23 654.31 728.90 669.60 728.97 682.96"
/>
<path stroke="#807b6e" vector-effect="non-scaling-stroke" d="
  M 468.01 768.34
  A 0.47 0.47 0.0 0 0 468.44 768.99
  L 481.26 768.99
  A 0.47 0.47 0.0 0 0 481.69 768.34
  L 475.28 752.79
  A 0.47 0.47 0.0 0 0 474.42 752.79
  L 468.01 768.34"
/>
</g>
<path fill="#000000" d="
  M 1024.00 0.00
  L 1024.00 1024.00
  L 0.00 1024.00
  L 0.00 0.00
  L 1024.00 0.00
  Z
  M 512.07 267.58
  Q 512.11 267.58 512.16 267.58
  A 0.22 0.03 -2.0 0 1 512.33 267.60
  L 595.75 334.00
  A 0.65 0.65 0.0 0 0 596.80 333.49
  L 596.80 318.61
  A 1.47 1.46 19.1 0 0 596.24 317.46
  Q 560.75 289.75 526.22 261.76
  Q 519.78 256.54 512.64 251.16
  Q 512.38 250.96 512.06 250.96
  Q 511.74 250.96 511.48 251.16
  Q 504.35 256.55 497.92 261.78
  Q 463.43 289.82 427.98 317.58
  A 1.47 1.46 -19.2 0 0 427.42 318.73
  L 427.44 333.61
  A 0.65 0.65 0.0 0 0 428.49 334.12
  L 511.82 267.60
  A 0.22 0.03 1.9 0 1 511.99 267.58
  Q 512.04 267.58 512.07 267.58
  Z
  M 427.79 417.79
  L 427.74 454.61
  A 2.34 2.33 -70.7 0 0 428.61 456.43
  L 439.40 465.02
  L 397.50 501.97
  A 0.38 0.38 0.0 0 1 396.87 501.68
  Q 396.87 483.46 396.89 446.00
  Q 396.89 442.46 398.53 437.73
  C 401.28 429.79 409.98 429.01 417.16 428.50
  A 0.92 0.91 88.0 0 0 418.01 427.58
  L 418.01 425.92
  A 0.80 0.79 90.0 0 0 417.22 425.12
  L 350.67 425.12
  A 0.81 0.81 0.0 0 0 349.86 425.93
  L 349.86 427.70
  A 1.09 1.09 0.0 0 0 350.88 428.79
  C 357.13 429.21 364.68 429.33 368.37 435.52
  Q 371.13 440.15 371.13 446.82
  Q 371.18 530.27 371.08 559.55
  Q 371.07 562.91 370.15 567.23
  C 367.91 577.64 359.80 578.82 350.57 578.79
  A 0.85 0.84 -86.2 0 0 349.72 579.54
  L 349.46 581.65
  A 0.76 0.75 3.7 0 0 350.21 582.50
  L 417.08 582.50
  A 1.05 1.05 0.0 0 0 418.13 581.45
  L 418.13 580.21
  A 1.25 1.25 0.0 0 0 416.90 578.96
  C 411.24 578.88 402.18 577.66 399.65 571.87
  Q 397.05 565.93 396.91 557.55
  Q 396.90 557.12 396.86 510.31
  A 1.90 1.90 0.0 0 1 397.57 508.83
  L 405.58 502.43
  A 0.91 0.90 -38.1 0 1 406.86 502.58
  Q 413.30 510.97 414.75 512.72
  Q 451.56 557.26 457.76 564.81
  Q 460.89 568.62 461.01 570.36
  C 461.58 578.73 454.16 578.91 448.05 579.00
  A 1.22 1.22 0.0 0 0 446.86 580.07
  L 446.73 581.17
  A 1.13 1.12 -86.4 0 0 447.84 582.44
  L 517.24 582.44
  A 0.75 0.75 0.0 0 0 517.99 581.69
  L 517.99 579.83
  A 0.93 0.93 0.0 0 0 517.10 578.90
  Q 502.35 578.27 493.21 567.03
  Q 460.50 526.82 443.38 505.70
  C 438.25 499.38 431.84 492.53 426.73 485.56
  A 1.13 1.12 51.7 0 1 426.90 484.05
  L 475.41 442.48
  L 475.43 496.49
  A 1.17 1.16 19.8 0 0 475.86 497.39
  L 490.76 509.84
  A 0.66 0.66 0.0 0 0 491.85 509.33
  L 491.94 431.36
  Q 495.04 430.26 498.55 429.60
  Q 502.59 428.84 506.05 428.81
  A 1.38 1.38 0.0 0 0 507.42 427.43
  L 507.42 426.35
  A 1.26 1.25 -90.0 0 0 506.17 425.09
  L 491.76 425.08
  L 491.60 374.21
  L 491.69 343.97
  A 1.11 1.10 71.2 0 1 492.11 343.10
  L 511.54 327.57
  A 1.23 1.23 0.0 0 1 513.09 327.59
  L 532.02 343.39
  A 1.07 1.05 20.4 0 1 532.40 344.20
  L 532.51 444.29
  L 532.79 450.57
  C 518.50 468.78 512.51 492.92 515.40 515.62
  Q 519.46 547.62 542.71 567.26
  C 575.59 595.03 621.38 588.35 657.82 572.61
  A 1.61 1.60 78.2 0 0 658.79 571.12
  Q 658.56 549.31 658.92 531.86
  Q 659.17 520.02 670.45 518.01
  Q 673.08 517.53 675.89 517.38
  A 0.50 0.50 0.0 0 0 676.36 516.88
  L 676.36 514.43
  A 0.65 0.64 -90.0 0 0 675.72 513.78
  L 612.78 513.78
  A 0.60 0.60 0.0 0 0 612.18 514.31
  L 611.85 516.95
  A 0.68 0.68 0.0 0 0 612.49 517.70
  Q 616.53 517.89 619.71 518.30
  Q 632.53 519.95 632.90 533.04
  Q 633.41 551.55 632.67 566.10
  Q 632.54 568.68 630.01 572.33
  C 627.91 575.36 622.90 576.75 619.52 577.48
  C 605.67 580.47 588.50 580.09 576.22 572.52
  C 556.32 560.26 546.50 536.25 543.84 513.25
  Q 542.99 505.92 543.49 501.40
  L 548.21 497.75
  A 2.47 2.46 -18.9 0 0 549.17 495.80
  L 549.21 464.45
  Q 553.62 452.71 561.53 443.28
  Q 569.36 433.93 580.52 430.02
  L 580.36 467.20
  A 0.62 0.62 0.0 0 0 581.35 467.70
  L 595.51 456.95
  A 1.91 1.88 82.1 0 0 596.11 456.14
  Q 596.49 455.22 596.53 452.75
  Q 596.72 439.84 596.50 426.75
  C 609.98 425.95 623.81 429.18 634.39 437.44
  Q 650.83 450.28 653.57 472.16
  A 1.31 1.31 0.0 0 0 654.87 473.31
  L 656.24 473.31
  A 1.15 1.15 0.0 0 0 657.39 472.16
  L 657.39 425.07
  A 1.50 1.50 0.0 0 0 654.54 424.43
  C 651.94 429.89 646.83 433.71 640.60 430.68
  Q 619.82 420.60 596.37 421.04
  L 596.59 369.04
  Q 595.70 367.65 593.70 366.17
  Q 590.41 363.73 590.39 363.72
  Q 554.12 334.36 512.67 301.23
  A 0.83 0.83 0.0 0 0 511.65 301.23
  L 428.55 367.64
  A 2.61 2.59 -19.6 0 0 427.57 369.69
  L 427.79 417.79
  Z
  M 600.46 632.04
  A 7.21 7.21 0.0 0 0 593.25 624.83
  A 7.21 7.21 0.0 0 0 586.04 632.04
  A 7.21 7.21 0.0 0 0 593.25 639.25
  A 7.21 7.21 0.0 0 0 600.46 632.04
  Z
  M 697.02 632.08
  A 7.20 7.20 0.0 0 0 689.82 624.88
  A 7.20 7.20 0.0 0 0 682.62 632.08
  A 7.20 7.20 0.0 0 0 689.82 639.28
  A 7.20 7.20 0.0 0 0 697.02 632.08
  Z
  M 190.93 710.60
  Q 188.19 710.51 184.76 709.19
  C 178.58 706.81 179.00 699.11 178.96 694.00
  Q 178.87 680.39 178.95 642.02
  C 178.97 634.48 180.34 628.97 189.48 627.76
  A 1.41 1.40 -1.5 0 0 190.70 626.48
  L 190.71 626.22
  A 0.78 0.78 0.0 0 0 189.93 625.43
  L 154.97 625.43
  A 0.64 0.63 -0.0 0 0 154.33 626.06
  L 154.33 626.97
  A 0.81 0.80 2.3 0 0 155.07 627.77
  Q 158.83 628.10 159.86 628.36
  C 165.94 629.91 167.24 635.09 167.26 640.75
  Q 167.33 658.90 167.30 696.75
  C 167.29 706.09 164.78 710.08 154.85 710.65
  A 1.10 1.10 0.0 0 0 153.81 711.75
  L 153.81 712.29
  A 0.99 0.99 0.0 0 0 154.80 713.28
  L 190.92 713.28
  A 0.83 0.83 0.0 0 0 191.75 712.45
  L 191.75 711.45
  A 0.85 0.85 0.0 0 0 190.93 710.60
  Z
  M 496.0267 682.5209
  A 33.60 31.84 -0.8 0 0 461.9854 651.1531
  A 33.60 31.84 -0.8 0 0 428.8333 683.4591
  A 33.60 31.84 -0.8 0 0 462.8746 714.8269
  A 33.60 31.84 -0.8 0 0 496.0267 682.5209
  Z
  M 621.32 693.59
  L 621.93 712.84
  A 0.89 0.89 0.0 0 0 623.37 713.50
  L 625.91 711.47
  A 1.93 1.92 37.5 0 1 627.89 711.21
  C 637.80 715.57 649.82 717.01 658.20 709.48
  C 663.00 705.16 664.67 699.86 663.63 693.62
  C 662.82 688.83 657.06 683.98 653.02 681.97
  Q 645.09 678.03 640.73 675.78
  C 635.35 673.00 630.17 668.96 631.67 662.25
  C 633.25 655.20 641.41 652.95 647.52 655.37
  C 654.23 658.03 656.36 664.04 658.07 670.41
  A 1.45 1.42 -24.3 0 0 660.25 671.21
  Q 661.08 670.67 661.04 669.98
  Q 660.54 659.51 660.57 654.04
  A 0.82 0.82 0.0 0 0 659.34 653.32
  L 657.15 654.59
  A 1.03 1.03 0.0 0 1 656.21 654.63
  Q 646.57 650.04 637.79 652.01
  Q 623.14 655.29 623.04 669.57
  C 622.96 682.34 638.05 685.61 647.38 691.32
  Q 651.51 693.86 652.55 695.09
  Q 657.49 700.91 653.19 706.71
  C 649.52 711.64 642.96 712.88 637.19 710.65
  C 629.76 707.80 626.06 701.31 624.08 693.68
  A 1.41 1.40 -8.2 0 0 622.67 692.63
  L 622.20 692.64
  A 0.92 0.91 88.1 0 0 621.32 693.59
  Z
  M 783.8907 681.2092
  A 33.67 31.85 -3.1 0 0 748.5476 651.2266
  A 33.67 31.85 -3.1 0 0 716.6493 684.8508
  A 33.67 31.85 -3.1 0 0 751.9924 714.8334
  A 33.67 31.85 -3.1 0 0 783.8907 681.2092
  Z
  M 331.65 652.26
  C 325.49 654.70 320.23 657.69 313.27 658.74
  Q 312.64 658.84 312.50 659.37
  A 1.00 0.85 -78.7 0 0 313.18 660.59
  Q 317.26 661.09 318.45 661.28
  A 3.76 3.75 -9.1 0 1 321.19 663.26
  Q 322.34 665.51 322.42 668.81
  Q 322.53 673.13 322.52 701.55
  Q 322.52 711.59 313.70 711.18
  A 1.12 1.12 0.0 0 0 312.53 712.25
  L 312.53 712.31
  A 1.01 1.00 -0.3 0 0 313.59 713.35
  Q 327.75 712.56 340.47 713.28
  A 1.07 1.06 -81.8 0 0 341.58 712.44
  L 341.59 712.40
  A 0.94 0.94 0.0 0 0 340.88 711.28
  Q 340.10 711.10 338.86 711.01
  C 333.44 710.64 332.31 705.12 332.35 700.52
  Q 332.53 680.52 332.43 672.50
  C 332.38 667.95 335.17 665.49 338.71 662.75
  Q 343.58 658.99 350.38 659.92
  C 358.08 660.98 361.15 669.49 361.29 676.25
  Q 361.42 682.50 361.32 702.47
  Q 361.28 710.44 352.99 711.14
  A 1.60 1.59 -79.9 0 0 351.69 712.05
  L 351.67 712.08
  A 0.60 0.59 -75.0 0 0 352.18 712.97
  L 378.46 713.23
  A 1.30 1.27 -75.5 0 0 379.61 712.54
  L 379.63 712.50
  A 0.85 0.85 0.0 0 0 378.99 711.29
  Q 371.46 710.20 371.29 704.91
  Q 370.97 694.56 371.22 679.18
  Q 371.34 672.04 371.64 670.86
  C 373.75 662.66 385.53 656.97 393.04 661.23
  C 398.09 664.10 400.10 669.35 400.27 674.51
  Q 400.61 684.91 400.51 700.91
  C 400.46 707.92 398.69 710.63 391.73 711.13
  A 1.18 1.17 1.8 0 0 390.65 712.14
  L 390.65 712.21
  A 0.82 0.81 3.7 0 0 391.46 713.13
  L 417.45 713.07
  A 1.27 1.26 -78.9 0 0 418.62 712.28
  L 418.63 712.26
  A 0.85 0.85 0.0 0 0 417.89 711.19
  Q 410.18 710.44 409.97 701.98
  Q 409.81 696.05 409.87 675.00
  C 409.91 663.67 404.21 650.09 390.34 651.91
  C 382.21 652.98 374.82 659.73 370.56 666.82
  A 0.32 0.32 0.0 0 1 369.98 666.72
  C 367.94 656.41 358.38 649.47 347.94 652.69
  C 344.19 653.85 338.93 657.46 336.08 661.19
  Q 334.39 663.40 332.69 665.03
  A 0.30 0.29 -22.0 0 1 332.19 664.82
  L 332.19 652.62
  A 0.39 0.39 0.0 0 0 331.65 652.26
  Z
  M 695.75 652.12
  Q 694.57 652.17 693.98 652.46
  Q 686.72 656.00 677.18 658.86
  Q 676.55 659.05 676.37 659.69
  A 0.79 0.79 0.0 0 0 677.10 660.69
  C 681.95 660.87 685.90 660.92 685.95 667.29
  Q 686.16 695.18 686.03 701.49
  C 685.95 705.44 684.92 708.97 681.03 710.52
  Q 680.25 710.83 676.93 711.22
  A 0.87 0.87 0.0 0 0 676.16 712.08
  L 676.16 712.39
  A 1.01 1.01 0.0 0 0 677.23 713.40
  Q 685.95 712.94 703.14 713.26
  Q 704.18 713.28 704.85 712.69
  A 0.83 0.83 0.0 0 0 704.43 711.25
  C 701.41 710.75 699.60 710.57 697.74 707.79
  Q 696.30 705.63 696.10 701.00
  Q 696.09 700.70 696.20 652.55
  A 0.43 0.43 0.0 0 0 695.75 652.12
  Z
  M 598.63 652.27
  Q 597.46 652.32 596.87 652.60
  Q 589.62 656.12 580.10 658.94
  Q 579.47 659.13 579.29 659.77
  A 0.79 0.79 0.0 0 0 580.01 660.77
  C 584.85 660.96 588.79 661.02 588.82 667.37
  Q 588.97 695.19 588.82 701.48
  C 588.73 705.42 587.69 708.94 583.81 710.47
  Q 583.03 710.78 579.72 711.16
  A 0.87 0.86 -3.2 0 0 578.95 712.02
  L 578.95 712.33
  A 1.01 1.01 0.0 0 0 580.02 713.34
  Q 588.71 712.90 605.85 713.26
  Q 606.89 713.28 607.56 712.70
  A 0.83 0.82 29.2 0 0 607.15 711.26
  C 604.14 710.75 602.33 710.57 600.48 707.79
  Q 599.05 705.63 598.86 701.02
  Q 598.85 700.72 599.08 652.70
  A 0.43 0.43 0.0 0 0 598.63 652.27
  Z
  M 282.78 660.35
  Q 282.94 660.74 282.93 661.51
  Q 282.56 678.02 282.84 701.25
  Q 282.88 704.30 281.91 706.66
  C 280.40 710.33 277.28 710.70 273.55 711.04
  A 0.96 0.96 0.0 0 0 272.68 712.00
  L 272.68 712.50
  A 0.80 0.79 88.3 0 0 273.52 713.30
  Q 286.62 712.61 300.14 713.51
  A 1.38 1.38 0.0 0 0 301.54 712.58
  L 301.55 712.54
  A 0.99 0.99 0.0 0 0 300.83 711.26
  C 295.40 710.07 292.53 708.88 292.47 702.52
  Q 292.23 679.58 292.45 662.29
  Q 292.53 655.26 299.11 654.92
  A 1.33 1.32 3.8 0 0 300.35 653.84
  L 300.40 653.60
  A 0.59 0.58 -84.0 0 0 299.83 652.89
  L 283.31 652.89
  A 3.14 3.12 15.4 0 0 280.62 654.41
  L 252.91 700.67
  A 0.87 0.86 -44.5 0 1 251.42 700.66
  L 224.21 653.52
  A 1.24 1.22 74.5 0 0 223.15 652.91
  L 204.69 652.91
  A 0.58 0.57 80.8 0 0 204.15 653.67
  Q 204.27 654.02 204.45 654.17
  Q 204.81 654.47 204.94 654.51
  C 208.76 655.47 212.80 656.19 212.78 661.25
  Q 212.69 686.01 212.93 698.86
  Q 213.04 704.61 211.57 706.85
  Q 208.89 710.94 204.04 711.07
  A 1.07 1.07 0.0 0 0 202.99 712.14
  L 202.99 712.62
  A 0.51 0.50 90.0 0 0 203.49 713.13
  L 225.08 713.03
  A 0.87 0.87 0.0 0 0 225.95 712.21
  L 225.95 712.18
  A 0.96 0.95 -85.0 0 0 225.13 711.20
  Q 216.91 710.08 216.90 701.66
  Q 216.86 676.97 216.92 661.39
  A 0.45 0.44 -59.8 0 1 217.75 661.17
  L 247.96 713.49
  A 0.95 0.94 48.8 0 0 249.53 713.60
  L 250.59 712.22
  A 2.29 1.95 -13.8 0 0 250.77 711.97
  L 281.74 660.27
  A 0.58 0.58 0.0 0 1 282.78 660.35
  Z
  M 540.44 700.46
  A 0.48 0.48 0.0 0 1 539.56 700.48
  Q 529.63 679.37 522.80 662.83
  Q 521.02 658.53 524.15 656.18
  Q 525.01 655.54 528.95 654.84
  A 0.99 0.99 0.0 0 0 529.76 653.76
  L 529.75 653.73
  A 1.02 1.01 86.3 0 0 528.72 652.82
  Q 514.37 653.03 502.76 652.83
  A 0.98 0.95 89.4 0 0 501.79 653.85
  Q 501.81 654.55 502.51 654.76
  Q 508.38 656.59 511.01 662.03
  Q 521.96 684.77 532.82 708.69
  Q 534.13 711.58 535.32 713.73
  A 1.39 1.38 56.4 0 0 537.38 714.15
  Q 537.91 713.74 538.34 712.82
  Q 544.89 698.72 552.32 683.11
  Q 554.98 677.51 560.75 664.52
  Q 564.01 657.17 571.47 654.95
  A 1.09 1.09 0.0 0 0 571.13 652.81
  Q 561.71 653.10 551.77 652.78
  Q 550.81 652.75 550.38 653.26
  A 0.76 0.75 29.8 0 0 550.71 654.47
  C 554.66 655.81 558.59 656.92 557.05 662.30
  C 555.79 666.70 552.87 671.58 551.09 676.42
  C 549.55 680.62 547.54 683.90 545.72 688.05
  Q 544.66 690.47 540.44 700.46
  Z
  M 858.33 699.48
  L 814.45 653.38
  A 1.60 1.55 -21.3 0 0 813.31 652.90
  L 796.88 652.90
  A 0.61 0.60 -34.5 0 0 796.66 654.07
  Q 798.51 654.78 801.15 655.64
  C 805.16 656.95 804.73 660.07 804.74 663.98
  Q 804.74 668.65 804.89 698.33
  Q 804.92 704.85 803.63 706.94
  Q 801.25 710.78 795.86 711.12
  A 0.86 0.86 0.0 0 0 795.05 711.98
  L 795.05 712.36
  A 0.74 0.73 0.0 0 0 795.79 713.09
  L 817.25 712.98
  A 1.16 1.16 0.0 0 0 818.35 712.18
  L 818.36 712.15
  A 0.83 0.83 0.0 0 0 817.63 711.11
  C 809.55 710.44 808.80 704.00 808.87 696.68
  Q 809.03 679.68 808.90 661.95
  A 0.20 0.19 -67.5 0 1 809.23 661.81
  L 858.25 713.31
  A 3.02 2.99 77.6 0 0 859.46 714.09
  Q 860.83 714.56 862.13 714.39
  A 0.65 0.64 86.9 0 0 862.69 713.76
  Q 862.90 694.24 862.71 673.50
  C 862.64 665.55 861.97 655.12 871.94 654.96
  A 1.19 1.19 0.0 0 0 873.10 653.87
  L 873.12 653.68
  A 0.66 0.66 0.0 0 0 872.46 652.93
  L 849.85 653.10
  A 0.69 0.68 -88.2 0 0 849.17 653.75
  L 849.16 653.78
  A 0.88 0.87 2.3 0 0 850.01 654.69
  C 855.20 654.85 858.28 659.01 858.73 664.04
  Q 858.92 666.17 858.91 668.50
  Q 858.78 692.46 858.94 699.22
  A 0.36 0.35 -67.7 0 1 858.33 699.48
  Z
  M 548.45 744.75
  Q 546.04 744.66 545.88 746.68
  A 0.51 0.51 0.0 0 1 545.13 747.09
  C 534.62 741.53 522.46 743.04 514.71 751.86
  C 507.91 759.59 508.29 773.83 516.80 780.53
  C 527.10 788.64 537.85 787.02 549.69 783.21
  A 0.98 0.96 81.5 0 0 550.37 782.28
  L 550.37 770.36
  A 2.43 2.42 79.7 0 1 551.94 768.09
  L 554.66 767.07
  A 0.33 0.33 0.0 0 0 554.87 766.69
  L 554.82 766.45
  A 0.60 0.59 80.1 0 0 554.18 765.99
  Q 546.67 766.74 539.17 766.06
  A 0.56 0.56 0.0 0 0 538.96 767.16
  L 542.54 768.24
  A 2.73 2.71 -81.7 0 1 544.47 770.85
  L 544.47 781.42
  A 1.45 1.43 82.0 0 1 543.44 782.81
  Q 539.26 784.05 535.02 784.29
  C 525.56 784.83 518.24 777.46 517.08 768.49
  C 516.26 762.25 517.48 754.88 522.11 750.29
  C 527.64 744.81 535.74 744.77 542.23 748.34
  C 545.27 750.01 546.31 753.64 547.35 756.49
  A 0.75 0.75 0.0 0 0 548.68 756.64
  Q 548.85 756.37 548.84 755.75
  Q 548.76 750.39 548.89 745.22
  A 0.46 0.46 0.0 0 0 548.45 744.75
  Z
  M 454.57 785.34
  L 467.00 785.34
  A 0.51 0.51 0.0 0 0 467.51 784.89
  L 467.56 784.50
  A 0.56 0.56 0.0 0 0 467.07 783.87
  L 463.86 783.48
  A 1.25 1.24 -81.0 0 1 462.79 782.00
  Q 463.96 776.22 466.43 771.92
  A 1.32 1.30 -75.0 0 1 467.57 771.25
  L 482.52 771.25
  A 0.96 0.96 0.0 0 1 483.42 771.88
  L 487.06 781.62
  A 1.13 1.13 0.0 0 1 486.40 783.08
  L 483.45 784.18
  A 0.50 0.50 0.0 0 0 483.62 785.15
  Q 497.78 785.39 498.80 785.28
  Q 499.22 785.23 499.30 785.08
  A 0.73 0.67 -68.5 0 0 498.90 784.05
  Q 496.64 783.50 496.28 783.39
  A 3.64 3.64 0.0 0 1 494.03 781.39
  L 477.69 744.83
  A 1.25 1.25 0.0 0 0 475.39 744.86
  C 471.27 754.66 468.60 759.82 465.37 768.43
  Q 464.26 771.40 460.62 779.13
  Q 459.54 781.43 458.52 782.57
  A 1.11 1.06 9.4 0 1 458.14 782.83
  L 454.38 784.31
  A 0.53 0.53 0.0 0 0 454.57 785.34
  Z
  M 439.33 768.00
  A 0.77 0.77 0.0 0 0 438.56 767.23
  L 314.00 767.23
  A 0.77 0.77 0.0 0 0 313.23 768.00
  L 313.23 768.34
  A 0.77 0.77 0.0 0 0 314.00 769.11
  L 438.56 769.11
  A 0.77 0.77 0.0 0 0 439.33 768.34
  L 439.33 768.00
  Z
  M 710.68 768.15
  A 0.91 0.91 0.0 0 0 709.77 767.24
  L 578.69 767.24
  A 0.91 0.91 0.0 0 0 577.78 768.15
  L 577.78 768.19
  A 0.91 0.91 0.0 0 0 578.69 769.10
  L 709.77 769.10
  A 0.91 0.91 0.0 0 0 710.68 768.19
  L 710.68 768.15
  Z"
/>
<path fill="#f2c05e" d="
  M 512.06 250.96
  Q 512.38 250.96 512.64 251.16
  Q 519.78 256.54 526.22 261.76
  Q 560.75 289.75 596.24 317.46
  A 1.47 1.46 19.1 0 1 596.80 318.61
  L 596.80 333.49
  A 0.65 0.65 0.0 0 1 595.75 334.00
  L 512.33 267.60
  A 0.22 0.03 -2.0 0 0 512.16 267.58
  Q 512.11 267.58 512.07 267.58
  Q 512.04 267.58 511.99 267.58
  A 0.22 0.03 1.9 0 0 511.82 267.60
  L 428.49 334.12
  A 0.65 0.65 0.0 0 1 427.44 333.61
  L 427.42 318.73
  A 1.47 1.46 -19.2 0 1 427.98 317.58
  Q 463.43 289.82 497.92 261.78
  Q 504.35 256.55 511.48 251.16
  Q 511.74 250.96 512.06 250.96
  Z"
/>
<path fill="#f2c05e" d="
  M 596.59 369.04
  Q 596.09 376.50 596.06 386.35
  Q 596.05 388.28 595.00 391.31
  A 0.65 0.65 0.0 0 1 594.31 391.74
  L 582.85 390.34
  A 0.47 0.46 -84.8 0 0 582.33 390.78
  Q 581.71 402.42 581.40 410.16
  Q 581.26 413.76 580.44 417.30
  L 580.42 381.36
  A 2.00 1.99 19.6 0 0 579.68 379.81
  L 550.02 356.21
  A 0.65 0.64 -70.9 0 0 548.98 356.72
  L 549.03 367.95
  L 547.80 395.45
  A 0.12 0.05 83.7 0 1 547.77 395.54
  Q 547.75 395.55 547.75 395.59
  A 0.07 0.05 50.9 0 1 547.63 395.56
  Q 547.61 395.13 547.38 391.27
  A 0.59 0.58 -89.5 0 0 546.85 390.72
  Q 540.50 390.18 534.66 391.19
  A 0.68 0.68 0.0 0 0 534.10 391.85
  Q 533.58 428.35 533.23 439.69
  Q 533.19 441.23 532.51 444.29
  L 532.40 344.20
  A 1.07 1.05 20.4 0 0 532.02 343.39
  L 513.09 327.59
  A 1.23 1.23 0.0 0 0 511.54 327.57
  L 492.11 343.10
  A 1.11 1.10 71.2 0 0 491.69 343.97
  L 491.60 374.21
  L 490.99 396.39
  A 0.84 0.84 0.0 0 1 490.41 397.16
  Q 480.60 400.26 475.13 393.19
  L 475.05 356.52
  A 0.49 0.49 0.0 0 0 474.26 356.13
  L 444.55 379.87
  A 1.89 1.88 -18.9 0 0 443.83 381.33
  L 443.62 395.05
  Q 442.39 392.98 441.03 391.74
  Q 439.45 390.31 437.25 390.28
  Q 433.59 390.24 430.35 389.79
  A 1.10 1.10 0.0 0 0 429.10 390.81
  Q 428.49 400.67 428.69 410.75
  Q 428.75 413.87 427.79 417.79
  L 427.57 369.69
  A 2.61 2.59 -19.6 0 1 428.55 367.64
  L 511.65 301.23
  A 0.83 0.83 0.0 0 1 512.67 301.23
  Q 554.12 334.36 590.39 363.72
  Q 590.41 363.73 593.70 366.17
  Q 595.70 367.65 596.59 369.04
  Z"
/>
<path fill="#000000" d="
  M 475.13 393.19
  L 475.11 425.08
  L 452.26 425.06
  A 1.06 1.05 90.0 0 0 451.21 426.12
  L 451.21 427.70
  A 1.02 1.01 88.4 0 0 452.28 428.72
  C 456.33 428.52 463.32 428.87 466.22 432.33
  C 469.03 435.68 464.64 442.39 462.01 444.77
  Q 452.77 453.13 443.24 461.73
  Q 442.95 460.52 443.54 459.05
  A 1.24 1.13 -36.2 0 0 443.63 458.60
  L 443.62 395.05
  L 443.83 381.33
  A 1.89 1.88 -18.9 0 1 444.55 379.87
  L 474.26 356.13
  A 0.49 0.49 0.0 0 1 475.05 356.52
  L 475.13 393.19
  Z"
/>
<path fill="#000000" d="
  M 580.44 417.30
  L 580.62 422.95
  Q 568.91 425.21 558.55 430.56
  Q 553.00 433.42 548.91 436.01
  L 549.03 367.95
  L 548.98 356.72
  A 0.65 0.64 -70.9 0 1 550.02 356.21
  L 579.68 379.81
  A 2.00 1.99 19.6 0 1 580.42 381.36
  L 580.44 417.30
  Z"
/>
<path fill="#d6a84f" d="
  M 549.03 367.95
  L 548.91 436.01
  Q 539.90 442.98 532.79 450.57
  L 532.51 444.29
  Q 533.19 441.23 533.23 439.69
  Q 533.58 428.35 534.10 391.85
  A 0.68 0.68 0.0 0 1 534.66 391.19
  Q 540.50 390.18 546.85 390.72
  A 0.59 0.58 -89.5 0 1 547.38 391.27
  Q 547.61 395.13 547.63 395.56
  A 0.07 0.05 50.9 0 0 547.75 395.59
  Q 547.75 395.55 547.77 395.54
  A 0.12 0.05 83.7 0 0 547.80 395.45
  L 549.03 367.95
  Z"
/>
<path fill="#d6a84f" d="
  M 596.37 421.04
  L 580.62 422.95
  L 580.44 417.30
  Q 581.26 413.76 581.40 410.16
  Q 581.71 402.42 582.33 390.78
  A 0.47 0.46 -84.8 0 1 582.85 390.34
  L 594.31 391.74
  A 0.65 0.65 0.0 0 0 595.00 391.31
  Q 596.05 388.28 596.06 386.35
  Q 596.09 376.50 596.59 369.04
  L 596.37 421.04
  Z"
/>
<path fill="#d6a84f" d="
  M 491.60 374.21
  L 491.76 425.08
  Q 483.50 425.79 475.11 425.08
  L 475.13 393.19
  Q 480.60 400.26 490.41 397.16
  A 0.84 0.84 0.0 0 0 490.99 396.39
  L 491.60 374.21
  Z"
/>
<path fill="#d6a84f" d="
  M 443.62 395.05
  L 443.63 458.60
  A 1.24 1.13 -36.2 0 1 443.54 459.05
  Q 442.95 460.52 443.24 461.73
  L 439.40 465.02
  L 428.61 456.43
  A 2.34 2.33 -70.7 0 1 427.74 454.61
  L 427.79 417.79
  Q 428.75 413.87 428.69 410.75
  Q 428.49 400.67 429.10 390.81
  A 1.10 1.10 0.0 0 1 430.35 389.79
  Q 433.59 390.24 437.25 390.28
  Q 439.45 390.31 441.03 391.74
  Q 442.39 392.98 443.62 395.05
  Z"
/>
<path fill="#fff6dc" d="
  M 596.37 421.04
  Q 619.82 420.60 640.60 430.68
  C 646.83 433.71 651.94 429.89 654.54 424.43
  A 1.50 1.50 0.0 0 1 657.39 425.07
  L 657.39 472.16
  A 1.15 1.15 0.0 0 1 656.24 473.31
  L 654.87 473.31
  A 1.31 1.31 0.0 0 1 653.57 472.16
  Q 650.83 450.28 634.39 437.44
  C 623.81 429.18 609.98 425.95 596.50 426.75
  Q 588.51 426.23 580.52 430.02
  Q 569.36 433.93 561.53 443.28
  Q 553.62 452.71 549.21 464.45
  Q 542.69 481.62 543.49 501.40
  Q 542.99 505.92 543.84 513.25
  C 546.50 536.25 556.32 560.26 576.22 572.52
  C 588.50 580.09 605.67 580.47 619.52 577.48
  C 622.90 576.75 627.91 575.36 630.01 572.33
  Q 632.54 568.68 632.67 566.10
  Q 633.41 551.55 632.90 533.04
  Q 632.53 519.95 619.71 518.30
  Q 616.53 517.89 612.49 517.70
  A 0.68 0.68 0.0 0 1 611.85 516.95
  L 612.18 514.31
  A 0.60 0.60 0.0 0 1 612.78 513.78
  L 675.72 513.78
  A 0.65 0.64 -90.0 0 1 676.36 514.43
  L 676.36 516.88
  A 0.50 0.50 0.0 0 1 675.89 517.38
  Q 673.08 517.53 670.45 518.01
  Q 659.17 520.02 658.92 531.86
  Q 658.56 549.31 658.79 571.12
  A 1.61 1.60 78.2 0 1 657.82 572.61
  C 621.38 588.35 575.59 595.03 542.71 567.26
  Q 519.46 547.62 515.40 515.62
  C 512.51 492.92 518.50 468.78 532.79 450.57
  Q 539.90 442.98 548.91 436.01
  Q 553.00 433.42 558.55 430.56
  Q 568.91 425.21 580.62 422.95
  L 596.37 421.04
  Z"
/>
<path fill="#fff6dc" d="
  M 439.40 465.02
  L 443.24 461.73
  Q 452.77 453.13 462.01 444.77
  C 464.64 442.39 469.03 435.68 466.22 432.33
  C 463.32 428.87 456.33 428.52 452.28 428.72
  A 1.02 1.01 88.4 0 1 451.21 427.70
  L 451.21 426.12
  A 1.06 1.05 90.0 0 1 452.26 425.06
  L 475.11 425.08
  Q 483.50 425.79 491.76 425.08
  L 506.17 425.09
  A 1.26 1.25 -90.0 0 1 507.42 426.35
  L 507.42 427.43
  A 1.38 1.38 0.0 0 1 506.05 428.81
  Q 502.59 428.84 498.55 429.60
  Q 495.04 430.26 491.94 431.36
  Q 482.58 434.12 475.41 442.48
  L 426.90 484.05
  A 1.13 1.12 51.7 0 0 426.73 485.56
  C 431.84 492.53 438.25 499.38 443.38 505.70
  Q 460.50 526.82 493.21 567.03
  Q 502.35 578.27 517.10 578.90
  A 0.93 0.93 0.0 0 1 517.99 579.83
  L 517.99 581.69
  A 0.75 0.75 0.0 0 1 517.24 582.44
  L 447.84 582.44
  A 1.13 1.12 -86.4 0 1 446.73 581.17
  L 446.86 580.07
  A 1.22 1.22 0.0 0 1 448.05 579.00
  C 454.16 578.91 461.58 578.73 461.01 570.36
  Q 460.89 568.62 457.76 564.81
  Q 451.56 557.26 414.75 512.72
  Q 413.30 510.97 406.86 502.58
  A 0.91 0.90 -38.1 0 0 405.58 502.43
  L 397.57 508.83
  A 1.90 1.90 0.0 0 0 396.86 510.31
  Q 396.90 557.12 396.91 557.55
  Q 397.05 565.93 399.65 571.87
  C 402.18 577.66 411.24 578.88 416.90 578.96
  A 1.25 1.25 0.0 0 1 418.13 580.21
  L 418.13 581.45
  A 1.05 1.05 0.0 0 1 417.08 582.50
  L 350.21 582.50
  A 0.76 0.75 3.7 0 1 349.46 581.65
  L 349.72 579.54
  A 0.85 0.84 -86.2 0 1 350.57 578.79
  C 359.80 578.82 367.91 577.64 370.15 567.23
  Q 371.07 562.91 371.08 559.55
  Q 371.18 530.27 371.13 446.82
  Q 371.13 440.15 368.37 435.52
  C 364.68 429.33 357.13 429.21 350.88 428.79
  A 1.09 1.09 0.0 0 1 349.86 427.70
  L 349.86 425.93
  A 0.81 0.81 0.0 0 1 350.67 425.12
  L 417.22 425.12
  A 0.80 0.79 90.0 0 1 418.01 425.92
  L 418.01 427.58
  A 0.92 0.91 88.0 0 1 417.16 428.50
  C 409.98 429.01 401.28 429.79 398.53 437.73
  Q 396.89 442.46 396.89 446.00
  Q 396.87 483.46 396.87 501.68
  A 0.38 0.38 0.0 0 0 397.50 501.97
  L 439.40 465.02
  Z"
/>
<path fill="#d6a84f" d="
  M 596.50 426.75
  Q 596.72 439.84 596.53 452.75
  Q 596.49 455.22 596.11 456.14
  A 1.91 1.88 82.1 0 1 595.51 456.95
  L 581.35 467.70
  A 0.62 0.62 0.0 0 1 580.36 467.20
  L 580.52 430.02
  Q 588.51 426.23 596.50 426.75
  Z"
/>
<path fill="#d6a84f" d="
  M 491.94 431.36
  L 491.85 509.33
  A 0.66 0.66 0.0 0 1 490.76 509.84
  L 475.86 497.39
  A 1.17 1.16 19.8 0 1 475.43 496.49
  L 475.41 442.48
  Q 482.58 434.12 491.94 431.36
  Z"
/>
<path fill="#d6a84f" d="
  M 549.21 464.45
  L 549.17 495.80
  A 2.47 2.46 -18.9 0 1 548.21 497.75
  L 543.49 501.40
  Q 542.69 481.62 549.21 464.45
  Z"
/>
<circle fill="#fff6dc" cx="593.25" cy="632.04" r="7.21"/>
<circle fill="#fff6dc" cx="689.82" cy="632.08" r="7.20"/>
<path fill="#fff6dc" d="
  M 190.93 710.60
  A 0.85 0.85 0.0 0 1 191.75 711.45
  L 191.75 712.45
  A 0.83 0.83 0.0 0 1 190.92 713.28
  L 154.80 713.28
  A 0.99 0.99 0.0 0 1 153.81 712.29
  L 153.81 711.75
  A 1.10 1.10 0.0 0 1 154.85 710.65
  C 164.78 710.08 167.29 706.09 167.30 696.75
  Q 167.33 658.90 167.26 640.75
  C 167.24 635.09 165.94 629.91 159.86 628.36
  Q 158.83 628.10 155.07 627.77
  A 0.81 0.80 2.3 0 1 154.33 626.97
  L 154.33 626.06
  A 0.64 0.63 0.0 0 1 154.97 625.43
  L 189.93 625.43
  A 0.78 0.78 0.0 0 1 190.71 626.22
  L 190.70 626.48
  A 1.41 1.40 -1.5 0 1 189.48 627.76
  C 180.34 628.97 178.97 634.48 178.95 642.02
  Q 178.87 680.39 178.96 694.00
  C 179.00 699.11 178.58 706.81 184.76 709.19
  Q 188.19 710.51 190.93 710.60
  Z"
/>
<path fill="#fff6dc" d="
  M 496.0267 682.5209
  A 33.60 31.84 -0.8 0 1 462.8746 714.8269
  A 33.60 31.84 -0.8 0 1 428.8333 683.4591
  A 33.60 31.84 -0.8 0 1 461.9854 651.1531
  A 33.60 31.84 -0.8 0 1 496.0267 682.5209
  Z
  M 441.16 683.04
  C 441.29 696.41 446.86 711.62 462.71 711.46
  C 478.56 711.31 483.83 696.00 483.70 682.63
  C 483.57 669.26 478.00 654.05 462.15 654.21
  C 446.30 654.36 441.03 669.67 441.16 683.04
  Z"
/>
<path fill="#fff6dc" d="
  M 621.32 693.59
  A 0.92 0.91 88.1 0 1 622.20 692.64
  L 622.67 692.63
  A 1.41 1.40 -8.2 0 1 624.08 693.68
  C 626.06 701.31 629.76 707.80 637.19 710.65
  C 642.96 712.88 649.52 711.64 653.19 706.71
  Q 657.49 700.91 652.55 695.09
  Q 651.51 693.86 647.38 691.32
  C 638.05 685.61 622.96 682.34 623.04 669.57
  Q 623.14 655.29 637.79 652.01
  Q 646.57 650.04 656.21 654.63
  A 1.03 1.03 0.0 0 0 657.15 654.59
  L 659.34 653.32
  A 0.82 0.82 0.0 0 1 660.57 654.04
  Q 660.54 659.51 661.04 669.98
  Q 661.08 670.67 660.25 671.21
  A 1.45 1.42 -24.3 0 1 658.07 670.41
  C 656.36 664.04 654.23 658.03 647.52 655.37
  C 641.41 652.95 633.25 655.20 631.67 662.25
  C 630.17 668.96 635.35 673.00 640.73 675.78
  Q 645.09 678.03 653.02 681.97
  C 657.06 683.98 662.82 688.83 663.63 693.62
  C 664.67 699.86 663.00 705.16 658.20 709.48
  C 649.82 717.01 637.80 715.57 627.89 711.21
  A 1.93 1.92 37.5 0 0 625.91 711.47
  L 623.37 713.50
  A 0.89 0.89 0.0 0 1 621.93 712.84
  L 621.32 693.59
  Z"
/>
<path fill="#fff6dc" d="
  M 783.8907 681.2092
  A 33.67 31.85 -3.1 0 1 751.9924 714.8334
  A 33.67 31.85 -3.1 0 1 716.6493 684.8508
  A 33.67 31.85 -3.1 0 1 748.5476 651.2266
  A 33.67 31.85 -3.1 0 1 783.8907 681.2092
  Z
  M 728.97 682.96
  C 729.04 696.32 734.55 711.55 750.39 711.46
  C 766.23 711.37 771.56 696.08 771.49 682.72
  C 771.41 669.36 765.91 654.14 750.07 654.23
  C 734.23 654.31 728.90 669.60 728.97 682.96
  Z"
/>
<path fill="#fff6dc" d="
  M 331.65 652.26
  A 0.39 0.39 0.0 0 1 332.19 652.62
  L 332.19 664.82
  A 0.30 0.29 -22.0 0 0 332.69 665.03
  Q 334.39 663.40 336.08 661.19
  C 338.93 657.46 344.19 653.85 347.94 652.69
  C 358.38 649.47 367.94 656.41 369.98 666.72
  A 0.32 0.32 0.0 0 0 370.56 666.82
  C 374.82 659.73 382.21 652.98 390.34 651.91
  C 404.21 650.09 409.91 663.67 409.87 675.00
  Q 409.81 696.05 409.97 701.98
  Q 410.18 710.44 417.89 711.19
  A 0.85 0.85 0.0 0 1 418.63 712.26
  L 418.62 712.28
  A 1.27 1.26 -78.9 0 1 417.45 713.07
  L 391.46 713.13
  A 0.82 0.81 3.7 0 1 390.65 712.21
  L 390.65 712.14
  A 1.18 1.17 1.8 0 1 391.73 711.13
  C 398.69 710.63 400.46 707.92 400.51 700.91
  Q 400.61 684.91 400.27 674.51
  C 400.10 669.35 398.09 664.10 393.04 661.23
  C 385.53 656.97 373.75 662.66 371.64 670.86
  Q 371.34 672.04 371.22 679.18
  Q 370.97 694.56 371.29 704.91
  Q 371.46 710.20 378.99 711.29
  A 0.85 0.85 0.0 0 1 379.63 712.50
  L 379.61 712.54
  A 1.30 1.27 -75.5 0 1 378.46 713.23
  L 352.18 712.97
  A 0.60 0.59 -75.0 0 1 351.67 712.08
  L 351.69 712.05
  A 1.60 1.59 -79.9 0 1 352.99 711.14
  Q 361.28 710.44 361.32 702.47
  Q 361.42 682.50 361.29 676.25
  C 361.15 669.49 358.08 660.98 350.38 659.92
  Q 343.58 658.99 338.71 662.75
  C 335.17 665.49 332.38 667.95 332.43 672.50
  Q 332.53 680.52 332.35 700.52
  C 332.31 705.12 333.44 710.64 338.86 711.01
  Q 340.10 711.10 340.88 711.28
  A 0.94 0.94 0.0 0 1 341.59 712.40
  L 341.58 712.44
  A 1.07 1.06 -81.8 0 1 340.47 713.28
  Q 327.75 712.56 313.59 713.35
  A 1.01 1.00 -0.3 0 1 312.53 712.31
  L 312.53 712.25
  A 1.12 1.12 0.0 0 1 313.70 711.18
  Q 322.52 711.59 322.52 701.55
  Q 322.53 673.13 322.42 668.81
  Q 322.34 665.51 321.19 663.26
  A 3.76 3.75 -9.1 0 0 318.45 661.28
  Q 317.26 661.09 313.18 660.59
  A 1.00 0.85 -78.7 0 1 312.50 659.37
  Q 312.64 658.84 313.27 658.74
  C 320.23 657.69 325.49 654.70 331.65 652.26
  Z"
/>
<path fill="#fff6dc" d="
  M 695.75 652.12
  A 0.43 0.43 0.0 0 1 696.20 652.55
  Q 696.09 700.70 696.10 701.00
  Q 696.30 705.63 697.74 707.79
  C 699.60 710.57 701.41 710.75 704.43 711.25
  A 0.83 0.83 0.0 0 1 704.85 712.69
  Q 704.18 713.28 703.14 713.26
  Q 685.95 712.94 677.23 713.40
  A 1.01 1.01 0.0 0 1 676.16 712.39
  L 676.16 712.08
  A 0.87 0.87 0.0 0 1 676.93 711.22
  Q 680.25 710.83 681.03 710.52
  C 684.92 708.97 685.95 705.44 686.03 701.49
  Q 686.16 695.18 685.95 667.29
  C 685.90 660.92 681.95 660.87 677.10 660.69
  A 0.79 0.79 0.0 0 1 676.37 659.69
  Q 676.55 659.05 677.18 658.86
  Q 686.72 656.00 693.98 652.46
  Q 694.57 652.17 695.75 652.12
  Z"
/>
<path fill="#fff6dc" d="
  M 598.63 652.27
  A 0.43 0.43 0.0 0 1 599.08 652.70
  Q 598.85 700.72 598.86 701.02
  Q 599.05 705.63 600.48 707.79
  C 602.33 710.57 604.14 710.75 607.15 711.26
  A 0.83 0.82 29.2 0 1 607.56 712.70
  Q 606.89 713.28 605.85 713.26
  Q 588.71 712.90 580.02 713.34
  A 1.01 1.01 0.0 0 1 578.95 712.33
  L 578.95 712.02
  A 0.87 0.86 -3.2 0 1 579.72 711.16
  Q 583.03 710.78 583.81 710.47
  C 587.69 708.94 588.73 705.42 588.82 701.48
  Q 588.97 695.19 588.82 667.37
  C 588.79 661.02 584.85 660.96 580.01 660.77
  A 0.79 0.79 0.0 0 1 579.29 659.77
  Q 579.47 659.13 580.10 658.94
  Q 589.62 656.12 596.87 652.60
  Q 597.46 652.32 598.63 652.27
  Z"
/>
<path fill="#fff6dc" d="
  M 282.78 660.35
  A 0.58 0.58 0.0 0 0 281.74 660.27
  L 250.77 711.97
  A 2.29 1.95 -13.8 0 1 250.59 712.22
  L 249.53 713.60
  A 0.95 0.94 48.8 0 1 247.96 713.49
  L 217.75 661.17
  A 0.45 0.44 -59.8 0 0 216.92 661.39
  Q 216.86 676.97 216.90 701.66
  Q 216.91 710.08 225.13 711.20
  A 0.96 0.95 -85.0 0 1 225.95 712.18
  L 225.95 712.21
  A 0.87 0.87 0.0 0 1 225.08 713.03
  L 203.49 713.13
  A 0.51 0.50 90.0 0 1 202.99 712.62
  L 202.99 712.14
  A 1.07 1.07 0.0 0 1 204.04 711.07
  Q 208.89 710.94 211.57 706.85
  Q 213.04 704.61 212.93 698.86
  Q 212.69 686.01 212.78 661.25
  C 212.80 656.19 208.76 655.47 204.94 654.51
  Q 204.81 654.47 204.45 654.17
  Q 204.27 654.02 204.15 653.67
  A 0.58 0.57 80.8 0 1 204.69 652.91
  L 223.15 652.91
  A 1.24 1.22 74.5 0 1 224.21 653.52
  L 251.42 700.66
  A 0.87 0.86 -44.5 0 0 252.91 700.67
  L 280.62 654.41
  A 3.14 3.12 15.4 0 1 283.31 652.89
  L 299.83 652.89
  A 0.59 0.58 -84.0 0 1 300.40 653.60
  L 300.35 653.84
  A 1.33 1.32 3.8 0 1 299.11 654.92
  Q 292.53 655.26 292.45 662.29
  Q 292.23 679.58 292.47 702.52
  C 292.53 708.88 295.40 710.07 300.83 711.26
  A 0.99 0.99 0.0 0 1 301.55 712.54
  L 301.54 712.58
  A 1.38 1.38 0.0 0 1 300.14 713.51
  Q 286.62 712.61 273.52 713.30
  A 0.80 0.79 88.3 0 1 272.68 712.50
  L 272.68 712.00
  A 0.96 0.96 0.0 0 1 273.55 711.04
  C 277.28 710.70 280.40 710.33 281.91 706.66
  Q 282.88 704.30 282.84 701.25
  Q 282.56 678.02 282.93 661.51
  Q 282.94 660.74 282.78 660.35
  Z"
/>
<path fill="#fff6dc" d="
  M 540.44 700.46
  Q 544.66 690.47 545.72 688.05
  C 547.54 683.90 549.55 680.62 551.09 676.42
  C 552.87 671.58 555.79 666.70 557.05 662.30
  C 558.59 656.92 554.66 655.81 550.71 654.47
  A 0.76 0.75 29.8 0 1 550.38 653.26
  Q 550.81 652.75 551.77 652.78
  Q 561.71 653.10 571.13 652.81
  A 1.09 1.09 0.0 0 1 571.47 654.95
  Q 564.01 657.17 560.75 664.52
  Q 554.98 677.51 552.32 683.11
  Q 544.89 698.72 538.34 712.82
  Q 537.91 713.74 537.38 714.15
  A 1.39 1.38 56.4 0 1 535.32 713.73
  Q 534.13 711.58 532.82 708.69
  Q 521.96 684.77 511.01 662.03
  Q 508.38 656.59 502.51 654.76
  Q 501.81 654.55 501.79 653.85
  A 0.98 0.95 89.4 0 1 502.76 652.83
  Q 514.37 653.03 528.72 652.82
  A 1.02 1.01 86.3 0 1 529.75 653.73
  L 529.76 653.76
  A 0.99 0.99 0.0 0 1 528.95 654.84
  Q 525.01 655.54 524.15 656.18
  Q 521.02 658.53 522.80 662.83
  Q 529.63 679.37 539.56 700.48
  A 0.48 0.48 0.0 0 0 540.44 700.46
  Z"
/>
<path fill="#fff6dc" d="
  M 858.33 699.48
  A 0.36 0.35 -67.7 0 0 858.94 699.22
  Q 858.78 692.46 858.91 668.50
  Q 858.92 666.17 858.73 664.04
  C 858.28 659.01 855.20 654.85 850.01 654.69
  A 0.88 0.87 2.3 0 1 849.16 653.78
  L 849.17 653.75
  A 0.69 0.68 -88.2 0 1 849.85 653.10
  L 872.46 652.93
  A 0.66 0.66 0.0 0 1 873.12 653.68
  L 873.10 653.87
  A 1.19 1.19 0.0 0 1 871.94 654.96
  C 861.97 655.12 862.64 665.55 862.71 673.50
  Q 862.90 694.24 862.69 713.76
  A 0.65 0.64 86.9 0 1 862.13 714.39
  Q 860.83 714.56 859.46 714.09
  A 3.02 2.99 77.6 0 1 858.25 713.31
  L 809.23 661.81
  A 0.20 0.19 -67.5 0 0 808.90 661.95
  Q 809.03 679.68 808.87 696.68
  C 808.80 704.00 809.55 710.44 817.63 711.11
  A 0.83 0.83 0.0 0 1 818.36 712.15
  L 818.35 712.18
  A 1.16 1.16 0.0 0 1 817.25 712.98
  L 795.79 713.09
  A 0.74 0.73 -0.0 0 1 795.05 712.36
  L 795.05 711.98
  A 0.86 0.86 0.0 0 1 795.86 711.12
  Q 801.25 710.78 803.63 706.94
  Q 804.92 704.85 804.89 698.33
  Q 804.74 668.65 804.74 663.98
  C 804.73 660.07 805.16 656.95 801.15 655.64
  Q 798.51 654.78 796.66 654.07
  A 0.61 0.60 -34.5 0 1 796.88 652.90
  L 813.31 652.90
  A 1.60 1.55 -21.3 0 1 814.45 653.38
  L 858.33 699.48
  Z"
/>
<path fill="#000000" d="
  M 441.16 683.04
  C 441.03 669.67 446.30 654.36 462.15 654.21
  C 478.00 654.05 483.57 669.26 483.70 682.63
  C 483.83 696.00 478.56 711.31 462.71 711.46
  C 446.86 711.62 441.29 696.41 441.16 683.04
  Z"
/>
<path fill="#000000" d="
  M 750.07 654.23
  C 765.91 654.14 771.41 669.36 771.49 682.72
  C 771.56 696.08 766.23 711.37 750.39 711.46
  C 734.55 711.55 729.04 696.32 728.97 682.96
  C 728.90 669.60 734.23 654.31 750.07 654.23
  Z"
/>
<path fill="#fff6dc" d="
  M 548.45 744.75
  A 0.46 0.46 0.0 0 1 548.89 745.22
  Q 548.76 750.39 548.84 755.75
  Q 548.85 756.37 548.68 756.64
  A 0.75 0.75 0.0 0 1 547.35 756.49
  C 546.31 753.64 545.27 750.01 542.23 748.34
  C 535.74 744.77 527.64 744.81 522.11 750.29
  C 517.48 754.88 516.26 762.25 517.08 768.49
  C 518.24 777.46 525.56 784.83 535.02 784.29
  Q 539.26 784.05 543.44 782.81
  A 1.45 1.43 82.0 0 0 544.47 781.42
  L 544.47 770.85
  A 2.73 2.71 -81.7 0 0 542.54 768.24
  L 538.96 767.16
  A 0.56 0.56 0.0 0 1 539.17 766.06
  Q 546.67 766.74 554.18 765.99
  A 0.60 0.59 80.1 0 1 554.82 766.45
  L 554.87 766.69
  A 0.33 0.33 0.0 0 1 554.66 767.07
  L 551.94 768.09
  A 2.43 2.42 79.7 0 0 550.37 770.36
  L 550.37 782.28
  A 0.98 0.96 81.5 0 1 549.69 783.21
  C 537.85 787.02 527.10 788.64 516.80 780.53
  C 508.29 773.83 507.91 759.59 514.71 751.86
  C 522.46 743.04 534.62 741.53 545.13 747.09
  A 0.51 0.51 0.0 0 0 545.88 746.68
  Q 546.04 744.66 548.45 744.75
  Z"
/>
<path fill="#fff6dc" d="
  M 454.57 785.34
  A 0.53 0.53 0.0 0 1 454.38 784.31
  L 458.14 782.83
  A 1.11 1.06 9.4 0 0 458.52 782.57
  Q 459.54 781.43 460.62 779.13
  Q 464.26 771.40 465.37 768.43
  C 468.60 759.82 471.27 754.66 475.39 744.86
  A 1.25 1.25 0.0 0 1 477.69 744.83
  L 494.03 781.39
  A 3.64 3.64 0.0 0 0 496.28 783.39
  Q 496.64 783.50 498.90 784.05
  A 0.73 0.67 -68.5 0 1 499.30 785.08
  Q 499.22 785.23 498.80 785.28
  Q 497.78 785.39 483.62 785.15
  A 0.50 0.50 0.0 0 1 483.45 784.18
  L 486.40 783.08
  A 1.13 1.13 0.0 0 0 487.06 781.62
  L 483.42 771.88
  A 0.96 0.96 0.0 0 0 482.52 771.25
  L 467.57 771.25
  A 1.32 1.30 -75.0 0 0 466.43 771.92
  Q 463.96 776.22 462.79 782.00
  A 1.25 1.24 -81.0 0 0 463.86 783.48
  L 467.07 783.87
  A 0.56 0.56 0.0 0 1 467.56 784.50
  L 467.51 784.89
  A 0.51 0.51 0.0 0 1 467.00 785.34
  L 454.57 785.34
  Z
  M 468.01 768.34
  A 0.47 0.47 0.0 0 0 468.44 768.99
  L 481.26 768.99
  A 0.47 0.47 0.0 0 0 481.69 768.34
  L 475.28 752.79
  A 0.47 0.47 0.0 0 0 474.42 752.79
  L 468.01 768.34
  Z"
/>
<path fill="#000000" d="
  M 468.01 768.34
  L 474.42 752.79
  A 0.47 0.47 0.0 0 1 475.28 752.79
  L 481.69 768.34
  A 0.47 0.47 0.0 0 1 481.26 768.99
  L 468.44 768.99
  A 0.47 0.47 0.0 0 1 468.01 768.34
  Z"
/>
<rect fill="#f2c05e" x="313.23" y="767.23" width="126.10" height="1.88" rx="0.77"/>
<rect fill="#f2c05e" x="577.78" y="767.24" width="132.90" height="1.86" rx="0.91"/>
</svg>
