<?xml version="1.0" encoding="UTF-8" standalone="no"?>
<!DOCTYPE svg PUBLIC "-//W3C//DTD SVG 1.1//EN" "http://www.w3.org/Graphics/SVG/1.1/DTD/svg11.dtd">
<svg xmlns="http://www.w3.org/2000/svg" version="1.1" viewBox="0.00 0.00 1024.00 1024.00">
<g stroke-width="2.00" fill="none" stroke-linecap="butt">
<path stroke="#7e6b42" vector-effect="non-scaling-stroke" d="
  M 486.58 310.53
  L 400.26 370.96
  A 1.61 1.59 -17.7 0 0 399.57 372.27
  L 399.57 438.78
  A 0.28 0.28 0.0 0 0 399.91 439.05
  L 410.15 437.08
  A 0.92 0.91 -5.3 0 0 410.90 436.18
  L 410.90 381.21
  A 2.62 2.60 -17.2 0 1 412.05 379.05
  L 468.71 340.73
  A 0.71 0.71 0.0 0 1 469.82 341.32
  L 469.82 429.66
  A 0.56 0.54 -2.9 0 0 470.43 430.20
  L 480.63 429.24
  A 1.15 1.15 0.0 0 0 481.68 428.09
  L 481.68 334.21
  A 0.70 0.70 0.0 0 1 482.60 333.54
  Q 484.31 334.11 486.52 336.15"
/>
<path stroke="#8099aa" vector-effect="non-scaling-stroke" d="
  M 486.52 336.15
  Q 521.05 366.53 556.86 397.63
  Q 568.77 407.97 573.62 411.94
  Q 587.58 423.38 601.31 432.22
  Q 627.10 448.82 656.17 456.34
  A 0.36 0.36 0.0 0 0 656.62 456.00
  Q 656.69 448.76 656.86 441.00
  Q 656.86 440.65 656.46 440.24"
/>
<path stroke="#7e6b42" vector-effect="non-scaling-stroke" d="
  M 656.46 440.24
  L 656.80 400.98
  A 2.06 2.06 0.0 0 0 655.90 399.26
  L 627.92 380.12
  A 1.05 1.04 -72.8 0 1 627.47 379.26
  L 627.47 364.68
  A 1.54 1.54 0.0 0 0 626.80 363.41
  L 606.10 349.25
  A 2.24 2.22 52.9 0 0 604.15 348.97
  L 558.16 364.11"
/>
<path stroke="#8099aa" vector-effect="non-scaling-stroke" d="
  M 558.16 364.11
  Q 525.34 339.02 492.49 312.89
  Q 492.41 312.82 490.99 311.63
  Q 487.63 308.82 486.58 310.53"
/>
<path stroke="#fcce94" vector-effect="non-scaling-stroke" d="
  M 558.16 364.11
  L 571.64 374.23"
/>
<path stroke="#8099aa" vector-effect="non-scaling-stroke" d="
  M 571.64 374.23
  L 604.07 399.34"
/>
<path stroke="#fcce94" vector-effect="non-scaling-stroke" d="
  M 604.07 399.34
  Q 628.27 418.67 653.34 438.41
  Q 654.78 439.54 656.46 440.24"
/>
<path stroke="#fcce94" vector-effect="non-scaling-stroke" d="
  M 486.52 336.15
  Q 487.95 323.21 486.58 310.53"
/>
<path stroke="#7e6b42" vector-effect="non-scaling-stroke" d="
  M 604.07 399.34
  L 604.01 364.82
  A 0.23 0.23 0.0 0 0 603.71 364.60
  L 571.64 374.23"
/>
<path stroke="#7e6b42" vector-effect="non-scaling-stroke" d="
  M 784.63 503.12
  C 779.36 501.52 773.04 500.74 768.46 499.56
  C 750.69 495.01 737.08 491.15 715.30 484.82
  Q 710.29 483.37 691.21 478.29
  C 670.71 472.83 652.22 468.00 633.47 464.07
  Q 618.02 460.82 592.06 455.97
  Q 573.83 452.56 544.33 449.46
  C 506.45 445.48 467.65 445.47 429.56 450.13
  Q 408.45 452.71 398.76 454.54
  Q 359.57 461.94 318.95 475.22
  Q 293.03 483.70 262.77 494.03
  Q 246.93 499.43 229.64 503.13
  Q 232.75 503.17 235.18 502.85
  Q 271.30 498.06 305.65 489.86
  C 331.75 483.62 361.31 477.03 391.74 471.99
  C 466.04 459.68 542.26 463.46 616.31 476.19
  Q 657.40 483.26 714.89 494.13
  Q 733.76 497.70 776.19 502.81
  C 778.79 503.13 782.09 502.93 784.63 503.12"
/>
<path stroke="#7e6b42" vector-effect="non-scaling-stroke" d="
  M 176.35 505.62
  Q 178.68 506.53 185.06 507.67
  Q 199.87 510.30 209.58 511.11
  C 223.37 512.27 236.06 511.29 250.19 509.65
  C 271.21 507.20 293.58 502.34 313.49 498.19
  Q 322.72 496.26 327.45 494.89
  Q 327.46 494.89 327.55 494.89
  Q 327.58 494.89 327.60 494.88
  A 0.03 0.03 0.0 0 0 327.57 494.83
  Q 321.17 496.13 300.81 499.74
  Q 254.04 508.05 205.74 508.09
  Q 190.51 508.11 176.43 505.35
  A 0.14 0.14 0.0 0 0 176.35 505.62"
/>
<path stroke="#7e6b42" vector-effect="non-scaling-stroke" d="
  M 844.69 505.47
  Q 844.65 505.46 837.13 506.65
  Q 834.78 507.02 822.22 507.95
  C 812.37 508.68 801.80 507.87 792.04 507.87
  Q 780.71 507.87 776.83 507.62
  Q 743.27 505.39 724.84 502.58
  Q 710.68 500.42 691.12 496.98
  A 0.21 0.20 12.8 0 0 690.89 497.12
  Q 707.14 500.32 721.05 503.14
  C 727.67 504.48 733.89 505.19 739.93 506.30
  C 754.35 508.96 768.85 510.48 783.50 511.32
  Q 800.07 512.27 813.00 510.99
  Q 827.83 509.52 842.29 506.51
  Q 844.01 506.15 844.72 505.85
  A 0.20 0.20 0.0 0 0 844.69 505.47"
/>
<path stroke="#8099aa" vector-effect="non-scaling-stroke" d="
  M 260.06 607.02
  A 1.52 1.51 -0.0 0 0 258.54 605.51
  L 230.17 605.51
  A 1.62 1.62 0.0 0 0 228.55 607.13
  L 228.55 607.61
  A 1.47 1.46 3.3 0 0 229.85 609.06
  C 234.37 609.56 238.27 610.89 238.44 616.26
  Q 238.59 621.19 238.46 630.23
  C 238.39 634.87 237.53 637.46 233.24 639.03
  Q 225.57 641.84 217.50 639.71
  C 200.13 635.13 196.42 614.67 196.76 599.36
  C 197.15 581.52 206.21 561.46 227.64 565.29
  C 233.74 566.38 239.00 572.21 241.56 577.39
  Q 243.04 580.38 245.85 588.53
  A 0.90 0.89 80.3 0 0 246.69 589.13
  L 248.84 589.13
  A 0.93 0.93 0.0 0 0 249.77 588.20
  L 249.77 563.27
  A 1.32 1.32 0.0 0 0 248.50 561.95
  Q 245.77 561.84 244.83 562.98
  A 1.53 1.46 77.5 0 0 244.66 563.26
  L 243.49 565.92
  A 0.83 0.83 0.0 0 1 242.33 566.31
  C 238.67 564.33 234.62 562.04 230.54 561.25
  C 199.82 555.22 179.39 579.82 182.59 608.97
  C 184.97 630.60 200.74 645.46 222.75 645.30
  C 233.10 645.23 240.55 643.07 250.44 640.20
  A 0.98 0.97 82.2 0 0 251.15 639.26
  Q 251.15 627.19 251.37 615.19
  C 251.45 610.73 254.85 609.41 258.65 609.14
  A 1.51 1.50 -1.8 0 0 260.06 607.64
  L 260.06 607.02"
/>
<path stroke="#8099aa" vector-effect="non-scaling-stroke" d="
  M 664.9429 561.0520
  A 7.62 7.25 -88.7 0 0 657.5219 568.5055
  A 7.62 7.25 -88.7 0 0 664.5971 576.2880
  A 7.62 7.25 -88.7 0 0 672.0181 568.8345
  A 7.62 7.25 -88.7 0 0 664.9429 561.0520"
/>
<path stroke="#8099aa" vector-effect="non-scaling-stroke" d="
  M 753.5792 561.1014
  A 7.55 7.31 -84.0 0 0 745.5200 567.8459
  A 7.55 7.31 -84.0 0 0 752.0008 576.1186
  A 7.55 7.31 -84.0 0 0 760.0600 569.3741
  A 7.55 7.31 -84.0 0 0 753.5792 561.1014"
/>
<path stroke="#8099aa" vector-effect="non-scaling-stroke" d="
  M 125.62 599.95
  Q 125.46 587.48 125.48 576.75
  C 125.49 572.19 125.60 568.10 130.06 566.05
  Q 130.74 565.74 133.82 565.46
  A 1.37 1.36 -2.5 0 0 135.07 564.10
  L 135.07 563.36
  A 1.11 1.11 0.0 0 0 133.96 562.25
  L 104.20 562.25
  A 1.15 1.14 -0.0 0 0 103.05 563.39
  L 103.05 563.85
  A 1.51 1.51 0.0 0 0 104.28 565.33
  C 110.28 566.43 113.32 567.98 113.21 574.77
  Q 112.87 595.56 113.21 628.28
  Q 113.26 632.72 112.40 635.94
  C 111.48 639.43 107.26 639.66 103.60 640.14
  A 1.28 1.28 0.0 0 0 102.49 641.41
  L 102.49 642.36
  A 1.12 1.12 0.0 0 0 103.61 643.48
  Q 114.66 643.42 132.98 643.42
  Q 133.94 643.42 134.18 643.32
  A 1.63 1.63 0.0 0 0 133.87 640.20
  C 130.83 639.64 127.39 639.47 126.36 636.50
  Q 125.55 634.13 125.56 631.00
  Q 125.61 614.26 125.48 606.27
  A 0.63 0.62 -81.5 0 1 126.30 605.66
  Q 128.34 606.32 129.98 608.18
  C 135.54 614.53 139.82 619.68 146.06 626.38
  Q 149.54 630.13 153.91 635.74
  A 2.01 2.00 65.3 0 1 152.73 638.94
  L 148.47 639.81
  A 1.81 1.80 -44.4 0 0 148.43 643.34
  Q 148.53 643.36 151.50 643.37
  Q 168.82 643.47 178.13 643.43
  A 1.14 1.14 0.0 0 0 179.27 642.29
  L 179.27 641.26
  A 1.22 1.22 0.0 0 0 178.21 640.05
  C 173.08 639.37 168.43 633.66 164.68 629.33
  C 160.30 624.29 157.11 620.07 152.32 615.00
  Q 145.98 608.28 137.24 597.57
  A 1.21 1.21 0.0 0 1 137.29 595.98
  Q 148.43 584.03 161.33 571.25
  C 165.01 567.60 168.61 566.76 172.77 565.64
  A 1.70 1.70 0.0 0 0 172.41 562.30
  Q 170.63 562.21 166.00 562.32
  Q 159.53 562.47 151.25 562.16
  Q 149.05 562.08 148.20 562.23
  A 1.59 1.59 0.0 0 0 148.15 565.35
  L 152.09 566.19
  A 1.11 1.10 -15.4 0 1 152.71 566.54
  C 155.57 569.72 152.53 573.06 150.13 575.63
  Q 137.82 588.75 126.35 600.25
  A 0.43 0.43 0.0 0 1 125.62 599.95"
/>
<path stroke="#8099aa" vector-effect="non-scaling-stroke" d="
  M 326.67 562.22
  L 296.36 562.22
  A 0.88 0.87 90.0 0 0 295.49 563.10
  L 295.49 564.16
  A 1.00 0.99 8.8 0 0 296.19 565.11
  L 302.07 566.95
  A 3.79 3.78 -88.8 0 1 304.62 569.62
  Q 305.36 572.42 305.35 576.01
  Q 305.28 596.90 305.34 632.51
  C 305.35 642.55 295.59 637.94 294.75 641.88
  A 1.28 1.28 0.0 0 0 296.00 643.43
  L 326.62 643.43
  A 1.22 1.22 0.0 0 0 327.83 642.37
  Q 327.94 641.53 327.59 640.87
  C 327.02 639.84 322.25 639.77 320.63 638.66
  Q 318.02 636.87 317.98 633.23
  Q 317.69 608.88 317.84 573.26
  C 317.87 567.54 321.68 565.81 326.60 565.36
  A 1.16 1.15 -2.7 0 0 327.65 564.21
  L 327.65 563.21
  A 0.99 0.98 -90.0 0 0 326.67 562.22"
/>
<path stroke="#8099aa" vector-effect="non-scaling-stroke" d="
  M 352.38 596.09
  L 352.38 589.35
  A 1.10 1.10 0.0 0 0 350.97 588.30
  Q 343.11 590.63 335.49 591.39
  A 1.36 1.34 85.9 0 0 334.29 592.79
  C 334.36 594.48 337.65 595.13 339.16 595.55
  A 2.12 2.12 0.0 0 1 340.27 596.30
  Q 341.55 597.96 341.57 601.02
  Q 341.67 616.25 341.58 634.50
  C 341.56 639.34 337.92 639.64 334.43 640.58
  A 1.48 1.44 -18.8 0 0 333.43 642.54
  Q 333.78 643.38 335.00 643.39
  Q 349.08 643.50 358.16 643.41
  A 1.29 1.29 0.0 0 0 359.41 641.88
  L 359.39 641.75
  A 2.15 2.14 -2.3 0 0 357.51 640.03
  C 355.14 639.77 352.64 638.67 352.56 635.94
  Q 352.49 633.49 352.50 608.04
  Q 352.50 603.67 353.70 601.56
  C 356.69 596.26 362.69 593.56 368.75 595.39
  C 372.54 596.54 373.60 602.09 373.62 605.52
  Q 373.69 619.62 373.60 632.30
  C 373.59 634.70 373.90 637.03 372.08 638.70
  A 2.33 2.30 -75.1 0 1 371.18 639.23
  L 366.89 640.64
  A 1.43 1.43 0.0 0 0 366.70 643.27
  Q 367.09 643.47 368.50 643.47
  Q 379.60 643.50 390.20 643.38
  A 1.18 1.18 0.0 0 0 391.34 641.96
  C 390.54 638.20 384.53 641.70 384.56 635.32
  Q 384.63 618.61 384.57 608.49
  Q 384.54 604.16 385.51 602.11
  C 388.00 596.86 393.79 594.01 399.65 595.19
  C 405.66 596.40 406.00 603.10 405.95 608.45
  Q 405.88 615.96 405.87 632.35
  C 405.87 638.49 405.18 638.86 399.50 640.40
  A 1.58 1.58 0.0 0 0 399.37 643.40
  Q 399.51 643.45 401.25 643.44
  Q 404.74 643.42 423.19 643.45
  A 1.50 1.49 51.8 0 0 423.54 640.50
  C 419.86 639.60 416.91 639.20 416.93 634.49
  Q 417.01 620.73 416.97 604.03
  C 416.96 595.84 412.89 588.19 403.68 587.97
  Q 391.95 587.70 384.38 597.36
  A 0.46 0.46 0.0 0 1 383.58 597.24
  Q 380.74 589.67 372.80 588.27
  C 364.94 586.88 358.61 590.31 353.18 596.39
  A 0.46 0.46 0.0 0 1 352.38 596.09"
/>
<path stroke="#8099aa" vector-effect="non-scaling-stroke" d="
  M 448.38 596.17
  L 448.39 589.45
  A 1.09 1.09 0.0 0 0 446.98 588.41
  Q 439.15 590.72 431.56 591.48
  A 1.35 1.34 86.0 0 0 430.36 592.87
  C 430.43 594.55 433.71 595.20 435.21 595.62
  A 2.11 2.11 0.0 0 1 436.32 596.37
  Q 437.59 598.03 437.61 601.07
  Q 437.70 616.25 437.60 634.43
  C 437.58 639.26 433.95 639.55 430.47 640.49
  A 1.48 1.43 -18.8 0 0 429.47 642.44
  Q 429.82 643.28 431.04 643.29
  Q 445.07 643.41 454.11 643.32
  A 1.28 1.28 0.0 0 0 455.36 641.80
  L 455.34 641.67
  A 2.14 2.13 -2.3 0 0 453.47 639.95
  C 451.11 639.69 448.62 638.60 448.54 635.88
  Q 448.47 633.43 448.49 608.08
  Q 448.50 603.72 449.69 601.62
  C 452.68 596.34 458.66 593.65 464.69 595.48
  C 468.47 596.63 469.52 602.16 469.54 605.58
  Q 469.60 619.63 469.51 632.26
  C 469.49 634.65 469.80 636.97 467.99 638.64
  A 2.32 2.29 -75.1 0 1 467.09 639.16
  L 462.81 640.57
  A 1.42 1.42 0.0 0 0 462.62 643.19
  Q 463.01 643.39 464.42 643.39
  Q 475.48 643.42 486.04 643.31
  A 1.18 1.18 0.0 0 0 487.18 641.90
  C 486.38 638.15 480.39 641.63 480.42 635.28
  Q 480.50 618.63 480.45 608.54
  Q 480.42 604.23 481.39 602.19
  C 483.87 596.96 489.64 594.12 495.48 595.30
  C 501.47 596.51 501.81 603.18 501.75 608.51
  Q 501.68 616.00 501.66 632.33
  C 501.66 638.45 500.97 638.82 495.31 640.35
  A 1.57 1.57 0.0 0 0 495.18 643.34
  Q 495.32 643.39 497.05 643.38
  Q 500.53 643.36 518.91 643.40
  A 1.49 1.49 0.0 0 0 519.26 640.46
  C 515.59 639.56 512.66 639.16 512.68 634.47
  Q 512.77 620.76 512.74 604.12
  C 512.73 595.96 508.68 588.33 499.50 588.11
  Q 487.81 587.83 480.27 597.45
  A 0.46 0.46 0.0 0 1 479.47 597.33
  Q 476.64 589.79 468.73 588.39
  C 460.90 587.00 454.59 590.41 449.18 596.47
  A 0.46 0.45 -24.3 0 1 448.38 596.17"
/>
<path stroke="#8099aa" vector-effect="non-scaling-stroke" d="
  M 527.63 614.59
  C 526.49 630.66 536.63 643.91 553.16 645.09
  C 569.69 646.27 581.61 634.59 582.75 618.51
  C 583.90 602.43 573.75 589.18 557.22 588.00
  C 540.69 586.83 528.78 598.51 527.63 614.59"
/>
<path stroke="#8099aa" vector-effect="non-scaling-stroke" d="
  M 670.56 588.11
  C 666.80 588.64 663.20 590.21 659.40 590.72
  Q 659.01 590.77 652.27 591.71
  A 1.48 1.48 0.0 0 0 652.23 594.63
  L 656.95 595.40
  A 3.29 3.27 -4.6 0 1 659.53 597.58
  Q 660.07 599.15 660.12 601.12
  Q 660.42 611.72 660.15 633.95
  Q 660.08 639.81 652.74 640.12
  A 1.30 1.30 0.0 0 0 651.49 641.42
  L 651.49 642.27
  A 1.15 1.14 -0.0 0 0 652.64 643.41
  L 678.22 643.39
  A 1.12 1.12 0.0 0 0 679.34 642.27
  L 679.34 641.94
  A 1.72 1.71 -87.4 0 0 677.78 640.23
  Q 671.32 639.68 671.30 634.77
  Q 671.22 614.71 671.45 588.89
  A 0.79 0.78 -3.5 0 0 670.56 588.11"
/>
<path stroke="#8099aa" vector-effect="non-scaling-stroke" d="
  M 689.79 644.12
  Q 691.56 644.55 692.75 643.85
  A 1.40 1.37 -6.8 0 0 693.37 643.08
  Q 693.83 641.66 694.54 641.24
  A 1.00 1.00 0.0 0 1 695.51 641.22
  Q 707.45 647.58 718.30 643.81
  C 729.21 640.02 734.21 628.31 727.41 618.50
  A 3.71 3.51 89.5 0 0 726.60 617.66
  C 720.96 613.44 714.79 611.20 707.26 608.74
  Q 704.14 607.73 702.39 605.94
  C 697.96 601.41 699.93 593.62 706.39 592.43
  Q 716.11 590.65 721.22 599.30
  Q 721.89 600.43 724.24 605.67
  A 1.40 1.38 0.8 0 0 724.92 606.36
  Q 726.04 606.88 727.05 606.28
  A 0.72 0.69 -16.3 0 0 727.40 605.68
  L 727.40 590.17
  A 1.63 1.63 0.0 0 0 724.78 588.88
  Q 723.65 589.75 723.14 590.75
  A 1.18 1.17 27.9 0 1 721.52 591.24
  C 712.14 586.03 697.38 586.48 691.65 596.90
  Q 689.07 601.60 690.03 607.30
  C 691.84 618.14 704.35 619.62 712.74 623.38
  C 717.84 625.66 720.99 627.44 719.98 633.50
  C 719.14 638.47 715.65 640.91 710.59 641.13
  C 701.30 641.53 695.61 634.23 692.95 626.12
  A 1.24 1.22 -88.7 0 0 692.22 625.34
  Q 691.15 624.91 689.86 625.11
  A 0.70 0.68 86.2 0 0 689.27 625.80
  L 689.27 643.45
  A 0.69 0.69 0.0 0 0 689.79 644.12"
/>
<path stroke="#8099aa" vector-effect="non-scaling-stroke" d="
  M 806.4215 587.8331
  A 28.81 27.79 -83.9 0 0 775.7273 613.5269
  A 28.81 27.79 -83.9 0 0 800.2985 645.1269
  A 28.81 27.79 -83.9 0 0 830.9927 619.4331
  A 28.81 27.79 -83.9 0 0 806.4215 587.8331"
/>
<path stroke="#8099aa" vector-effect="non-scaling-stroke" d="
  M 858.38 597.02
  L 858.38 589.14
  A 0.89 0.89 0.0 0 0 857.27 588.28
  Q 847.46 590.80 841.59 591.13
  A 1.70 1.70 0.0 0 0 841.33 594.49
  C 845.34 595.36 847.60 595.51 847.66 600.40
  Q 847.88 615.98 847.59 635.01
  Q 847.55 637.71 845.50 639.30
  A 1.06 0.96 -68.2 0 1 845.13 639.48
  L 840.57 640.50
  A 1.25 1.24 -6.4 0 0 839.60 641.71
  L 839.60 642.04
  A 1.35 1.35 0.0 0 0 840.95 643.39
  L 864.27 643.39
  A 1.53 1.53 0.0 0 0 864.53 640.36
  C 861.13 639.76 858.57 638.83 858.57 634.83
  Q 858.57 618.60 858.61 605.27
  A 3.01 2.95 -32.8 0 1 858.90 603.99
  Q 863.31 594.45 873.03 594.91
  C 877.35 595.12 879.88 596.90 880.88 600.90
  Q 881.68 604.08 881.68 605.02
  Q 881.71 610.56 881.66 634.51
  C 881.65 639.17 878.36 639.77 875.03 640.56
  A 0.89 0.89 0.0 0 0 874.47 640.98
  Q 873.81 642.10 874.75 643.09
  A 0.88 0.84 67.7 0 0 875.38 643.37
  L 898.79 643.37
  A 1.26 1.25 90.0 0 0 900.04 642.11
  L 900.04 641.65
  A 1.33 1.32 2.1 0 0 898.81 640.33
  Q 892.78 639.90 892.86 633.44
  Q 893.02 620.80 892.85 605.25
  C 892.73 593.89 887.36 587.84 875.72 588.07
  C 869.64 588.19 862.71 592.58 859.20 597.29
  A 0.46 0.45 -26.7 0 1 858.38 597.02"
/>
<path stroke="#8099aa" vector-effect="non-scaling-stroke" d="
  M 759.37 589.05
  A 0.81 0.80 83.7 0 0 758.39 588.26
  Q 749.46 590.24 741.15 591.59
  A 1.63 1.54 78.4 0 0 739.92 593.58
  Q 739.99 593.87 740.24 594.12
  Q 740.50 594.38 740.79 594.44
  Q 744.39 595.21 745.31 595.49
  A 3.85 3.84 88.9 0 1 747.83 597.92
  Q 748.39 599.55 748.39 602.76
  Q 748.38 632.50 748.38 632.89
  C 748.39 638.36 746.01 640.19 740.75 640.45
  A 1.12 1.11 88.7 0 0 739.69 641.57
  L 739.69 642.22
  A 1.23 1.23 0.0 0 0 740.94 643.45
  Q 753.49 643.31 765.97 643.49
  Q 766.77 643.50 767.03 642.86
  A 1.99 1.74 -72.2 0 0 765.90 640.25
  Q 762.84 639.57 761.13 638.75
  A 3.09 3.07 12.8 0 1 759.37 635.97
  L 759.37 589.05"
/>
<path stroke="#8099aa" vector-effect="non-scaling-stroke" d="
  M 621.44 629.23
  A 0.41 0.41 0.0 0 1 620.72 629.15
  Q 615.37 615.93 609.52 602.72
  Q 608.28 599.91 607.76 596.72
  A 1.87 1.86 -15.3 0 1 608.92 594.69
  L 613.29 593.01
  A 1.55 1.55 0.0 0 0 612.73 590.01
  L 589.28 590.01
  A 1.03 1.02 90.0 0 0 588.26 591.04
  L 588.26 591.98
  A 1.28 1.27 -87.0 0 0 589.40 593.25
  Q 593.80 593.73 595.48 597.56
  Q 613.95 639.94 615.26 642.98
  Q 615.95 644.62 617.44 644.85
  A 2.42 2.41 -73.3 0 0 620.03 643.45
  Q 629.05 623.23 639.08 599.66
  Q 641.41 594.19 647.07 593.69
  A 1.22 1.21 87.4 0 0 648.17 592.48
  L 648.17 591.26
  A 1.17 1.17 0.0 0 0 647.00 590.09
  L 629.56 590.09
  A 1.54 1.54 0.0 0 0 629.00 593.06
  L 632.42 594.39
  A 1.64 1.60 -7.9 0 1 633.10 594.89
  Q 634.70 596.91 633.81 599.29
  Q 629.29 611.30 622.80 626.80
  Q 622.34 627.89 621.44 629.23"
/>
<path stroke="#7e6b42" vector-effect="non-scaling-stroke" d="
  M 534.22 706.96
  A 0.90 0.90 0.0 0 0 535.23 707.92
  C 539.75 707.35 539.56 710.39 539.69 714.04
  Q 539.76 716.29 539.43 719.58
  A 2.27 2.25 85.0 0 1 537.81 721.52
  Q 533.76 722.70 529.83 722.12
  C 524.76 721.38 521.03 715.30 520.18 710.41
  Q 519.78 708.14 519.82 703.07
  C 519.87 694.84 522.94 686.88 532.29 686.44
  C 539.29 686.12 541.91 691.58 543.31 697.38
  A 1.12 1.12 0.0 0 0 545.33 697.73
  Q 545.37 697.67 545.42 696.97
  Q 545.53 695.30 545.32 686.48
  A 0.83 0.83 0.0 0 0 544.14 685.75
  Q 543.07 686.25 542.56 686.98
  A 0.62 0.61 31.2 0 1 541.76 687.17
  Q 532.94 682.52 524.34 685.69
  Q 518.78 687.74 515.12 694.20
  C 513.53 697.00 512.94 701.03 512.75 703.50
  Q 511.91 714.62 520.65 721.36
  C 527.03 726.28 538.24 725.14 545.28 722.35
  A 0.77 0.77 0.0 0 0 545.77 721.63
  L 545.77 710.39
  A 1.72 1.71 -8.5 0 1 546.99 708.75
  L 550.02 707.86
  A 0.71 0.71 0.0 0 0 550.18 706.57
  Q 549.37 706.10 548.56 706.11
  Q 541.81 706.17 535.38 705.85
  A 1.10 1.10 0.0 0 0 534.22 706.87
  L 534.22 706.96"
/>
<path stroke="#7e6b42" vector-effect="non-scaling-stroke" d="
  M 476.51 720.33
  L 479.55 710.58
  A 0.87 0.86 -81.2 0 1 480.37 709.97
  L 491.87 709.97
  A 1.39 1.38 81.9 0 1 493.20 710.97
  L 495.94 720.21
  A 0.81 0.81 0.0 0 1 495.39 721.22
  L 492.52 722.07
  A 0.86 0.86 0.0 0 0 492.77 723.76
  L 506.22 723.76
  A 0.85 0.84 58.5 0 0 506.60 722.16
  L 503.77 720.72
  A 1.48 1.46 3.5 0 1 503.06 719.93
  L 489.99 686.11
  A 1.36 1.36 0.0 0 0 487.54 685.94
  Q 484.33 691.72 481.75 698.97
  Q 480.46 702.60 473.74 720.11
  A 1.26 1.24 3.1 0 1 472.87 720.88
  Q 470.82 721.37 470.07 721.72
  A 1.27 1.15 -35.1 0 0 469.62 723.68
  Q 469.79 723.84 470.26 723.83
  Q 474.92 723.81 480.43 723.49
  A 0.53 0.53 0.0 0 0 480.91 722.81
  L 480.80 722.45
  A 0.72 0.72 0.0 0 0 480.22 721.94
  L 477.20 721.44
  A 0.87 0.87 0.0 0 1 476.51 720.33"
/>
<path stroke="#7e6b42" vector-effect="non-scaling-stroke" d="
  M 332.92 708.34
  Q 332.92 708.68 333.40 708.69
  Q 382.27 709.53 440.91 711.97
  A 0.69 0.69 0.0 0 0 441.63 711.28
  Q 441.63 709.72 441.63 708.54
  Q 441.63 707.36 441.64 705.80
  A 0.69 0.69 0.0 0 0 440.92 705.11
  Q 382.27 707.33 333.40 707.98
  Q 332.92 707.99 332.92 708.34"
/>
<path stroke="#7e6b42" vector-effect="non-scaling-stroke" d="
  M 689.23 708.43
  Q 689.23 708.09 688.77 708.08
  Q 640.76 707.35 583.15 705.06
  A 0.68 0.68 0.0 0 0 582.44 705.74
  Q 582.44 707.27 582.44 708.43
  Q 582.45 709.60 582.44 711.13
  A 0.68 0.68 0.0 0 0 583.15 711.80
  Q 640.76 709.51 688.77 708.78
  Q 689.23 708.77 689.23 708.43"
/>
<path stroke="#8099aa" vector-effect="non-scaling-stroke" d="
  M 540.47 616.44
  C 540.43 625.82 542.43 640.87 555.09 640.92
  C 567.75 640.97 569.86 625.93 569.90 616.56
  C 569.93 607.18 567.94 592.13 555.27 592.08
  C 542.62 592.04 540.50 607.07 540.47 616.44"
/>
<path stroke="#8099aa" vector-effect="non-scaling-stroke" d="
  M 788.65 616.54
  C 788.67 625.92 790.77 640.98 803.44 640.94
  C 816.12 640.91 818.13 625.85 818.11 616.46
  C 818.08 607.07 815.99 592.02 803.31 592.05
  C 790.64 592.09 788.62 607.15 788.65 616.54"
/>
<path stroke="#7e6b42" vector-effect="non-scaling-stroke" d="
  M 485.43 693.89
  L 482.24 704.14
  A 2.93 2.57 -25.4 0 1 481.99 704.72
  L 481.00 706.50
  A 1.15 1.14 -78.3 0 0 482.11 708.20
  L 491.25 707.34
  A 0.44 0.43 -13.0 0 0 491.62 706.75
  L 486.64 693.85
  A 0.64 0.64 0.0 0 0 485.43 693.89"
/>
</g>
<path fill="#023658" d="
  M 1024.00 0.00
  L 1024.00 1024.00
  L 0.00 1024.00
  L 0.00 0.00
  L 1024.00 0.00
  Z
  M 486.58 310.53
  L 400.26 370.96
  A 1.61 1.59 -17.7 0 0 399.57 372.27
  L 399.57 438.78
  A 0.28 0.28 0.0 0 0 399.91 439.05
  L 410.15 437.08
  A 0.92 0.91 -5.3 0 0 410.90 436.18
  L 410.90 381.21
  A 2.62 2.60 -17.2 0 1 412.05 379.05
  L 468.71 340.73
  A 0.71 0.71 0.0 0 1 469.82 341.32
  L 469.82 429.66
  A 0.56 0.54 -2.9 0 0 470.43 430.20
  L 480.63 429.24
  A 1.15 1.15 0.0 0 0 481.68 428.09
  L 481.68 334.21
  A 0.70 0.70 0.0 0 1 482.60 333.54
  Q 484.31 334.11 486.52 336.15
  Q 521.05 366.53 556.86 397.63
  Q 568.77 407.97 573.62 411.94
  Q 587.58 423.38 601.31 432.22
  Q 627.10 448.82 656.17 456.34
  A 0.36 0.36 0.0 0 0 656.62 456.00
  Q 656.69 448.76 656.86 441.00
  Q 656.86 440.65 656.46 440.24
  L 656.80 400.98
  A 2.06 2.06 0.0 0 0 655.90 399.26
  L 627.92 380.12
  A 1.05 1.04 -72.8 0 1 627.47 379.26
  L 627.47 364.68
  A 1.54 1.54 0.0 0 0 626.80 363.41
  L 606.10 349.25
  A 2.24 2.22 52.9 0 0 604.15 348.97
  L 558.16 364.11
  Q 525.34 339.02 492.49 312.89
  Q 492.41 312.82 490.99 311.63
  Q 487.63 308.82 486.58 310.53
  Z
  M 784.63 503.12
  C 779.36 501.52 773.04 500.74 768.46 499.56
  C 750.69 495.01 737.08 491.15 715.30 484.82
  Q 710.29 483.37 691.21 478.29
  C 670.71 472.83 652.22 468.00 633.47 464.07
  Q 618.02 460.82 592.06 455.97
  Q 573.83 452.56 544.33 449.46
  C 506.45 445.48 467.65 445.47 429.56 450.13
  Q 408.45 452.71 398.76 454.54
  Q 359.57 461.94 318.95 475.22
  Q 293.03 483.70 262.77 494.03
  Q 246.93 499.43 229.64 503.13
  Q 232.75 503.17 235.18 502.85
  Q 271.30 498.06 305.65 489.86
  C 331.75 483.62 361.31 477.03 391.74 471.99
  C 466.04 459.68 542.26 463.46 616.31 476.19
  Q 657.40 483.26 714.89 494.13
  Q 733.76 497.70 776.19 502.81
  C 778.79 503.13 782.09 502.93 784.63 503.12
  Z
  M 176.35 505.62
  Q 178.68 506.53 185.06 507.67
  Q 199.87 510.30 209.58 511.11
  C 223.37 512.27 236.06 511.29 250.19 509.65
  C 271.21 507.20 293.58 502.34 313.49 498.19
  Q 322.72 496.26 327.45 494.89
  Q 327.46 494.89 327.55 494.89
  Q 327.58 494.89 327.60 494.88
  A 0.03 0.03 0.0 0 0 327.57 494.83
  Q 321.17 496.13 300.81 499.74
  Q 254.04 508.05 205.74 508.09
  Q 190.51 508.11 176.43 505.35
  A 0.14 0.14 0.0 0 0 176.35 505.62
  Z
  M 844.69 505.47
  Q 844.65 505.46 837.13 506.65
  Q 834.78 507.02 822.22 507.95
  C 812.37 508.68 801.80 507.87 792.04 507.87
  Q 780.71 507.87 776.83 507.62
  Q 743.27 505.39 724.84 502.58
  Q 710.68 500.42 691.12 496.98
  A 0.21 0.20 12.8 0 0 690.89 497.12
  Q 707.14 500.32 721.05 503.14
  C 727.67 504.48 733.89 505.19 739.93 506.30
  C 754.35 508.96 768.85 510.48 783.50 511.32
  Q 800.07 512.27 813.00 510.99
  Q 827.83 509.52 842.29 506.51
  Q 844.01 506.15 844.72 505.85
  A 0.20 0.20 0.0 0 0 844.69 505.47
  Z
  M 260.06 607.02
  A 1.52 1.51 -0.0 0 0 258.54 605.51
  L 230.17 605.51
  A 1.62 1.62 0.0 0 0 228.55 607.13
  L 228.55 607.61
  A 1.47 1.46 3.3 0 0 229.85 609.06
  C 234.37 609.56 238.27 610.89 238.44 616.26
  Q 238.59 621.19 238.46 630.23
  C 238.39 634.87 237.53 637.46 233.24 639.03
  Q 225.57 641.84 217.50 639.71
  C 200.13 635.13 196.42 614.67 196.76 599.36
  C 197.15 581.52 206.21 561.46 227.64 565.29
  C 233.74 566.38 239.00 572.21 241.56 577.39
  Q 243.04 580.38 245.85 588.53
  A 0.90 0.89 80.3 0 0 246.69 589.13
  L 248.84 589.13
  A 0.93 0.93 0.0 0 0 249.77 588.20
  L 249.77 563.27
  A 1.32 1.32 0.0 0 0 248.50 561.95
  Q 245.77 561.84 244.83 562.98
  A 1.53 1.46 77.5 0 0 244.66 563.26
  L 243.49 565.92
  A 0.83 0.83 0.0 0 1 242.33 566.31
  C 238.67 564.33 234.62 562.04 230.54 561.25
  C 199.82 555.22 179.39 579.82 182.59 608.97
  C 184.97 630.60 200.74 645.46 222.75 645.30
  C 233.10 645.23 240.55 643.07 250.44 640.20
  A 0.98 0.97 82.2 0 0 251.15 639.26
  Q 251.15 627.19 251.37 615.19
  C 251.45 610.73 254.85 609.41 258.65 609.14
  A 1.51 1.50 -1.8 0 0 260.06 607.64
  L 260.06 607.02
  Z
  M 664.9429 561.0520
  A 7.62 7.25 -88.7 0 0 657.5219 568.5055
  A 7.62 7.25 -88.7 0 0 664.5971 576.2880
  A 7.62 7.25 -88.7 0 0 672.0181 568.8345
  A 7.62 7.25 -88.7 0 0 664.9429 561.0520
  Z
  M 753.5792 561.1014
  A 7.55 7.31 -84.0 0 0 745.5200 567.8459
  A 7.55 7.31 -84.0 0 0 752.0008 576.1186
  A 7.55 7.31 -84.0 0 0 760.0600 569.3741
  A 7.55 7.31 -84.0 0 0 753.5792 561.1014
  Z
  M 125.62 599.95
  Q 125.46 587.48 125.48 576.75
  C 125.49 572.19 125.60 568.10 130.06 566.05
  Q 130.74 565.74 133.82 565.46
  A 1.37 1.36 -2.5 0 0 135.07 564.10
  L 135.07 563.36
  A 1.11 1.11 0.0 0 0 133.96 562.25
  L 104.20 562.25
  A 1.15 1.14 -0.0 0 0 103.05 563.39
  L 103.05 563.85
  A 1.51 1.51 0.0 0 0 104.28 565.33
  C 110.28 566.43 113.32 567.98 113.21 574.77
  Q 112.87 595.56 113.21 628.28
  Q 113.26 632.72 112.40 635.94
  C 111.48 639.43 107.26 639.66 103.60 640.14
  A 1.28 1.28 0.0 0 0 102.49 641.41
  L 102.49 642.36
  A 1.12 1.12 0.0 0 0 103.61 643.48
  Q 114.66 643.42 132.98 643.42
  Q 133.94 643.42 134.18 643.32
  A 1.63 1.63 0.0 0 0 133.87 640.20
  C 130.83 639.64 127.39 639.47 126.36 636.50
  Q 125.55 634.13 125.56 631.00
  Q 125.61 614.26 125.48 606.27
  A 0.63 0.62 -81.5 0 1 126.30 605.66
  Q 128.34 606.32 129.98 608.18
  C 135.54 614.53 139.82 619.68 146.06 626.38
  Q 149.54 630.13 153.91 635.74
  A 2.01 2.00 65.3 0 1 152.73 638.94
  L 148.47 639.81
  A 1.81 1.80 -44.4 0 0 148.43 643.34
  Q 148.53 643.36 151.50 643.37
  Q 168.82 643.47 178.13 643.43
  A 1.14 1.14 0.0 0 0 179.27 642.29
  L 179.27 641.26
  A 1.22 1.22 0.0 0 0 178.21 640.05
  C 173.08 639.37 168.43 633.66 164.68 629.33
  C 160.30 624.29 157.11 620.07 152.32 615.00
  Q 145.98 608.28 137.24 597.57
  A 1.21 1.21 0.0 0 1 137.29 595.98
  Q 148.43 584.03 161.33 571.25
  C 165.01 567.60 168.61 566.76 172.77 565.64
  A 1.70 1.70 0.0 0 0 172.41 562.30
  Q 170.63 562.21 166.00 562.32
  Q 159.53 562.47 151.25 562.16
  Q 149.05 562.08 148.20 562.23
  A 1.59 1.59 0.0 0 0 148.15 565.35
  L 152.09 566.19
  A 1.11 1.10 -15.4 0 1 152.71 566.54
  C 155.57 569.72 152.53 573.06 150.13 575.63
  Q 137.82 588.75 126.35 600.25
  A 0.43 0.43 0.0 0 1 125.62 599.95
  Z
  M 326.67 562.22
  L 296.36 562.22
  A 0.88 0.87 90.0 0 0 295.49 563.10
  L 295.49 564.16
  A 1.00 0.99 8.8 0 0 296.19 565.11
  L 302.07 566.95
  A 3.79 3.78 -88.8 0 1 304.62 569.62
  Q 305.36 572.42 305.35 576.01
  Q 305.28 596.90 305.34 632.51
  C 305.35 642.55 295.59 637.94 294.75 641.88
  A 1.28 1.28 0.0 0 0 296.00 643.43
  L 326.62 643.43
  A 1.22 1.22 0.0 0 0 327.83 642.37
  Q 327.94 641.53 327.59 640.87
  C 327.02 639.84 322.25 639.77 320.63 638.66
  Q 318.02 636.87 317.98 633.23
  Q 317.69 608.88 317.84 573.26
  C 317.87 567.54 321.68 565.81 326.60 565.36
  A 1.16 1.15 -2.7 0 0 327.65 564.21
  L 327.65 563.21
  A 0.99 0.98 -90.0 0 0 326.67 562.22
  Z
  M 352.38 596.09
  L 352.38 589.35
  A 1.10 1.10 0.0 0 0 350.97 588.30
  Q 343.11 590.63 335.49 591.39
  A 1.36 1.34 85.9 0 0 334.29 592.79
  C 334.36 594.48 337.65 595.13 339.16 595.55
  A 2.12 2.12 0.0 0 1 340.27 596.30
  Q 341.55 597.96 341.57 601.02
  Q 341.67 616.25 341.58 634.50
  C 341.56 639.34 337.92 639.64 334.43 640.58
  A 1.48 1.44 -18.8 0 0 333.43 642.54
  Q 333.78 643.38 335.00 643.39
  Q 349.08 643.50 358.16 643.41
  A 1.29 1.29 0.0 0 0 359.41 641.88
  L 359.39 641.75
  A 2.15 2.14 -2.3 0 0 357.51 640.03
  C 355.14 639.77 352.64 638.67 352.56 635.94
  Q 352.49 633.49 352.50 608.04
  Q 352.50 603.67 353.70 601.56
  C 356.69 596.26 362.69 593.56 368.75 595.39
  C 372.54 596.54 373.60 602.09 373.62 605.52
  Q 373.69 619.62 373.60 632.30
  C 373.59 634.70 373.90 637.03 372.08 638.70
  A 2.33 2.30 -75.1 0 1 371.18 639.23
  L 366.89 640.64
  A 1.43 1.43 0.0 0 0 366.70 643.27
  Q 367.09 643.47 368.50 643.47
  Q 379.60 643.50 390.20 643.38
  A 1.18 1.18 0.0 0 0 391.34 641.96
  C 390.54 638.20 384.53 641.70 384.56 635.32
  Q 384.63 618.61 384.57 608.49
  Q 384.54 604.16 385.51 602.11
  C 388.00 596.86 393.79 594.01 399.65 595.19
  C 405.66 596.40 406.00 603.10 405.95 608.45
  Q 405.88 615.96 405.87 632.35
  C 405.87 638.49 405.18 638.86 399.50 640.40
  A 1.58 1.58 0.0 0 0 399.37 643.40
  Q 399.51 643.45 401.25 643.44
  Q 404.74 643.42 423.19 643.45
  A 1.50 1.49 51.8 0 0 423.54 640.50
  C 419.86 639.60 416.91 639.20 416.93 634.49
  Q 417.01 620.73 416.97 604.03
  C 416.96 595.84 412.89 588.19 403.68 587.97
  Q 391.95 587.70 384.38 597.36
  A 0.46 0.46 0.0 0 1 383.58 597.24
  Q 380.74 589.67 372.80 588.27
  C 364.94 586.88 358.61 590.31 353.18 596.39
  A 0.46 0.46 0.0 0 1 352.38 596.09
  Z
  M 448.38 596.17
  L 448.39 589.45
  A 1.09 1.09 0.0 0 0 446.98 588.41
  Q 439.15 590.72 431.56 591.48
  A 1.35 1.34 86.0 0 0 430.36 592.87
  C 430.43 594.55 433.71 595.20 435.21 595.62
  A 2.11 2.11 0.0 0 1 436.32 596.37
  Q 437.59 598.03 437.61 601.07
  Q 437.70 616.25 437.60 634.43
  C 437.58 639.26 433.95 639.55 430.47 640.49
  A 1.48 1.43 -18.8 0 0 429.47 642.44
  Q 429.82 643.28 431.04 643.29
  Q 445.07 643.41 454.11 643.32
  A 1.28 1.28 0.0 0 0 455.36 641.80
  L 455.34 641.67
  A 2.14 2.13 -2.3 0 0 453.47 639.95
  C 451.11 639.69 448.62 638.60 448.54 635.88
  Q 448.47 633.43 448.49 608.08
  Q 448.50 603.72 449.69 601.62
  C 452.68 596.34 458.66 593.65 464.69 595.48
  C 468.47 596.63 469.52 602.16 469.54 605.58
  Q 469.60 619.63 469.51 632.26
  C 469.49 634.65 469.80 636.97 467.99 638.64
  A 2.32 2.29 -75.1 0 1 467.09 639.16
  L 462.81 640.57
  A 1.42 1.42 0.0 0 0 462.62 643.19
  Q 463.01 643.39 464.42 643.39
  Q 475.48 643.42 486.04 643.31
  A 1.18 1.18 0.0 0 0 487.18 641.90
  C 486.38 638.15 480.39 641.63 480.42 635.28
  Q 480.50 618.63 480.45 608.54
  Q 480.42 604.23 481.39 602.19
  C 483.87 596.96 489.64 594.12 495.48 595.30
  C 501.47 596.51 501.81 603.18 501.75 608.51
  Q 501.68 616.00 501.66 632.33
  C 501.66 638.45 500.97 638.82 495.31 640.35
  A 1.57 1.57 0.0 0 0 495.18 643.34
  Q 495.32 643.39 497.05 643.38
  Q 500.53 643.36 518.91 643.40
  A 1.49 1.49 0.0 0 0 519.26 640.46
  C 515.59 639.56 512.66 639.16 512.68 634.47
  Q 512.77 620.76 512.74 604.12
  C 512.73 595.96 508.68 588.33 499.50 588.11
  Q 487.81 587.83 480.27 597.45
  A 0.46 0.46 0.0 0 1 479.47 597.33
  Q 476.64 589.79 468.73 588.39
  C 460.90 587.00 454.59 590.41 449.18 596.47
  A 0.46 0.45 -24.3 0 1 448.38 596.17
  Z
  M 527.63 614.59
  C 526.49 630.66 536.63 643.91 553.16 645.09
  C 569.69 646.27 581.61 634.59 582.75 618.51
  C 583.90 602.43 573.75 589.18 557.22 588.00
  C 540.69 586.83 528.78 598.51 527.63 614.59
  Z
  M 670.56 588.11
  C 666.80 588.64 663.20 590.21 659.40 590.72
  Q 659.01 590.77 652.27 591.71
  A 1.48 1.48 0.0 0 0 652.23 594.63
  L 656.95 595.40
  A 3.29 3.27 -4.6 0 1 659.53 597.58
  Q 660.07 599.15 660.12 601.12
  Q 660.42 611.72 660.15 633.95
  Q 660.08 639.81 652.74 640.12
  A 1.30 1.30 0.0 0 0 651.49 641.42
  L 651.49 642.27
  A 1.15 1.14 -0.0 0 0 652.64 643.41
  L 678.22 643.39
  A 1.12 1.12 0.0 0 0 679.34 642.27
  L 679.34 641.94
  A 1.72 1.71 -87.4 0 0 677.78 640.23
  Q 671.32 639.68 671.30 634.77
  Q 671.22 614.71 671.45 588.89
  A 0.79 0.78 -3.5 0 0 670.56 588.11
  Z
  M 689.79 644.12
  Q 691.56 644.55 692.75 643.85
  A 1.40 1.37 -6.8 0 0 693.37 643.08
  Q 693.83 641.66 694.54 641.24
  A 1.00 1.00 0.0 0 1 695.51 641.22
  Q 707.45 647.58 718.30 643.81
  C 729.21 640.02 734.21 628.31 727.41 618.50
  A 3.71 3.51 89.5 0 0 726.60 617.66
  C 720.96 613.44 714.79 611.20 707.26 608.74
  Q 704.14 607.73 702.39 605.94
  C 697.96 601.41 699.93 593.62 706.39 592.43
  Q 716.11 590.65 721.22 599.30
  Q 721.89 600.43 724.24 605.67
  A 1.40 1.38 0.8 0 0 724.92 606.36
  Q 726.04 606.88 727.05 606.28
  A 0.72 0.69 -16.3 0 0 727.40 605.68
  L 727.40 590.17
  A 1.63 1.63 0.0 0 0 724.78 588.88
  Q 723.65 589.75 723.14 590.75
  A 1.18 1.17 27.9 0 1 721.52 591.24
  C 712.14 586.03 697.38 586.48 691.65 596.90
  Q 689.07 601.60 690.03 607.30
  C 691.84 618.14 704.35 619.62 712.74 623.38
  C 717.84 625.66 720.99 627.44 719.98 633.50
  C 719.14 638.47 715.65 640.91 710.59 641.13
  C 701.30 641.53 695.61 634.23 692.95 626.12
  A 1.24 1.22 -88.7 0 0 692.22 625.34
  Q 691.15 624.91 689.86 625.11
  A 0.70 0.68 86.2 0 0 689.27 625.80
  L 689.27 643.45
  A 0.69 0.69 0.0 0 0 689.79 644.12
  Z
  M 806.4215 587.8331
  A 28.81 27.79 -83.9 0 0 775.7273 613.5269
  A 28.81 27.79 -83.9 0 0 800.2985 645.1269
  A 28.81 27.79 -83.9 0 0 830.9927 619.4331
  A 28.81 27.79 -83.9 0 0 806.4215 587.8331
  Z
  M 858.38 597.02
  L 858.38 589.14
  A 0.89 0.89 0.0 0 0 857.27 588.28
  Q 847.46 590.80 841.59 591.13
  A 1.70 1.70 0.0 0 0 841.33 594.49
  C 845.34 595.36 847.60 595.51 847.66 600.40
  Q 847.88 615.98 847.59 635.01
  Q 847.55 637.71 845.50 639.30
  A 1.06 0.96 -68.2 0 1 845.13 639.48
  L 840.57 640.50
  A 1.25 1.24 -6.4 0 0 839.60 641.71
  L 839.60 642.04
  A 1.35 1.35 0.0 0 0 840.95 643.39
  L 864.27 643.39
  A 1.53 1.53 0.0 0 0 864.53 640.36
  C 861.13 639.76 858.57 638.83 858.57 634.83
  Q 858.57 618.60 858.61 605.27
  A 3.01 2.95 -32.8 0 1 858.90 603.99
  Q 863.31 594.45 873.03 594.91
  C 877.35 595.12 879.88 596.90 880.88 600.90
  Q 881.68 604.08 881.68 605.02
  Q 881.71 610.56 881.66 634.51
  C 881.65 639.17 878.36 639.77 875.03 640.56
  A 0.89 0.89 0.0 0 0 874.47 640.98
  Q 873.81 642.10 874.75 643.09
  A 0.88 0.84 67.7 0 0 875.38 643.37
  L 898.79 643.37
  A 1.26 1.25 90.0 0 0 900.04 642.11
  L 900.04 641.65
  A 1.33 1.32 2.1 0 0 898.81 640.33
  Q 892.78 639.90 892.86 633.44
  Q 893.02 620.80 892.85 605.25
  C 892.73 593.89 887.36 587.84 875.72 588.07
  C 869.64 588.19 862.71 592.58 859.20 597.29
  A 0.46 0.45 -26.7 0 1 858.38 597.02
  Z
  M 759.37 589.05
  A 0.81 0.80 83.7 0 0 758.39 588.26
  Q 749.46 590.24 741.15 591.59
  A 1.63 1.54 78.4 0 0 739.92 593.58
  Q 739.99 593.87 740.24 594.12
  Q 740.50 594.38 740.79 594.44
  Q 744.39 595.21 745.31 595.49
  A 3.85 3.84 88.9 0 1 747.83 597.92
  Q 748.39 599.55 748.39 602.76
  Q 748.38 632.50 748.38 632.89
  C 748.39 638.36 746.01 640.19 740.75 640.45
  A 1.12 1.11 88.7 0 0 739.69 641.57
  L 739.69 642.22
  A 1.23 1.23 0.0 0 0 740.94 643.45
  Q 753.49 643.31 765.97 643.49
  Q 766.77 643.50 767.03 642.86
  A 1.99 1.74 -72.2 0 0 765.90 640.25
  Q 762.84 639.57 761.13 638.75
  A 3.09 3.07 12.8 0 1 759.37 635.97
  L 759.37 589.05
  Z
  M 621.44 629.23
  A 0.41 0.41 0.0 0 1 620.72 629.15
  Q 615.37 615.93 609.52 602.72
  Q 608.28 599.91 607.76 596.72
  A 1.87 1.86 -15.3 0 1 608.92 594.69
  L 613.29 593.01
  A 1.55 1.55 0.0 0 0 612.73 590.01
  L 589.28 590.01
  A 1.03 1.02 90.0 0 0 588.26 591.04
  L 588.26 591.98
  A 1.28 1.27 -87.0 0 0 589.40 593.25
  Q 593.80 593.73 595.48 597.56
  Q 613.95 639.94 615.26 642.98
  Q 615.95 644.62 617.44 644.85
  A 2.42 2.41 -73.3 0 0 620.03 643.45
  Q 629.05 623.23 639.08 599.66
  Q 641.41 594.19 647.07 593.69
  A 1.22 1.21 87.4 0 0 648.17 592.48
  L 648.17 591.26
  A 1.17 1.17 0.0 0 0 647.00 590.09
  L 629.56 590.09
  A 1.54 1.54 0.0 0 0 629.00 593.06
  L 632.42 594.39
  A 1.64 1.60 -7.9 0 1 633.10 594.89
  Q 634.70 596.91 633.81 599.29
  Q 629.29 611.30 622.80 626.80
  Q 622.34 627.89 621.44 629.23
  Z
  M 534.22 706.96
  A 0.90 0.90 0.0 0 0 535.23 707.92
  C 539.75 707.35 539.56 710.39 539.69 714.04
  Q 539.76 716.29 539.43 719.58
  A 2.27 2.25 85.0 0 1 537.81 721.52
  Q 533.76 722.70 529.83 722.12
  C 524.76 721.38 521.03 715.30 520.18 710.41
  Q 519.78 708.14 519.82 703.07
  C 519.87 694.84 522.94 686.88 532.29 686.44
  C 539.29 686.12 541.91 691.58 543.31 697.38
  A 1.12 1.12 0.0 0 0 545.33 697.73
  Q 545.37 697.67 545.42 696.97
  Q 545.53 695.30 545.32 686.48
  A 0.83 0.83 0.0 0 0 544.14 685.75
  Q 543.07 686.25 542.56 686.98
  A 0.62 0.61 31.2 0 1 541.76 687.17
  Q 532.94 682.52 524.34 685.69
  Q 518.78 687.74 515.12 694.20
  C 513.53 697.00 512.94 701.03 512.75 703.50
  Q 511.91 714.62 520.65 721.36
  C 527.03 726.28 538.24 725.14 545.28 722.35
  A 0.77 0.77 0.0 0 0 545.77 721.63
  L 545.77 710.39
  A 1.72 1.71 -8.5 0 1 546.99 708.75
  L 550.02 707.86
  A 0.71 0.71 0.0 0 0 550.18 706.57
  Q 549.37 706.10 548.56 706.11
  Q 541.81 706.17 535.38 705.85
  A 1.10 1.10 0.0 0 0 534.22 706.87
  L 534.22 706.96
  Z
  M 476.51 720.33
  L 479.55 710.58
  A 0.87 0.86 -81.2 0 1 480.37 709.97
  L 491.87 709.97
  A 1.39 1.38 81.9 0 1 493.20 710.97
  L 495.94 720.21
  A 0.81 0.81 0.0 0 1 495.39 721.22
  L 492.52 722.07
  A 0.86 0.86 0.0 0 0 492.77 723.76
  L 506.22 723.76
  A 0.85 0.84 58.5 0 0 506.60 722.16
  L 503.77 720.72
  A 1.48 1.46 3.5 0 1 503.06 719.93
  L 489.99 686.11
  A 1.36 1.36 0.0 0 0 487.54 685.94
  Q 484.33 691.72 481.75 698.97
  Q 480.46 702.60 473.74 720.11
  A 1.26 1.24 3.1 0 1 472.87 720.88
  Q 470.82 721.37 470.07 721.72
  A 1.27 1.15 -35.1 0 0 469.62 723.68
  Q 469.79 723.84 470.26 723.83
  Q 474.92 723.81 480.43 723.49
  A 0.53 0.53 0.0 0 0 480.91 722.81
  L 480.80 722.45
  A 0.72 0.72 0.0 0 0 480.22 721.94
  L 477.20 721.44
  A 0.87 0.87 0.0 0 1 476.51 720.33
  Z
  M 332.92 708.34
  Q 332.92 708.68 333.40 708.69
  Q 382.27 709.53 440.91 711.97
  A 0.69 0.69 0.0 0 0 441.63 711.28
  Q 441.63 709.72 441.63 708.54
  Q 441.63 707.36 441.64 705.80
  A 0.69 0.69 0.0 0 0 440.92 705.11
  Q 382.27 707.33 333.40 707.98
  Q 332.92 707.99 332.92 708.34
  Z
  M 689.23 708.43
  Q 689.23 708.09 688.77 708.08
  Q 640.76 707.35 583.15 705.06
  A 0.68 0.68 0.0 0 0 582.44 705.74
  Q 582.44 707.27 582.44 708.43
  Q 582.45 709.60 582.44 711.13
  A 0.68 0.68 0.0 0 0 583.15 711.80
  Q 640.76 709.51 688.77 708.78
  Q 689.23 708.77 689.23 708.43
  Z"
/>
<path fill="#fefcfc" d="
  M 558.16 364.11
  L 571.64 374.23
  L 604.07 399.34
  Q 628.27 418.67 653.34 438.41
  Q 654.78 439.54 656.46 440.24
  Q 656.86 440.65 656.86 441.00
  Q 656.69 448.76 656.62 456.00
  A 0.36 0.36 0.0 0 1 656.17 456.34
  Q 627.10 448.82 601.31 432.22
  Q 587.58 423.38 573.62 411.94
  Q 568.77 407.97 556.86 397.63
  Q 521.05 366.53 486.52 336.15
  Q 487.95 323.21 486.58 310.53
  Q 487.63 308.82 490.99 311.63
  Q 492.41 312.82 492.49 312.89
  Q 525.34 339.02 558.16 364.11
  Z"
/>
<path fill="#f99f2c" d="
  M 486.58 310.53
  Q 487.95 323.21 486.52 336.15
  Q 484.31 334.11 482.60 333.54
  A 0.70 0.70 0.0 0 0 481.68 334.21
  L 481.68 428.09
  A 1.15 1.15 0.0 0 1 480.63 429.24
  L 470.43 430.20
  A 0.56 0.54 -2.9 0 1 469.82 429.66
  L 469.82 341.32
  A 0.71 0.71 0.0 0 0 468.71 340.73
  L 412.05 379.05
  A 2.62 2.60 -17.2 0 0 410.90 381.21
  L 410.90 436.18
  A 0.92 0.91 -5.3 0 1 410.15 437.08
  L 399.91 439.05
  A 0.28 0.28 0.0 0 1 399.57 438.78
  L 399.57 372.27
  A 1.61 1.59 -17.7 0 1 400.26 370.96
  L 486.58 310.53
  Z"
/>
<path fill="#f99f2c" d="
  M 656.46 440.24
  Q 654.78 439.54 653.34 438.41
  Q 628.27 418.67 604.07 399.34
  L 604.01 364.82
  A 0.23 0.23 0.0 0 0 603.71 364.60
  L 571.64 374.23
  L 558.16 364.11
  L 604.15 348.97
  A 2.24 2.22 52.9 0 1 606.10 349.25
  L 626.80 363.41
  A 1.54 1.54 0.0 0 1 627.47 364.68
  L 627.47 379.26
  A 1.05 1.04 -72.8 0 0 627.92 380.12
  L 655.90 399.26
  A 2.06 2.06 0.0 0 1 656.80 400.98
  L 656.46 440.24
  Z"
/>
<path fill="#023658" d="
  M 604.07 399.34
  L 571.64 374.23
  L 603.71 364.60
  A 0.23 0.23 0.0 0 1 604.01 364.82
  L 604.07 399.34
  Z"
/>
<path fill="#f99f2c" d="
  M 784.63 503.12
  C 782.09 502.93 778.79 503.13 776.19 502.81
  Q 733.76 497.70 714.89 494.13
  Q 657.40 483.26 616.31 476.19
  C 542.26 463.46 466.04 459.68 391.74 471.99
  C 361.31 477.03 331.75 483.62 305.65 489.86
  Q 271.30 498.06 235.18 502.85
  Q 232.75 503.17 229.64 503.13
  Q 246.93 499.43 262.77 494.03
  Q 293.03 483.70 318.95 475.22
  Q 359.57 461.94 398.76 454.54
  Q 408.45 452.71 429.56 450.13
  C 467.65 445.47 506.45 445.48 544.33 449.46
  Q 573.83 452.56 592.06 455.97
  Q 618.02 460.82 633.47 464.07
  C 652.22 468.00 670.71 472.83 691.21 478.29
  Q 710.29 483.37 715.30 484.82
  C 737.08 491.15 750.69 495.01 768.46 499.56
  C 773.04 500.74 779.36 501.52 784.63 503.12
  Z"
/>
<path fill="#f99f2c" d="
  M 176.43 505.35
  Q 190.51 508.11 205.74 508.09
  Q 254.04 508.05 300.81 499.74
  Q 321.17 496.13 327.57 494.83
  A 0.03 0.03 0.0 0 1 327.60 494.88
  Q 327.58 494.89 327.55 494.89
  Q 327.46 494.89 327.45 494.89
  Q 322.72 496.26 313.49 498.19
  C 293.58 502.34 271.21 507.20 250.19 509.65
  C 236.06 511.29 223.37 512.27 209.58 511.11
  Q 199.87 510.30 185.06 507.67
  Q 178.68 506.53 176.35 505.62
  A 0.14 0.14 0.0 0 1 176.43 505.35
  Z"
/>
<path fill="#f99f2c" d="
  M 844.72 505.85
  Q 844.01 506.15 842.29 506.51
  Q 827.83 509.52 813.00 510.99
  Q 800.07 512.27 783.50 511.32
  C 768.85 510.48 754.35 508.96 739.93 506.30
  C 733.89 505.19 727.67 504.48 721.05 503.14
  Q 707.14 500.32 690.89 497.12
  A 0.21 0.20 12.8 0 1 691.12 496.98
  Q 710.68 500.42 724.84 502.58
  Q 743.27 505.39 776.83 507.62
  Q 780.71 507.87 792.04 507.87
  C 801.80 507.87 812.37 508.68 822.22 507.95
  Q 834.78 507.02 837.13 506.65
  Q 844.65 505.46 844.69 505.47
  A 0.20 0.20 0.0 0 1 844.72 505.85
  Z"
/>
<path fill="#fefcfc" d="
  M 260.06 607.02
  L 260.06 607.64
  A 1.51 1.50 -1.8 0 1 258.65 609.14
  C 254.85 609.41 251.45 610.73 251.37 615.19
  Q 251.15 627.19 251.15 639.26
  A 0.98 0.97 82.2 0 1 250.44 640.20
  C 240.55 643.07 233.10 645.23 222.75 645.30
  C 200.74 645.46 184.97 630.60 182.59 608.97
  C 179.39 579.82 199.82 555.22 230.54 561.25
  C 234.62 562.04 238.67 564.33 242.33 566.31
  A 0.83 0.83 0.0 0 0 243.49 565.92
  L 244.66 563.26
  A 1.53 1.46 77.5 0 1 244.83 562.98
  Q 245.77 561.84 248.50 561.95
  A 1.32 1.32 0.0 0 1 249.77 563.27
  L 249.77 588.20
  A 0.93 0.93 0.0 0 1 248.84 589.13
  L 246.69 589.13
  A 0.90 0.89 80.3 0 1 245.85 588.53
  Q 243.04 580.38 241.56 577.39
  C 239.00 572.21 233.74 566.38 227.64 565.29
  C 206.21 561.46 197.15 581.52 196.76 599.36
  C 196.42 614.67 200.13 635.13 217.50 639.71
  Q 225.57 641.84 233.24 639.03
  C 237.53 637.46 238.39 634.87 238.46 630.23
  Q 238.59 621.19 238.44 616.26
  C 238.27 610.89 234.37 609.56 229.85 609.06
  A 1.47 1.46 3.3 0 1 228.55 607.61
  L 228.55 607.13
  A 1.62 1.62 0.0 0 1 230.17 605.51
  L 258.54 605.51
  A 1.52 1.51 0.0 0 1 260.06 607.02
  Z"
/>
<ellipse fill="#fefcfc" cx="0.00" cy="0.00" transform="translate(664.77,568.67) rotate(-88.7)" rx="7.62" ry="7.25"/>
<ellipse fill="#fefcfc" cx="0.00" cy="0.00" transform="translate(752.79,568.61) rotate(-84.0)" rx="7.55" ry="7.31"/>
<path fill="#fefcfc" d="
  M 125.62 599.95
  A 0.43 0.43 0.0 0 0 126.35 600.25
  Q 137.82 588.75 150.13 575.63
  C 152.53 573.06 155.57 569.72 152.71 566.54
  A 1.11 1.10 -15.4 0 0 152.09 566.19
  L 148.15 565.35
  A 1.59 1.59 0.0 0 1 148.20 562.23
  Q 149.05 562.08 151.25 562.16
  Q 159.53 562.47 166.00 562.32
  Q 170.63 562.21 172.41 562.30
  A 1.70 1.70 0.0 0 1 172.77 565.64
  C 168.61 566.76 165.01 567.60 161.33 571.25
  Q 148.43 584.03 137.29 595.98
  A 1.21 1.21 0.0 0 0 137.24 597.57
  Q 145.98 608.28 152.32 615.00
  C 157.11 620.07 160.30 624.29 164.68 629.33
  C 168.43 633.66 173.08 639.37 178.21 640.05
  A 1.22 1.22 0.0 0 1 179.27 641.26
  L 179.27 642.29
  A 1.14 1.14 0.0 0 1 178.13 643.43
  Q 168.82 643.47 151.50 643.37
  Q 148.53 643.36 148.43 643.34
  A 1.81 1.80 -44.4 0 1 148.47 639.81
  L 152.73 638.94
  A 2.01 2.00 65.3 0 0 153.91 635.74
  Q 149.54 630.13 146.06 626.38
  C 139.82 619.68 135.54 614.53 129.98 608.18
  Q 128.34 606.32 126.30 605.66
  A 0.63 0.62 -81.5 0 0 125.48 606.27
  Q 125.61 614.26 125.56 631.00
  Q 125.55 634.13 126.36 636.50
  C 127.39 639.47 130.83 639.64 133.87 640.20
  A 1.63 1.63 0.0 0 1 134.18 643.32
  Q 133.94 643.42 132.98 643.42
  Q 114.66 643.42 103.61 643.48
  A 1.12 1.12 0.0 0 1 102.49 642.36
  L 102.49 641.41
  A 1.28 1.28 0.0 0 1 103.60 640.14
  C 107.26 639.66 111.48 639.43 112.40 635.94
  Q 113.26 632.72 113.21 628.28
  Q 112.87 595.56 113.21 574.77
  C 113.32 567.98 110.28 566.43 104.28 565.33
  A 1.51 1.51 0.0 0 1 103.05 563.85
  L 103.05 563.39
  A 1.15 1.14 0.0 0 1 104.20 562.25
  L 133.96 562.25
  A 1.11 1.11 0.0 0 1 135.07 563.36
  L 135.07 564.10
  A 1.37 1.36 -2.5 0 1 133.82 565.46
  Q 130.74 565.74 130.06 566.05
  C 125.60 568.10 125.49 572.19 125.48 576.75
  Q 125.46 587.48 125.62 599.95
  Z"
/>
<path fill="#fefcfc" d="
  M 326.67 562.22
  A 0.99 0.98 90.0 0 1 327.65 563.21
  L 327.65 564.21
  A 1.16 1.15 -2.7 0 1 326.60 565.36
  C 321.68 565.81 317.87 567.54 317.84 573.26
  Q 317.69 608.88 317.98 633.23
  Q 318.02 636.87 320.63 638.66
  C 322.25 639.77 327.02 639.84 327.59 640.87
  Q 327.94 641.53 327.83 642.37
  A 1.22 1.22 0.0 0 1 326.62 643.43
  L 296.00 643.43
  A 1.28 1.28 0.0 0 1 294.75 641.88
  C 295.59 637.94 305.35 642.55 305.34 632.51
  Q 305.28 596.90 305.35 576.01
  Q 305.36 572.42 304.62 569.62
  A 3.79 3.78 -88.8 0 0 302.07 566.95
  L 296.19 565.11
  A 1.00 0.99 8.8 0 1 295.49 564.16
  L 295.49 563.10
  A 0.88 0.87 -90.0 0 1 296.36 562.22
  L 326.67 562.22
  Z"
/>
<path fill="#fefcfc" d="
  M 352.38 596.09
  A 0.46 0.46 0.0 0 0 353.18 596.39
  C 358.61 590.31 364.94 586.88 372.80 588.27
  Q 380.74 589.67 383.58 597.24
  A 0.46 0.46 0.0 0 0 384.38 597.36
  Q 391.95 587.70 403.68 587.97
  C 412.89 588.19 416.96 595.84 416.97 604.03
  Q 417.01 620.73 416.93 634.49
  C 416.91 639.20 419.86 639.60 423.54 640.50
  A 1.50 1.49 51.8 0 1 423.19 643.45
  Q 404.74 643.42 401.25 643.44
  Q 399.51 643.45 399.37 643.40
  A 1.58 1.58 0.0 0 1 399.50 640.40
  C 405.18 638.86 405.87 638.49 405.87 632.35
  Q 405.88 615.96 405.95 608.45
  C 406.00 603.10 405.66 596.40 399.65 595.19
  C 393.79 594.01 388.00 596.86 385.51 602.11
  Q 384.54 604.16 384.57 608.49
  Q 384.63 618.61 384.56 635.32
  C 384.53 641.70 390.54 638.20 391.34 641.96
  A 1.18 1.18 0.0 0 1 390.20 643.38
  Q 379.60 643.50 368.50 643.47
  Q 367.09 643.47 366.70 643.27
  A 1.43 1.43 0.0 0 1 366.89 640.64
  L 371.18 639.23
  A 2.33 2.30 -75.1 0 0 372.08 638.70
  C 373.90 637.03 373.59 634.70 373.60 632.30
  Q 373.69 619.62 373.62 605.52
  C 373.60 602.09 372.54 596.54 368.75 595.39
  C 362.69 593.56 356.69 596.26 353.70 601.56
  Q 352.50 603.67 352.50 608.04
  Q 352.49 633.49 352.56 635.94
  C 352.64 638.67 355.14 639.77 357.51 640.03
  A 2.15 2.14 -2.3 0 1 359.39 641.75
  L 359.41 641.88
  A 1.29 1.29 0.0 0 1 358.16 643.41
  Q 349.08 643.50 335.00 643.39
  Q 333.78 643.38 333.43 642.54
  A 1.48 1.44 -18.8 0 1 334.43 640.58
  C 337.92 639.64 341.56 639.34 341.58 634.50
  Q 341.67 616.25 341.57 601.02
  Q 341.55 597.96 340.27 596.30
  A 2.12 2.12 0.0 0 0 339.16 595.55
  C 337.65 595.13 334.36 594.48 334.29 592.79
  A 1.36 1.34 85.9 0 1 335.49 591.39
  Q 343.11 590.63 350.97 588.30
  A 1.10 1.10 0.0 0 1 352.38 589.35
  L 352.38 596.09
  Z"
/>
<path fill="#fefcfc" d="
  M 448.38 596.17
  A 0.46 0.45 -24.3 0 0 449.18 596.47
  C 454.59 590.41 460.90 587.00 468.73 588.39
  Q 476.64 589.79 479.47 597.33
  A 0.46 0.46 0.0 0 0 480.27 597.45
  Q 487.81 587.83 499.50 588.11
  C 508.68 588.33 512.73 595.96 512.74 604.12
  Q 512.77 620.76 512.68 634.47
  C 512.66 639.16 515.59 639.56 519.26 640.46
  A 1.49 1.49 0.0 0 1 518.91 643.40
  Q 500.53 643.36 497.05 643.38
  Q 495.32 643.39 495.18 643.34
  A 1.57 1.57 0.0 0 1 495.31 640.35
  C 500.97 638.82 501.66 638.45 501.66 632.33
  Q 501.68 616.00 501.75 608.51
  C 501.81 603.18 501.47 596.51 495.48 595.30
  C 489.64 594.12 483.87 596.96 481.39 602.19
  Q 480.42 604.23 480.45 608.54
  Q 480.50 618.63 480.42 635.28
  C 480.39 641.63 486.38 638.15 487.18 641.90
  A 1.18 1.18 0.0 0 1 486.04 643.31
  Q 475.48 643.42 464.42 643.39
  Q 463.01 643.39 462.62 643.19
  A 1.42 1.42 0.0 0 1 462.81 640.57
  L 467.09 639.16
  A 2.32 2.29 -75.1 0 0 467.99 638.64
  C 469.80 636.97 469.49 634.65 469.51 632.26
  Q 469.60 619.63 469.54 605.58
  C 469.52 602.16 468.47 596.63 464.69 595.48
  C 458.66 593.65 452.68 596.34 449.69 601.62
  Q 448.50 603.72 448.49 608.08
  Q 448.47 633.43 448.54 635.88
  C 448.62 638.60 451.11 639.69 453.47 639.95
  A 2.14 2.13 -2.3 0 1 455.34 641.67
  L 455.36 641.80
  A 1.28 1.28 0.0 0 1 454.11 643.32
  Q 445.07 643.41 431.04 643.29
  Q 429.82 643.28 429.47 642.44
  A 1.48 1.43 -18.8 0 1 430.47 640.49
  C 433.95 639.55 437.58 639.26 437.60 634.43
  Q 437.70 616.25 437.61 601.07
  Q 437.59 598.03 436.32 596.37
  A 2.11 2.11 0.0 0 0 435.21 595.62
  C 433.71 595.20 430.43 594.55 430.36 592.87
  A 1.35 1.34 86.0 0 1 431.56 591.48
  Q 439.15 590.72 446.98 588.41
  A 1.09 1.09 0.0 0 1 448.39 589.45
  L 448.38 596.17
  Z"
/>
<path fill="#fefcfc" d="
  M 557.22 588.00
  C 573.75 589.18 583.90 602.43 582.75 618.51
  C 581.61 634.59 569.69 646.27 553.16 645.09
  C 536.63 643.91 526.49 630.66 527.63 614.59
  C 528.78 598.51 540.69 586.83 557.22 588.00
  Z
  M 540.47 616.44
  C 540.43 625.82 542.43 640.87 555.09 640.92
  C 567.75 640.97 569.86 625.93 569.90 616.56
  C 569.93 607.18 567.94 592.13 555.27 592.08
  C 542.62 592.04 540.50 607.07 540.47 616.44
  Z"
/>
<path fill="#fefcfc" d="
  M 670.56 588.11
  A 0.79 0.78 -3.5 0 1 671.45 588.89
  Q 671.22 614.71 671.30 634.77
  Q 671.32 639.68 677.78 640.23
  A 1.72 1.71 -87.4 0 1 679.34 641.94
  L 679.34 642.27
  A 1.12 1.12 0.0 0 1 678.22 643.39
  L 652.64 643.41
  A 1.15 1.14 -0.0 0 1 651.49 642.27
  L 651.49 641.42
  A 1.30 1.30 0.0 0 1 652.74 640.12
  Q 660.08 639.81 660.15 633.95
  Q 660.42 611.72 660.12 601.12
  Q 660.07 599.15 659.53 597.58
  A 3.29 3.27 -4.6 0 0 656.95 595.40
  L 652.23 594.63
  A 1.48 1.48 0.0 0 1 652.27 591.71
  Q 659.01 590.77 659.40 590.72
  C 663.20 590.21 666.80 588.64 670.56 588.11
  Z"
/>
<path fill="#fefcfc" d="
  M 689.27 643.45
  L 689.27 625.80
  A 0.70 0.68 86.2 0 1 689.86 625.11
  Q 691.15 624.91 692.22 625.34
  A 1.24 1.22 -88.7 0 1 692.95 626.12
  C 695.61 634.23 701.30 641.53 710.59 641.13
  C 715.65 640.91 719.14 638.47 719.98 633.50
  C 720.99 627.44 717.84 625.66 712.74 623.38
  C 704.35 619.62 691.84 618.14 690.03 607.30
  Q 689.07 601.60 691.65 596.90
  C 697.38 586.48 712.14 586.03 721.52 591.24
  A 1.18 1.17 27.9 0 0 723.14 590.75
  Q 723.65 589.75 724.78 588.88
  A 1.63 1.63 0.0 0 1 727.40 590.17
  L 727.40 605.68
  A 0.72 0.69 -16.3 0 1 727.05 606.28
  Q 726.04 606.88 724.92 606.36
  A 1.40 1.38 0.8 0 1 724.24 605.67
  Q 721.89 600.43 721.22 599.30
  Q 716.11 590.65 706.39 592.43
  C 699.93 593.62 697.96 601.41 702.39 605.94
  Q 704.14 607.73 707.26 608.74
  C 714.79 611.20 720.96 613.44 726.60 617.66
  A 3.71 3.51 89.5 0 1 727.41 618.50
  C 734.21 628.31 729.21 640.02 718.30 643.81
  Q 707.45 647.58 695.51 641.22
  A 1.00 1.00 0.0 0 0 694.54 641.24
  Q 693.83 641.66 693.37 643.08
  A 1.40 1.37 -6.8 0 1 692.75 643.85
  Q 691.56 644.55 689.79 644.12
  A 0.69 0.69 0.0 0 1 689.27 643.45
  Z"
/>
<path fill="#fefcfc" d="
  M 806.4215 587.8331
  A 28.81 27.79 -83.9 0 1 830.9927 619.4331
  A 28.81 27.79 -83.9 0 1 800.2985 645.1269
  A 28.81 27.79 -83.9 0 1 775.7273 613.5269
  A 28.81 27.79 -83.9 0 1 806.4215 587.8331
  Z
  M 788.65 616.54
  C 788.67 625.92 790.77 640.98 803.44 640.94
  C 816.12 640.91 818.13 625.85 818.11 616.46
  C 818.08 607.07 815.99 592.02 803.31 592.05
  C 790.64 592.09 788.62 607.15 788.65 616.54
  Z"
/>
<path fill="#fefcfc" d="
  M 858.38 597.02
  A 0.46 0.45 -26.7 0 0 859.20 597.29
  C 862.71 592.58 869.64 588.19 875.72 588.07
  C 887.36 587.84 892.73 593.89 892.85 605.25
  Q 893.02 620.80 892.86 633.44
  Q 892.78 639.90 898.81 640.33
  A 1.33 1.32 2.1 0 1 900.04 641.65
  L 900.04 642.11
  A 1.26 1.25 -90.0 0 1 898.79 643.37
  L 875.38 643.37
  A 0.88 0.84 67.7 0 1 874.75 643.09
  Q 873.81 642.10 874.47 640.98
  A 0.89 0.89 0.0 0 1 875.03 640.56
  C 878.36 639.77 881.65 639.17 881.66 634.51
  Q 881.71 610.56 881.68 605.02
  Q 881.68 604.08 880.88 600.90
  C 879.88 596.90 877.35 595.12 873.03 594.91
  Q 863.31 594.45 858.90 603.99
  A 3.01 2.95 -32.8 0 0 858.61 605.27
  Q 858.57 618.60 858.57 634.83
  C 858.57 638.83 861.13 639.76 864.53 640.36
  A 1.53 1.53 0.0 0 1 864.27 643.39
  L 840.95 643.39
  A 1.35 1.35 0.0 0 1 839.60 642.04
  L 839.60 641.71
  A 1.25 1.24 -6.4 0 1 840.57 640.50
  L 845.13 639.48
  A 1.06 0.96 -68.2 0 0 845.50 639.30
  Q 847.55 637.71 847.59 635.01
  Q 847.88 615.98 847.66 600.40
  C 847.60 595.51 845.34 595.36 841.33 594.49
  A 1.70 1.70 0.0 0 1 841.59 591.13
  Q 847.46 590.80 857.27 588.28
  A 0.89 0.89 0.0 0 1 858.38 589.14
  L 858.38 597.02
  Z"
/>
<path fill="#fefcfc" d="
  M 759.37 589.05
  L 759.37 635.97
  A 3.09 3.07 12.8 0 0 761.13 638.75
  Q 762.84 639.57 765.90 640.25
  A 1.99 1.74 -72.2 0 1 767.03 642.86
  Q 766.77 643.50 765.97 643.49
  Q 753.49 643.31 740.94 643.45
  A 1.23 1.23 0.0 0 1 739.69 642.22
  L 739.69 641.57
  A 1.12 1.11 88.7 0 1 740.75 640.45
  C 746.01 640.19 748.39 638.36 748.38 632.89
  Q 748.38 632.50 748.39 602.76
  Q 748.39 599.55 747.83 597.92
  A 3.85 3.84 88.9 0 0 745.31 595.49
  Q 744.39 595.21 740.79 594.44
  Q 740.50 594.38 740.24 594.12
  Q 739.99 593.87 739.92 593.58
  A 1.63 1.54 78.4 0 1 741.15 591.59
  Q 749.46 590.24 758.39 588.26
  A 0.81 0.80 83.7 0 1 759.37 589.05
  Z"
/>
<path fill="#fefcfc" d="
  M 621.44 629.23
  Q 622.34 627.89 622.80 626.80
  Q 629.29 611.30 633.81 599.29
  Q 634.70 596.91 633.10 594.89
  A 1.64 1.60 -7.9 0 0 632.42 594.39
  L 629.00 593.06
  A 1.54 1.54 0.0 0 1 629.56 590.09
  L 647.00 590.09
  A 1.17 1.17 0.0 0 1 648.17 591.26
  L 648.17 592.48
  A 1.22 1.21 87.4 0 1 647.07 593.69
  Q 641.41 594.19 639.08 599.66
  Q 629.05 623.23 620.03 643.45
  A 2.42 2.41 -73.3 0 1 617.44 644.85
  Q 615.95 644.62 615.26 642.98
  Q 613.95 639.94 595.48 597.56
  Q 593.80 593.73 589.40 593.25
  A 1.28 1.27 -87.0 0 1 588.26 591.98
  L 588.26 591.04
  A 1.03 1.02 -90.0 0 1 589.28 590.01
  L 612.73 590.01
  A 1.55 1.55 0.0 0 1 613.29 593.01
  L 608.92 594.69
  A 1.87 1.86 -15.3 0 0 607.76 596.72
  Q 608.28 599.91 609.52 602.72
  Q 615.37 615.93 620.72 629.15
  A 0.41 0.41 0.0 0 0 621.44 629.23
  Z"
/>
<path fill="#023658" d="
  M 540.47 616.44
  C 540.50 607.07 542.62 592.04 555.27 592.08
  C 567.94 592.13 569.93 607.18 569.90 616.56
  C 569.86 625.93 567.75 640.97 555.09 640.92
  C 542.43 640.87 540.43 625.82 540.47 616.44
  Z"
/>
<path fill="#023658" d="
  M 803.31 592.05
  C 815.99 592.02 818.08 607.07 818.11 616.46
  C 818.13 625.85 816.12 640.91 803.44 640.94
  C 790.77 640.98 788.67 625.92 788.65 616.54
  C 788.62 607.15 790.64 592.09 803.31 592.05
  Z"
/>
<path fill="#f99f2c" d="
  M 534.22 706.96
  L 534.22 706.87
  A 1.10 1.10 0.0 0 1 535.38 705.85
  Q 541.81 706.17 548.56 706.11
  Q 549.37 706.10 550.18 706.57
  A 0.71 0.71 0.0 0 1 550.02 707.86
  L 546.99 708.75
  A 1.72 1.71 -8.5 0 0 545.77 710.39
  L 545.77 721.63
  A 0.77 0.77 0.0 0 1 545.28 722.35
  C 538.24 725.14 527.03 726.28 520.65 721.36
  Q 511.91 714.62 512.75 703.50
  C 512.94 701.03 513.53 697.00 515.12 694.20
  Q 518.78 687.74 524.34 685.69
  Q 532.94 682.52 541.76 687.17
  A 0.62 0.61 31.2 0 0 542.56 686.98
  Q 543.07 686.25 544.14 685.75
  A 0.83 0.83 0.0 0 1 545.32 686.48
  Q 545.53 695.30 545.42 696.97
  Q 545.37 697.67 545.33 697.73
  A 1.12 1.12 0.0 0 1 543.31 697.38
  C 541.91 691.58 539.29 686.12 532.29 686.44
  C 522.94 686.88 519.87 694.84 519.82 703.07
  Q 519.78 708.14 520.18 710.41
  C 521.03 715.30 524.76 721.38 529.83 722.12
  Q 533.76 722.70 537.81 721.52
  A 2.27 2.25 85.0 0 0 539.43 719.58
  Q 539.76 716.29 539.69 714.04
  C 539.56 710.39 539.75 707.35 535.23 707.92
  A 0.90 0.90 0.0 0 1 534.22 706.96
  Z"
/>
<path fill="#f99f2c" d="
  M 477.20 721.44
  L 480.22 721.94
  A 0.72 0.72 0.0 0 1 480.80 722.45
  L 480.91 722.81
  A 0.53 0.53 0.0 0 1 480.43 723.49
  Q 474.92 723.81 470.26 723.83
  Q 469.79 723.84 469.62 723.68
  A 1.27 1.15 -35.1 0 1 470.07 721.72
  Q 470.82 721.37 472.87 720.88
  A 1.26 1.24 3.1 0 0 473.74 720.11
  Q 480.46 702.60 481.75 698.97
  Q 484.33 691.72 487.54 685.94
  A 1.36 1.36 0.0 0 1 489.99 686.11
  L 503.06 719.93
  A 1.48 1.46 3.5 0 0 503.77 720.72
  L 506.60 722.16
  A 0.85 0.84 58.5 0 1 506.22 723.76
  L 492.77 723.76
  A 0.86 0.86 0.0 0 1 492.52 722.07
  L 495.39 721.22
  A 0.81 0.81 0.0 0 0 495.94 720.21
  L 493.20 710.97
  A 1.39 1.38 81.9 0 0 491.87 709.97
  L 480.37 709.97
  A 0.87 0.86 -81.2 0 0 479.55 710.58
  L 476.51 720.33
  A 0.87 0.87 0.0 0 0 477.20 721.44
  Z
  M 485.43 693.89
  L 482.24 704.14
  A 2.93 2.57 -25.4 0 1 481.99 704.72
  L 481.00 706.50
  A 1.15 1.14 -78.3 0 0 482.11 708.20
  L 491.25 707.34
  A 0.44 0.43 -13.0 0 0 491.62 706.75
  L 486.64 693.85
  A 0.64 0.64 0.0 0 0 485.43 693.89
  Z"
/>
<path fill="#023658" d="
  M 485.43 693.89
  A 0.64 0.64 0.0 0 1 486.64 693.85
  L 491.62 706.75
  A 0.44 0.43 -13.0 0 1 491.25 707.34
  L 482.11 708.20
  A 1.15 1.14 -78.3 0 1 481.00 706.50
  L 481.99 704.72
  A 2.93 2.57 -25.4 0 0 482.24 704.14
  L 485.43 693.89
  Z"
/>
<path fill="#f99f2c" d="
  M 441.63 708.54
  Q 441.63 709.72 441.63 711.28
  A 0.69 0.69 0.0 0 1 440.91 711.97
  Q 382.27 709.53 333.40 708.69
  Q 332.92 708.68 332.92 708.34
  Q 332.92 707.99 333.40 707.98
  Q 382.27 707.33 440.92 705.11
  A 0.69 0.69 0.0 0 1 441.64 705.80
  Q 441.63 707.36 441.63 708.54
  Z"
/>
<path fill="#f99f2c" d="
  M 689.23 708.43
  Q 689.23 708.77 688.77 708.78
  Q 640.76 709.51 583.15 711.80
  A 0.68 0.68 0.0 0 1 582.44 711.13
  Q 582.45 709.60 582.44 708.43
  Q 582.44 707.27 582.44 705.74
  A 0.68 0.68 0.0 0 1 583.15 705.06
  Q 640.76 707.35 688.77 708.08
  Q 689.23 708.09 689.23 708.43
  Z"
/>
</svg>
