<?xml version="1.0" encoding="UTF-8"?>
<svg id="Ebene_2" data-name="Ebene 2" xmlns="http://www.w3.org/2000/svg" viewBox="0 0 721.32 537.39">
  <defs>
    <style>
      .cls-1 {
        fill: #f2c05e;
      }

      .cls-2 {
        stroke: #e4b457;
      }

      .cls-2, .cls-3, .cls-4, .cls-5, .cls-6 {
        fill: none;
        stroke-width: 2px;
      }

      .cls-3 {
        stroke: #79602f;
      }

      .cls-4 {
        stroke: #ebcf96;
      }

      .cls-5 {
        stroke: #6b5428;
      }

      .cls-6 {
        stroke: #807b6e;
      }

      .cls-7 {
        fill: #d6a84f;
      }

      .cls-8 {
        fill: #fff6dc;
      }
    </style>
  </defs>
  <g id="Ebene_1-2" data-name="Ebene 1">
    <g>
      <path class="cls-3" d="M359.26,17.62h.09c.09,0,.16,0,.17.02l83.42,66.4c.28.22.69.17.91-.11.09-.11.14-.25.14-.4v-14.88c0-.45-.21-.87-.56-1.15-23.66-18.47-47-37.04-70.02-55.7-4.29-3.48-8.82-7.01-13.58-10.6-.17-.13-.37-.2-.58-.2s-.41.07-.58.2c-4.75,3.59-9.27,7.13-13.56,10.62-22.99,18.69-46.31,37.29-69.94,55.8-.35.28-.56.7-.56,1.15l.02,14.88c0,.36.29.65.65.65.14,0,.28-.05.4-.14l83.33-66.52s.08-.02.17-.02h.08" vector-effect="non-scaling-stroke"/>
      <path class="cls-5" d="M274.98,167.83l-.05,36.82c0,.71.32,1.38.87,1.82l10.79,8.59" vector-effect="non-scaling-stroke"/>
      <path class="cls-6" d="M286.59,215.06l-41.9,36.95c-.16.14-.4.12-.54-.04-.06-.07-.09-.16-.09-.25,0-12.15,0-30.71.02-55.68,0-2.36.55-5.12,1.64-8.27,2.75-7.94,11.45-8.72,18.63-9.23.48-.03.85-.43.85-.92v-1.66c0-.44-.35-.8-.79-.8h-66.55c-.45,0-.81.36-.81.81h0v1.77c0,.58.45,1.05,1.02,1.09,6.25.42,13.8.54,17.49,6.73,1.84,3.09,2.76,6.85,2.76,11.3.03,55.63.02,93.21-.05,112.73,0,2.24-.32,4.8-.93,7.68-2.24,10.41-10.35,11.59-19.58,11.56-.43,0-.8.32-.85.75l-.26,2.11c-.06.41.24.79.65.84.03,0,.06,0,.1,0h66.87c.58,0,1.05-.47,1.05-1.05h0v-1.24c0-.68-.55-1.24-1.23-1.25-5.66-.08-14.72-1.3-17.25-7.09-1.73-3.96-2.65-8.73-2.74-14.32,0-.29-.02-16.03-.05-47.24,0-.58.26-1.12.71-1.48l8.01-6.4c.39-.31.96-.25,1.27.14,0,0,0,0,0,0,4.29,5.59,6.92,8.97,7.89,10.14,24.54,29.69,38.88,47.06,43.01,52.09,2.09,2.54,3.17,4.39,3.25,5.55.57,8.37-6.85,8.55-12.96,8.64-.61.01-1.12.47-1.19,1.07l-.13,1.1c-.08.62.36,1.18.97,1.26.05,0,.09,0,.14,0h69.4c.41,0,.75-.34.75-.75v-1.86c0-.5-.39-.91-.89-.93-9.83-.42-17.8-4.38-23.89-11.87-21.81-26.81-38.42-47.25-49.83-61.33-5.13-6.32-11.54-13.17-16.65-20.14-.34-.47-.27-1.13.17-1.51l48.51-41.57" vector-effect="non-scaling-stroke"/>
      <path class="cls-5" d="M322.6,192.52l.02,54.01c0,.35.16.68.43.9l14.9,12.45c.28.24.69.21.93-.07.1-.12.16-.28.16-.44l.09-77.97" vector-effect="non-scaling-stroke"/>
      <path class="cls-6" d="M339.13,181.4c2.07-.73,4.27-1.32,6.61-1.76,2.69-.51,5.19-.77,7.5-.79.76,0,1.37-.62,1.37-1.38v-1.08c0-.7-.56-1.26-1.25-1.26h-14.41" vector-effect="non-scaling-stroke"/>
      <path class="cls-5" d="M338.95,175.12l-.16-50.87" vector-effect="non-scaling-stroke"/>
      <path class="cls-3" d="M338.79,124.25l.09-30.24c0-.34.15-.66.42-.87l19.43-15.53c.46-.36,1.1-.35,1.55.02l18.93,15.8c.24.2.38.5.38.81l.11,100.09" vector-effect="non-scaling-stroke"/>
      <path class="cls-5" d="M379.7,194.33l.28,6.28" vector-effect="non-scaling-stroke"/>
      <path class="cls-6" d="M379.98,200.61c-14.29,18.21-20.28,42.35-17.39,65.05,2.71,21.33,11.81,38.55,27.31,51.64,32.88,27.77,78.67,21.09,115.11,5.35.59-.25.98-.84.97-1.49-.15-14.54-.11-27.63.13-39.26.17-7.89,4.01-12.51,11.53-13.85,1.75-.32,3.57-.53,5.44-.63.26-.02.47-.24.47-.5v-2.45c0-.36-.29-.65-.64-.65h-62.94c-.31,0-.56.23-.6.53l-.33,2.64c-.04.37.23.71.61.75.01,0,.02,0,.03,0,2.69.13,5.1.33,7.22.6,8.55,1.1,12.94,6.01,13.19,14.74.34,12.34.26,23.36-.23,33.06-.09,1.72-.97,3.8-2.66,6.23-2.1,3.03-7.11,4.42-10.49,5.15-13.85,2.99-31.02,2.61-43.3-4.96-19.9-12.26-29.72-36.27-32.38-59.27-.57-4.89-.68-8.84-.35-11.85" vector-effect="non-scaling-stroke"/>
      <path class="cls-5" d="M390.68,251.44l4.72-3.65c.61-.47.96-1.19.96-1.95l.04-31.35" vector-effect="non-scaling-stroke"/>
      <path class="cls-6" d="M396.4,214.49c2.94-7.83,7.05-14.88,12.32-21.17,5.22-6.23,11.55-10.65,18.99-13.26" vector-effect="non-scaling-stroke"/>
      <path class="cls-5" d="M427.71,180.06l-.16,37.18c0,.34.28.62.62.62.13,0,.26-.04.37-.12l14.16-10.75c.27-.21.48-.49.6-.81.25-.61.39-1.74.42-3.39.13-8.61.12-17.27-.03-26" vector-effect="non-scaling-stroke"/>
      <path class="cls-6" d="M443.69,176.79c13.48-.8,27.31,2.43,37.89,10.69,10.96,8.56,17.35,20.13,19.18,34.72.08.66.64,1.15,1.3,1.15h1.37c.64,0,1.15-.51,1.15-1.15h0v-47.09c0-.83-.69-1.49-1.51-1.49-.57,0-1.09.33-1.34.85-2.6,5.46-7.71,9.28-13.94,6.25-13.85-6.72-28.6-9.93-44.23-9.64" vector-effect="non-scaling-stroke"/>
      <path class="cls-5" d="M443.56,171.08l.22-52" vector-effect="non-scaling-stroke"/>
      <path class="cls-3" d="M443.78,119.08c-.59-.93-1.56-1.88-2.89-2.87-2.19-1.63-3.3-2.44-3.31-2.45-24.18-19.57-50.09-40.4-77.72-62.49-.3-.23-.72-.23-1.02,0l-83.1,66.41c-.62.5-.99,1.25-.98,2.05l.22,48.1" vector-effect="non-scaling-stroke"/>
      <path class="cls-2" d="M443.78,119.08c-.33,4.97-.51,10.74-.53,17.31,0,1.29-.36,2.94-1.06,4.96-.1.29-.39.47-.69.43l-11.46-1.4c-.25-.03-.48.15-.52.41,0,.01,0,.02,0,.03-.41,7.76-.72,14.22-.93,19.38-.09,2.4-.41,4.78-.96,7.14" vector-effect="non-scaling-stroke"/>
      <path class="cls-3" d="M427.63,167.34l-.02-35.94c0-.6-.27-1.17-.74-1.55l-29.66-23.6c-.28-.22-.68-.17-.9.11-.09.11-.14.25-.14.4l.05,11.23" vector-effect="non-scaling-stroke"/>
      <path class="cls-2" d="M396.22,117.99l-1.23,27.5s-.01.08-.03.09c-.01,0-.02.02-.02.05,0,.03-.02.06-.05.05-.03,0-.06-.04-.07-.08-.01-.29-.1-1.72-.25-4.29-.02-.29-.24-.53-.53-.55-4.23-.36-8.3-.2-12.19.47-.32.06-.56.33-.56.66-.35,24.33-.64,40.28-.87,47.84-.03,1.03-.27,2.56-.72,4.6" vector-effect="non-scaling-stroke"/>
      <path class="cls-2" d="M338.79,124.25l-.61,22.18c-.01.35-.24.66-.58.77-6.54,2.07-11.63.74-15.28-3.97" vector-effect="non-scaling-stroke"/>
      <path class="cls-3" d="M322.32,143.23l-.08-36.67c0-.27-.22-.49-.49-.49-.11,0-.22.04-.3.1l-29.71,23.74c-.45.35-.71.89-.72,1.46l-.21,13.72" vector-effect="non-scaling-stroke"/>
      <path class="cls-2" d="M290.81,145.09c-.82-1.38-1.68-2.48-2.59-3.31-1.05-.95-2.31-1.44-3.78-1.46-2.44-.03-4.74-.19-6.9-.49-.6-.08-1.16.34-1.24.94,0,.03,0,.06,0,.08-.41,6.57-.54,13.22-.41,19.94.04,2.08-.26,4.43-.9,7.04" vector-effect="non-scaling-stroke"/>
      <path class="cls-5" d="M427.63,167.34l.18,5.65" vector-effect="non-scaling-stroke"/>
      <path class="cls-6" d="M427.81,172.99c-7.81,1.51-15.16,4.04-22.07,7.61-3.7,1.91-6.91,3.72-9.64,5.45" vector-effect="non-scaling-stroke"/>
      <path class="cls-5" d="M396.1,186.05l.12-68.06" vector-effect="non-scaling-stroke"/>
      <path class="cls-4" d="M338.95,175.12c-5.51.47-11.06.47-16.65,0" vector-effect="non-scaling-stroke"/>
      <path class="cls-4" d="M290.43,211.77l-3.84,3.29" vector-effect="non-scaling-stroke"/>
      <path class="cls-5" d="M322.32,143.23l-.02,31.89" vector-effect="non-scaling-stroke"/>
      <path class="cls-6" d="M322.3,175.12l-22.85-.02c-.58,0-1.05.47-1.05,1.06h0v1.58c0,.56.45,1.02,1.01,1.02.02,0,.04,0,.06,0,4.05-.2,11.04.15,13.94,3.61,2.81,3.35-1.58,10.06-4.21,12.44-6.16,5.57-12.42,11.23-18.77,16.96" vector-effect="non-scaling-stroke"/>
      <path class="cls-5" d="M290.43,211.77c-.19-.81-.09-1.7.3-2.68.06-.15.09-.3.09-.45v-63.55" vector-effect="non-scaling-stroke"/>
      <path class="cls-4" d="M396.1,186.05c-6.01,4.65-11.38,9.5-16.12,14.56" vector-effect="non-scaling-stroke"/>
      <path class="cls-4" d="M443.56,171.08l-15.75,1.91" vector-effect="non-scaling-stroke"/>
      <path class="cls-4" d="M443.69,176.79c-5.33-.35-10.65.74-15.98,3.27" vector-effect="non-scaling-stroke"/>
      <path class="cls-4" d="M396.4,214.49c-4.35,11.45-6.25,23.76-5.72,36.95" vector-effect="non-scaling-stroke"/>
      <path class="cls-4" d="M339.13,181.4c-6.24,1.84-11.75,5.55-16.53,11.12" vector-effect="non-scaling-stroke"/>
      <path class="cls-6" d="M447.65,382.08c0-3.98-3.23-7.21-7.21-7.21s-7.21,3.23-7.21,7.21,3.23,7.21,7.21,7.21h0c3.98,0,7.21-3.23,7.21-7.21h0" vector-effect="non-scaling-stroke"/>
      <path class="cls-6" d="M544.21,382.12c0-3.98-3.22-7.2-7.2-7.2h0c-3.98,0-7.2,3.22-7.2,7.2h0c0,3.98,3.22,7.2,7.2,7.2h0c3.98,0,7.2-3.22,7.2-7.2h0" vector-effect="non-scaling-stroke"/>
      <path class="cls-6" d="M38.12,460.64c-1.83-.06-3.88-.53-6.17-1.41-6.18-2.38-5.76-10.08-5.8-15.19-.06-9.07-.06-26.4-.01-51.98.02-7.54,1.39-13.05,10.53-14.26.66-.09,1.17-.62,1.22-1.28v-.26c.02-.43-.33-.78-.76-.79,0,0,0,0-.01,0H2.16c-.35,0-.64.28-.64.63h0v.91c0,.42.32.76.74.8,2.51.22,4.1.42,4.79.59,6.08,1.55,7.38,6.73,7.4,12.39.05,12.1.06,30.77.04,56-.01,9.34-2.52,13.33-12.45,13.9-.58.03-1.04.52-1.04,1.1v.54c0,.55.44.99.99.99h36.12c.46,0,.83-.37.83-.83h0v-1c0-.46-.36-.83-.82-.85" vector-effect="non-scaling-stroke"/>
      <path class="cls-6" d="M343.22,432.56c-.25-17.58-15.49-31.63-34.04-31.37h0c-18.55.26-33.4,14.72-33.15,32.31.25,17.58,15.49,31.63,34.04,31.37h0c18.55-.26,33.4-14.72,33.15-32.31" vector-effect="non-scaling-stroke"/>
      <path class="cls-6" d="M468.51,443.63l.61,19.25c.02.49.44.87.93.85.19,0,.37-.07.51-.19l2.54-2.03c.56-.45,1.32-.55,1.98-.26,9.91,4.36,21.93,5.8,30.31-1.73,4.8-4.32,6.47-9.62,5.43-15.86-.81-4.79-6.57-9.64-10.61-11.65-5.29-2.63-9.38-4.69-12.29-6.19-5.38-2.78-10.56-6.82-9.06-13.53,1.58-7.05,9.74-9.3,15.85-6.88,6.71,2.66,8.84,8.67,10.55,15.04.2.76.99,1.2,1.77.99.15-.04.29-.1.41-.19.55-.36.82-.77.79-1.23-.33-6.98-.49-12.29-.47-15.94,0-.45-.36-.82-.81-.83-.15,0-.29.04-.42.11l-2.19,1.27c-.29.16-.64.18-.94.04-6.43-3.06-12.57-3.93-18.42-2.62-9.77,2.19-14.68,8.04-14.75,17.56-.08,12.77,15.01,16.04,24.34,21.75,2.75,1.69,4.48,2.95,5.17,3.77,3.29,3.88,3.51,7.75.64,11.62-3.67,4.93-10.23,6.17-16,3.94-7.43-2.85-11.13-9.34-13.11-16.97-.16-.64-.75-1.07-1.41-1.05h-.47c-.5.03-.9.45-.88.96,0,0,0,0,0,0" vector-effect="non-scaling-stroke"/>
      <path class="cls-6" d="M631.08,431.25c-.95-17.56-16.77-30.99-35.34-29.98-18.57,1.01-32.85,16.06-31.9,33.62.95,17.56,16.77,30.99,35.34,29.98s32.85-16.06,31.9-33.62" vector-effect="non-scaling-stroke"/>
      <path class="cls-6" d="M178.84,402.3c-6.16,2.44-11.42,5.43-18.38,6.48-.42.07-.68.28-.77.63-.14.53.12,1.07.57,1.2.04.01.07.02.11.02,2.72.33,4.48.56,5.27.69,1.18.19,2.19.92,2.74,1.98.77,1.5,1.18,3.35,1.23,5.55.07,2.88.11,13.79.1,32.74,0,6.69-2.94,9.9-8.82,9.63-.62-.03-1.14.45-1.17,1.07,0,0,0,0,0,0v.06c-.02.55.41,1.02.97,1.04.03,0,.06,0,.09,0,9.44-.53,18.4-.55,26.88-.07.52.04,1-.32,1.11-.84v-.04c.12-.51-.2-1.01-.7-1.12-.52-.12-1.19-.21-2.02-.27-5.42-.37-6.55-5.89-6.51-10.49.12-13.33.15-22.67.08-28.02-.05-4.55,2.74-7.01,6.28-9.75,3.25-2.51,7.14-3.45,11.67-2.83,7.7,1.06,10.77,9.57,10.91,16.33.09,4.17.1,12.91.03,26.22-.03,5.31-2.8,8.2-8.33,8.67-.56.05-1.06.4-1.3.91l-.02.03c-.16.29-.06.65.22.81.09.05.19.08.29.08l26.28.26c.48,0,.92-.26,1.15-.69l.02-.04c.2-.42.03-.93-.4-1.13-.08-.04-.16-.06-.24-.08-5.02-.73-7.59-2.85-7.7-6.38-.21-6.9-.24-15.48-.07-25.73.08-4.76.22-7.53.42-8.32,2.11-8.2,13.89-13.89,21.4-9.63,5.05,2.87,7.06,8.12,7.23,13.28.23,6.93.31,15.73.24,26.4-.05,7.01-1.82,9.72-8.78,10.22-.56.04-1.01.46-1.08,1.01v.07c-.06.44.25.85.7.91.04,0,.07,0,.11,0l25.99-.06c.51,0,.97-.31,1.17-.79v-.02c.13-.45-.13-.92-.59-1.04-.05-.01-.1-.02-.14-.03-5.14-.5-7.78-3.57-7.92-9.21-.11-3.95-.14-12.95-.1-26.98.04-11.33-5.66-24.91-19.53-23.09-8.13,1.07-15.52,7.82-19.78,14.91-.1.15-.29.19-.44.09-.07-.04-.12-.11-.14-.19-2.04-10.31-11.6-17.25-22.04-14.03-3.75,1.16-9.01,4.77-11.86,8.5-1.13,1.47-2.26,2.75-3.39,3.84-.12.11-.31.11-.42,0-.05-.05-.08-.13-.08-.2v-12.2c0-.22-.17-.39-.39-.39-.05,0-.1.01-.15.03" vector-effect="non-scaling-stroke"/>
      <path class="cls-6" d="M542.94,402.16c-.79.03-1.38.15-1.77.34-4.84,2.36-10.44,4.49-16.8,6.4-.42.13-.69.4-.81.83-.12.42.13.86.55.97.06.02.12.03.18.03,4.85.18,8.8.23,8.85,6.6.14,18.59.17,29.99.08,34.2-.08,3.95-1.11,7.48-5,9.03-.52.21-1.89.44-4.1.7-.44.05-.77.42-.77.86v.31c0,.56.45,1.01,1.01,1.01.02,0,.04,0,.06,0,5.81-.31,14.45-.35,25.91-.14.69.01,1.26-.18,1.71-.57.34-.3.37-.83.07-1.17-.13-.14-.3-.24-.49-.27-3.02-.5-4.83-.68-6.69-3.46-.96-1.44-1.51-3.7-1.64-6.79,0-.2.03-16.35.1-48.45,0-.24-.19-.43-.43-.43,0,0-.01,0-.02,0" vector-effect="non-scaling-stroke"/>
      <path class="cls-6" d="M445.82,402.31c-.78.03-1.37.14-1.76.33-4.83,2.35-10.42,4.46-16.77,6.34-.42.13-.69.4-.81.83-.12.42.13.86.55.97.06.02.11.02.17.03,4.84.19,8.78.25,8.81,6.6.1,18.55.1,29.92,0,34.11-.09,3.94-1.13,7.46-5.01,8.99-.52.21-1.88.44-4.09.69-.44.05-.77.42-.77.86v.31c0,.56.45,1.01,1.01,1.01.02,0,.04,0,.06,0,5.79-.29,14.4-.32,25.83-.08.69.01,1.26-.17,1.71-.56.35-.29.39-.81.09-1.16-.13-.15-.3-.25-.5-.28-3.01-.51-4.82-.69-6.67-3.47-.95-1.44-1.49-3.7-1.62-6.77,0-.2.07-16.31.22-48.32,0-.24-.19-.43-.43-.43,0,0-.01,0-.02,0" vector-effect="non-scaling-stroke"/>
      <path class="cls-6" d="M129.97,410.39c.11.26.16.65.15,1.16-.25,11.01-.28,24.25-.09,39.74.03,2.03-.28,3.84-.93,5.41-1.51,3.67-4.63,4.04-8.36,4.38-.49.05-.87.46-.87.96v.5c0,.44.35.8.79.8.02,0,.03,0,.05,0,8.73-.46,17.61-.39,26.62.21.62.04,1.2-.34,1.4-.93v-.04c.18-.52-.1-1.08-.61-1.25-.03-.01-.06-.02-.1-.03-5.43-1.19-8.3-2.38-8.36-8.74-.16-15.29-.17-28.7-.02-40.23.05-4.69,2.27-7.14,6.66-7.37.62-.03,1.13-.48,1.24-1.08l.05-.24c.07-.32-.13-.63-.45-.7-.04,0-.08-.01-.12-.01h-16.52c-1.1,0-2.13.58-2.69,1.52l-27.71,46.26c-.25.41-.78.54-1.19.3-.12-.08-.23-.18-.3-.31l-27.21-47.14c-.22-.38-.63-.61-1.06-.61h-18.46c-.31,0-.57.26-.57.58,0,.06,0,.12.03.18.08.23.18.4.3.5.24.2.4.31.49.34,3.82.96,7.86,1.68,7.84,6.74-.06,16.51,0,29.04.15,37.61.07,3.83-.38,6.5-1.36,7.99-1.79,2.73-4.3,4.13-7.53,4.22-.58.01-1.05.49-1.05,1.07v.48c0,.28.22.51.5.51h0l21.59-.1c.46,0,.84-.36.87-.82v-.03c.02-.49-.34-.91-.82-.98-5.48-.75-8.22-3.93-8.23-9.54-.03-16.46-.02-29.88.02-40.27,0-.25.21-.45.45-.44.16,0,.3.09.38.22l30.21,52.32c.26.45.84.61,1.29.35.11-.06.2-.15.28-.24l1.06-1.38c.07-.08.13-.16.18-.25l30.97-51.7c.16-.28.52-.37.79-.21.11.07.2.17.25.29" vector-effect="non-scaling-stroke"/>
      <path class="cls-6" d="M387.63,450.5c-.1.25-.38.36-.63.26-.11-.05-.2-.13-.25-.24-6.62-14.07-12.21-26.62-16.76-37.65-1.19-2.87-.74-5.08,1.35-6.65.57-.43,2.17-.87,4.8-1.34.51-.09.87-.56.81-1.08v-.03c-.07-.53-.51-.92-1.04-.91-9.57.14-18.22.14-25.96.01-.52-.01-.96.42-.97.96,0,.02,0,.04,0,.06.01.47.25.77.72.91,3.91,1.22,6.75,3.64,8.5,7.27,7.3,15.16,14.57,30.71,21.81,46.66.87,1.93,1.71,3.61,2.5,5.04.38.67,1.22.91,1.88.54.06-.03.12-.07.18-.12.35-.27.67-.72.96-1.33,4.37-9.4,9.03-19.3,13.98-29.71,1.77-3.73,4.58-9.93,8.43-18.59,2.17-4.9,5.75-8.09,10.72-9.57.58-.16.92-.76.76-1.34-.13-.49-.59-.83-1.1-.8-6.28.19-12.73.18-19.36-.03-.64-.02-1.1.14-1.39.48-.27.31-.24.79.08,1.06.07.07.16.12.25.15,3.95,1.34,7.88,2.45,6.34,7.83-1.26,4.4-4.18,9.28-5.96,14.12-1.54,4.2-3.55,7.48-5.37,11.63-.71,1.61-2.47,5.75-5.28,12.41" vector-effect="non-scaling-stroke"/>
      <path class="cls-6" d="M705.52,449.52l-43.88-46.1c-.29-.31-.71-.48-1.14-.48h-16.43c-.34,0-.61.28-.61.61,0,.25.15.47.39.56,1.23.47,2.73,1,4.49,1.57,4.01,1.31,3.58,4.43,3.59,8.34,0,3.11.05,14.56.15,34.35.02,4.35-.4,7.22-1.26,8.61-1.59,2.56-4.18,3.95-7.77,4.18-.46.03-.81.4-.81.86v.38c0,.4.33.73.74.73h0l21.46-.11c.5,0,.94-.32,1.1-.8v-.03c.13-.44-.14-.9-.58-1.02-.05-.01-.09-.02-.14-.02-8.08-.67-8.83-7.11-8.76-14.43.11-11.33.12-22.91.03-34.73,0-.11.09-.2.2-.2.05,0,.1.02.13.06l49.02,51.5c.34.35.75.62,1.21.78.91.31,1.8.41,2.67.3.31-.04.55-.31.56-.63.14-13.01.15-26.43.02-40.26-.07-7.95-.74-18.38,9.23-18.54.61-.01,1.11-.48,1.16-1.09l.02-.19c.05-.36-.2-.69-.56-.74-.03,0-.06,0-.1,0l-22.61.17c-.36,0-.66.28-.68.65v.03c-.03.48.34.89.83.91,0,0,0,0,.01,0,5.19.16,8.27,4.32,8.72,9.35.13,1.42.19,2.91.18,4.46-.09,15.97-.08,26.21.03,30.72,0,.2-.15.36-.35.37-.1,0-.2-.04-.26-.11" vector-effect="non-scaling-stroke"/>
      <path class="cls-6" d="M395.64,494.79c-1.61-.06-2.46.58-2.57,1.93-.02.28-.27.49-.55.47-.07,0-.14-.03-.2-.06-10.51-5.56-22.67-4.05-30.42,4.77-6.8,7.73-6.42,21.97,2.09,28.67,10.3,8.11,21.05,6.49,32.89,2.68.4-.12.68-.5.68-.93v-11.92c0-1.01.63-1.92,1.57-2.27l2.72-1.02c.16-.06.24-.22.21-.38l-.05-.24c-.07-.29-.34-.49-.64-.46-5.01.5-10.01.52-15.01.07-.3-.05-.59.15-.65.46-.05.3.14.58.44.64l3.58,1.08c1.15.34,1.93,1.41,1.93,2.61v10.57c0,.65-.42,1.21-1.03,1.39-2.79.83-5.59,1.32-8.42,1.48-9.46.54-16.78-6.83-17.94-15.8-.82-6.24.4-13.61,5.03-18.2,5.53-5.48,13.63-5.52,20.12-1.95,3.04,1.67,4.08,5.3,5.12,8.15.14.39.58.59.96.44.15-.06.28-.16.37-.29.11-.18.17-.48.16-.89-.05-3.57-.04-7.08.05-10.53,0-.25-.19-.46-.44-.47" vector-effect="non-scaling-stroke"/>
      <path class="cls-6" d="M301.76,535.38h12.43c.26,0,.48-.19.51-.45l.05-.39c.04-.31-.17-.59-.48-.63,0,0,0,0,0,0l-3.21-.39c-.68-.08-1.17-.7-1.08-1.39,0-.03,0-.06.01-.09.78-3.85,1.99-7.21,3.64-10.08.23-.41.67-.67,1.14-.67h14.95c.4,0,.76.25.9.63l3.64,9.74c.22.58-.07,1.24-.65,1.46,0,0,0,0,0,0l-2.95,1.1c-.26.09-.39.38-.3.64.07.2.26.33.47.33,9.44.16,14.5.2,15.18.13.28-.03.45-.1.5-.2.19-.36.08-.79-.25-.97-.05-.03-.1-.05-.15-.06-1.51-.37-2.38-.59-2.62-.66-1-.31-1.82-1.04-2.25-2l-16.34-36.56c-.28-.63-1.02-.92-1.65-.64-.3.13-.53.37-.65.67-4.12,9.8-6.79,14.96-10.02,23.57-.74,1.98-2.32,5.55-4.75,10.7-.72,1.53-1.42,2.68-2.1,3.44-.11.11-.23.2-.38.26l-3.76,1.48c-.28.1-.42.4-.33.68.08.22.28.36.52.35" vector-effect="non-scaling-stroke"/>
      <path class="cls-3" d="M286.52,518.04c0-.43-.34-.77-.77-.77h-124.56c-.43,0-.77.34-.77.77h0v.34c0,.43.34.77.77.77h124.56c.43,0,.77-.34.77-.77v-.34" vector-effect="non-scaling-stroke"/>
      <path class="cls-3" d="M557.87,518.19c0-.5-.41-.91-.91-.91h-131.08c-.5,0-.91.41-.91.91h0v.04c0,.5.41.91.91.91h131.08c.5,0,.91-.41.91-.91v-.04" vector-effect="non-scaling-stroke"/>
      <path class="cls-6" d="M288.35,433.08c.13,13.37,5.7,28.58,21.55,28.42,15.85-.15,21.12-15.46,20.99-28.83-.13-13.37-5.7-28.58-21.55-28.42-15.85.15-21.12,15.46-20.99,28.83" vector-effect="non-scaling-stroke"/>
      <path class="cls-6" d="M576.16,433c.07,13.36,5.58,28.59,21.42,28.5,15.84-.09,21.17-15.38,21.1-28.74-.08-13.36-5.58-28.58-21.42-28.49-15.84.08-21.17,15.37-21.1,28.73" vector-effect="non-scaling-stroke"/>
      <path class="cls-6" d="M315.2,518.38c-.1.24.01.51.25.61.06.02.12.04.18.04h12.82c.26,0,.47-.21.47-.47,0-.06-.01-.12-.04-.18l-6.41-15.55c-.1-.24-.38-.35-.62-.24-.11.05-.19.13-.24.24l-6.41,15.55" vector-effect="non-scaling-stroke"/>
    </g>
    <path class="cls-1" d="M359.25,1c.21,0,.41.07.58.2,4.76,3.59,9.29,7.12,13.58,10.6,23.02,18.66,46.36,37.23,70.02,55.7.35.28.56.7.56,1.15v14.88c0,.36-.29.65-.65.65-.14,0-.28-.05-.4-.14l-83.42-66.4s-.08-.02-.17-.02h-.17c-.09,0-.16,0-.17.02l-83.33,66.52c-.28.22-.69.17-.91-.11-.09-.11-.14-.25-.14-.4l-.02-14.88c0-.45.21-.87.56-1.15,23.63-18.51,46.95-37.11,69.94-55.8,4.29-3.49,8.81-7.03,13.56-10.62.17-.13.37-.2.58-.2Z"/>
    <path class="cls-1" d="M443.78,119.08c-.33,4.97-.51,10.74-.53,17.31,0,1.29-.36,2.94-1.06,4.96-.1.29-.39.47-.69.43l-11.46-1.4c-.25-.03-.48.15-.52.41,0,.01,0,.02,0,.03-.41,7.76-.72,14.22-.93,19.38-.09,2.4-.41,4.78-.96,7.14l-.02-35.94c0-.6-.27-1.17-.74-1.55l-29.66-23.6c-.28-.22-.68-.17-.9.11-.09.11-.14.25-.14.4l.05,11.23-1.23,27.5s-.01.08-.03.09c-.01,0-.02.02-.02.05,0,.03-.02.06-.05.05-.03,0-.06-.04-.07-.08-.01-.29-.1-1.72-.25-4.29-.02-.29-.24-.53-.53-.55-4.23-.36-8.3-.2-12.19.47-.32.06-.56.33-.56.66-.35,24.33-.64,40.28-.87,47.84-.03,1.03-.27,2.56-.72,4.6l-.11-100.09c0-.31-.14-.61-.38-.81l-18.93-15.8c-.45-.37-1.09-.38-1.55-.02l-19.43,15.53c-.27.21-.42.53-.42.87l-.09,30.24-.61,22.18c-.01.35-.24.66-.58.77-6.54,2.07-11.63.74-15.28-3.97l-.08-36.67c0-.27-.22-.49-.49-.49-.11,0-.22.04-.3.1l-29.71,23.74c-.45.35-.71.89-.72,1.46l-.21,13.72c-.82-1.38-1.68-2.48-2.59-3.31-1.05-.95-2.31-1.44-3.78-1.46-2.44-.03-4.74-.19-6.9-.49-.6-.08-1.16.34-1.24.94,0,.03,0,.06,0,.08-.41,6.57-.54,13.22-.41,19.94.04,2.08-.26,4.43-.9,7.04l-.22-48.1c0-.8.36-1.55.98-2.05l83.1-66.41c.3-.23.72-.23,1.02,0,27.63,22.09,53.54,42.92,77.72,62.49.01,0,1.12.82,3.31,2.45,1.33.99,2.3,1.94,2.89,2.87Z"/>
    <path class="cls-7" d="M396.22,117.99l-.12,68.06c-6.01,4.65-11.38,9.5-16.12,14.56l-.28-6.28c.45-2.04.69-3.57.72-4.6.23-7.56.52-23.51.87-47.84,0-.33.24-.6.56-.66,3.89-.67,7.96-.83,12.19-.47.29.02.51.26.53.55.15,2.57.24,4,.25,4.29,0,.03.03.07.07.08.03,0,.06-.01.05-.05,0-.03,0-.04.02-.05.02,0,.03-.04.03-.09l1.23-27.5Z"/>
    <path class="cls-7" d="M443.56,171.08l-15.75,1.91-.18-5.65c.55-2.36.87-4.74.96-7.14.21-5.16.52-11.62.93-19.38.02-.26.23-.46.49-.44.01,0,.02,0,.03,0l11.46,1.4c.3.04.59-.14.69-.43.7-2.02,1.05-3.67,1.06-4.96.02-6.57.2-12.34.53-17.31l-.22,52Z"/>
    <path class="cls-7" d="M338.79,124.25l.16,50.87c-5.51.47-11.06.47-16.65,0l.02-31.89c3.65,4.71,8.74,6.04,15.28,3.97.34-.11.57-.42.58-.77l.61-22.18Z"/>
    <path class="cls-7" d="M290.81,145.09v63.55c.01.15-.02.3-.08.45-.39.98-.49,1.87-.3,2.68l-3.84,3.29-10.79-8.59c-.55-.44-.87-1.11-.87-1.82l.05-36.82c.64-2.61.94-4.96.9-7.04-.13-6.72,0-13.37.41-19.94.04-.61.56-1.07,1.17-1.03.03,0,.06,0,.08,0,2.16.3,4.46.46,6.9.49,1.47.02,2.73.51,3.78,1.46.91.83,1.77,1.93,2.59,3.31Z"/>
    <path class="cls-8" d="M443.56,171.08c15.63-.29,30.38,2.92,44.23,9.64,6.23,3.03,11.34-.79,13.94-6.25.36-.75,1.26-1.06,2-.7.51.25.84.77.85,1.34v47.09c0,.64-.51,1.15-1.15,1.15h-1.37c-.66,0-1.22-.49-1.3-1.15-1.83-14.59-8.22-26.16-19.18-34.72-10.58-8.26-24.41-11.49-37.89-10.69-5.33-.35-10.65.74-15.98,3.27-7.44,2.61-13.77,7.03-18.99,13.26-5.27,6.29-9.38,13.34-12.32,21.17-4.35,11.45-6.25,23.76-5.72,36.95-.33,3.01-.22,6.96.35,11.85,2.66,23,12.48,47.01,32.38,59.27,12.28,7.57,29.45,7.95,43.3,4.96,3.38-.73,8.39-2.12,10.49-5.15,1.69-2.43,2.57-4.51,2.66-6.23.49-9.7.57-20.72.23-33.06-.25-8.73-4.64-13.64-13.19-14.74-2.12-.27-4.53-.47-7.22-.6-.38-.02-.66-.34-.64-.72,0-.01,0-.02,0-.03l.33-2.64c.04-.3.29-.53.6-.53h62.94c.35,0,.64.29.64.65v2.45c0,.26-.21.48-.47.5-1.87.1-3.69.31-5.44.63-7.52,1.34-11.36,5.96-11.53,13.85-.24,11.63-.28,24.72-.13,39.26,0,.65-.38,1.24-.97,1.49-36.44,15.74-82.23,22.42-115.11-5.35-15.5-13.09-24.6-30.31-27.31-51.64-2.89-22.7,3.1-46.84,17.39-65.05,4.74-5.06,10.11-9.91,16.12-14.56,2.73-1.73,5.94-3.54,9.64-5.45,6.91-3.57,14.26-6.1,22.07-7.61l15.75-1.91Z"/>
    <path class="cls-8" d="M286.59,215.06l3.84-3.29c6.35-5.73,12.61-11.39,18.77-16.96,2.63-2.38,7.02-9.09,4.21-12.44-2.9-3.46-9.89-3.81-13.94-3.61-.56.03-1.04-.4-1.07-.96,0-.02,0-.04,0-.06v-1.58c0-.59.47-1.06,1.05-1.06h0l22.85.02c5.59.47,11.14.47,16.65,0h14.41c.69.01,1.25.57,1.25,1.27h0v1.08c0,.76-.61,1.37-1.37,1.38-2.31.02-4.81.28-7.5.79-2.34.44-4.54,1.03-6.61,1.76-6.24,1.84-11.75,5.55-16.53,11.12l-48.51,41.57c-.44.38-.51,1.04-.17,1.51,5.11,6.97,11.52,13.82,16.65,20.14,11.41,14.08,28.02,34.52,49.83,61.33,6.09,7.49,14.06,11.45,23.89,11.87.5.02.89.43.89.93v1.86c0,.41-.34.75-.75.75h-69.4c-.62,0-1.12-.51-1.12-1.13,0-.05,0-.09,0-.14l.13-1.1c.07-.6.58-1.06,1.19-1.07,6.11-.09,13.53-.27,12.96-8.64-.08-1.16-1.16-3.01-3.25-5.55-4.13-5.03-18.47-22.4-43.01-52.09-.97-1.17-3.6-4.55-7.89-10.14-.3-.39-.87-.46-1.27-.16,0,0,0,0-.01,0l-8.01,6.4c-.45.36-.71.9-.71,1.48.03,31.21.04,46.95.05,47.24.09,5.59,1.01,10.36,2.74,14.32,2.53,5.79,11.59,7.01,17.25,7.09.68.01,1.23.57,1.23,1.25v1.24c0,.58-.47,1.05-1.05,1.05h-66.87c-.42,0-.76-.34-.76-.75,0-.03,0-.06,0-.1l.26-2.11c.05-.43.42-.76.85-.75,9.23.03,17.34-1.15,19.58-11.56.61-2.88.92-5.44.93-7.68.07-19.52.08-57.1.05-112.73,0-4.45-.92-8.21-2.76-11.3-3.69-6.19-11.24-6.31-17.49-6.73-.57-.04-1.02-.51-1.02-1.09v-1.77c0-.45.36-.81.81-.81h66.55c.44,0,.79.36.79.8h0v1.66c0,.49-.37.89-.85.92-7.18.51-15.88,1.29-18.63,9.23-1.09,3.15-1.64,5.91-1.64,8.27-.01,24.97-.02,43.53-.02,55.68,0,.21.17.38.38.38.09,0,.18-.03.25-.09l41.9-36.95Z"/>
    <path class="cls-7" d="M443.69,176.79c.15,8.73.16,17.39.03,26-.03,1.65-.17,2.78-.42,3.39-.12.32-.33.6-.6.81l-14.16,10.75c-.27.2-.66.15-.87-.13-.08-.11-.12-.24-.12-.37l.16-37.18c5.33-2.53,10.65-3.62,15.98-3.27Z"/>
    <path class="cls-7" d="M339.13,181.4l-.09,77.97c0,.36-.29.66-.65.67-.16,0-.32-.05-.44-.16l-14.9-12.45c-.27-.22-.43-.55-.43-.9l-.02-54.01c4.78-5.57,10.29-9.28,16.53-11.12Z"/>
    <path class="cls-7" d="M396.4,214.49l-.04,31.35c0,.76-.35,1.48-.96,1.95l-4.72,3.65c-.53-13.19,1.37-25.5,5.72-36.95Z"/>
    <circle class="cls-8" cx="440.44" cy="382.08" r="7.21"/>
    <circle class="cls-8" cx="537.01" cy="382.12" r="7.2"/>
    <path class="cls-8" d="M38.12,460.64c.46.02.82.39.82.85v1c0,.46-.37.83-.83.83H1.99c-.55,0-.99-.44-.99-.99h0v-.54c0-.58.46-1.07,1.04-1.1,9.93-.57,12.44-4.56,12.45-13.9.02-25.23,0-43.9-.04-56-.02-5.66-1.32-10.84-7.4-12.39-.69-.17-2.28-.37-4.79-.59-.42-.04-.74-.38-.74-.8v-.91c0-.35.29-.63.64-.63h34.96c.43,0,.78.35.78.78,0,0,0,0,0,.01v.26c-.06.66-.57,1.19-1.23,1.28-9.14,1.21-10.51,6.72-10.53,14.26-.05,25.58-.05,42.91.01,51.98.04,5.11-.38,12.81,5.8,15.19,2.29.88,4.34,1.35,6.17,1.41Z"/>
    <path class="cls-8" d="M343.22,432.56c.25,17.58-14.6,32.05-33.15,32.31-18.55.26-33.8-13.78-34.04-31.37h0c-.25-17.58,14.6-32.05,33.15-32.31,18.55-.26,33.8,13.78,34.04,31.37h0ZM288.35,433.08c.13,13.37,5.7,28.58,21.55,28.42,15.85-.15,21.12-15.46,20.99-28.83-.13-13.37-5.7-28.58-21.55-28.42-15.85.15-21.12,15.46-20.99,28.83Z"/>
    <path class="cls-8" d="M468.51,443.63c-.02-.51.38-.93.88-.95,0,0,0,0,0,0h.47c.66-.03,1.25.4,1.41,1.04,1.98,7.63,5.68,14.12,13.11,16.97,5.77,2.23,12.33.99,16-3.94,2.87-3.87,2.65-7.74-.64-11.62-.69-.82-2.42-2.08-5.17-3.77-9.33-5.71-24.42-8.98-24.34-21.75.07-9.52,4.98-15.37,14.75-17.56,5.85-1.31,11.99-.44,18.42,2.62.3.14.65.12.94-.04l2.19-1.27c.39-.23.89-.09,1.12.3.07.13.11.27.11.42-.02,3.65.14,8.96.47,15.94.03.46-.24.87-.79,1.23-.67.44-1.57.26-2-.39-.08-.12-.14-.26-.18-.41-1.71-6.37-3.84-12.38-10.55-15.04-6.11-2.42-14.27-.17-15.85,6.88-1.5,6.71,3.68,10.75,9.06,13.53,2.91,1.5,7,3.56,12.29,6.19,4.04,2.01,9.8,6.86,10.61,11.65,1.04,6.24-.63,11.54-5.43,15.86-8.38,7.53-20.4,6.09-30.31,1.73-.66-.29-1.42-.19-1.98.26l-2.54,2.03c-.39.3-.95.24-1.25-.15-.12-.15-.18-.33-.19-.51l-.61-19.25Z"/>
    <path class="cls-8" d="M631.08,431.25c.95,17.56-13.33,32.62-31.9,33.62s-34.39-12.42-35.34-29.98c-.95-17.56,13.33-32.62,31.9-33.62,18.57-1.01,34.39,12.42,35.34,29.98ZM576.16,433c.07,13.36,5.58,28.59,21.42,28.5,15.84-.09,21.17-15.38,21.1-28.74-.08-13.36-5.58-28.58-21.42-28.49-15.84.08-21.17,15.37-21.1,28.73Z"/>
    <path class="cls-8" d="M178.84,402.3c.2-.08.43.01.51.21.02.05.03.1.03.15v12.2c0,.16.13.29.29.29.08,0,.15-.03.21-.08,1.13-1.09,2.26-2.37,3.39-3.84,2.85-3.73,8.11-7.34,11.86-8.5,10.44-3.22,20,3.72,22.04,14.03.04.17.21.28.39.24.08-.02.15-.07.19-.14,4.26-7.09,11.65-13.84,19.78-14.91,13.87-1.82,19.57,11.76,19.53,23.09-.04,14.03,0,23.03.1,26.98.14,5.64,2.78,8.71,7.92,9.21.47.04.81.46.77.93,0,.05-.01.1-.03.14v.02c-.21.48-.67.79-1.18.79l-25.99.06c-.45,0-.82-.37-.82-.81,0-.04,0-.07,0-.11v-.07c.07-.55.52-.97,1.08-1.01,6.96-.5,8.73-3.21,8.78-10.22.07-10.67-.01-19.47-.24-26.4-.17-5.16-2.18-10.41-7.23-13.28-7.51-4.26-19.29,1.43-21.4,9.63-.2.79-.34,3.56-.42,8.32-.17,10.25-.14,18.83.07,25.73.11,3.53,2.68,5.65,7.7,6.38.46.07.78.5.72.97-.01.08-.04.17-.08.24l-.02.04c-.23.43-.67.7-1.15.69l-26.28-.26c-.33,0-.59-.27-.59-.6,0-.1.03-.2.08-.29l.02-.03c.24-.51.74-.86,1.3-.91,5.53-.47,8.3-3.36,8.33-8.67.07-13.31.06-22.05-.03-26.22-.14-6.76-3.21-15.27-10.91-16.33-4.53-.62-8.42.32-11.67,2.83-3.54,2.74-6.33,5.2-6.28,9.75.07,5.35.04,14.69-.08,28.02-.04,4.6,1.09,10.12,6.51,10.49.83.06,1.5.15,2.02.27.5.11.82.61.71,1.12v.04c-.12.52-.6.88-1.12.84-8.48-.48-17.44-.46-26.88.07-.56.03-1.03-.4-1.06-.95,0-.03,0-.06,0-.09v-.06c.03-.62.55-1.1,1.17-1.07,0,0,0,0,0,0,5.88.27,8.82-2.94,8.82-9.63,0-18.95-.03-29.86-.1-32.74-.05-2.2-.46-4.05-1.23-5.55-.55-1.06-1.56-1.79-2.74-1.98-.79-.13-2.55-.36-5.27-.69-.47-.05-.78-.54-.71-1.09,0-.04.01-.09.03-.13.09-.35.35-.56.77-.63,6.96-1.05,12.22-4.04,18.38-6.48Z"/>
    <path class="cls-8" d="M542.94,402.16c.24-.01.44.17.45.41,0,0,0,.01,0,.02-.07,32.1-.11,48.25-.1,48.45.13,3.09.68,5.35,1.64,6.79,1.86,2.78,3.67,2.96,6.69,3.46.45.07.76.5.69.95-.03.19-.13.36-.27.49-.45.39-1.02.58-1.71.57-11.46-.21-20.1-.17-25.91.14-.56.03-1.04-.39-1.07-.95,0-.02,0-.04,0-.06v-.31c0-.44.33-.81.77-.86,2.21-.26,3.58-.49,4.1-.7,3.89-1.55,4.92-5.08,5-9.03.09-4.21.06-15.61-.08-34.2-.05-6.37-4-6.42-8.85-6.6-.44-.02-.78-.38-.76-.82,0-.06.01-.12.03-.18.12-.43.39-.7.81-.83,6.36-1.91,11.96-4.04,16.8-6.4.39-.19.98-.31,1.77-.34Z"/>
    <path class="cls-8" d="M445.82,402.31c.24-.01.44.17.45.41,0,0,0,.01,0,.02-.15,32.01-.23,48.12-.22,48.32.13,3.07.67,5.33,1.62,6.77,1.85,2.78,3.66,2.96,6.67,3.47.45.08.76.5.69.95-.03.19-.13.37-.28.49-.45.39-1.02.57-1.71.56-11.43-.24-20.04-.21-25.83.08-.56.03-1.04-.39-1.07-.95,0-.02,0-.04,0-.06v-.31c0-.44.33-.81.77-.86,2.21-.25,3.57-.48,4.09-.69,3.88-1.53,4.92-5.05,5.01-8.99.1-4.19.1-15.56,0-34.11-.03-6.35-3.97-6.41-8.81-6.6-.44-.02-.77-.39-.75-.83,0-.06.01-.11.03-.17.12-.43.39-.7.81-.83,6.35-1.88,11.94-3.99,16.77-6.34.39-.19.98-.3,1.76-.33Z"/>
    <path class="cls-8" d="M129.97,410.39c-.12-.3-.45-.44-.75-.33-.12.05-.22.13-.29.25l-30.97,51.7c-.05.09-.11.17-.18.25l-1.06,1.38c-.31.41-.91.49-1.32.17-.1-.08-.18-.17-.25-.28l-30.21-52.32c-.12-.21-.39-.29-.6-.16-.14.08-.22.23-.23.38-.04,10.39-.05,23.81-.02,40.27,0,5.61,2.75,8.79,8.23,9.54.48.07.84.49.82.98v.03c-.03.46-.41.82-.87.82l-21.59.1c-.28,0-.5-.23-.5-.51h0v-.48c0-.58.47-1.06,1.05-1.07,3.23-.09,5.74-1.49,7.53-4.22.98-1.49,1.43-4.16,1.36-7.99-.16-8.57-.21-21.1-.15-37.61.02-5.06-4.02-5.78-7.84-6.74-.09-.03-.25-.14-.49-.34-.12-.1-.22-.27-.3-.5-.1-.3.06-.63.36-.73.06-.02.12-.03.18-.03h18.46c.43,0,.84.23,1.06.61l27.21,47.14c.24.41.76.55,1.18.31.13-.07.23-.18.31-.3l27.71-46.26c.56-.94,1.59-1.52,2.69-1.52h16.52c.32,0,.58.26.58.59,0,.04,0,.08-.01.12l-.05.24c-.11.6-.62,1.05-1.24,1.08-4.39.23-6.61,2.68-6.66,7.37-.15,11.53-.14,24.94.02,40.23.06,6.36,2.93,7.55,8.36,8.74.53.12.87.65.75,1.18,0,.03-.02.06-.03.1v.04c-.21.59-.79.97-1.41.93-9.01-.6-17.89-.67-26.62-.21-.44.03-.81-.31-.84-.75,0-.02,0-.03,0-.05v-.5c0-.5.38-.91.87-.96,3.73-.34,6.85-.71,8.36-4.38.65-1.57.96-3.38.93-5.41-.19-15.49-.16-28.73.09-39.74,0-.51-.04-.9-.15-1.16Z"/>
    <path class="cls-8" d="M387.63,450.5c2.81-6.66,4.57-10.8,5.28-12.41,1.82-4.15,3.83-7.43,5.37-11.63,1.78-4.84,4.7-9.72,5.96-14.12,1.54-5.38-2.39-6.49-6.34-7.83-.4-.14-.61-.57-.48-.96.03-.09.08-.18.15-.25.29-.34.75-.5,1.39-.48,6.63.21,13.08.22,19.36.03.6-.03,1.11.44,1.14,1.04.02.51-.31.97-.8,1.1-4.97,1.48-8.55,4.67-10.72,9.57-3.85,8.66-6.66,14.86-8.43,18.59-4.95,10.41-9.61,20.31-13.98,29.71-.29.61-.61,1.06-.96,1.33-.6.47-1.47.36-1.94-.24-.04-.06-.08-.11-.12-.18-.79-1.43-1.63-3.11-2.5-5.04-7.24-15.95-14.51-31.5-21.81-46.66-1.75-3.63-4.59-6.05-8.5-7.27-.47-.14-.71-.44-.72-.91-.02-.54.39-1,.91-1.02.02,0,.04,0,.06,0,7.74.13,16.39.13,25.96-.01.53-.01.97.38,1.03.91v.03c.07.52-.29.99-.8,1.08-2.63.47-4.23.91-4.8,1.34-2.09,1.57-2.54,3.78-1.35,6.65,4.55,11.03,10.14,23.58,16.76,37.65.11.24.4.35.64.23.11-.05.2-.14.24-.25Z"/>
    <path class="cls-8" d="M705.52,449.52c.13.14.35.15.5.01.07-.07.11-.17.11-.27-.11-4.51-.12-14.75-.03-30.72,0-1.55-.05-3.04-.18-4.46-.45-5.03-3.53-9.19-8.72-9.35-.49-.02-.87-.42-.85-.9,0,0,0,0,0-.01v-.03c.03-.37.33-.65.69-.65l22.61-.17c.36,0,.66.29.67.65,0,.03,0,.06,0,.1l-.02.19c-.05.61-.55,1.08-1.16,1.09-9.97.16-9.3,10.59-9.23,18.54.13,13.83.12,27.25-.02,40.26,0,.32-.25.59-.56.63-.87.11-1.76.01-2.67-.3-.46-.16-.87-.43-1.21-.78l-49.02-51.5c-.07-.08-.19-.08-.27,0-.04.04-.06.09-.06.14.09,11.82.08,23.4-.03,34.73-.07,7.32.68,13.76,8.76,14.43.46.04.79.44.75.9,0,.05-.01.09-.02.14v.03c-.17.48-.61.8-1.11.8l-21.46.11c-.41,0-.74-.33-.74-.73h0v-.38c0-.46.35-.83.81-.86,3.59-.23,6.18-1.62,7.77-4.18.86-1.39,1.28-4.26,1.26-8.61-.1-19.79-.15-31.24-.15-34.35-.01-3.91.42-7.03-3.59-8.34-1.76-.57-3.26-1.1-4.49-1.57-.31-.11-.47-.46-.35-.77.09-.24.32-.39.57-.4h16.43c.43,0,.85.17,1.14.48l43.88,46.1Z"/>
    <path class="cls-8" d="M395.64,494.79c.25.01.45.22.44.47-.09,3.45-.1,6.96-.05,10.53,0,.41-.05.71-.16.89-.23.35-.69.44-1.04.22-.13-.09-.24-.22-.29-.37-1.04-2.85-2.08-6.48-5.12-8.15-6.49-3.57-14.59-3.53-20.12,1.95-4.63,4.59-5.85,11.96-5.03,18.2,1.16,8.97,8.48,16.34,17.94,15.8,2.83-.16,5.63-.65,8.42-1.48.61-.18,1.03-.74,1.03-1.39v-10.57c0-1.2-.78-2.27-1.93-2.61l-3.58-1.08c-.3-.06-.5-.36-.43-.66.06-.3.35-.49.64-.44,5,.45,10,.43,15.01-.07.3-.03.57.17.64.46l.05.24c.03.16-.05.32-.21.38l-2.72,1.02c-.94.35-1.57,1.26-1.57,2.27v11.92c0,.43-.28.81-.68.93-11.84,3.81-22.59,5.43-32.89-2.68-8.51-6.7-8.89-20.94-2.09-28.67,7.75-8.82,19.91-10.33,30.42-4.77.25.13.56.04.69-.21.03-.06.05-.13.06-.2.11-1.35.96-1.99,2.57-1.93Z"/>
    <path class="cls-8" d="M301.76,535.38c-.29,0-.54-.22-.54-.51,0-.23.14-.44.35-.52l3.76-1.48c.15-.06.27-.15.38-.26.68-.76,1.38-1.91,2.1-3.44,2.43-5.15,4.01-8.72,4.75-10.7,3.23-8.61,5.9-13.77,10.02-23.57.26-.64.99-.94,1.63-.68.3.12.54.36.67.65l16.34,36.56c.43.96,1.25,1.69,2.25,2,.24.07,1.11.29,2.62.66.36.09.57.47.47.86-.02.06-.04.11-.07.17-.05.1-.22.17-.5.2-.68.07-5.74.03-15.18-.13-.28,0-.5-.22-.5-.5,0-.21.13-.4.33-.47l2.95-1.1c.58-.22.88-.87.66-1.45,0,0,0,0,0,0l-3.64-9.74c-.14-.38-.5-.63-.9-.63h-14.95c-.47,0-.91.26-1.14.67-1.65,2.87-2.86,6.23-3.64,10.08-.13.68.3,1.33.98,1.47.03,0,.06.01.09.01l3.21.39c.31.04.53.31.49.62,0,0,0,0,0,0l-.05.39c-.03.26-.25.45-.51.45h-12.43ZM315.2,518.38c-.1.24.01.51.25.61.06.02.12.04.18.04h12.82c.26,0,.47-.21.47-.47,0-.06-.01-.12-.04-.18l-6.41-15.55c-.1-.24-.38-.35-.62-.24-.11.05-.19.13-.24.24l-6.41,15.55Z"/>
    <rect class="cls-1" x="160.42" y="517.27" width="126.1" height="1.88" rx=".77" ry=".77"/>
    <rect class="cls-1" x="424.97" y="517.28" width="132.9" height="1.86" rx=".91" ry=".91"/>
  </g>
</svg>